<svg width="1146" height="820" viewBox="0 0 1146 820" fill="none" xmlns="http://www.w3.org/2000/svg">
<g clip-path="url(#clip0)">
<path opacity="0.1" d="M1127.43 551.22C1100.86 606.03 1046.91 642.68 991 666.85C915.73 699.4 832.84 712.31 751.09 706.85C736.763 705.897 722.48 704.373 708.24 702.28C658.784 695.065 610.568 681.024 564.97 660.56C551.81 654.633 538.917 648.163 526.29 641.15C505.2 629.461 484.993 616.245 465.83 601.61C461.01 597.93 456.257 594.157 451.57 590.29C448.32 587.61 445.1 584.87 441.83 582.21C434.93 576.6 427.83 571.27 419.91 567.28C417.52 566.075 415.07 564.994 412.57 564.04C387.49 554.5 358.57 558.1 332.46 565.54C312.6 571.2 293.24 578.95 273.4 584.48C264.575 587.015 255.583 588.926 246.49 590.2C226.189 592.77 205.572 590.959 186.03 584.89L184.36 584.37C181.56 583.49 178.783 582.527 176.03 581.48L174.36 580.84C171.693 579.813 169.083 578.71 166.53 577.53L164.86 576.77C162.193 575.53 159.583 574.22 157.03 572.84C156.11 572.36 155.2 571.84 154.3 571.35C139.773 563.236 126.568 552.955 115.14 540.86C114.81 540.53 114.5 540.19 114.14 539.86C112.55 538.14 110.99 536.39 109.48 534.6C108.92 533.94 108.36 533.28 107.81 532.6C106.017 530.413 104.287 528.177 102.62 525.89C102.37 525.56 102.13 525.22 101.89 524.89C95.0615 515.443 89.4004 505.206 85.03 494.4C84.89 494.07 84.76 493.73 84.64 493.4C83.3066 489.967 82.09 486.477 80.99 482.93C80.54 481.45 80.11 479.93 79.73 478.45C79.6 478.01 79.48 477.56 79.37 477.12C73.85 455.39 73.22 432.8 73.22 410.34C73.22 407.72 73.22 405.103 73.22 402.49C73.38 366.16 73.94 329.21 79.3 293.38C79.3 293.13 79.37 292.88 79.41 292.64C81.2039 280.578 83.6441 268.62 86.72 256.82C89.9392 244.438 94.0533 232.306 99.03 220.52C111.36 191.52 129.29 165.13 149.2 140.67C199.35 79.1199 265.12 27.4499 342.1 8.10989C425.05 -12.7201 517.24 7.23989 584.15 60.5099C604.55 76.7499 622.88 95.9799 645.79 108.43C665.79 119.27 689.2 123.76 710.62 115.23C728.32 108.18 739.84 104.68 759.72 105.75C800.876 108.078 841.449 116.576 880.08 130.96C881.64 131.53 883.2 132.12 884.75 132.71C985.46 171.24 1072.03 247.79 1117.03 346.16C1118.22 348.76 1119.38 351.38 1120.5 354.02C1147.33 416.69 1157.03 490.14 1127.43 551.22Z" fill="#0070E0"/>
<path d="M1053.98 107.75H128.63C121.732 107.75 116.14 113.342 116.14 120.24V633.59C116.14 640.488 121.732 646.08 128.63 646.08H1053.98C1060.88 646.08 1066.47 640.488 1066.47 633.59V120.24C1066.47 113.342 1060.88 107.75 1053.98 107.75Z" fill="url(#paint0_linear)"/>
<path d="M1052.58 115.32H130.14C123.242 115.32 117.65 120.912 117.65 127.81V631.8C117.65 638.698 123.242 644.29 130.14 644.29H1052.58C1059.48 644.29 1065.07 638.698 1065.07 631.8V127.81C1065.07 120.912 1059.48 115.32 1052.58 115.32Z" fill="white"/>
<path d="M1052.58 115.32H130.14C123.242 115.32 117.65 120.912 117.65 127.81V631.8C117.65 638.698 123.242 644.29 130.14 644.29H1052.58C1059.48 644.29 1065.07 638.698 1065.07 631.8V127.81C1065.07 120.912 1059.48 115.32 1052.58 115.32Z" fill="white"/>
<path opacity="0.04" d="M1052.58 115.32H130.14C123.242 115.32 117.65 120.912 117.65 127.81V631.8C117.65 638.698 123.242 644.29 130.14 644.29H1052.58C1059.48 644.29 1065.07 638.698 1065.07 631.8V127.81C1065.07 120.912 1059.48 115.32 1052.58 115.32Z" fill="white"/>
<path d="M1060.26 109.25H122.46C121.184 109.25 119.961 109.757 119.059 110.659C118.157 111.561 117.65 112.784 117.65 114.06V134.39H1065.03V114.06C1065.03 112.791 1064.53 111.574 1063.64 110.673C1062.74 109.772 1061.53 109.261 1060.26 109.25Z" fill="#5A5773"/>
<path d="M136.57 128.32C140.16 128.32 143.07 125.41 143.07 121.82C143.07 118.23 140.16 115.32 136.57 115.32C132.98 115.32 130.07 118.23 130.07 121.82C130.07 125.41 132.98 128.32 136.57 128.32Z" fill="white"/>
<path d="M154.07 128.32C157.66 128.32 160.57 125.41 160.57 121.82C160.57 118.23 157.66 115.32 154.07 115.32C150.48 115.32 147.57 118.23 147.57 121.82C147.57 125.41 150.48 128.32 154.07 128.32Z" fill="white"/>
<path d="M171.57 128.32C175.16 128.32 178.07 125.41 178.07 121.82C178.07 118.23 175.16 115.32 171.57 115.32C167.98 115.32 165.07 118.23 165.07 121.82C165.07 125.41 167.98 128.32 171.57 128.32Z" fill="white"/>
<path opacity="0.2" d="M449.93 181.67H195.68V203.25H449.93V181.67Z" fill="#0070E0"/>
<path opacity="0.1" d="M987.04 268.2H195.68V600.16H987.04V268.2Z" fill="#5A5773"/>
<path opacity="0.1" d="M659.03 289.85H645.48V263.53C645.48 233.83 621.8 209.14 592.1 208.69C584.938 208.615 577.833 209.958 571.192 212.641C564.552 215.325 558.508 219.296 553.41 224.325C548.311 229.355 544.258 235.344 541.485 241.948C538.711 248.551 537.272 255.638 537.25 262.8V289.85H523.73C517.755 289.868 512.03 292.25 507.805 296.475C503.58 300.7 501.199 306.425 501.18 312.4V420.62C501.199 426.595 503.58 432.32 507.805 436.545C512.03 440.77 517.755 443.152 523.73 443.17H659.03C665.004 443.152 670.728 440.769 674.951 436.544C679.175 432.319 681.554 426.594 681.57 420.62V312.4C681.554 306.426 679.175 300.701 674.951 296.476C670.728 292.251 665.004 289.869 659.03 289.85ZM599.28 360.2V398.96C599.293 401.012 598.526 402.993 597.133 404.501C595.74 406.008 593.827 406.93 591.78 407.08C590.711 407.13 589.644 406.963 588.642 406.588C587.639 406.214 586.724 405.64 585.95 404.902C585.176 404.163 584.559 403.275 584.138 402.292C583.717 401.308 583.5 400.25 583.5 399.18V360.18C579.842 358.396 576.896 355.425 575.144 351.751C573.391 348.077 572.936 343.918 573.851 339.953C574.767 335.987 576.999 332.448 580.185 329.915C583.37 327.381 587.32 326.001 591.39 326.001C595.46 326.001 599.41 327.381 602.595 329.915C605.781 332.448 608.013 335.987 608.929 339.953C609.844 343.918 609.389 348.077 607.636 351.751C605.884 355.425 602.938 358.396 599.28 360.18V360.2ZM629.72 289.85H553.03V262.8C553.03 252.634 557.068 242.885 564.257 235.697C571.445 228.508 581.194 224.47 591.36 224.47C601.526 224.47 611.275 228.508 618.463 235.697C625.652 242.885 629.69 252.634 629.69 262.8L629.72 289.85Z" fill="black"/>
<path d="M659.03 287.85H645.48V261.53C645.48 231.83 621.8 207.14 592.1 206.69C584.938 206.615 577.833 207.958 571.192 210.641C564.552 213.325 558.508 217.296 553.41 222.325C548.311 227.355 544.258 233.344 541.485 239.948C538.711 246.551 537.272 253.638 537.25 260.8V287.85H523.73C517.755 287.868 512.03 290.25 507.805 294.475C503.58 298.7 501.199 304.425 501.18 310.4V418.62C501.199 424.595 503.58 430.32 507.805 434.545C512.03 438.77 517.755 441.152 523.73 441.17H659.03C665.004 441.152 670.728 438.769 674.951 434.544C679.175 430.319 681.554 424.594 681.57 418.62V310.4C681.554 304.426 679.175 298.701 674.951 294.476C670.728 290.251 665.004 287.869 659.03 287.85V287.85ZM599.28 358.2V396.96C599.293 399.012 598.526 400.993 597.133 402.501C595.74 404.008 593.827 404.93 591.78 405.08C590.711 405.13 589.644 404.963 588.642 404.588C587.639 404.214 586.724 403.64 585.95 402.902C585.176 402.163 584.559 401.275 584.138 400.292C583.717 399.308 583.5 398.25 583.5 397.18V358.18C579.842 356.396 576.896 353.425 575.144 349.751C573.391 346.077 572.936 341.918 573.851 337.953C574.767 333.987 576.999 330.448 580.185 327.915C583.37 325.381 587.32 324.001 591.39 324.001C595.46 324.001 599.41 325.381 602.595 327.915C605.781 330.448 608.013 333.987 608.929 337.953C609.844 341.918 609.389 346.077 607.636 349.751C605.884 353.425 602.938 356.396 599.28 358.18V358.2ZM629.72 287.85H553.03V260.8C553.03 250.634 557.068 240.885 564.257 233.697C571.445 226.508 581.194 222.47 591.36 222.47C601.526 222.47 611.275 226.508 618.463 233.697C625.652 240.885 629.69 250.634 629.69 260.8L629.72 287.85Z" fill="#0070E0"/>
<path opacity="0.1" d="M987.04 236.25H906.94V255.16H987.04V236.25Z" fill="#5A5773"/>
<path opacity="0.1" d="M864.4 453.06C864.326 454.407 864.136 455.746 863.83 457.06C863.83 456.69 863.83 456.48 863.75 456.45C863.45 456.37 863.81 454.84 864.4 453.06Z" fill="black"/>
</g>
<defs>
<linearGradient id="paint0_linear" x1="591.3" y1="646.08" x2="591.3" y2="107.75" gradientUnits="userSpaceOnUse">
<stop stop-color="#808080" stop-opacity="0.25"/>
<stop offset="0.54" stop-color="#808080" stop-opacity="0.12"/>
<stop offset="1" stop-color="#808080" stop-opacity="0.1"/>
</linearGradient>
<clipPath id="clip0">
<rect width="1145.57" height="819.91" fill="white"/>
</clipPath>
</defs>
</svg>
