<svg xmlns="http://www.w3.org/2000/svg" width="507.732" height="382.009" viewBox="0 0 507.732 382.009">
  <g id="Group_884" data-name="Group 884" transform="translate(-315.407 -299.275)">
    <g id="Group_876" data-name="Group 876" transform="translate(21 -31)">
      <g id="Group_842" data-name="Group 842" transform="translate(664.645 446.832)">
        <rect id="Rectangle_242" data-name="Rectangle 242" width="1.152" height="0.576" transform="translate(55.294 40.448)" fill="#d3dae3"/>
        <path id="Path_116" data-name="Path 116" d="M334.391,368.476H329.9V367.9h4.486Zm-8.972,0h-4.486V367.9h4.486Zm-8.972,0H311.96V367.9h4.486Zm-9.094,0h-4.486V367.9h4.486Zm-8.972,0h-4.486V367.9h4.486Zm-9.094,0H284.8V367.9h4.486Z" transform="translate(-281.228 -327.452)" fill="#d3dae3"/>
        <path id="Path_117" data-name="Path 117" d="M280.04,367.84H278.6V366.4h.576v.864h.864Z" transform="translate(-278.6 -326.816)" fill="#d3dae3"/>
        <path id="Path_118" data-name="Path 118" d="M279.176,367.966H278.6v-4.789h.576Zm0-9.7H278.6v-4.789h.576Zm0-9.579H278.6V343.9h.576Zm0-9.7H278.6V334.2h.576Z" transform="translate(-278.6 -330.686)" fill="#d3dae3"/>
        <rect id="Rectangle_243" data-name="Rectangle 243" width="0.576" height="1.152" fill="#d3dae3"/>
      </g>
      <path id="Path_126" data-name="Path 126" d="M805.1,359.01H591.4V191.9H811.174V352.933A6.1,6.1,0,0,1,805.1,359.01Z" transform="translate(-9.035 147.49)" fill="#e8ebef"/>
      <path id="Path_127" data-name="Path 127" d="M595.039,359.01H550.477a6.1,6.1,0,0,1-6.077-6.077V191.9h50.639Z" transform="translate(-9.636 147.49)" fill="#fff" stroke="rgba(112,112,112,0.06)" stroke-width="1"/>
      <rect id="Rectangle_248" data-name="Rectangle 248" width="31.396" height="4.051" transform="translate(544.892 366.736)" fill="#d3dae3"/>
      <rect id="Rectangle_249" data-name="Rectangle 249" width="31.396" height="4.051" transform="translate(544.892 382.94)" fill="#d3dae3"/>
      <rect id="Rectangle_250" data-name="Rectangle 250" width="31.396" height="4.051" transform="translate(544.892 399.145)" fill="#d3dae3"/>
      <rect id="Rectangle_251" data-name="Rectangle 251" width="31.396" height="4.051" transform="translate(544.892 415.349)" fill="#d3dae3"/>
      <rect id="Rectangle_252" data-name="Rectangle 252" width="31.396" height="4.051" transform="translate(544.892 431.554)" fill="#d3dae3"/>
      <rect id="Rectangle_253" data-name="Rectangle 253" width="12.153" height="38.486" transform="translate(665.413 450.797)" fill="#fff"/>
      <rect id="Rectangle_254" data-name="Rectangle 254" width="12.153" height="26.332" transform="translate(681.618 462.95)" fill="#eeeff1"/>
      <rect id="Rectangle_255" data-name="Rectangle 255" width="12.153" height="14.179" transform="translate(697.822 475.104)" fill="#fff"/>
      <rect id="Rectangle_256" data-name="Rectangle 256" width="12.153" height="32.409" transform="translate(714.027 456.873)" fill="#eeeff1"/>
      <path id="Path_128" data-name="Path 128" d="M633.656,272.6H613.4V230.066L633.656,216.9Z" transform="translate(-8.754 147.81)" fill="#fff"/>
      <path id="Path_129" data-name="Path 129" d="M633.4,272.6h20.256V240.194L633.4,216.9Z" transform="translate(-8.498 147.81)" fill="#dddfe0"/>
      <path id="Path_130" data-name="Path 130" d="M673.656,272.309H653.4V239.9l20.256,7.089Z" transform="translate(-8.243 148.104)" fill="#fff"/>
      <path id="Path_131" data-name="Path 131" d="M673.4,272.22h20.256V249.938L673.4,246.9Z" transform="translate(-7.987 148.194)" fill="#dddfe0"/>
      <path id="Path_132" data-name="Path 132" d="M713.656,272.6H693.4V250.322L713.656,216.9Z" transform="translate(-7.731 147.81)" fill="#fff"/>
      <path id="Path_133" data-name="Path 133" d="M713.4,272.6h20.256V230.066L713.4,216.9Z" transform="translate(-7.476 147.81)" fill="#dddfe0"/>
      <rect id="Rectangle_257" data-name="Rectangle 257" width="7.089" height="7.089" transform="translate(750.487 379.902)" fill="#fff"/>
      <rect id="Rectangle_258" data-name="Rectangle 258" width="20.256" height="1.013" transform="translate(763.653 383.447)" fill="#fff"/>
      <rect id="Rectangle_259" data-name="Rectangle 259" width="7.089" height="7.089" transform="translate(750.487 394.081)" fill="#dddfe0"/>
      <rect id="Rectangle_260" data-name="Rectangle 260" width="20.256" height="1.013" transform="translate(763.653 397.626)" fill="#fff"/>
      <path id="Path_134" data-name="Path 134" d="M787.277,271.989H760.945a3.588,3.588,0,0,1-3.545-3.545h0a3.588,3.588,0,0,1,3.545-3.545h26.332a3.588,3.588,0,0,1,3.545,3.545h0A3.588,3.588,0,0,1,787.277,271.989Z" transform="translate(-6.913 148.424)" fill="#d3dae3"/>
      <g id="Group_846" data-name="Group 846" transform="translate(747.449 453.329)">
        <rect id="Rectangle_261" data-name="Rectangle 261" width="36.46" height="1.013" fill="#fff"/>
        <rect id="Rectangle_262" data-name="Rectangle 262" width="36.46" height="1.013" transform="translate(0 9.115)" fill="#fff"/>
        <rect id="Rectangle_263" data-name="Rectangle 263" width="36.46" height="1.013" transform="translate(0 18.23)" fill="#fff"/>
        <rect id="Rectangle_264" data-name="Rectangle 264" width="36.46" height="1.013" transform="translate(0 27.345)" fill="#fff"/>
        <rect id="Rectangle_265" data-name="Rectangle 265" width="36.46" height="1.013" transform="translate(0 36.46)" fill="#fff"/>
      </g>
      <g id="Group_863" data-name="Group 863" transform="translate(747.449 453.329)">
        <rect id="Rectangle_261-2" data-name="Rectangle 261" width="36.46" height="1.013" fill="#fff"/>
        <rect id="Rectangle_262-2" data-name="Rectangle 262" width="36.46" height="1.013" transform="translate(0 9.115)" fill="#fff"/>
        <rect id="Rectangle_263-2" data-name="Rectangle 263" width="36.46" height="1.013" transform="translate(0 18.23)" fill="#fff"/>
        <rect id="Rectangle_264-2" data-name="Rectangle 264" width="36.46" height="1.013" transform="translate(0 27.345)" fill="#fff"/>
        <rect id="Rectangle_265-2" data-name="Rectangle 265" width="36.46" height="1.013" transform="translate(0 36.46)" fill="#fff"/>
      </g>
      <rect id="Rectangle_266" data-name="Rectangle 266" width="62.793" height="1.013" transform="translate(664.4 490.802)" fill="#e8ebef"/>
      <path id="Path_135" data-name="Path 135" d="M811.775,199.1H544.4V188.977a6.1,6.1,0,0,1,6.077-6.077H805.7a6.1,6.1,0,0,1,6.077,6.077Z" transform="translate(-9.636 147.375)" fill="#d3dae3"/>
      <ellipse id="Ellipse_16" data-name="Ellipse 16" cx="3.038" cy="3.038" rx="3.038" ry="3.038" transform="translate(542.765 335.339)" fill="#fff"/>
      <ellipse id="Ellipse_17" data-name="Ellipse 17" cx="3.038" cy="3.038" rx="3.038" ry="3.038" transform="translate(553.906 335.339)" fill="#fff"/>
      <ellipse id="Ellipse_18" data-name="Ellipse 18" cx="3.038" cy="3.038" rx="3.038" ry="3.038" transform="translate(565.046 335.339)" fill="#fff"/>
    </g>
    <g id="Group_867" data-name="Group 867" transform="translate(218.427 4.502)">
      <g id="Screen_1" transform="translate(97.48 340.874)">
        <g id="Group_850" data-name="Group 850" transform="translate(0 0)">
          <path id="Path_136" data-name="Path 136" d="M415.319,291.865H250.4V162.9H420.008V287.175A4.7,4.7,0,0,1,415.319,291.865Z" transform="translate(-213.665 -155.741)" fill="#e8ebef"/>
          <path id="Path_137" data-name="Path 137" d="M242.48,291.865H208.09a4.7,4.7,0,0,1-4.69-4.69V162.9h39.08Z" transform="translate(-203.4 -155.741)" fill="#fff" stroke="rgba(112,112,112,0.06)" stroke-width="1"/>
          <rect id="Rectangle_267" data-name="Rectangle 267" width="24.23" height="3.126" transform="translate(7.816 28.262)" fill="#d3dae3"/>
          <rect id="Rectangle_268" data-name="Rectangle 268" width="24.23" height="3.126" transform="translate(7.816 40.768)" fill="#d3dae3"/>
          <rect id="Rectangle_269" data-name="Rectangle 269" width="24.23" height="3.126" transform="translate(7.816 53.274)" fill="#d3dae3"/>
          <rect id="Rectangle_270" data-name="Rectangle 270" width="24.23" height="3.126" transform="translate(7.816 65.779)" fill="#d3dae3"/>
          <rect id="Rectangle_271" data-name="Rectangle 271" width="24.23" height="3.126" transform="translate(7.816 78.285)" fill="#d3dae3"/>
          <rect id="Rectangle_272" data-name="Rectangle 272" width="5.471" height="5.471" transform="translate(111.77 29.825)" fill="#d3dae3"/>
          <rect id="Rectangle_273" data-name="Rectangle 273" width="13.287" height="0.782" transform="translate(121.93 32.561)" fill="#d3dae3"/>
          <rect id="Rectangle_274" data-name="Rectangle 274" width="5.471" height="5.471" transform="translate(111.77 41.549)" fill="#d3dae3"/>
          <rect id="Rectangle_275" data-name="Rectangle 275" width="13.287" height="0.782" transform="translate(121.93 44.285)" fill="#d3dae3"/>
          <rect id="Rectangle_276" data-name="Rectangle 276" width="5.471" height="5.471" transform="translate(111.77 52.492)" fill="#d3dae3"/>
          <rect id="Rectangle_277" data-name="Rectangle 277" width="13.287" height="0.782" transform="translate(121.93 55.228)" fill="#d3dae3"/>
          <rect id="Rectangle_278" data-name="Rectangle 278" width="5.471" height="5.471" transform="translate(111.77 63.434)" fill="#d3dae3"/>
          <rect id="Rectangle_279" data-name="Rectangle 279" width="13.287" height="0.782" transform="translate(121.93 66.17)" fill="#d3dae3"/>
          <rect id="Rectangle_280" data-name="Rectangle 280" width="30.483" height="0.782" transform="translate(161.792 32.561)" fill="#d3dae3"/>
          <rect id="Rectangle_281" data-name="Rectangle 281" width="30.483" height="0.782" transform="translate(161.792 39.595)" fill="#d3dae3"/>
          <rect id="Rectangle_282" data-name="Rectangle 282" width="30.483" height="0.782" transform="translate(161.792 46.63)" fill="#d3dae3"/>
          <rect id="Rectangle_283" data-name="Rectangle 283" width="30.483" height="0.782" transform="translate(161.792 53.664)" fill="#d3dae3"/>
          <rect id="Rectangle_284" data-name="Rectangle 284" width="30.483" height="0.782" transform="translate(161.792 60.699)" fill="#d3dae3"/>
          <g id="Group_848" data-name="Group 848" transform="translate(52.758 86.492)">
            <path id="Path_138" data-name="Path 138" d="M324.049,302.7H270.9V264.4h53.149Zm-52.368-.782h51.586V265.182H271.682Z" transform="translate(-270.9 -264.4)" fill="#e8ebef"/>
            <rect id="Rectangle_285" data-name="Rectangle 285" width="0.782" height="37.517" transform="translate(14.069 0.391)" fill="#fff"/>
            <rect id="Rectangle_286" data-name="Rectangle 286" width="52.368" height="0.782" transform="translate(0.391 9.379)" fill="#fff"/>
            <rect id="Rectangle_287" data-name="Rectangle 287" width="52.368" height="0.782" transform="translate(0.391 18.759)" fill="#fff"/>
            <rect id="Rectangle_288" data-name="Rectangle 288" width="52.368" height="0.782" transform="translate(0.391 28.138)" fill="#fff"/>
          </g>
          <path id="Path_139" data-name="Path 139" d="M409.744,166.53H203.4v-7.894a4.727,4.727,0,0,1,4.69-4.736H405.054a4.727,4.727,0,0,1,4.69,4.736Z" transform="translate(-203.4 -153.9)" fill="#d3dae3"/>
          <ellipse id="Ellipse_19" data-name="Ellipse 19" cx="2.345" cy="2.345" rx="2.345" ry="2.345" transform="translate(6.175 4.032)" fill="#fff"/>
          <ellipse id="Ellipse_20" data-name="Ellipse 20" cx="2.345" cy="2.345" rx="2.345" ry="2.345" transform="translate(14.772 4.032)" fill="#fff"/>
          <ellipse id="Ellipse_21" data-name="Ellipse 21" cx="2.345" cy="2.345" rx="2.345" ry="2.345" transform="translate(23.37 4.032)" fill="#fff"/>
          <g id="Group_849" data-name="Group 849" transform="translate(52.8 24.393)">
            <path id="Path_140" data-name="Path 140" d="M297.009,216.6l-7.66,23.526A23.763,23.763,0,0,1,277,231.138Z" transform="translate(-272.274 -191.862)" fill="#d3dae3"/>
            <path id="Path_141" data-name="Path 141" d="M300.482,216.6l20.009,14.538a24.322,24.322,0,0,1-27.591,8.988Z" transform="translate(-275.746 -191.862)" fill="#d3dae3"/>
            <path id="Path_142" data-name="Path 142" d="M302.6,211.009,317.138,191a24.725,24.725,0,0,1,5.471,34.469h0Z" transform="translate(-277.865 -186.271)" fill="#d3dae3"/>
            <path id="Path_143" data-name="Path 143" d="M295.689,209.688l-20.009,14.538a24.644,24.644,0,0,1,5.471-34.469,24.387,24.387,0,0,1,29.076,0Z" transform="translate(-270.953 -184.95)" fill="#d3dae3"/>
          </g>
          <g id="Group_864" data-name="Group 864" transform="translate(52.8 24.393)">
            <path id="Path_140-2" data-name="Path 140" d="M297.009,216.6l-7.66,23.526A23.763,23.763,0,0,1,277,231.138Z" transform="translate(-272.274 -191.862)" fill="#d3dae3"/>
            <path id="Path_141-2" data-name="Path 141" d="M300.482,216.6l20.009,14.538a24.322,24.322,0,0,1-27.591,8.988Z" transform="translate(-275.746 -191.862)" fill="#d3dae3"/>
            <path id="Path_142-2" data-name="Path 142" d="M302.6,211.009,317.138,191a24.725,24.725,0,0,1,5.471,34.469h0Z" transform="translate(-277.865 -186.271)" fill="#d3dae3"/>
            <path id="Path_143-2" data-name="Path 143" d="M295.689,209.688l-20.009,14.538a24.644,24.644,0,0,1,5.471-34.469,24.387,24.387,0,0,1,29.076,0Z" transform="translate(-270.953 -184.95)" fill="#d3dae3"/>
          </g>
          <path id="Path_144" data-name="Path 144" d="M300.526,207.1a7.364,7.364,0,0,0-7.035,9.692,7.4,7.4,0,0,0,9.3,4.768,7.293,7.293,0,0,0,5.159-7.034A7.473,7.473,0,0,0,300.526,207.1Z" transform="translate(-222.991 -165.394)" fill="#fff"/>
          <ellipse id="Ellipse_22" data-name="Ellipse 22" cx="1.563" cy="1.563" rx="1.563" ry="1.563" transform="translate(58.62 90.009)" fill="#fff"/>
          <ellipse id="Ellipse_23" data-name="Ellipse 23" cx="1.563" cy="1.563" rx="1.563" ry="1.563" transform="translate(58.62 99.388)" fill="#fff"/>
          <ellipse id="Ellipse_24" data-name="Ellipse 24" cx="1.563" cy="1.563" rx="1.563" ry="1.563" transform="translate(58.62 108.768)" fill="#fff"/>
          <ellipse id="Ellipse_25" data-name="Ellipse 25" cx="1.563" cy="1.563" rx="1.563" ry="1.563" transform="translate(58.62 118.147)" fill="#fff"/>
        </g>
      </g>
      <path id="Path_176" data-name="Path 176" d="M628.836,259.349H613.4V226.933L628.836,216.9Z" transform="translate(-390.053 200.817)" fill="#fff"/>
      <path id="Path_177" data-name="Path 177" d="M633.4,259.349h15.436v-24.7L633.4,216.9Z" transform="translate(-394.617 200.817)" fill="#dddfe0"/>
      <path id="Path_178" data-name="Path 178" d="M668.836,264.6H653.4V239.9l15.436,5.4Z" transform="translate(-399.181 195.569)" fill="#fff"/>
      <path id="Path_179" data-name="Path 179" d="M673.4,266.2h15.436v-16.98L673.4,246.9Z" transform="translate(-403.745 193.972)" fill="#dddfe0"/>
    </g>
    <g id="Group_877" data-name="Group 877">
      <g id="Group_844" data-name="Group 844" transform="translate(628.072 612.49)">
        <rect id="Rectangle_246" data-name="Rectangle 246" width="0.006" fill="#6a9ad3"/>
      </g>
      <path id="Path_175" data-name="Path 175" d="M3.135.784,89.269,0A3.135,3.135,0,0,1,92.4,3.135V107.42a3.135,3.135,0,0,1-3.135,3.135H3.135A3.135,3.135,0,0,1,0,107.42V3.135C0,1.4,1.4.784,3.135.784Z" transform="translate(496.344 554.906)" fill="none" stroke="#d3dae3" stroke-width="23"/>
      <path id="Path_180" data-name="Path 180" d="M2.281.457,64.934,0a2.092,2.092,0,0,1,2.281,1.828v60.8a2.092,2.092,0,0,1-2.281,1.828H2.281A2.092,2.092,0,0,1,0,62.624V1.828C0,.818,1.021.457,2.281.457Z" transform="translate(439.535 604.333)" fill="none" stroke="#e8ebef" stroke-width="18"/>
      <g id="Man_1_" transform="translate(473.485 401.242)">
        <g id="Man">
          <path id="Path_145" data-name="Path 145" d="M365.8,380.418c-3.135,2.393-4.785,7.508-4.7,11.386.247,7.26,4.125,13.036,16.5,19.636,17.821,9.488,50.905,20.379,57.175,22.194,8.663,2.475,10.066,2.64,10.066,2.64a24.1,24.1,0,0,0,3.548-6.023,37.16,37.16,0,0,0,2.558-9.24s-25.329-16.253-32.672-20.709c-21.039-12.623-22.276-12.623-28.051-16.748C383.623,378.768,371.577,375.88,365.8,380.418Z" transform="translate(-340.482 -251.786)" fill="#0070e0"/>
          <path id="Path_146" data-name="Path 146" d="M419.278,492.4s-2.558,9.57-2.888,10.148c-.247.578.5,4.538,2.97,6.765s8.085,2.64,8.085,2.64-.33-4.7.66-6.435c.99-1.815,3.465-7.013,3.465-7.013Z" transform="translate(-350.148 -271.775)" fill="#5c636e"/>
          <path id="Path_147" data-name="Path 147" d="M416.107,499.4a11.116,11.116,0,0,0-1.32,2.723c-.413,1.4,1.32,4.785,1.238,11.056-.083,6.848,4.125,11.22,5.693,11.8,3.63,1.237,5.528-.743,5.858-4.868.082-1.155.33-4.208.33-6.683s-.247-5.858-.247-5.858-.247,2.558-1.155,1.155c-1.32-2.228-3.878-2.145-5.94-.33-2.31,2.063-3.548-.66-3.63-2.145a38.155,38.155,0,0,1,.247-5.033Z" transform="translate(-349.865 -273)" fill="#8e9298"/>
          <path id="Path_148" data-name="Path 148" d="M464.1,445.812a28.6,28.6,0,0,0,5.94,2.063c2.475.412,6.27.412,7.673-1.65,1.815-2.64-.578-4.785-2.31-7.013a43.481,43.481,0,0,0-6.765-6.353C465.833,430.8,464.1,445.812,464.1,445.812Z" transform="translate(-358.503 -261.324)" fill="#8e9298"/>
          <path id="Path_149" data-name="Path 149" d="M430.013,432.432c7.755,2.723,13.861,4.7,16.253,5.363.412.082.825.247,1.155.33l.165-22.441c-6.93-4.455-14.438-9.158-17.9-11.221-1.238-.743-2.31-1.4-3.383-2.063a111.453,111.453,0,0,1,8.25,8.333c4.125,4.538,1.238,8.663-1.733,16.171C431.993,428.884,430.013,432.432,430.013,432.432Z" transform="translate(-351.89 -256.029)" fill="#144682"/>
          <path id="Path_150" data-name="Path 150" d="M417.862,400.181c1.238.165,8.25,5.115,10.725,6.435,2.475,1.4,4.785,4.29,3.135,7.178s-13.613,34.487-16.913,45.212a141.441,141.441,0,0,0-4.373,17.491s.083,4.785,6.435,7.838c4.95,2.393,8.663,1.073,8.663,1.073s12.541-21.286,27.061-47.275c5.2-9.241,5.28-10.726,8.58-19.8,3.548-9.736,3.96-16.913-2.393-26.566A74.228,74.228,0,0,0,450.7,381.7l-60.476.412L387.5,383.35C387.417,383.433,416.624,400.016,417.862,400.181Z" transform="translate(-345.102 -252.408)" fill="#0070e0"/>
          <path id="Path_151" data-name="Path 151" d="M451.908,381.9,393,382.313c.5.33.908.578,1.4.908,7.26,5.2,21.2,14.026,28.216,18.976,7.1,5.033,8.085,5.858,9.323,6.6-1.65-2.145-7.178-8.745-7.343-12.046-.247-6.023,2.64-7.59,8.085-9.9,4.455-1.9,12.293-5.693,19.883-4.29A3.679,3.679,0,0,1,451.908,381.9Z" transform="translate(-346.064 -252.442)" fill="#123f9a"/>
          <path id="Path_152" data-name="Path 152" d="M414.995,278.34c-3.63.33-16.088,1.32-26.4,7.1a30.663,30.663,0,0,0-10.726,10.808c-4.7,8.745-4.538,15.346-5.775,30.031-.908,10.808,16.088,3.8,16.088,3.8s-1.073,15.841-2.063,23.679c-.908,7.178,1.238,6.6,1.238,6.6s9.488,14.521,32.837,8c22.111-6.188,28.876-3.713,28.876-3.713s1.073-3.135-.413-8.5c-7.92-28.051,4.29-56.02,2.805-60.146S448.739,284.528,434.3,280.4C426.463,278.092,422.668,277.68,414.995,278.34Z" transform="translate(-342.4 -234.274)" fill="#a1d286"/>
          <path id="Path_153" data-name="Path 153" d="M446.986,320.791s-2.228,17.161-4.29,21.2c-2.063,3.96-11.716,16.748-17.326,19.636s-13.861,5.94-19.141,4.95c-5.2-.99-10.065,3.053-11.8-14.438-1.815-17.491-3.3-30.527-3.3-30.527l-1.568,16.5a18.118,18.118,0,0,0-2.063-1.4c1.9-.578,2.475,29.124,2.475,29.124s9.488,14.521,32.837,8c22.111-6.188,28.876-3.713,28.876-3.713s1.073-3.135-.413-8.5c-5.693-20.3-.908-40.51,1.568-51.73C447.068,312.375,446.986,320.791,446.986,320.791Z" transform="translate(-345.102 -239.846)" fill="#01a901"/>
          <path id="Path_154" data-name="Path 154" d="M413.523,262.088s.825,8.5,0,10.561a5.309,5.309,0,0,1-2.723,2.805s2.393,6.435,10.973,6.023c8.91-.495,10.973-7.425,10.973-7.425s-2.475-.577-2.888-2.723c-.412-2.228-1.073-18.728-1.073-18.728Z" transform="translate(-349.178 -229.82)" fill="#f4bba2"/>
          <path id="Path_155" data-name="Path 155" d="M433.323,274.051s-2.475-.578-2.888-2.723c-.413-2.228-1.073-18.728-1.073-18.728L414.1,262.088s.165,1.65.248,3.713a10.55,10.55,0,0,0,6.848,2.228c6.023,0,5.775-.413,6.765,1.485s3.465,7.673,3.465,7.673l1.485-1.568A2.366,2.366,0,0,0,433.323,274.051Z" transform="translate(-349.755 -229.821)" fill="#eaa48c"/>
          <path id="Path_156" data-name="Path 156" d="M401.97,242.269a150.53,150.53,0,0,0,5.858,15.181c3.053,6.848,9.24,8.828,14.6,4.868,3.8-2.888,5.363-10.148,5.363-10.148s2.063-2.063,2.063-4.208a2.8,2.8,0,0,0-2.393-3.135,16.913,16.913,0,0,0-5.28-9.24C417.728,231.708,400.072,229.893,401.97,242.269Z" transform="translate(-347.608 -226.337)" fill="#f4bba2"/>
          <path id="Path_157" data-name="Path 157" d="M428.615,244.3s1.65-6.023,1.4-8.168c-.247-2.228-.165-4.208-3.548-6.848-2.805-2.228-2.64-2.558-6.105-3.96a7.212,7.212,0,0,0-5.775.66c-5.2,2.723-5.528-2.723-11.3,2.558a9.811,9.811,0,0,0-3.3,7.92c0,2.558-.578,4.785,1.65,7.755a27.5,27.5,0,0,1,2.888,5.033s-.5-2.063-.908-4.043c-.33-1.815-1.485-2.888-.082-3.135s6.683,5.28,12.706-2.558c2.475-3.135,2.145.578,4.455,1.238s1.485-2.393,2.888,1.568a19.9,19.9,0,0,1,.743,5.445l.99-.5s.413-2.805,1.9-3.218A1.025,1.025,0,0,1,428.615,244.3Z" transform="translate(-347.274 -224.99)" fill="#2b394b"/>
          <path id="Path_158" data-name="Path 158" d="M448.728,373.437a23.368,23.368,0,0,1-3.713,2.145,4.647,4.647,0,0,1-3.713-.165c-.825-.413-1.485,2.64-2.063,3.053s-1.238.165-1.238-.99a29.318,29.318,0,0,1,.66-3.96,3.42,3.42,0,0,0-2.063,1.238c-.825,1.073-1.568,3.8-2.063,3.96-.413.165-1.485.165-1.073-1.4.413-1.485.99-3.053,1.073-3.548s-1.485,1.4-2.64,4.455c-.248.66-1.733.743-1.32-1.073a13.918,13.918,0,0,1,1.4-3.878,10.814,10.814,0,0,1,1.073-1.4,26.179,26.179,0,0,0-3.465,3.053c-.825,1.073-1.4,3.218-2.393,2.805s-.33-1.568.495-3.548a9.334,9.334,0,0,1,4.538-4.538c1.9-.825,7.425-1.4,7.425-1.4s4.538-.743,6.023.165C449.553,370.714,448.728,373.437,448.728,373.437Z" transform="translate(-351.96 -250.002)" fill="#f4bba2"/>
          <path id="Path_159" data-name="Path 159" d="M451.114,282.2s7.641,1.863,12.981,5.589c3.867,2.673,7,5.184,12.521,18.956,5.34,13.123,7.181,18.065,8.194,23.735.552,2.835,2.025,7.858-5.892,14.1C464.1,356.24,450.93,358.1,450.93,358.1a15.375,15.375,0,0,0-3.59-4.05c-3.038-2.592-5.34-1.863-5.34-1.863A96.492,96.492,0,0,1,453.968,341.9c5.708-3.807,9.667-8.02,9.759-8.992.184-.972-2.117-8.344-6.721-15.634S449.365,300.751,451.114,282.2Z" transform="translate(-354.637 -233.596)" fill="#a1d286"/>
          <path id="Path_160" data-name="Path 160" d="M407.3,372.827H347.9l-11.716-38.282a1.664,1.664,0,0,1,1.568-2.145h55.36a2.583,2.583,0,0,1,2.393,1.733Z" transform="translate(-336.111 -243.782)" fill="#5c636e"/>
          <path id="Path_161" data-name="Path 161" d="M429.6,381.4H350.4l.413,1.32a1.687,1.687,0,0,0,1.568,1.155h75.244a1.687,1.687,0,0,0,1.568-1.155Z" transform="translate(-338.611 -252.355)" fill="#2b2b2b"/>
          <path id="Path_162" data-name="Path 162" d="M410.98,279.6s1.485,5.693,8.5,5.94c9.818.33,12.376-7.343,12.376-7.343l1.98.413s-2.31,8.91-13.531,8.993c-10.231.083-11.3-7.425-11.3-7.425Z" transform="translate(-348.863 -234.299)" fill="#01a901"/>
          <path id="Path_163" data-name="Path 163" d="M362.021,321.66a.3.3,0,0,1-.247-.083.4.4,0,0,1,0-.578,10.241,10.241,0,0,1,7.59-3.3,10.041,10.041,0,0,1,7.26,3.053.408.408,0,1,1-.578.577,9.438,9.438,0,0,0-6.683-2.805,9.812,9.812,0,0,0-7.013,3.053C362.269,321.578,362.1,321.66,362.021,321.66Z" transform="translate(-340.579 -241.21)" fill="#203c66"/>
          <path id="Path_164" data-name="Path 164" d="M352.421,312.125a.3.3,0,0,1-.248-.083.4.4,0,0,1,0-.578,21.227,21.227,0,0,1,15.511-6.765,20.713,20.713,0,0,1,15.181,6.518.408.408,0,0,1-.578.577,20.159,20.159,0,0,0-29.454.248C352.669,312.043,352.586,312.125,352.421,312.125Z" transform="translate(-338.9 -238.936)" fill="#203c66"/>
          <path id="Path_165" data-name="Path 165" d="M443.3,366.5l-1.4,1.65a4.816,4.816,0,0,1,3.548.99,18.662,18.662,0,0,1,4.538,5.033l1.815-.33a9.01,9.01,0,0,0-3.383-5.115C445.2,366.167,443.3,366.5,443.3,366.5Z" transform="translate(-354.619 -249.745)" fill="#01a901"/>
        </g>
      </g>
      <path id="Path_187" data-name="Path 187" d="M3.514.274,100.04,0c1.941,0,3.514.49,3.514,1.094V37.487c0,.6-1.573,1.094-3.514,1.094H3.514C1.573,38.581,0,38.091,0,37.487V1.094C0,.49,1.573.274,3.514.274Z" transform="translate(595.535 633.203)" fill="none" stroke="#f5f6f8" stroke-width="19"/>
    </g>
  </g>
</svg>
