<svg width="151" height="160" viewBox="0 0 151 160" fill="none" xmlns="http://www.w3.org/2000/svg">
<path d="M45.5758 42.3995C45.5758 42.3995 48.2505 49.6167 47.9395 52.0438C47.6285 54.4708 53.5377 53.5766 57.5186 48.4671C61.4994 43.3575 46.2601 41.6969 46.2601 41.6969L45.5758 42.3995Z" fill="#00313B"/>
<path d="M103.758 125.091L96.8591 124.658L92.6467 96.9745L90.2048 85.1718L88.0681 124.164L76.7129 113.844C76.7129 113.844 75.2478 83.3179 75.7361 73.678C75.8582 70.8973 76.835 62.3078 76.835 62.3078L81.4137 61.381L91.3037 49.4546L93.5625 53.4712C93.8677 53.9656 94.4172 55.3251 94.7835 55.8195C95.2719 56.4374 96.5539 57.6733 96.5539 57.6733C96.6149 57.7351 96.8591 57.3643 96.9202 57.4261C100.095 60.8866 103.758 65.5829 103.33 75.9026C103.025 82.8236 100.461 102.474 100.461 102.474L103.758 125.091Z" fill="#35AD80"/>
<path d="M113.704 38.7879L108.606 37.701L108.846 32.9697L114.424 33.7369L113.704 38.7879Z" fill="#A5E1D2"/>
<path d="M49.4325 110.425C41.0581 108.944 32.5596 107.772 24.1232 109.376C15.7488 111.042 7.43643 115.915 2.97012 124.12C-1.4962 132.324 -1.06192 144.045 5.20334 150.275C8.49104 153.483 12.8953 154.963 17.2375 155.518C29.9542 157.246 42.8569 152.496 55.6976 152.372C76.9748 152.126 98.0658 164.401 118.785 158.294C126.166 156.135 132.37 153.113 139.007 148.795C142.915 146.204 147.506 142.009 149.367 137.382C152.034 130.72 148.684 122.701 143.349 118.691C138.077 114.681 131.377 113.818 124.926 113.448C118.474 113.016 111.899 112.954 105.944 110.178" fill="#A5E1D2"/>
<path d="M28.7807 128.619C28.8447 128.424 28.8446 128.228 28.8446 128.098C28.8446 126.533 27.6288 125.229 26.0931 125.164C25.4532 124.512 24.6214 124.121 23.6616 124.121C22.5098 124.121 21.4858 124.708 20.8459 125.621C20.6539 125.555 20.398 125.555 20.206 125.555C18.6703 125.555 17.4545 126.794 17.4545 128.359C17.4545 129.923 18.6703 131.162 20.206 131.162C20.334 131.162 20.462 131.162 20.59 131.097C21.1019 131.814 21.9978 131.879 22.9576 131.879C23.9175 131.879 24.8133 131.814 25.3252 131.097C25.5171 131.162 25.7092 131.162 25.9012 131.162C26.0932 131.162 26.221 131.162 26.413 131.097C27.4368 131.292 29.1006 131.162 29.8044 130.836C30.0604 130.705 30.0605 130.445 30.0605 130.249C29.9965 129.467 29.4846 128.88 28.7807 128.619Z" fill="white"/>
<path d="M80.6188 85.3333L26.1819 79.6146L49.9284 66.0637C50.1144 66.0015 50.2383 65.9394 50.4243 65.9394L98.9092 70.7257" fill="#00313B"/>
<path d="M97.9082 123.748L79.5153 139.636L80.5162 85.1807L98.9092 70.7879L98.1585 123.188C98.1585 123.374 98.0959 123.624 97.9082 123.748Z" fill="#12555A"/>
<path d="M106.554 84.1095L98.9089 70.7879L80.4847 85.3034L89.3208 98.2479C89.5715 98.8763 90.3235 99.1276 90.8248 98.6878L106.178 85.4919C106.617 85.1777 106.805 84.6122 106.554 84.1095Z" fill="#007272"/>
<path d="M79.4359 139.636L28.712 132.887C28.5268 132.887 28.4034 132.699 28.4034 132.449L26.1819 79.5151L80.4849 85.0773L79.4359 139.636Z" fill="#00313B"/>
<path d="M80.4848 85.1363L73.9292 101.052C73.6818 101.558 73.187 101.873 72.6304 101.81L19.1344 94.9259C18.4541 94.7995 18.2066 94.1048 18.6396 93.4732L26.061 79.5151L80.4848 85.1363Z" fill="#12555A"/>
<path d="M121.935 109.576L88.2424 104.94L100.9 97.173C101.211 96.9923 101.583 96.9321 101.955 96.9923L129.939 100.123" fill="#007272"/>
<path d="M129.293 129.37L121.212 141.576L121.6 109.668L129.939 99.8788L129.552 128.937C129.487 129.06 129.422 129.246 129.293 129.37Z" fill="#12555A"/>
<path d="M121.212 141.333L88.5546 136.727C88.5546 136.727 79.7884 143.758 80.5292 143.818L113.434 148.364L121.212 141.333Z" fill="#007272"/>
<path d="M121.807 141.576L88.8039 136.845L88.2424 104.727L122.182 109.52L121.807 141.576Z" fill="#00313B"/>
<path d="M122.182 109.509L116.811 120.646C116.624 121.023 116.187 121.212 115.75 121.212L82.9661 116.116C82.4041 116.053 82.2792 115.549 82.5915 115.109L88.0242 104.979V104.916L88.274 104.727L122.182 109.509Z" fill="#007272"/>
<path d="M60.2568 46.6605C62.3638 36.0774 72.5892 32.3826 73.5187 32.1948C78.6624 31.0049 77.6709 35.639 79.592 36.0147C83.4342 36.7036 88.7638 40.3357 92.4202 47.3494C93.0399 48.5392 95.2709 53.2985 96.0145 54.8014C96.3244 55.4903 96.8202 57.0558 97.9357 58.3083C98.0596 58.4335 94.961 61.1889 91.7385 63.318C89.3836 64.8835 86.4709 66.4491 82.9385 66.7622C80.3976 67.0127 76.3695 67.0127 76.4314 66.1986L76.4934 65.4471C76.5554 63.5058 76.6173 62.3786 75.3779 60.3748L74.8202 59.7486C74.7582 59.7486 74.1385 60.0617 74.1385 60.0617C70.4821 61.6272 66.7638 59.7486 65.0906 56.9932L63.4173 53.2985C63.4793 53.2985 59.3272 51.2946 60.2568 46.6605Z" fill="#007272"/>
<path d="M73.697 31.7936L90.8602 28.2587C92.0905 28.0659 93.3208 28.0659 94.5512 28.323L110.115 32.4363C110.484 32.5006 110.546 32.7577 110.546 33.1433L110.115 37.4495C110.115 37.8351 109.992 38.0922 109.623 38.0279L98.6728 37.4495C98.0576 37.4495 93.2593 36.6782 92.7057 36.871L81.5712 40.7273" fill="#007272"/>
<path d="M57.3901 56.1309V71.1875C57.3901 71.3734 57.3901 71.6212 57.3901 71.8071L55.2728 82.7743L61.3134 83.3939L65.6726 70.8157C65.6726 70.6918 65.6726 70.5679 65.7349 70.444L68.8486 52.5371L62.9325 44.606L60.3171 45.1637C57.4525 48.1379 57.3278 52.2893 57.3901 56.1309Z" fill="#007272"/>
<path d="M117.853 37.3667C115.576 39.2616 112.477 39.2616 111.086 37.3667C109.757 35.5981 110.959 31.0505 113.805 31.5558C116.145 31.9979 118.233 28.9029 119.561 30.5452C120.952 32.1242 120.13 35.4718 117.853 37.3667Z" fill="#A5E1D2"/>
<path d="M72.573 42.089C74.4216 44.6891 73.9116 47.4129 71.6168 49.2082C69.3856 50.9415 66.3258 51.0653 64.4134 47.9701C62.8835 45.4938 62.1823 41.4081 64.6684 39.9843C67.1545 38.5604 69.3856 37.5699 72.573 42.089Z" fill="#A5E1D2"/>
<path d="M56.8545 32.4464C58.5095 32.8769 59.0613 34.0456 60.2873 34.9682C61.1454 35.5218 64.8232 36.1983 64.8232 36.1983C66.6622 37.3055 67.0913 39.6427 66.8461 41.7955C66.6009 44.0713 64.8845 46.0395 64.0264 46.224C63.7199 46.2855 61.5744 45.4244 61.5744 45.4244C60.5323 50.7755 54.7089 50.0375 50.3567 47.5772C44.5946 44.3173 43.5526 41.6725 45.5142 36.5059C46.5563 33.369 50.9698 30.9702 56.8545 32.4464Z" fill="#A5E1D2"/>
<path d="M61.0492 32.2484C59.687 29.8312 56.8388 27.3503 52.7524 27.1595C44.2699 26.8414 39.8738 36.1924 42.4124 41.7903C42.4124 41.7903 42.1029 44.1439 44.2081 45.2889C45.6322 46.0523 47.3657 45.1617 48.3564 44.1439C49.409 43.1261 50.2758 42.1719 51.4522 41.5358C51.9475 41.2178 52.9382 40.7089 53.3097 40.2636C55.5387 37.7191 56.8389 34.4113 57.9534 35.8107C60.8635 39.5002 63.0304 43.2533 64.8879 37.2738C65.569 35.429 61.7921 33.5843 61.0492 32.2484Z" fill="#00313B"/>
<path d="M56.2426 32.9268C56.2426 32.9268 59.6339 39.7811 59.57 42.1707C59.442 44.5603 64.8807 44.4345 67.824 38.7121C68.7198 36.8884 58.3541 29.0909 58.3541 29.0909L56.2426 32.9268Z" fill="#00313B"/>
<path d="M58.5641 40.4299C57.4612 41.2196 55.3851 40.3641 54.2174 38.7188C53.0497 37.0735 53.0498 35.0992 54.1526 34.3094C55.2555 33.5197 57.4612 33.9804 58.2397 35.8231C59.0182 37.6658 59.6669 39.6401 58.5641 40.4299Z" fill="#A5E1D2"/>
<path d="M138.275 0.726896C137.118 -0.531574 135.171 0.0676974 133.832 0.84675C133.649 0.786823 133.467 0.666969 133.223 0.607041C131.641 0.0676993 130.424 1.26624 130.363 2.64457C129.085 3.54347 128.476 5.28136 129.45 6.65972C130.424 7.97811 132.371 8.09797 133.588 7.07921C133.832 7.13913 134.075 7.13913 134.319 7.13913C135.11 7.13913 135.719 6.8395 136.145 6.30015C137.057 5.88066 137.605 4.80194 137.24 3.72325C137.727 3.48355 138.214 3.18391 138.457 2.70449C138.761 2.04529 138.761 1.32617 138.275 0.726896Z" fill="#A5E1D2"/>
<path opacity="0.2" d="M122.717 13.725C120.579 16.3705 118.383 20.6936 117.343 24.0489C117.285 24.307 117.516 24.307 117.574 24.0489C118.787 20.9517 121.041 16.6286 123.006 14.1121C123.353 13.7895 123.006 13.3378 122.717 13.725Z" fill="#007272"/>
<path opacity="0.2" d="M126.659 9.74258C125.853 10.2448 124.885 11.3049 124.186 12.1977C123.971 12.4209 124.347 12.7556 124.509 12.5324C125.315 11.6397 126.068 10.7469 126.928 10.0774C127.197 9.90997 126.874 9.57519 126.659 9.74258Z" fill="#007272"/>
<path opacity="0.2" d="M126.555 6.83538C123.324 8.91439 120.727 11.3832 118.32 14.3718C118.257 14.4367 118.384 14.6316 118.447 14.5017C121.044 11.838 123.894 9.43414 126.871 7.29017C127.251 7.09526 126.871 6.64048 126.555 6.83538Z" fill="#007272"/>
<path opacity="0.2" d="M129.433 10.7468C126.841 13.2366 124.852 16.0301 123.164 19.2487C123.103 19.3701 123.284 19.4308 123.345 19.3701C125.274 16.4552 127.504 13.6617 129.916 11.1111C130.036 10.8682 129.674 10.5039 129.433 10.7468Z" fill="#007272"/>
<path d="M13.8467 59.0451C14.8847 57.7686 16.7776 58.1167 18.1209 58.755C18.3041 58.6389 18.4873 58.5809 18.6705 58.4649C20.136 57.7686 21.4182 58.813 21.6624 60.0895C23.0057 60.8438 23.7385 62.3523 22.9447 63.7449C22.151 65.0794 20.3191 65.3115 19.0368 64.4992C18.7926 64.5572 18.5483 64.6153 18.3041 64.6153C17.5714 64.7313 16.8997 64.4412 16.4723 64.035C15.5564 63.7449 14.8847 62.8165 15.19 61.7141C14.7015 61.5401 14.2131 61.308 13.9078 60.9018C13.5415 60.3216 13.4193 59.6253 13.8467 59.0451Z" fill="#A5E1D2"/>
<path opacity="0.2" d="M25.7683 65.9611C26.8975 66.5116 28.3405 67.6738 29.3442 68.7137C33.2339 72.9343 29.2188 69.4477 28.9051 69.203C27.7131 68.1632 26.5837 67.1233 25.329 66.3893C25.0153 66.267 25.3919 65.8388 25.7683 65.9611Z" fill="#007272"/>
<path opacity="0.2" d="M25.6507 64.0215C29.1241 65.7252 32.1012 67.9158 34.8922 70.5931C34.9542 70.6539 34.8302 70.8364 34.7682 70.7756C31.8531 68.4025 28.6279 66.3337 25.3406 64.5083C25.0305 64.3257 25.3406 63.8998 25.6507 64.0215Z" fill="#007272"/>
<path d="M100.445 126.053C100.566 125.934 100.746 125.815 100.927 125.697C100.866 125.163 101.107 124.569 101.528 124.035C102.31 123.145 103.813 122.967 104.896 123.323C105.497 123.501 105.858 123.798 106.219 124.273C106.46 124.569 106.64 124.985 106.76 125.4C106.76 125.4 107.001 125.281 107.121 125.281C107.963 125.103 108.685 125.519 109.046 126.171C109.346 126.053 109.647 125.934 110.008 125.993C110.91 126.112 111.572 126.883 111.511 127.773C111.451 128.604 110.73 129.197 109.888 129.256C109.828 129.316 109.707 129.375 109.647 129.375C108.986 129.672 108.384 129.672 107.662 129.553C107.602 129.553 107.602 129.553 107.542 129.494C106.941 129.968 106.099 130.146 105.257 129.612C103.873 128.782 102.611 129.375 101.107 129.078C99.6034 128.782 99.6034 126.943 100.445 126.053Z" fill="#12555A"/>
<path d="M64.1961 135.536C63.5379 134.361 61.9823 133.618 60.3669 133.866C59.2301 133.989 58.3326 134.546 57.6744 135.289C57.3154 135.227 57.0161 135.165 56.6571 135.227C55.1612 135.412 54.1441 136.835 54.3236 138.32C54.5031 139.866 55.8793 140.918 57.3153 140.732C57.5547 140.671 57.7939 140.609 58.0333 140.485C58.6316 141.227 59.6488 141.722 60.7258 141.537C61.5036 141.413 62.1618 141.042 62.6404 140.485C63.1789 140.918 63.8371 141.104 64.5551 140.98C66.051 140.794 67.0682 139.371 66.8887 137.887C66.769 136.526 65.5723 135.474 64.1961 135.536Z" fill="white"/>
<path d="M87.2726 40.3233L81.4545 40.7273L85.9728 38.7879C85.9728 38.7879 86.3442 39.1919 86.6537 39.5152C86.9013 39.8384 87.2726 40.3233 87.2726 40.3233Z" fill="#12555A"/>
<path d="M89.2122 135.94L98.9091 128L89.883 136.727L89.2122 136.596V135.94Z" fill="#12555A"/>
<path d="M111.03 132.848C111.834 132.848 112.485 132.414 112.485 131.879C112.485 131.343 111.834 130.909 111.03 130.909C110.227 130.909 109.576 131.343 109.576 131.879C109.576 132.414 110.227 132.848 111.03 132.848Z" fill="#12555A"/>
<path d="M46.5064 18.9226C45.5976 17.2718 44.8837 15.5598 43.9749 13.909C43.5855 13.1753 42.3523 13.7867 42.7417 14.4593C43.7154 16.1101 44.8836 17.5775 45.8573 19.2284C46.1169 19.5952 46.7011 19.2895 46.5064 18.9226Z" fill="#007272"/>
<path d="M54.9225 17.1504C55.0097 15.1947 55.2278 13.2982 55.2714 11.3425C55.315 10.5128 54.312 10.3943 54.312 11.2832C54.2684 13.239 54.3993 15.1947 54.3993 17.0912C54.3557 17.5653 54.8789 17.5653 54.9225 17.1504Z" fill="#007272"/>
<path d="M64.8665 14.8465C63.7741 16.3676 62.9117 18.0789 62.1068 19.8536C61.9343 20.2339 62.2793 20.5508 62.5667 20.2339C63.7166 18.8395 64.694 17.3817 65.7864 15.7338C66.3039 14.9098 65.384 14.0859 64.8665 14.8465Z" fill="#007272"/>
<path d="M49.4546 44.606C49.4546 44.606 50.7684 48.354 51.0186 49.2241C51.2689 50.0942 53.3334 48.2202 53.3334 48.2202L49.4546 44.606Z" fill="#A5E1D2"/>
</svg>
