<svg width="52" height="52" viewBox="0 0 52 52" fill="none" xmlns="http://www.w3.org/2000/svg">
<path d="M52 26C52 40.3594 40.3594 52 26 52C11.6406 52 0 40.3594 0 26C0 11.6406 11.6406 0 26 0C40.3594 0 52 11.6406 52 26Z" fill="#007272"/>
<path d="M16.6992 27.3712C16.2872 26.7866 15.4794 26.6466 14.8947 27.0585C14.3101 27.4705 14.1702 28.2783 14.5821 28.8629L16.6992 27.3712ZM19.8707 34.1203L20.9468 33.3999L20.9381 33.3871L20.9292 33.3744L19.8707 34.1203ZM22.8179 34.2084L21.802 33.4054L21.7943 33.4151L21.7868 33.425L22.8179 34.2084ZM37.3753 17.8786C37.8187 17.3176 37.7234 16.5032 37.1623 16.0598C36.6013 15.6163 35.7869 15.7116 35.3435 16.2727L37.3753 17.8786ZM14.5821 28.8629L18.8122 34.8662L20.9292 33.3744L16.6992 27.3712L14.5821 28.8629ZM18.7947 34.8407C19.353 35.6747 20.2798 36.1875 21.283 36.2175L21.3603 33.6288C21.1936 33.6238 21.0395 33.5385 20.9468 33.3999L18.7947 34.8407ZM21.283 36.2175C22.2861 36.2474 23.242 35.7908 23.8491 34.9917L21.7868 33.425C21.6859 33.5579 21.5271 33.6337 21.3603 33.6288L21.283 36.2175ZM23.8339 35.0113L37.3753 17.8786L35.3435 16.2727L21.802 33.4054L23.8339 35.0113Z" fill="white"/>
</svg>
