<svg xmlns="http://www.w3.org/2000/svg" width="149.278" height="109.828" viewBox="0 0 149.278 109.828">
  <g id="Group_2788" data-name="Group 2788" transform="translate(-767.571 -282)">
    <g id="Group_2786" data-name="Group 2786">
      <g id="Group_2452" data-name="Group 2452" transform="translate(771.46 285.303)">
        <g id="Component_10_4" data-name="Component 10 4" transform="translate(45 25.5)">
          <g id="Path_3017" data-name="Path 3017" transform="translate(0 48.499)">
            <path id="Path_3404" data-name="Path 3404" d="M345.167,436.158h-48.5a1.732,1.732,0,1,1,0-3.464h48.5a1.732,1.732,0,1,1,0,3.464Z" transform="translate(-294.937 -432.694)" fill="#d9d9d9"/>
          </g>
          <g id="Path_3018" data-name="Path 3018" transform="translate(0.001)">
            <path id="Path_3405" data-name="Path 3405" d="M345.167,401.781h-48.5a1.732,1.732,0,0,1-.885-3.22l22.375-13.308a5.186,5.186,0,0,1,5.569.032l22.325,13.276a1.732,1.732,0,0,1-.887,3.22Zm-42.2-3.465h35.9l-16.96-10.087a1.774,1.774,0,0,0-1.924-.031Z" transform="translate(-294.938 -384.457)" fill="#d9d9d9"/>
          </g>
          <g id="Path_3019" data-name="Path 3019" transform="translate(38.105 20.787)">
            <path id="Path_3406" data-name="Path 3406" d="M341.5,429.38h-6.929a1.733,1.733,0,0,1-1.732-1.732V406.864a1.732,1.732,0,0,1,3.465,0v19.051h3.464V406.864a1.732,1.732,0,0,1,3.465,0v20.784A1.733,1.733,0,0,1,341.5,429.38Z" transform="translate(-332.836 -405.132)" fill="#d9d9d9"/>
          </g>
          <g id="Path_3020" data-name="Path 3020" transform="translate(20.785 20.787)">
            <path id="Path_3407" data-name="Path 3407" d="M324.27,429.38h-6.928a1.732,1.732,0,0,1-1.731-1.732V406.864a1.732,1.732,0,1,1,3.464,0v19.051h3.464V406.864a1.732,1.732,0,0,1,3.465,0v20.784A1.733,1.733,0,0,1,324.27,429.38Z" transform="translate(-315.61 -405.132)" fill="#d9d9d9"/>
          </g>
          <g id="Path_3021" data-name="Path 3021" transform="translate(3.465 20.787)">
            <path id="Path_3408" data-name="Path 3408" d="M307.043,429.38h-6.928a1.732,1.732,0,0,1-1.732-1.732V406.864a1.732,1.732,0,1,1,3.464,0v19.051h3.465V406.864a1.732,1.732,0,1,1,3.464,0v20.784A1.733,1.733,0,0,1,307.043,429.38Z" transform="translate(-298.383 -405.132)" fill="#d9d9d9"/>
          </g>
        </g>
        <path id="download_42_" data-name="download (42)" d="M111.51,22.856a51.883,51.883,0,0,0-91.893,33V70.023m14.15,21.433a51.883,51.883,0,0,0,89.617-35.6V46.421m0,0L142.25,65.287M123.383,46.421,104.517,65.287M.75,51.137,19.617,70,38.483,51.137" transform="translate(-0.75 -4.002)" fill="none" stroke="#d9d9d9" stroke-linecap="round" stroke-linejoin="round" stroke-width="5.5"/>
      </g>
      <circle id="Ellipse_69" data-name="Ellipse 69" cx="20" cy="20" r="20" transform="translate(865 285)" fill="#fdbb31"/>
    </g>
    <g id="Group_2723" data-name="Group 2723" transform="translate(864 282)">
      <rect id="Rectangle_749" data-name="Rectangle 749" width="44" height="44" fill="none"/>
    </g>
    <g id="Group_2726" data-name="Group 2726" transform="translate(873 293)">
      <g id="Group_2725" data-name="Group 2725">
        <g id="Group_2724" data-name="Group 2724">
          <path id="Path_3514" data-name="Path 3514" d="M27,12.494H17.961l3.654-3.76A9.386,9.386,0,0,0,8.44,8.6a9.167,9.167,0,0,0,0,13.054,9.36,9.36,0,0,0,13.174,0,8.685,8.685,0,0,0,2.72-6.52H27a12.455,12.455,0,0,1-3.52,8.387,12.073,12.073,0,0,1-16.961,0A11.787,11.787,0,0,1,6.493,6.747a11.984,11.984,0,0,1,16.868,0L27,3ZM15.667,9.667v5.667l4.667,2.774-.96,1.613-5.707-3.387V9.667Z" transform="translate(-3.001 -3)" fill="#fff"/>
        </g>
      </g>
    </g>
  </g>
</svg>
