<svg xmlns="http://www.w3.org/2000/svg" width="157.793" height="118.009" viewBox="0 0 157.793 118.009">
  <g id="Group_2784" data-name="Group 2784" transform="translate(-271.286 -169.424)">
    <path id="Path_3649" data-name="Path 3649" d="M317.009,368.388s-2.842,0-13.264,2.842-23.686,5.211-30.318-7.579,3.79-19.9,9-22.265,33.16-16.58,118.429-5.685c11.369,1.9,24.633,2.447,27.949,16.856s-24.633,12.988-24.633,12.988-9.474.947-12.79,10.422-25.581,15.159-51.635,1.421C326.957,369.335,317.009,368.388,317.009,368.388Z" transform="translate(0 -98.147)" fill="#d2f0e9" fill-rule="evenodd"/>
    <path id="Path_3650" data-name="Path 3650" d="M450.99,234.975l6.6-42.159a7.849,7.849,0,0,0-6.5-8.992L362,169.524a7.845,7.845,0,0,0-8.99,6.5l-3.166,19.716V234.73Z" transform="translate(-47.528 0)" fill="#007272"/>
    <path id="Path_3651" data-name="Path 3651" d="M467.031,199.664l-25.3-4.06c-17,26.005-44.47,44.016-65.539,54.992l90.744.22,6.6-42.159A7.849,7.849,0,0,0,467.031,199.664Z" transform="translate(-63.469 -15.84)" fill="#14555a"/>
    <path id="Path_3652" data-name="Path 3652" d="M345.592,231.1h90.234a7.847,7.847,0,0,1,7.847,7.846v51a7.847,7.847,0,0,1-7.847,7.846H345.592a7.847,7.847,0,0,1-7.846-7.846v-51A7.847,7.847,0,0,1,345.592,231.1Z" transform="translate(-40.211 -37.313)" fill="#e9f8f4"/>
    <path id="Path_3653" data-name="Path 3653" d="M469.941,231.1h-1.569c-18.518,32.875-53.118,55.425-74.241,66.695h75.81a7.847,7.847,0,0,0,7.847-7.847v-51A7.847,7.847,0,0,0,469.941,231.1Z" transform="translate(-74.326 -37.313)" fill="#007272" opacity="0.16"/>
    <path id="Path_3654" data-name="Path 3654" d="M362.579,255.927H382.2V271.62H362.579Z" transform="translate(-55.236 -52.338)" fill="#a5e1d2"/>
    <rect id="Rectangle_822" data-name="Rectangle 822" width="5.885" height="3.923" transform="translate(307.343 209.475)" fill="#28b482"/>
    <path id="Path_3655" data-name="Path 3655" d="M397.345,270.828h5.885v3.923h-5.885Z" transform="translate(-76.27 -61.353)" fill="#28b482"/>
    <path id="Path_3656" data-name="Path 3656" d="M541.251,345.076a9.808,9.808,0,1,0-9.808-9.808A9.808,9.808,0,0,0,541.251,345.076Z" transform="translate(-157.405 -94.408)" fill="#008484"/>
    <path id="Path_3657" data-name="Path 3657" d="M511.451,345.076a9.808,9.808,0,1,0-9.808-9.808A9.808,9.808,0,0,0,511.451,345.076Z" transform="translate(-139.375 -94.408)" fill="#28b482"/>
    <rect id="Rectangle_823" data-name="Rectangle 823" width="11.77" height="3.923" transform="translate(305.382 233.013)" fill="#a5e1d2"/>
    <rect id="Rectangle_824" data-name="Rectangle 824" width="11.77" height="3.923" transform="translate(324.998 233.013)" fill="#a5e1d2"/>
    <path id="Path_3658" data-name="Path 3658" d="M456.944,330.426h11.769v3.923H456.944Z" transform="translate(-112.33 -97.412)" fill="#a5e1d2"/>
    <rect id="Rectangle_825" data-name="Rectangle 825" width="51.002" height="3.923" transform="translate(305.382 244.783)" fill="#a5e1d2"/>
    <path id="Path_3659" data-name="Path 3659" d="M511.577,255.927H515.5v7.847h-3.923Z" transform="translate(-145.385 -52.338)" fill="#a5e1d2"/>
    <path id="Path_3660" data-name="Path 3660" d="M531.443,255.927h3.923v7.847h-3.923Z" transform="translate(-157.405 -52.338)" fill="#a5e1d2"/>
    <path id="Path_3661" data-name="Path 3661" d="M551.309,255.927h3.923v7.847h-3.923Z" transform="translate(-169.425 -52.338)" fill="#a5e1d2"/>
    <path id="Path_3662" data-name="Path 3662" d="M571.175,255.927H575.1v7.847h-3.923Z" transform="translate(-181.444 -52.338)" fill="#a5e1d2"/>
  </g>
</svg>
