<svg id="Layer_1" data-name="Layer 1" xmlns="http://www.w3.org/2000/svg" xmlns:xlink="http://www.w3.org/1999/xlink" viewBox="0 0 425.25 314.18"><defs><style>.cls-1{fill:none;}.cls-2{fill:#d8e2dd;}.cls-3{fill:#8dc9ba;}.cls-4{fill:#007272;}.cls-5{clip-path:url(#clip-path);}.cls-6,.cls-9{fill:#14555a;}.cls-7{fill:#a5e1d2;}.cls-8{clip-path:url(#clip-path-2);}.cls-9{opacity:0.16;}.cls-10{fill:#28b482;}.cls-11{fill:#fff;}</style><clipPath id="clip-path" transform="translate(-448.16 -247.99)"><path class="cls-1" d="M532.15,289H843.73a9.77,9.77,0,0,1,9.77,9.77v184a9.77,9.77,0,0,1-9.77,9.77H532.92a9.77,9.77,0,0,1-9.77-9.77V298a9,9,0,0,1,9-9Z" transform="translate(141.72 -181.69) rotate(16.74)"/></clipPath><clipPath id="clip-path-2" transform="translate(-448.16 -247.99)"><path class="cls-1" d="M505.45,275.2H817a9.77,9.77,0,0,1,9.77,9.77V469a9.77,9.77,0,0,1-9.77,9.77H506.22a9.77,9.77,0,0,1-9.77-9.77V284.2a9,9,0,0,1,9-9Z"/></clipPath></defs><path class="cls-2" d="M490.61,11.85" transform="translate(-448.16 -247.99)"/><path class="cls-3" d="M564,626.54" transform="translate(-448.16 -247.99)"/><path class="cls-2" d="M469.46,646.22" transform="translate(-448.16 -247.99)"/><path class="cls-2" d="M486.11,646.65" transform="translate(-448.16 -247.99)"/><path class="cls-4" d="M532.15,289H843.73a9.77,9.77,0,0,1,9.77,9.77v184a9.77,9.77,0,0,1-9.77,9.77H532.92a9.77,9.77,0,0,1-9.77-9.77V298a9,9,0,0,1,9-9Z" transform="translate(-306.44 -429.67) rotate(16.74)"/><g class="cls-5"><path class="cls-6" d="M545.43,292.43s87.05,8,127.49,71c58.57,91.32,152.72,140.16,152.72,140.16l-4.5,58.54-342.34-103,19-176.22Z" transform="translate(-448.16 -247.99)"/></g><path class="cls-7" d="M57.29,27.22H368.86A9.77,9.77,0,0,1,378.63,37V221a9.77,9.77,0,0,1-9.77,9.77H58.06A9.77,9.77,0,0,1,48.29,221V36.22A9,9,0,0,1,57.29,27.22Z"/><g class="cls-8"><path class="cls-9" d="M496.45,323.92S582.1,306.49,639,355.23c82.39,70.58,187.79,90.5,187.79,90.5l11.38,57.09H480.68L448.16,328.59Z" transform="translate(-448.16 -247.99)"/></g><rect class="cls-6" x="75.29" y="149" width="36.35" height="12.12"/><rect class="cls-6" x="135.88" y="149" width="36.35" height="12.12"/><rect class="cls-6" x="196.47" y="149" width="36.35" height="12.12"/><rect class="cls-6" x="75.29" y="185.36" width="157.54" height="12.12"/><circle class="cls-4" cx="321.34" cy="174.26" r="30.3"/><circle class="cls-10" cx="284.99" cy="174.26" r="30.3"/><rect class="cls-11" x="75.29" y="59.29" width="47.45" height="37.96" rx="2.44"/><rect class="cls-7" x="78.84" y="72.38" width="18.18" height="12.12"/><rect class="cls-7" x="101" y="72.38" width="18.18" height="12.12"/><rect class="cls-10" x="291.05" y="54.04" width="12.12" height="24.24"/><rect class="cls-10" x="315.29" y="54.04" width="12.12" height="24.24"/><rect class="cls-10" x="339.52" y="54.04" width="12.12" height="24.24"/></svg>