<svg width="129" height="36" viewBox="0 0 129 36" fill="none" xmlns="http://www.w3.org/2000/svg">
    <path d="M18.6499 36V8.44586C18.6493 8.32455 18.6872 8.20617 18.7581 8.10775C18.8291 8.00934 18.9294 7.93595 19.0446 7.89814C19.1031 7.88333 19.163 7.87472 19.2234 7.87243C19.3123 7.8729 19.3998 7.89385 19.4793 7.93365C19.5588 7.97345 19.6281 8.03103 19.6817 8.10193L31.9744 23.7581V0H33.8342V27.5034C33.8348 27.6247 33.7969 27.743 33.726 27.8415C33.6551 27.9399 33.5548 28.0133 33.4395 28.0511C33.3824 28.0721 33.3215 28.0808 33.2608 28.0768C33.1719 28.0763 33.0843 28.0554 33.0048 28.0156C32.9253 27.9758 32.8561 27.9182 32.8024 27.8473L20.5239 12.1911V36H18.6499ZM38.9173 27.9746C38.8387 27.9747 38.7608 27.9592 38.6881 27.9292C38.6155 27.8991 38.5495 27.8551 38.4939 27.7995C38.4383 27.7439 38.3942 27.6779 38.3642 27.6052C38.3341 27.5326 38.3187 27.4547 38.3188 27.3761V8.62393C38.3187 8.54531 38.3341 8.46744 38.3642 8.39479C38.3942 8.32214 38.4383 8.25613 38.4939 8.20054C38.5495 8.14494 38.6155 8.10086 38.6881 8.07081C38.7608 8.04077 38.8387 8.02534 38.9173 8.02543H44.6387C46.6258 8.02543 48.1166 8.39507 49.1991 9.15943C50.4733 10.0511 51.1226 11.4654 51.1226 13.338C51.1595 14.0587 51.0384 14.7787 50.7678 15.4476C50.4972 16.1166 50.0835 16.7183 49.5559 17.2106L49.4666 17.2871L49.5688 17.3379C49.9399 17.5252 50.2901 17.7515 50.6134 18.0129C51.2041 18.4932 51.6806 19.0989 52.0086 19.7859C52.3366 20.473 52.5078 21.2244 52.5099 21.9857C52.528 22.933 52.3366 23.8725 51.9493 24.7371C51.5868 25.5008 51.0395 26.1619 50.3569 26.6606C48.9006 27.6046 47.1832 28.0645 45.45 27.9746H38.9173ZM40.1786 26.1276H45.45C50.6346 26.1276 50.6346 23.0194 50.6346 22.0005C50.6346 19.8984 48.8128 18.4211 46.1886 18.4211H40.1786V26.1276ZM40.1786 16.5606H46.1912C46.9048 16.5606 49.2615 16.3311 49.2615 13.338C49.2615 11.6666 48.6116 11.0199 48.1275 10.6759C47.0668 10.0753 45.8527 9.80048 44.6368 9.88586H40.1786V16.5606ZM0.5985 27.9746C0.51988 27.9747 0.442016 27.9592 0.369364 27.9292C0.296713 27.8991 0.230701 27.8551 0.175108 27.7995C0.119516 27.7439 0.0754336 27.6779 0.0453862 27.6052C0.0153387 27.5326 -8.42371e-05 27.4547 3.46026e-07 27.3761V8.62393C-8.42371e-05 8.54531 0.0153387 8.46744 0.0453862 8.39479C0.0754336 8.32214 0.119516 8.25613 0.175108 8.20054C0.230701 8.14494 0.296713 8.10086 0.369364 8.07081C0.442016 8.04077 0.51988 8.02534 0.5985 8.02543H6.0255C7.22837 8.01344 8.4222 8.23413 9.54129 8.67536C10.7752 9.16515 11.8631 9.96304 12.7009 10.9929C14.688 13.4357 14.9046 16.7889 14.9046 18.1138C14.9046 19.6804 14.6115 22.6614 12.7009 25.0052C11.8581 26.0297 10.772 26.8266 9.54193 27.3234C8.42252 27.7634 7.22891 27.9841 6.02614 27.9733L0.5985 27.9746ZM1.85979 26.1276H6.0255C7.01275 26.1631 7.99527 25.9753 8.89986 25.5783C9.80445 25.1813 10.6078 24.5852 11.25 23.8346C12.8044 21.9362 13.0333 19.44 13.0333 18.1273C13.0333 17.2485 12.9047 14.2059 11.25 12.1783C10.6099 11.4256 9.80724 10.8281 8.90254 10.4309C7.99785 10.0336 7.01475 9.84707 6.02743 9.88521H1.85979V26.1276Z" fill="#007272"/>
    <path d="M68.168 24H69.816L67.16 19.088C68.84 18.784 69.752 17.696 69.752 16C69.752 13.952 68.424 12.8 66.056 12.8H62.28V24H63.72V19.184H65.672L68.168 24ZM63.72 13.968H65.8C67.496 13.968 68.312 14.624 68.312 16C68.312 17.36 67.496 18.016 65.8 18.016H63.72V13.968ZM77.9885 20.096C77.9885 17.536 76.5485 15.872 74.2605 15.872C71.9725 15.872 70.4365 17.552 70.4365 20C70.4365 22.432 72.0365 24.128 74.4365 24.128C75.9405 24.128 77.1085 23.52 77.7325 22.416L76.7405 21.744C76.3085 22.48 75.6045 23.008 74.4525 23.008C73.0925 23.008 71.9085 22.16 71.7965 20.384H77.9725C77.9885 20.336 77.9885 20.16 77.9885 20.096ZM74.2605 17.008C75.6205 17.008 76.4685 17.888 76.6445 19.376H71.8285C72.0045 17.84 72.9485 17.008 74.2605 17.008ZM85.793 16V17.568C85.233 16.48 84.209 15.872 82.913 15.872C80.785 15.872 79.249 17.52 79.249 19.808C79.249 22.112 80.785 23.76 82.913 23.76C84.081 23.76 85.025 23.264 85.617 22.368V23.44C85.617 25.024 84.561 26.016 82.945 26.016C81.873 26.016 80.993 25.648 80.337 25.088L79.713 26.128C80.529 26.768 81.569 27.168 82.945 27.168C85.441 27.168 87.009 25.712 87.009 23.376V16H85.793ZM83.073 22.608C81.649 22.608 80.657 21.456 80.657 19.808C80.657 18.16 81.633 17.024 83.073 17.024C84.545 17.024 85.617 18.192 85.617 19.808C85.617 21.424 84.545 22.608 83.073 22.608ZM92.7695 15.872C91.5695 15.872 90.6095 16.416 90.1295 17.328V16H88.8975V24H90.2895V19.376C90.2895 17.936 91.1055 17.008 92.3855 17.008C93.5695 17.008 94.2255 17.712 94.2255 18.976V24H95.6175V18.912C95.6175 17.008 94.5615 15.872 92.7695 15.872ZM100.084 24.128C101.812 24.128 102.98 23.184 102.98 21.76C102.98 20.624 102.26 19.856 100.884 19.504L99.8124 19.248C98.9964 19.04 98.6444 18.704 98.6444 18.128C98.6444 17.44 99.2044 16.992 100.068 16.992C100.916 16.992 101.476 17.36 101.732 18.064L102.772 17.456C102.388 16.432 101.428 15.872 100.068 15.872C98.4204 15.872 97.3324 16.8 97.3324 18.176C97.3324 19.264 98.0524 20.032 99.4284 20.368L100.436 20.624C101.284 20.832 101.668 21.184 101.668 21.792C101.668 22.56 101.076 23.008 100.084 23.008C99.1084 23.008 98.4044 22.592 98.0204 21.792L97.0444 22.496C97.6044 23.552 98.6764 24.128 100.084 24.128ZM109.593 24H111.305L107.849 19.536L111.065 16H109.321L105.961 19.936V12.8H104.569V24H105.961V21.632L107.001 20.48L109.593 24ZM118.324 22.576V18.832C118.324 16.944 117.172 15.872 115.108 15.872C113.62 15.872 112.58 16.464 112.132 17.584L113.204 18.144C113.508 17.392 114.148 16.992 115.076 16.992C116.212 16.992 116.932 17.648 116.932 18.72V19.024L114.596 19.36C112.724 19.648 111.78 20.48 111.78 21.856C111.78 23.232 112.836 24.128 114.436 24.128C115.54 24.128 116.532 23.616 117.012 22.848C117.012 23.632 117.476 24.128 118.196 24.128C118.5 24.128 118.74 24.08 118.884 24L118.9 23.104C118.5 23.104 118.324 22.96 118.324 22.576ZM114.612 23.056C113.732 23.056 113.124 22.56 113.124 21.824C113.124 20.96 113.684 20.496 114.916 20.32L116.932 20.032V20.608C116.932 22.096 116.036 23.056 114.612 23.056ZM124.558 15.872C123.246 15.872 122.19 16.512 121.598 17.648V16H120.366V27.04H121.758V22.64C122.366 23.6 123.358 24.128 124.558 24.128C126.702 24.128 128.318 22.432 128.318 20C128.318 17.568 126.702 15.872 124.558 15.872ZM124.398 22.976C122.862 22.976 121.758 21.712 121.758 20C121.758 18.288 122.862 17.024 124.398 17.024C125.918 17.024 126.91 18.256 126.91 20C126.91 21.744 125.902 22.976 124.398 22.976Z" fill="#333333"/>
</svg>
