<svg xmlns="http://www.w3.org/2000/svg" width="431" height="55.519" viewBox="0 0 431 55.519"><defs><style>.a{fill:#0e265e;}.b{fill:#da001a;}.c{fill:#9c0c19;}.d{fill:#fff;}.e{fill:none;}.f{fill:#1665c0;font-size:40px;font-family:MuseoSansRounded-500, Museo Sans Rounded;font-weight:500;}</style></defs><g transform="translate(-573 -69)"><g transform="translate(560.815 57.007)"><path class="a" d="M22.475,43.187a33.732,33.732,0,0,1-9.43-1.346.828.828,0,0,1-.561-.786v-.187l.487-2.47a.572.572,0,0,1,.635-.486.745.745,0,0,1,.263.037,37.984,37.984,0,0,0,8.194,1.236c3.068,0,5.8-.9,5.8-4.079,0-3.218-2.806-3.555-6.436-4.079-4.041-.6-9.242-1.684-9.242-8.045,0-6.548,4.864-8.27,10.626-8.27a33.386,33.386,0,0,1,8.831,1.273.791.791,0,0,1,.674.785v.188l-.524,2.432a.638.638,0,0,1-.6.523c-.038,0-.075-.037-.113-.037a35.542,35.542,0,0,0-7.858-1.123c-2.769,0-5.687.525-5.687,3.667,0,3.106,3.143,3.555,6.473,4.042,4.378.673,9.354,1.309,9.354,8.27C33.363,41.28,28.05,43.187,22.475,43.187Z"/><path class="a" d="M70.018,42.739a24,24,0,0,1-5.2.523c-4.041,0-9.018-.411-9.018-6.36,0-4.827,3.031-5.351,6.025-5.838l6.66-1.085v-1.2c0-1.048-.113-1.8-1.048-2.208a7.486,7.486,0,0,0-2.844-.374,26.453,26.453,0,0,0-6.435,1.048c-.113,0-.188.037-.263.037a.371.371,0,0,1-.411-.337l-.524-2.32v-.15a.611.611,0,0,1,.449-.561,27.277,27.277,0,0,1,8.157-1.272,11.693,11.693,0,0,1,5.651,1.048C73.124,24.74,73.5,26.5,73.5,28.52V38.847C73.5,41.654,72.562,42.14,70.018,42.739Zm-1.534-9.5-4.64.748c-1.534.225-2.956.449-2.956,2.881,0,2.919,2.357,3.143,4.154,3.143a11.051,11.051,0,0,0,3.442-.524Z"/><path class="a" d="M86.848,26.5a24.426,24.426,0,0,0-5.276.486v15.23a.53.53,0,0,1-.561.561H77.194c-.224,0-.636-.224-.636-.561V26.05c0-1.459.861-1.908,2.657-2.432a25.633,25.633,0,0,1,6.436-.936h.636c.524,0,.524,0,.786.113a.6.6,0,0,1,.336.6v2.432C87.409,26.2,87.372,26.5,86.848,26.5Z"/><path class="a" d="M106.433,34.4a.783.783,0,0,1-.786.86H93.112a3.828,3.828,0,0,0,1.5,3.442,6.856,6.856,0,0,0,4.415,1.123,17.517,17.517,0,0,0,5.239-.9.34.34,0,0,1,.187-.037c.224,0,.411.15.524.524l.486,1.908a1.615,1.615,0,0,1,.038.187c0,.3-.188.449-.45.561a19.075,19.075,0,0,1-6.772,1.2c-7.334,0-10.215-2.881-10.215-10.214,0-7.035,1.945-10.4,9.242-10.4,3.779,0,6.1.973,7.446,2.769,1.272,1.684,1.684,4.078,1.684,7.184Zm-5.276-5.576c-.487-2.058-1.609-2.731-3.816-2.731-2.508,0-3.555.748-3.967,2.619a15.859,15.859,0,0,0-.3,3.368l8.381-.038A12.555,12.555,0,0,0,101.157,28.819Z"/><path class="a" d="M149,42.739a24,24,0,0,1-5.2.523c-4.042,0-9.018-.411-9.018-6.36,0-4.827,3.031-5.351,6.025-5.838l6.661-1.085v-1.2c0-1.048-.113-1.8-1.049-2.208a7.48,7.48,0,0,0-2.843-.374,26.472,26.472,0,0,0-6.437,1.048c-.112,0-.187.037-.261.037a.372.372,0,0,1-.412-.337l-.523-2.32v-.15a.61.61,0,0,1,.448-.561,27.277,27.277,0,0,1,8.157-1.272,11.693,11.693,0,0,1,5.651,1.048c1.909,1.047,2.283,2.806,2.283,4.827V38.847C152.481,41.654,151.544,42.14,149,42.739Zm-1.533-9.5-4.641.748c-1.534.225-2.956.449-2.956,2.881,0,2.919,2.357,3.143,4.153,3.143a11.065,11.065,0,0,0,3.444-.524Z"/><path class="a" d="M172.491,42.776h-3.855a.56.56,0,0,1-.6-.561V29.006c0-2.17-.823-2.918-2.806-2.918a21.555,21.555,0,0,0-4.677.636V42.215a.53.53,0,0,1-.561.561h-3.818a.571.571,0,0,1-.635-.561V26.088c0-1.422.71-1.909,2.806-2.47a32.313,32.313,0,0,1,7.446-.973c4.677,0,7.259,1.2,7.259,5.687V42.215A.53.53,0,0,1,172.491,42.776Z"/><path class="a" d="M194.189,42.439a.369.369,0,0,1-.374.337H188.8a.619.619,0,0,1-.562-.224l-5.8-7.9h-1.273v7.559a.511.511,0,0,1-.561.561h-3.854a.561.561,0,0,1-.6-.561V16.059a.712.712,0,0,1,.637-.785l3.666-.637h.15c.337,0,.561.225.561.637V31.288h1.273l5.912-7.9a.508.508,0,0,1,.487-.261l4.565.112a.344.344,0,0,1,.374.336c0,.075-.037.113-.075.188l-7.072,8.906,7.484,9.578A.29.29,0,0,1,194.189,42.439Z"/><path class="a" d="M41.087,39.372"/><path class="a" d="M46.063,22.645a24.5,24.5,0,0,0-7.633,1.2c-1.684.523-2.357,1.084-2.357,3.03v21.5c0,.374.293.68.832.582s3.545-.653,3.545-.653a.66.66,0,0,0,.637-.748V42.693a20.78,20.78,0,0,0,4.864.569c6.96,0,8.269-4.377,8.269-10.29C54.22,27.023,53.285,22.645,46.063,22.645ZM44.641,39.82a14.017,14.017,0,0,1-3.554-.448V26.761a18.28,18.28,0,0,1,3.928-.6c2.844,0,4.079.635,4.079,6.7C49.094,38.547,48.046,39.82,44.641,39.82Z"/><path class="a" d="M122.878,42.776h-12.46a.623.623,0,0,1-.636-.6V15.723a.623.623,0,0,1,.636-.6h12.5c6.327,0,8.9,2.481,8.9,6.974,0,3.966-2.2,5.386-5.613,6.362,3.786.625,6.549,2.679,6.549,7.094C132.757,40.568,129.239,42.776,122.878,42.776Zm-.486-23.8H115.17v8.007l6.96-.3c2.844-.112,4.3-1.122,4.3-3.966C126.433,20.1,125.161,18.978,122.392,18.978ZM122.2,30.615l-7.034-.224v8.531H122.2c3.78,0,5.015-1.646,5.015-3.929C127.219,31.925,126.208,30.727,122.2,30.615Z"/><path class="a" d="M130.844,64.681h-1.9c-.185,0-.285-.084-.285-.235l-.168-2.806c-.084-1.394-1.16-1.73-2.655-1.781l-2.637-.067v4.637a.258.258,0,0,1-.286.252h-1.865a.251.251,0,0,1-.268-.252V52.535a.28.28,0,0,1,.285-.269h5.679c2.553,0,4.115.926,4.115,3.53,0,1.859-1.3,2.75-2.8,3.111,1.6.268,2.8.768,2.923,3.187l.1,2.318C131.082,64.6,131.019,64.681,130.844,64.681ZM126.355,54H123.2v4.251l2.705-.118c1.528-.067,2.5-.42,2.5-2.033C128.4,54.668,127.867,54,126.355,54Z"/><path class="a" d="M148.312,64.681h-5.594a.287.287,0,0,0-.286-.286V52.535a.269.269,0,0,0,.269-.269h5.628c2.84,0,4,1.114,4,3.131,0,1.781-.989,2.418-2.52,2.857,1.7.28,2.94,1.2,2.94,3.185C152.747,63.69,151.168,64.681,148.312,64.681ZM148.093,54h-3.242v3.6l3.125-.134c1.277-.05,1.932-.5,1.932-1.781C149.908,54.5,149.337,54,148.093,54Zm-.084,5.225-3.158-.1v3.83h3.158c1.7,0,2.251-.738,2.251-1.763C150.26,59.809,149.807,59.271,148.009,59.221Z"/><path class="a" d="M112.411,64.868a14.466,14.466,0,0,1-4.234-.6.349.349,0,0,1-.252-.436l.219-1.109c.033-.2.2-.236.4-.2a17,17,0,0,0,3.678.555c1.378,0,2.605-.4,2.605-1.832s-1.261-1.6-2.89-1.831c-1.814-.269-4.149-.756-4.149-3.611,0-2.941,2.183-3.713,4.77-3.713a14.276,14.276,0,0,1,3.965.571c.2.067.354.218.3.437l-.236,1.091c-.05.219-.184.252-.369.219a15.432,15.432,0,0,0-3.477-.5c-1.244,0-2.554.235-2.554,1.646,0,1.394,1.411,1.6,2.906,1.814,1.966.3,4.2.589,4.2,3.713C117.3,64.012,114.915,64.868,112.411,64.868Z"/><path class="a" d="M138.787,59.307h-4.5a.333.333,0,0,1-.353-.3V57.964a.326.326,0,0,1,.353-.3h4.5a.31.31,0,0,1,.336.3v1.041A.319.319,0,0,1,138.787,59.307Z"/><path class="a" d="M166.977,64.482c0,.134-.084.2-.218.2h-1.983a.305.305,0,0,1-.3-.235l-1.394-4.4h-4.451l-1.378,4.435a.309.309,0,0,1-.286.2h-1.982a.2.2,0,0,1-.219-.184.439.439,0,0,1,.017-.118L158.8,52.487a.346.346,0,0,1,.3-.219h3.6a.347.347,0,0,1,.3.219l3.965,11.877A.378.378,0,0,1,166.977,64.482ZM161.2,53.965h-.723l-1.343,4.3h3.443Z"/><path class="a" d="M180.837,64.683h-3.848a.375.375,0,0,1-.318-.268l-4.133-10.3h-.555l.151,10.315a.257.257,0,0,1-.286.252H170a.251.251,0,0,1-.269-.252V52.52a.278.278,0,0,1,.285-.252h4.033a.364.364,0,0,1,.335.236L178.6,63.222h.236l-.1-10.685c0-.218.15-.269.336-.269h1.713c.2,0,.336.068.336.269V64.431A.256.256,0,0,1,180.837,64.683Z"/><path class="a" d="M195.419,64.331a.178.178,0,0,1,.034.117.239.239,0,0,1-.185.235h-2.5a.422.422,0,0,1-.3-.134l-4.117-5.208h-.739v5.09a.256.256,0,0,1-.285.252h-1.865a.251.251,0,0,1-.269-.252V52.52a.252.252,0,0,1,.269-.252h1.865a.257.257,0,0,1,.285.252v4.956h.739l3.965-5.073a.323.323,0,0,1,.269-.135l2.3.034a.238.238,0,0,1,.2.235.185.185,0,0,1-.05.118l-4.671,5.678Z"/><path class="b" d="M228.64,11.993a27.727,27.727,0,0,0-8.411,1.3c11.169-2.423,22.239,2.177,26.227,11.6,4.61,10.893-1.988,24.1-14.737,29.491-11.436,4.839-23.931,1.747-29.711-6.8A27.759,27.759,0,1,0,228.64,11.993Z"/><path class="c" d="M231.719,54.386c12.749-5.4,19.347-18.6,14.737-29.491-3.988-9.424-15.058-14.024-26.227-11.6a27.762,27.762,0,0,0-18.221,34.29C207.788,56.133,220.283,59.225,231.719,54.386Z"/><path class="d" d="M235.756,52.3V23.8a1.03,1.03,0,0,0-1.029-1.028h-6.454a2.819,2.819,0,0,0-1.132.257l-8.328,4.287a.992.992,0,0,0-.719,1.03v4.671a.993.993,0,0,0,.993.992h5.33V56.412a28.985,28.985,0,0,0,7.3-2.026A29.481,29.481,0,0,0,235.756,52.3Z"/><path class="e" d="M225.443,60.963h9.284a1.033,1.033,0,0,0,1.029-1.03V52.3a29.481,29.481,0,0,1-4.037,2.087,28.985,28.985,0,0,1-7.3,2.026v3.521A1.033,1.033,0,0,0,225.443,60.963Z"/></g><text class="f" transform="translate(828 111)"><tspan x="0" y="0">Regnskap</tspan></text></g></svg>