<svg width="541" height="312" viewBox="0 0 541 312" fill="none" xmlns="http://www.w3.org/2000/svg">
<g clip-path="url(#clip0)">
<path opacity="0.5" d="M134.252 204.333C101.543 193.024 64.1432 183.452 33.583 199.703C29.7098 201.762 25.8933 204.355 23.8064 208.214C18.2943 218.365 27.0558 231.529 22.7856 242.259C18.5155 252.989 2.44428 258.391 3.75992 269.852C4.10584 272.848 5.72771 275.561 7.63879 277.898C19.61 292.532 41.5562 294.013 60.1056 290.382C78.655 286.75 96.796 279.22 115.68 280.168C133.827 281.104 150.522 289.814 167.149 297.145C195.18 309.538 227.918 318.429 255.926 305.974C268.759 300.266 279.369 290.546 291.652 283.76C308.206 274.698 327.233 271.205 345.923 273.796C358.398 275.555 370.307 279.981 382.517 283.033C410.247 289.962 439.191 289.735 467.767 289.462C473.086 289.411 478.49 289.349 483.588 287.828C491.136 285.558 497.363 280.333 503.357 275.22C511.234 268.508 519.53 261.131 522.071 251.094C525.071 239.178 518.861 226.513 509.652 218.416C500.442 210.319 488.669 205.893 477.18 201.626C474.345 200.582 471.317 199.521 468.413 200.31C466.508 200.832 464.903 202.103 463.479 203.47C455.325 211.323 448.435 224.607 437.314 222.473C433.345 221.713 430.095 218.949 426.954 216.396C410.179 202.778 387.615 192.264 367.37 199.788C352.563 205.292 342.112 219.426 327.107 224.414C316.434 227.966 304.837 226.428 293.609 227.12C277.277 228.119 261.381 233.895 245.027 233.543C203.323 232.647 168.578 192.746 127.044 196.548C123.789 196.843 120.239 197.592 118.243 200.168" fill="#00CBEB"/>
<path d="M81.6604 166.378C81.6604 166.378 47.0058 187.31 110.911 219.551C110.911 219.551 124.991 193.393 109.425 172.064C106.404 167.908 101.965 165.005 96.9482 163.905C91.9316 162.805 86.6858 163.584 82.2048 166.094L81.6604 166.378Z" fill="#00CBEB"/>
<path d="M82.0745 165.941C82.0745 165.941 111.744 188.638 110.916 219.534" stroke="#535461" stroke-miterlimit="10"/>
<path d="M520.103 148.941C527.123 174.628 497.175 247.808 497.175 247.808C497.175 247.808 434.161 200.071 427.135 174.384C425.297 168.225 424.708 161.761 425.402 155.371C426.096 148.982 428.06 142.795 431.178 137.175C434.296 131.556 438.505 126.616 443.558 122.647C448.611 118.679 454.406 115.76 460.602 114.064C466.798 112.368 473.27 111.928 479.638 112.77C486.007 113.613 492.143 115.72 497.686 118.969C503.228 122.218 508.066 126.542 511.915 131.688C515.764 136.834 518.546 142.698 520.097 148.936L520.103 148.941Z" fill="#00CBEB"/>
<path opacity="0.1" d="M520.103 148.941C527.123 174.628 497.175 247.808 497.175 247.808C497.175 247.808 434.161 200.071 427.135 174.384C425.297 168.225 424.708 161.761 425.402 155.371C426.096 148.982 428.06 142.795 431.178 137.175C434.296 131.556 438.505 126.616 443.558 122.647C448.611 118.679 454.406 115.76 460.602 114.064C466.798 112.368 473.27 111.928 479.638 112.77C486.007 113.613 492.143 115.72 497.686 118.969C503.228 122.218 508.066 126.542 511.915 131.688C515.764 136.834 518.546 142.698 520.097 148.936L520.103 148.941Z" fill="black"/>
<path d="M461.16 115.299C461.16 115.299 500.385 174.549 497.453 247.95" stroke="#535461" stroke-miterlimit="10"/>
<path d="M530.112 195.89C530.112 195.89 494.544 176.529 499.047 247.995C499.047 247.995 528.717 246.934 539.248 222.717C541.307 218.007 541.567 212.705 539.979 207.815C538.392 202.926 535.066 198.79 530.634 196.19L530.112 195.89Z" fill="#00CBEB"/>
<path d="M530.696 196.014C530.696 196.014 526.103 233.112 499.047 247.995" stroke="#535461" stroke-miterlimit="10"/>
<path d="M9.39104 187.923C9.39104 187.923 -25.2806 208.849 38.63 241.073C38.63 241.073 52.7107 214.915 37.1442 193.586C34.1234 189.43 29.6842 186.527 24.6675 185.427C19.6509 184.327 14.4051 185.106 9.9241 187.616L9.39104 187.923Z" fill="#00CBEB"/>
<path d="M9.78784 187.486C9.78784 187.486 39.4578 210.183 38.6298 241.078" stroke="#535461" stroke-miterlimit="10"/>
<path d="M442.004 215.165H405.569C406.407 213.477 406.842 211.618 406.839 209.734V43.7308C406.839 40.4938 405.554 37.3893 403.266 35.1004C400.979 32.8115 397.876 31.5256 394.641 31.5256H112.612C109.377 31.5256 106.274 32.8115 103.987 35.1004C101.699 37.3893 100.414 40.4938 100.414 43.7308V209.74C100.411 211.624 100.846 213.483 101.684 215.17H63.9616C63.5364 215.17 63.1155 215.254 62.7229 215.418C62.3303 215.581 61.9738 215.82 61.674 216.122C61.3741 216.423 61.1368 216.781 60.9756 217.175C60.8145 217.569 60.7327 217.99 60.7349 218.416V221.02C60.7349 225.809 62.636 230.401 66.0201 233.787C69.4041 237.173 73.9938 239.075 78.7796 239.075H427.186C431.972 239.075 436.561 237.173 439.945 233.787C443.329 230.401 445.231 225.809 445.231 221.02V218.416C445.233 217.99 445.152 217.568 444.991 217.173C444.831 216.779 444.593 216.42 444.293 216.118C443.994 215.816 443.637 215.576 443.244 215.412C442.851 215.249 442.429 215.165 442.004 215.165ZM217.5 225.491L214.358 221.945H291.925L288.465 225.497L217.5 225.491Z" fill="url(#paint0_linear)"/>
<path d="M390.166 33.8748H117.058C109.773 33.8748 103.867 39.7838 103.867 47.0729V206.784C103.867 214.073 109.773 219.982 117.058 219.982H390.166C397.451 219.982 403.357 214.073 403.357 206.784V47.0729C403.357 39.7838 397.451 33.8748 390.166 33.8748Z" fill="#4B4B4B"/>
<path d="M396.421 61.0029H110.173V213.042H396.421V61.0029Z" fill="white"/>
<path d="M253.3 50.2788C254.694 50.2788 255.824 49.1483 255.824 47.7538C255.824 46.3592 254.694 45.2288 253.3 45.2288C251.907 45.2288 250.777 46.3592 250.777 47.7538C250.777 49.1483 251.907 50.2788 253.3 50.2788Z" fill="white"/>
<path d="M297.493 213.354L287.66 223.449H218.328L209.442 213.354H68.2431C67.4069 213.354 66.6049 213.687 66.0136 214.279C65.4223 214.87 65.0901 215.673 65.0901 216.509V219.051C65.0901 223.732 66.9482 228.22 70.2557 231.529C73.5631 234.839 78.049 236.698 82.7265 236.698H423.239C425.555 236.698 427.848 236.242 429.988 235.355C432.128 234.468 434.072 233.168 435.71 231.529C437.347 229.891 438.646 227.945 439.533 225.804C440.419 223.663 440.875 221.369 440.875 219.051V216.509C440.875 215.673 440.543 214.87 439.952 214.279C439.36 213.687 438.558 213.354 437.722 213.354H297.493Z" fill="#4B4B4B"/>
<path d="M146.745 70.4675V199.793H360.48" stroke="#535461" stroke-width="2" stroke-miterlimit="10"/>
<path opacity="0.5" d="M187.723 160.681H165.657V194.749H187.723V160.681Z" fill="#00CBEB"/>
<path opacity="0.7" d="M225.553 130.398H203.488V194.749H225.553V130.398Z" fill="#00CBEB"/>
<path opacity="0.5" d="M263.383 148.692H241.318V194.743H263.383V148.692Z" fill="#00CBEB"/>
<path opacity="0.8" d="M301.213 120.304H279.148V194.749H301.213V120.304Z" fill="#00CBEB"/>
<path d="M339.044 93.8054H316.979V194.743H339.044V93.8054Z" fill="#00CBEB"/>
<path d="M176.375 139.863L214.835 105.165L252.665 137.968L289.866 98.2256L327.696 82.4514" stroke="#535461" stroke-width="2" stroke-miterlimit="10"/>
<path d="M176.375 144.277C178.812 144.277 180.787 142.301 180.787 139.863C180.787 137.425 178.812 135.448 176.375 135.448C173.938 135.448 171.963 137.425 171.963 139.863C171.963 142.301 173.938 144.277 176.375 144.277Z" fill="#00CBEB"/>
<path d="M252.036 141.752C254.472 141.752 256.448 139.776 256.448 137.338C256.448 134.9 254.472 132.923 252.036 132.923C249.599 132.923 247.624 134.9 247.624 137.338C247.624 139.776 249.599 141.752 252.036 141.752Z" fill="#00CBEB"/>
<path d="M290.495 102.64C292.932 102.64 294.907 100.664 294.907 98.2255C294.907 95.7875 292.932 93.811 290.495 93.811C288.059 93.811 286.083 95.7875 286.083 98.2255C286.083 100.664 288.059 102.64 290.495 102.64Z" fill="#00CBEB"/>
<path d="M214.835 108.944C217.271 108.944 219.247 106.968 219.247 104.529C219.247 102.091 217.271 100.115 214.835 100.115C212.398 100.115 210.423 102.091 210.423 104.529C210.423 106.968 212.398 108.944 214.835 108.944Z" fill="#00CBEB"/>
<path d="M327.696 86.8659C330.133 86.8659 332.108 84.8894 332.108 82.4514C332.108 80.0133 330.133 78.0369 327.696 78.0369C325.26 78.0369 323.284 80.0133 323.284 82.4514C323.284 84.8894 325.26 86.8659 327.696 86.8659Z" fill="#00CBEB"/>
<path d="M491.839 218.881C489.514 218.115 486.066 217.23 483.333 217.542C480.73 216.594 474.611 214.137 470.432 210.438C470.552 206.8 470.46 203.159 470.154 199.532C468.016 175.207 472.825 159.172 472.825 159.172C472.825 159.172 476.602 146.938 476.188 136.787C476.432 137.247 476.568 137.519 476.568 137.519C476.897 128.764 479.88 119.702 482.114 114.056C482.199 114.032 482.282 114.002 482.363 113.966L484.859 108.042C485.057 107.696 485.215 107.329 485.329 106.947L485.732 106.01L485.613 105.959C485.652 105.806 485.692 105.642 485.732 105.477C487.325 98.7305 488.567 82.7293 488.567 82.7293C492.843 65.8884 482.692 55.4933 482.692 55.4933L465.464 40.661C465.55 40.8541 465.607 41.0586 465.634 41.2681L465.493 41.1433C465.249 40.4454 464.982 39.6113 464.721 38.658C465.329 38.2214 465.898 37.7336 466.423 37.1998C468.381 35.3488 469.729 32.9435 470.284 30.3056C470.619 28.2428 470.704 26.1473 470.54 24.064L470.256 16.9089C470.243 15.5086 470.101 14.1125 469.831 12.7384C468.532 7.06423 462.72 3.09231 456.884 2.8313C455.028 2.82048 453.172 2.91901 451.327 3.12636C449.818 3.25039 448.303 3.2826 446.79 3.22282C446.618 3.23195 446.447 3.18626 446.302 3.09231C446.171 2.96125 446.096 2.78422 446.093 2.59865C446.063 2.26656 446.101 1.93189 446.204 1.6149C446.307 1.2979 446.474 1.0052 446.694 0.754549C446.922 0.554232 447.188 0.401804 447.476 0.306293L447.062 0.402753C447.266 0.241716 447.497 0.116964 447.743 0.0339355C446.23 0.300042 444.776 0.828087 443.444 1.59433C443.077 1.83546 442.741 2.11925 442.441 2.43978C441.648 3.13596 441.132 4.09493 440.989 5.14069C440.278 4.54047 439.748 3.75476 439.458 2.87102C439.367 2.50965 439.367 2.1316 439.458 1.77023C439.356 1.89506 439.257 2.02367 439.163 2.15607C439.163 2.11635 439.163 2.07664 439.163 2.03692C438.067 3.38478 437.291 4.9641 436.894 6.65569C436.742 6.47251 436.627 6.26079 436.557 6.03285C436.487 5.8049 436.463 5.56529 436.486 5.32794C436.401 5.59462 436.322 5.8613 436.248 6.12799C436.222 5.95113 436.222 5.77147 436.248 5.59462C435.58 7.64025 435.279 9.78781 435.358 11.9383C435.358 14.0832 436.31 17.4253 438.607 18.1799C438.726 18.2197 438.845 18.248 438.97 18.2764C437.678 20.284 436.905 22.581 436.719 24.9613C436.533 27.3417 436.94 29.731 437.904 31.9152C438.867 34.0994 440.358 36.0101 442.241 37.4761C444.125 38.9421 446.343 39.9175 448.695 40.3149C448.733 40.5759 448.769 40.8501 448.803 41.1376H448.894C448.956 41.7051 449.007 42.3292 449.041 42.9647C448.462 43.5329 447.827 44.0423 447.147 44.4854C445.219 45.6258 443.069 46.3379 440.841 46.5735C438.182 46.7823 435.597 47.556 433.259 48.8432C430.509 50.3809 427.475 52.6221 426.522 55.3457C424.935 59.8851 416.19 66.9494 410.326 67.8289L408.24 67.7098L408.086 67.6644V67.7041L407.576 67.6757H407.548H407.412V67.7041L406.884 67.6757C406.884 67.6757 406.833 67.9197 406.76 68.351C403.811 67.3353 397.544 64.5209 389.39 57.1161C380.316 48.8715 368.039 50.4943 363.304 51.5327C363.143 51.5683 362.996 51.6521 362.884 51.7731C362.772 51.8941 362.699 52.0465 362.676 52.2099C362.652 52.3733 362.679 52.5399 362.753 52.6876C362.827 52.8353 362.944 52.9569 363.088 53.0364C364.999 54.0861 367.959 55.6124 369.326 55.7827C369.326 55.7827 366.491 58.7503 369.508 60.322C369.87 60.4971 370.273 60.5691 370.673 60.53C371.073 60.491 371.455 60.3425 371.776 60.1007C373.239 59.0283 377.305 61.4568 383.197 62.7222C383.197 62.7222 399.824 79.9376 408.081 82.5818C408.271 82.9577 408.481 83.3233 408.71 83.6769L409.221 83.6372V83.6769H409.436L409.499 84.2443C409.499 84.2443 422.337 83.5691 426.511 78.9049C426.807 78.6402 427.078 78.3496 427.322 78.0368L422.859 134.211H422.899L422.859 134.744H426.143C426.423 141.653 426.126 148.573 425.252 155.432V192.054C425.252 192.054 425.082 195.276 431.774 199.997C438.79 204.885 445.551 210.129 452.03 215.709L452.841 216.413C451.61 227.619 449.036 248.506 446.886 249.283L448.213 249.516C445.945 252.393 439.503 260.297 437.541 260.507C435.136 260.773 433.532 264.518 437.541 265.318C445.546 266.705 453.778 265.893 461.359 262.969C462.115 262.671 462.749 262.128 463.16 261.426C463.571 260.725 463.736 259.906 463.627 259.1L462.85 253.198C462.997 253.28 463.116 253.405 463.19 253.556C463.723 255.162 463.19 251.417 463.19 251.417C465.387 244.352 467.113 237.149 468.356 229.855L476.296 236.721C476.296 236.721 476.454 236.522 476.732 236.153C478.677 240.568 482.148 249.601 481.371 256.217C480.305 265.296 490.444 257.284 489.384 251.939C488.522 247.615 492.378 229.287 493.881 222.433C494.043 221.693 493.923 220.919 493.546 220.262C493.168 219.606 492.56 219.113 491.839 218.881V218.881Z" fill="url(#paint1_linear)"/>
<path d="M408.869 70.5981C408.869 70.5981 401.304 69.293 390.087 59.1135C381.212 51.0619 369.241 52.645 364.625 53.6607C364.468 53.6947 364.325 53.7761 364.215 53.8939C364.105 54.0117 364.034 54.1602 364.011 54.3196C363.988 54.479 364.015 54.6416 364.087 54.7855C364.159 54.9294 364.274 55.0477 364.415 55.1246C366.281 56.146 369.173 57.6383 370.528 57.8085C370.528 57.8085 367.733 60.7023 370.704 62.2514C371.06 62.4262 371.457 62.4986 371.852 62.4606C372.246 62.4225 372.623 62.2754 372.938 62.0357C374.367 60.9917 378.337 63.3635 384.093 64.5948C384.093 64.5948 406.527 87.8249 411.744 83.887L408.869 70.5981Z" fill="#FEC3BE"/>
<path d="M447.493 39.0155C447.493 39.0155 449.58 47.8899 447.493 54.1542L456.884 55.4593L465.232 51.2831V45.8018C465.232 45.8018 461.319 37.4494 462.362 27.792L447.493 39.0155Z" fill="#FEC3BE"/>
<path d="M474.084 231.37C474.084 231.37 480.889 244.682 479.823 253.556C478.757 262.43 488.692 254.6 487.649 249.38C486.804 245.158 490.569 227.251 492.038 220.589C492.197 219.869 492.083 219.116 491.719 218.475C491.354 217.835 490.764 217.352 490.064 217.122C486.928 216.089 481.677 214.824 479.04 216.759C475.144 219.624 474.084 231.37 474.084 231.37Z" fill="#4B4B4B"/>
<path d="M448.276 245.987C448.276 245.987 439.407 257.471 437.059 257.732C434.711 257.993 433.146 261.647 437.059 262.43C444.872 263.791 452.907 263.007 460.309 260.161C461.05 259.872 461.672 259.342 462.077 258.657C462.481 257.971 462.643 257.17 462.538 256.382L461.041 245.204L448.276 245.987Z" fill="#4B4B4B"/>
<path d="M433.668 124.1L425.161 125.235C426.329 135.176 426.295 145.222 425.059 155.155V190.902C425.059 190.902 424.895 194.051 431.428 198.63C438.278 203.395 444.88 208.509 451.208 213.95L474.878 234.468C474.878 234.468 484.269 222.984 482.964 216.197C482.964 216.197 467.313 211.238 465.226 203.147C464.029 198.517 457.962 194.635 452.994 192.196C449.871 190.678 447.361 188.137 445.881 184.996C444.4 181.854 444.039 178.299 444.856 174.923C445.146 173.75 445.595 172.622 446.189 171.57C450.363 164.262 456.362 147.818 456.362 147.818L444.885 125.927L433.668 124.1Z" fill="#56C856"/>
<path d="M446.189 246.787C446.189 246.787 461.58 249.397 462.101 250.963C462.623 252.529 462.101 248.875 462.101 248.875C462.101 248.875 470.97 221.991 468.906 198.244C466.842 174.498 471.515 158.831 471.515 158.831C471.515 158.831 476.993 141.083 473.863 130.903C470.732 120.724 437.864 125.161 437.864 125.161C437.864 125.161 449.342 152.045 449.081 164.835C449.081 164.835 450.385 203.464 452.733 207.902C452.71 207.879 449.058 245.726 446.189 246.787Z" fill="#78E178"/>
<path d="M447.998 45.802C447.998 45.802 449.563 55.4481 465.215 51.2833L454.803 130.625C454.803 130.625 424.543 131.669 424.804 128.015L431.042 79.9946L447.998 45.802Z" fill="white"/>
<path opacity="0.1" d="M448.406 45.2798C446.368 47.2875 443.713 48.5489 440.87 48.8602C438.273 49.0593 435.748 49.8099 433.463 51.0618C430.781 52.5654 427.793 54.75 426.885 57.4112C425.059 62.6314 413.581 71.2448 408.364 69.4177L410.19 85.0784C410.19 85.0784 425.059 84.2954 427.668 78.5531L423.239 134.438H427.152C427.152 134.438 429.239 119.299 430.804 116.167C432.369 113.035 435.499 95.8083 435.76 91.6321C436.021 87.4559 439.934 63.4428 443.325 59.2893L448.429 46.8912L448.406 45.2798Z" fill="black"/>
<path opacity="0.1" d="M448.406 46.063C446.075 47.8876 443.287 49.0359 440.348 49.3824C437.752 49.5858 435.229 50.3402 432.947 51.5953C430.265 53.099 427.276 55.2835 426.369 57.9447C424.543 63.1649 413.065 71.7783 407.848 69.9513L409.674 85.612C409.674 85.612 424.543 84.8289 427.152 79.0867L422.717 134.938H426.63C426.63 134.938 428.717 119.799 430.282 116.667C431.847 113.535 434.978 96.3078 435.238 92.1316C435.499 87.9554 439.412 63.9423 442.803 59.7888L448.406 47.6234V46.063Z" fill="black"/>
<path d="M448.406 45.541C446.075 47.3656 443.287 48.5139 440.348 48.8604C437.751 49.0595 435.226 49.8101 432.942 51.062C430.259 52.5656 427.271 54.7502 426.364 57.4114C424.538 62.6316 413.06 71.245 407.843 69.4179L409.669 85.0786C409.669 85.0786 424.538 84.2956 427.146 78.5533L422.717 134.438H426.63C426.63 134.438 428.717 119.3 430.282 116.167C431.847 113.035 434.978 95.8085 435.238 91.6323C435.499 87.4561 439.412 63.443 442.803 59.2895L448.412 47.1525L448.406 45.541Z" fill="#FF8C8C"/>
<path opacity="0.1" d="M461.71 35.492C461.37 33.0181 462.05 31.4747 462.362 28.5752L447.493 39.7987C447.493 39.7987 447.85 41.3137 448.123 43.5323C448.873 43.6536 449.631 43.7143 450.391 43.7139C455.551 43.7139 459.266 39.6795 461.71 35.492Z" fill="black"/>
<path d="M450.363 42.9364C458.142 42.9364 464.449 36.626 464.449 28.8417C464.449 21.0575 458.142 14.7471 450.363 14.7471C442.583 14.7471 436.276 21.0575 436.276 28.8417C436.276 36.626 442.583 42.9364 450.363 42.9364Z" fill="#FEC3BE"/>
<path opacity="0.1" d="M434.989 15.0252C434.899 12.6483 435.284 10.2773 436.123 8.05166C435.89 8.40183 435.792 8.82456 435.846 9.24176C435.9 9.65895 436.103 10.0424 436.418 10.3213C436.872 7.89568 438.116 5.68886 439.957 4.0457C438.953 4.21025 438.437 5.45289 438.686 6.4402C439.025 7.40454 439.629 8.254 440.427 8.89144C440.342 7.39914 441.329 6.00329 442.577 5.18621C443.876 4.43912 445.297 3.92452 446.773 3.66553C446.267 3.84535 445.834 4.18779 445.543 4.63943C445.251 5.09106 445.118 5.62648 445.162 6.16216C445.167 6.34416 445.242 6.51723 445.372 6.64447C445.514 6.73518 445.681 6.77886 445.849 6.7693C447.318 6.82596 448.789 6.79375 450.255 6.67284C452.057 6.46994 453.869 6.37331 455.682 6.38346C461.353 6.62178 467.052 10.4972 468.322 16.0296C468.586 17.3719 468.724 18.7357 468.736 20.1036L469.014 27.0885C469.175 29.1263 469.092 31.1761 468.765 33.1939C468.372 35.0567 467.573 36.8098 466.425 38.3281C465.277 39.8464 463.809 41.0925 462.124 41.9775C460.077 39.0099 459.895 35.1969 459.186 31.6619C459.075 30.8461 458.772 30.0684 458.302 29.3922C458.059 29.0579 457.719 28.8073 457.328 28.6751C456.937 28.543 456.514 28.5358 456.119 28.6546C455.353 28.961 455.024 30.1299 455.659 30.6519C455.092 31.3214 454.032 30.8221 453.391 30.2263C451.601 28.5277 450.369 26.3255 449.858 23.911C449.603 22.6967 449.348 21.1987 448.157 20.7845C447.747 20.6719 447.319 20.6429 446.898 20.6994C444.414 20.8696 440.529 21.8966 438.125 21.1079C435.919 20.3873 434.989 17.119 434.989 15.0252Z" fill="black"/>
<path d="M435.25 14.7642C435.159 12.3873 435.545 10.0163 436.384 7.79067C436.151 8.14084 436.052 8.56357 436.106 8.98076C436.161 9.39796 436.364 9.78143 436.679 10.0603C437.133 7.63469 438.377 5.42788 440.217 3.78471C439.214 3.94926 438.698 5.1919 438.947 6.17921C439.286 7.14356 439.889 7.99301 440.688 8.63045C440.603 7.13814 441.59 5.7423 442.837 4.92521C444.137 4.17813 445.557 3.66353 447.034 3.40454C446.527 3.58436 446.095 3.9268 445.804 4.37844C445.512 4.83007 445.378 5.3655 445.423 5.90117C445.428 6.08317 445.503 6.25625 445.633 6.38348C445.775 6.4742 445.941 6.51787 446.109 6.50831C447.579 6.56497 449.05 6.53276 450.516 6.41185C452.317 6.20894 454.13 6.11232 455.943 6.12247C461.614 6.36078 467.313 10.2362 468.583 15.7686C468.846 17.1109 468.985 18.4747 468.997 19.8426L469.275 26.8275C469.436 28.8653 469.352 30.9151 469.025 32.9329C468.633 34.7957 467.834 36.5488 466.686 38.0671C465.538 39.5854 464.069 40.8315 462.385 41.7165C460.338 38.749 460.156 34.9359 459.447 31.4009C459.335 30.5851 459.032 29.8074 458.563 29.1312C458.32 28.7969 457.98 28.5463 457.588 28.4141C457.197 28.282 456.775 28.2748 456.379 28.3936C455.614 28.7 455.285 29.8689 455.92 30.3909C455.353 31.0605 454.292 30.5611 453.652 29.9653C451.862 28.2667 450.63 26.0645 450.119 23.65C449.863 22.4357 449.608 20.9377 448.417 20.5235C448.008 20.4109 447.58 20.3819 447.159 20.4384C444.675 20.6086 440.79 21.6357 438.386 20.8469C436.18 20.1206 435.25 16.858 435.25 14.7642Z" fill="#4B4B4B"/>
<path opacity="0.1" d="M407.168 69.4236C407.168 69.4236 405.081 79.0697 408.994 85.0843L411.211 84.9027L410.003 69.5825L407.168 69.4236Z" fill="black"/>
<path d="M407.735 69.4236C407.735 69.4236 405.648 79.0697 409.561 85.0843L411.778 84.9027L410.57 69.5825L407.735 69.4236Z" fill="#FF5A5A"/>
<path opacity="0.1" d="M463.797 43.084L480.622 57.5701C480.622 57.5701 490.535 67.7496 486.361 84.1934C486.361 84.1934 484.535 108.206 482.448 109.25C482.448 109.25 475.144 123.867 474.623 137.701C474.623 137.701 464.84 117.994 460.406 130.001C455.971 142.007 445.662 143.704 445.662 143.704L451.401 72.6861C451.401 72.6861 465.884 47.4985 463.797 43.084Z" fill="black"/>
<path d="M464.319 43.084L481.144 57.5701C481.144 57.5701 491.057 67.7496 486.883 84.1934C486.883 84.1934 485.057 108.206 482.97 109.25C482.97 109.25 475.666 123.867 475.144 137.701C475.144 137.701 464.84 116.95 460.4 128.957C455.96 140.963 446.183 143.71 446.183 143.71L451.922 72.7202C451.922 72.7202 466.405 47.4985 464.319 43.084Z" fill="#FF8C8C"/>
<path d="M472.014 104.269C472.014 104.269 476.188 101.397 482.97 109.228L466.275 139.505L460.667 131.034C460.667 131.034 472.536 107.662 472.014 104.269Z" fill="#FEC3BE"/>
<path opacity="0.1" d="M467.971 105.965C467.971 105.965 477.203 116.337 480.804 114.675L484.138 106.907L471.623 101.528L467.971 105.965Z" fill="black"/>
<path d="M467.971 105.443C467.971 105.443 477.203 115.815 480.804 114.153L484.138 106.385L471.623 101.006L467.971 105.443Z" fill="#FF5A5A"/>
<path opacity="0.1" d="M461.234 129.053C461.234 129.053 465.629 138.064 467.971 138.586L464.568 142.501L459.612 133.105L461.234 129.053Z" fill="black"/>
<path d="M460.973 129.331C460.973 129.331 465.368 138.342 467.71 138.864L464.307 142.779L459.34 133.366L460.973 129.331Z" fill="#56C856"/>
<path opacity="0.1" d="M469.275 73.5996C469.275 73.5996 469.797 92.3925 467.71 99.4398Z" fill="black"/>
<path opacity="0.1" d="M427.016 77.2538C427.016 77.2538 430.146 76.2097 430.146 73.5996Z" fill="black"/>
<path d="M46.8924 80.3975C46.8924 80.3975 32.0234 111.174 41.7887 147.597C51.5539 184.019 48.4519 227.603 38.715 238.383" stroke="#535461" stroke-width="2" stroke-miterlimit="10"/>
<path d="M46.8923 84.5054C49.1567 84.5054 50.9923 82.6687 50.9923 80.403C50.9923 78.1373 49.1567 76.3005 46.8923 76.3005C44.6279 76.3005 42.7922 78.1373 42.7922 80.403C42.7922 82.6687 44.6279 84.5054 46.8923 84.5054Z" fill="#00CBEB"/>
<path d="M40.7112 100.195C40.7112 100.195 56.1246 102.975 60.2246 97.3574" stroke="#535461" stroke-width="2" stroke-miterlimit="10"/>
<path d="M39.2481 109.131C39.2481 109.131 29.9763 98.8667 30.4866 92.7102" stroke="#535461" stroke-width="2" stroke-miterlimit="10"/>
<path d="M38.4597 127.935C38.4597 127.935 46.8923 130.16 54.5876 113.75" stroke="#535461" stroke-width="2" stroke-miterlimit="10"/>
<path d="M40.7111 141.61C40.7111 141.61 19.7289 128.1 22.2865 119.385" stroke="#535461" stroke-width="2" stroke-miterlimit="10"/>
<path d="M43.9888 157.072C43.9888 157.072 58.6876 144.022 57.1508 131.181" stroke="#535461" stroke-width="2" stroke-miterlimit="10"/>
<path d="M45.5881 166.162C45.5881 166.162 26.8743 160.931 27.4413 152.726" stroke="#535461" stroke-width="2" stroke-miterlimit="10"/>
<path d="M46.8923 176.994C46.8923 176.994 58.6821 166.066 60.2189 159.405" stroke="#535461" stroke-width="2" stroke-miterlimit="10"/>
<path d="M47.7145 195.577C47.7145 195.577 35.6186 181.449 35.1025 174.271" stroke="#535461" stroke-width="2" stroke-miterlimit="10"/>
<path d="M47.7146 207.272C47.7146 207.272 61.2509 192.224 62.2717 185.046" stroke="#535461" stroke-width="2" stroke-miterlimit="10"/>
<path d="M30.4865 97.8396C32.7509 97.8396 34.5865 96.0029 34.5865 93.7372C34.5865 91.4715 32.7509 89.6348 30.4865 89.6348C28.2221 89.6348 26.3865 91.4715 26.3865 93.7372C26.3865 96.0029 28.2221 97.8396 30.4865 97.8396Z" fill="#00CBEB"/>
<path d="M25.8762 156.828C28.1405 156.828 29.9762 154.992 29.9762 152.726C29.9762 150.46 28.1405 148.624 25.8762 148.624C23.6118 148.624 21.7761 150.46 21.7761 152.726C21.7761 154.992 23.6118 156.828 25.8762 156.828Z" fill="#00CBEB"/>
<path d="M22.2866 123.487C24.5509 123.487 26.3866 121.65 26.3866 119.385C26.3866 117.119 24.5509 115.282 22.2866 115.282C20.0222 115.282 18.1865 117.119 18.1865 119.385C18.1865 121.65 20.0222 123.487 22.2866 123.487Z" fill="#00CBEB"/>
<path d="M60.2245 101.431C62.4889 101.431 64.3246 99.5947 64.3246 97.329C64.3246 95.0633 62.4889 93.2266 60.2245 93.2266C57.9602 93.2266 56.1245 95.0633 56.1245 97.329C56.1245 99.5947 57.9602 101.431 60.2245 101.431Z" fill="#00CBEB"/>
<path d="M60.2245 164.523C62.4889 164.523 64.3246 162.686 64.3246 160.42C64.3246 158.154 62.4889 156.318 60.2245 156.318C57.9602 156.318 56.1245 158.154 56.1245 160.42C56.1245 162.686 57.9602 164.523 60.2245 164.523Z" fill="#00CBEB"/>
<path d="M53.5612 117.847C55.8256 117.847 57.6612 116.01 57.6612 113.745C57.6612 111.479 55.8256 109.642 53.5612 109.642C51.2968 109.642 49.4612 111.479 49.4612 113.745C49.4612 116.01 51.2968 117.847 53.5612 117.847Z" fill="#00CBEB"/>
<path d="M61.7614 191.713C64.0258 191.713 65.8614 189.876 65.8614 187.611C65.8614 185.345 64.0258 183.508 61.7614 183.508C59.497 183.508 57.6614 185.345 57.6614 187.611C57.6614 189.876 59.497 191.713 61.7614 191.713Z" fill="#00CBEB"/>
<path d="M34.0761 180.938C36.3405 180.938 38.1761 179.101 38.1761 176.836C38.1761 174.57 36.3405 172.733 34.0761 172.733C31.8117 172.733 29.9761 174.57 29.9761 176.836C29.9761 179.101 31.8117 180.938 34.0761 180.938Z" fill="#00CBEB"/>
<path d="M57.6613 135.284C59.9257 135.284 61.7613 133.447 61.7613 131.181C61.7613 128.916 59.9257 127.079 57.6613 127.079C55.3969 127.079 53.5613 128.916 53.5613 131.181C53.5613 133.447 55.3969 135.284 57.6613 135.284Z" fill="#00CBEB"/>
</g>
<defs>
<linearGradient id="paint0_linear" x1="252.983" y1="239.053" x2="252.983" y2="31.52" gradientUnits="userSpaceOnUse">
<stop stop-color="#808080" stop-opacity="0.25"/>
<stop offset="0.54" stop-color="#808080" stop-opacity="0.12"/>
<stop offset="1" stop-color="#808080" stop-opacity="0.1"/>
</linearGradient>
<linearGradient id="paint1_linear" x1="115673" y1="171206" x2="115673" y2="46558.7" gradientUnits="userSpaceOnUse">
<stop stop-color="#808080" stop-opacity="0.25"/>
<stop offset="0.54" stop-color="#808080" stop-opacity="0.12"/>
<stop offset="1" stop-color="#808080" stop-opacity="0.1"/>
</linearGradient>
<clipPath id="clip0">
<rect width="541" height="312" fill="white"/>
</clipPath>
</defs>
</svg>
