<svg width="973" height="640" viewBox="0 0 973 640" fill="none" xmlns="http://www.w3.org/2000/svg">
<g clip-path="url(#clip0)">
<path d="M337.63 279.406C338.75 285.296 340.094 291.126 341.66 296.896C341.83 297.566 342.02 298.226 342.21 298.896H364C365.856 298.898 367.635 299.636 368.948 300.948C370.26 302.26 370.998 304.04 371 305.896V368.016C371.66 369.246 372.33 370.466 373 371.686C376.46 377.986 380.06 384.216 383.74 390.366C443.747 490.322 527.44 573.966 627.43 633.916L621.51 620.556C623.68 620.406 625.86 620.256 628.03 620.106C675.28 616.876 722.69 613.296 768.83 602.676C817.1 591.566 864.32 572.296 902.15 540.346C939.991 508.386 967.73 462.746 971.58 413.366C972.864 396.395 971.148 379.331 966.51 362.956C957.64 331.436 938.26 303.076 910.3 286.296C866.38 259.946 809.09 265.316 762.79 287.236C716.5 309.146 678.82 345.416 642.03 381.056C679.175 317.358 730.893 263.375 792.94 223.536C813.5 210.376 835.32 198.656 852.8 181.606C870.27 164.566 883.16 140.676 880.07 116.466C876.56 89.0057 854.07 68.1657 831.54 52.0957C822.54 45.6757 813.25 39.5857 803.67 33.9857C776.64 18.1457 747.4 6.19566 716.52 1.76566C674.69 -4.24434 629.51 4.87566 597.44 32.3957C561.31 63.4057 546.49 113.416 547.9 161.256C525.64 128.896 491.31 104.126 452.54 103.076C412.29 101.996 374.03 127.426 353.87 162.286C333.72 197.136 330.1 239.856 337.63 279.406Z" fill="#E6E6E6"/>
<path d="M592.288 413.801C568.714 411.725 546.937 409.299 524.092 402.835C501.949 396.569 480.641 386.08 464.878 368.953C447.923 350.531 438.771 326.607 432.313 302.792C428.713 289.514 425.755 276.05 422.963 262.582C419.935 247.968 417.244 233.291 414.89 218.548C410.206 189.203 406.861 159.685 404.857 129.994C404.615 126.39 404.393 122.785 404.191 119.179C404.066 116.954 407.527 116.961 407.652 119.179C409.298 148.445 412.26 177.598 416.537 206.636C420.757 235.166 426.157 263.573 433.009 291.591C438.813 315.327 446.328 339.434 461.215 359.194C475.174 377.723 495.337 389.831 517.107 397.071C539.26 404.438 562.617 407.379 585.766 409.566C588.606 409.835 589.447 410.09 592.288 410.341C594.489 410.534 594.51 413.996 592.288 413.801L592.288 413.801Z" fill="white"/>
<path d="M964.513 365.509C934.769 367.158 905.328 372.346 876.812 380.963C848.284 389.562 820.869 401.495 795.136 416.514C770.271 431.039 747.188 448.419 726.356 468.3C706.138 487.607 688.119 509.092 672.629 532.362C657.068 555.691 644.171 580.692 634.182 606.895C632.964 610.102 631.791 613.326 630.663 616.566C629.933 618.655 626.59 617.756 627.326 615.646C636.671 588.889 648.992 563.266 664.055 539.259C679.115 515.249 696.789 492.983 716.755 472.867C737.04 452.44 759.617 434.423 784.035 419.175C835.307 387.238 893.422 367.917 953.61 362.8C957.24 362.495 960.875 362.245 964.513 362.049C966.738 361.927 966.731 365.387 964.513 365.509L964.513 365.509Z" fill="white"/>
<path d="M802.736 38.0415C783.718 44.0898 765.692 52.8985 749.234 64.1857C732.417 75.7979 717.08 89.4186 703.562 104.746C689.317 120.87 676.652 138.323 665.742 156.867C654.17 176.446 644.117 196.885 635.672 218.002C626.976 239.683 619.662 261.892 613.774 284.498C607.789 307.371 603.113 330.567 599.771 353.973C596.446 377.13 594.434 400.457 593.744 423.842C593.049 446.203 593.71 468.585 595.723 490.866C597.565 511.653 600.928 532.277 605.786 552.572C610.101 570.903 616.181 588.772 623.941 605.929C625.739 609.823 627.646 613.663 629.664 617.45C630.71 619.414 627.724 621.164 626.676 619.196C618.1 602.808 611.251 585.572 606.242 567.767C600.621 547.946 596.547 527.719 594.056 507.267C591.295 485.079 589.95 462.737 590.03 440.378C590.08 416.888 591.478 393.42 594.218 370.09C596.959 346.469 601.029 323.021 606.408 299.858C611.774 276.657 618.581 253.813 626.789 231.459C634.7 209.819 644.172 188.782 655.131 168.514C665.568 149.173 677.731 130.814 691.472 113.663C704.522 97.3314 719.42 82.5675 735.868 69.6663C751.729 57.2635 769.256 47.1536 787.934 39.6338C792.498 37.8171 797.125 36.1742 801.816 34.705C803.945 34.0352 804.856 37.3745 802.736 38.0415H802.736Z" fill="white"/>
<path d="M597.5 639.896C460.81 639.896 350 635.418 350 629.896C350 624.373 460.81 619.896 597.5 619.896C734.19 619.896 845 624.373 845 629.896C845 635.418 734.19 639.896 597.5 639.896Z" fill="#E6E6E6"/>
<path d="M378.831 316.685C378.954 317.225 379.034 317.773 379.071 318.325L422.028 343.107L432.469 337.097L443.601 351.669L421.263 367.589L372.256 328.927C370.257 329.666 368.08 329.78 366.015 329.252C363.95 328.725 362.095 327.581 360.696 325.973C359.296 324.366 358.42 322.37 358.182 320.252C357.945 318.134 358.358 315.994 359.367 314.116C360.375 312.239 361.932 310.713 363.829 309.741C365.726 308.77 367.873 308.399 369.986 308.678C372.099 308.957 374.077 309.872 375.657 311.302C377.237 312.733 378.344 314.61 378.831 316.685V316.685Z" fill="#FFB8B8"/>
<path d="M476.664 331.889L442.84 355.996L427.712 337.029L460.592 310.647C462.007 309.512 463.638 308.677 465.386 308.195C467.135 307.712 468.963 307.592 470.76 307.841C472.556 308.09 474.283 308.703 475.834 309.643C477.385 310.582 478.728 311.829 479.781 313.306V313.306C481.832 316.183 482.656 319.758 482.071 323.243C481.487 326.728 479.542 329.838 476.664 331.889Z" fill="#00CBEB"/>
<path d="M546.485 606.957L534.625 610.064L516.995 565.8L534.498 561.213L546.485 606.957Z" fill="#FFB8B8"/>
<path d="M514.639 627.07L551.912 617.303L548.138 602.903L525.267 608.896C521.447 609.897 518.182 612.373 516.189 615.782C514.196 619.19 513.638 623.251 514.639 627.07V627.07V627.07Z" fill="#2F2E41"/>
<path d="M441.062 615.401L428.993 613.245L431.565 565.668L449.377 568.85L441.062 615.401Z" fill="#FFB8B8"/>
<path d="M403.716 620.294L441.646 627.07L444.264 612.415L420.989 608.257C419.064 607.914 417.091 607.952 415.181 608.371C413.272 608.79 411.463 609.581 409.859 610.699C408.255 611.816 406.887 613.239 405.833 614.886C404.779 616.532 404.06 618.37 403.716 620.294V620.294V620.294Z" fill="#2F2E41"/>
<path d="M464.827 265.508C461.853 266.232 459.433 269.263 457.98 272.773C456.64 276.461 455.733 280.291 455.276 284.188C454.135 291.444 453.038 299.3 455.4 306.021C458.167 313.899 465.542 318.025 471.939 316.086C478.335 314.147 483.423 306.869 485.161 298.492C486.744 290.027 485.724 281.281 482.237 273.407C480.42 269.27 477.915 265.453 474.586 263.587C472.954 262.6 471.008 262.267 469.14 262.656C467.272 263.046 465.621 264.128 464.518 265.685" fill="#2F2E41"/>
<path d="M448 396.896L425.023 602.69L444 609.896L479 471.896L527.728 598.074L548.5 599.228C548.5 599.228 520 402.896 498.878 398.434L448 396.896Z" fill="#2F2E41"/>
<path d="M467.299 291.771C453.735 291.771 442.738 280.775 442.738 267.21C442.738 253.646 453.735 242.649 467.299 242.649C480.864 242.649 491.86 253.646 491.86 267.21C491.86 280.775 480.864 291.771 467.299 291.771Z" fill="#FFB8B8"/>
<path d="M456.758 302.076L483.3 298.614C483.3 298.614 500.61 319.386 499.456 355.159C498.302 390.933 502.341 401.896 502.341 401.896L447 402.896C455 391.896 421.539 328.719 456.758 302.076Z" fill="#00CBEB"/>
<path d="M442.5 407.896C443.053 407.9 443.606 407.947 444.151 408.038L478.106 371.892L474.645 360.352L491.377 352.851L501.764 378.239L452.912 417.098C453.174 419.213 452.787 421.358 451.801 423.248C450.814 425.137 449.277 426.681 447.391 427.676C445.506 428.67 443.363 429.066 441.247 428.813C439.131 428.559 437.142 427.667 435.545 426.256C433.948 424.844 432.819 422.98 432.307 420.911C431.795 418.842 431.926 416.666 432.681 414.673C433.436 412.68 434.78 410.964 436.534 409.753C438.288 408.543 440.369 407.895 442.5 407.896V407.896Z" fill="#FFB8B8"/>
<path d="M479.69 316.139L495.417 354.582L473.491 364.968L455.333 326.923C454.552 325.286 454.113 323.507 454.043 321.694C453.974 319.882 454.275 318.075 454.928 316.383C455.582 314.691 456.574 313.15 457.843 311.855C459.113 310.56 460.634 309.538 462.312 308.851V308.851C463.932 308.189 465.666 307.852 467.416 307.86C469.166 307.867 470.897 308.219 472.51 308.896C474.124 309.573 475.588 310.561 476.82 311.803C478.052 313.046 479.027 314.519 479.69 316.139V316.139Z" fill="#00CBEB"/>
<path d="M473.724 289.54C469.875 287.32 469.465 281.964 469.988 277.552C470.511 273.14 471.385 268.222 468.791 264.614C465.696 260.309 459.477 260.223 454.177 260.082C448.876 259.942 442.421 258.39 441.047 253.268C440.14 249.884 442.081 246.252 444.868 244.128C447.654 242.004 451.14 241.064 454.528 240.172C462.108 238.175 469.934 236.162 477.694 237.259C485.381 238.346 492.331 242.416 497.04 248.588C501.749 254.76 503.839 262.538 502.857 270.239C501.601 280.09 499.779 284.392 500.975 288.735C503.202 296.826 512.806 302.023 512.997 310.412C513.147 316.974 507.351 322.036 501.696 325.368C497.21 328.011 492.369 330.253 487.199 330.872C482.03 331.491 476.465 330.306 472.614 326.802C467.647 322.283 466.418 314.734 467.843 308.172C469.267 301.609 472.92 295.782 476.534 290.123" fill="#2F2E41"/>
<path d="M9 296.896H364C366.386 296.899 368.673 297.848 370.36 299.536C372.047 301.223 372.996 303.51 373 305.896V533.896C372.996 536.281 372.047 538.568 370.36 540.255C368.673 541.943 366.386 542.892 364 542.896H9C6.61415 542.892 4.32706 541.943 2.64001 540.255C0.952965 538.568 0.00358921 536.281 0 533.896V305.896C0.00358921 303.51 0.952965 301.223 2.64001 299.536C4.32706 297.848 6.61415 296.899 9 296.896V296.896ZM2 533.896C2.00206 535.751 2.74018 537.531 4.05249 538.843C5.3648 540.155 7.14412 540.893 9 540.896H364C365.856 540.893 367.635 540.155 368.947 538.843C370.26 537.531 370.998 535.751 371 533.896V305.896C370.998 304.04 370.26 302.26 368.947 300.948C367.635 299.636 365.856 298.898 364 298.896H9C7.14412 298.898 5.3648 299.636 4.05249 300.948C2.74018 302.26 2.00206 304.04 2 305.896V533.896Z" fill="#3F3D56"/>
<path d="M27.4891 469.9H345.489C347.213 469.9 348.866 469.216 350.085 467.997C351.304 466.778 351.989 465.124 351.989 463.4C351.989 461.676 351.304 460.023 350.085 458.804C348.866 457.585 347.213 456.9 345.489 456.9H27.4891C25.7652 456.9 24.1119 457.585 22.8929 458.804C21.674 460.023 20.9891 461.676 20.9891 463.4C20.9891 465.124 21.674 466.778 22.8929 467.997C24.1119 469.216 25.7652 469.9 27.4891 469.9V469.9Z" fill="#CCCCCC"/>
<path d="M27.2754 438.4H345.275C346.999 438.4 348.653 437.716 349.872 436.497C351.091 435.278 351.775 433.624 351.775 431.9C351.775 430.176 351.091 428.523 349.872 427.304C348.653 426.085 346.999 425.4 345.275 425.4H27.2754C25.5515 425.4 23.8982 426.085 22.6792 427.304C21.4602 428.523 20.7754 430.176 20.7754 431.9C20.7754 433.624 21.4602 435.278 22.6792 436.497C23.8982 437.716 25.5515 438.4 27.2754 438.4V438.4Z" fill="#CCCCCC"/>
<path d="M298.276 395.391H345.276C347 395.391 348.653 394.706 349.872 393.487C351.091 392.268 351.776 390.615 351.776 388.891C351.776 387.167 351.091 385.513 349.872 384.294C348.653 383.075 347 382.391 345.276 382.391H298.276C296.552 382.391 294.899 383.075 293.68 384.294C292.461 385.513 291.776 387.167 291.776 388.891C291.776 390.615 292.461 392.268 293.68 393.487C294.899 394.706 296.552 395.391 298.276 395.391V395.391Z" fill="#CCCCCC"/>
<path d="M141.276 363.4H345.276C347 363.4 348.653 362.716 349.872 361.497C351.091 360.278 351.776 358.624 351.776 356.9C351.776 355.176 351.091 353.523 349.872 352.304C348.653 351.085 347 350.4 345.276 350.4H141.276C139.552 350.4 137.899 351.085 136.68 352.304C135.461 353.523 134.776 355.176 134.776 356.9C134.776 358.624 135.461 360.278 136.68 361.497C137.899 362.716 139.552 363.4 141.276 363.4V363.4Z" fill="#CCCCCC"/>
<path d="M192.276 501.9H345.489C347.213 501.9 348.866 501.216 350.085 499.997C351.304 498.778 351.989 497.124 351.989 495.4C351.989 493.676 351.304 492.023 350.085 490.804C348.866 489.585 347.213 488.9 345.489 488.9H192.276C190.552 488.9 188.899 489.585 187.68 490.804C186.461 492.023 185.776 493.676 185.776 495.4C185.776 497.124 186.461 498.778 187.68 499.997C188.899 501.216 190.552 501.9 192.276 501.9V501.9Z" fill="#CCCCCC"/>
</g>
<defs>
<clipPath id="clip0">
<rect width="972.004" height="639.896" fill="white" transform="matrix(-1 0 0 1 972.004 0)"/>
</clipPath>
</defs>
</svg>
