<?xml version="1.0" encoding="utf-8"?>
<!-- Generator: Adobe Illustrator 24.3.0, SVG Export Plug-In . SVG Version: 6.00 Build 0)  -->
<svg version="1.1" id="SpareBank_1" xmlns="http://www.w3.org/2000/svg" xmlns:xlink="http://www.w3.org/1999/xlink" x="0px"
	 y="0px" viewBox="0 0 281.9 145.5" style="enable-background:new 0 0 281.9 145.5;" xml:space="preserve">
<style type="text/css">
	.st0{fill:#002776;}
	.st1{fill:#E60000;}
	.st2{fill:#AF0000;}
	.st3{fill:#FFFFFF;}
	.st4{fill:none;}
</style>
<g>
	<g>
		<g>
			<path class="st0" d="M28.2,54.8c-5.1,0-9.2-1.2-9.9-1.4c-0.4-0.2-0.6-0.5-0.6-0.8v-0.2l0.5-2.6c0.1-0.4,0.4-0.5,0.7-0.5
				c0.1,0,0.2,0,0.3,0c0.8,0.2,4.9,1.3,8.6,1.3c3.2,0,6.1-0.9,6.1-4.3c0-3.4-3-3.7-6.8-4.3c-4.3-0.6-9.7-1.8-9.7-8.5
				c0-6.9,5.1-8.7,11.2-8.7c4.6,0,8.4,1.1,9.3,1.3c0.5,0.1,0.7,0.4,0.7,0.8v0.2L38,29.7c0,0.3-0.3,0.6-0.6,0.6c0,0-0.1,0-0.1,0
				c-1.9-0.4-4.8-1.2-8.3-1.2c-2.9,0-6,0.6-6,3.9c0,3.3,3.3,3.7,6.8,4.3c4.6,0.7,9.9,1.4,9.9,8.7C39.6,52.8,34,54.8,28.2,54.8z"/>
			<path class="st0" d="M78.3,54.4c-1.4,0.3-3.3,0.6-5.5,0.6c-4.3,0-9.5-0.4-9.5-6.7c0-5.1,3.2-5.6,6.4-6.2l7-1.1v-1.3
				c0-1.1-0.1-1.9-1.1-2.3c-0.6-0.3-1.6-0.4-3-0.4c-2.7,0-5.6,0.8-6.8,1.1c-0.1,0-0.2,0-0.3,0c-0.2,0-0.4-0.1-0.4-0.4l-0.6-2.4v-0.2
				c0-0.4,0.3-0.5,0.5-0.6c0.9-0.4,4.6-1.3,8.6-1.3c2.8,0,4.7,0.4,6,1.1c2,1.1,2.4,3,2.4,5.1v10.9C82,53.2,81,53.7,78.3,54.4z
				 M76.7,44.3l-4.9,0.8c-1.6,0.2-3.1,0.5-3.1,3c0,3.1,2.5,3.3,4.4,3.3c1.5,0,2.8-0.3,3.6-0.6V44.3z"/>
			<path class="st0" d="M96,37.2c-2.4,0-4.5,0.2-5.6,0.5v16.1c0,0.4-0.2,0.6-0.6,0.6h-4c-0.2,0-0.7-0.2-0.7-0.6v-17
				c0-1.5,0.9-2,2.8-2.6c1.7-0.6,4.5-0.9,6.8-1h0.7c0.6,0,0.6,0,0.8,0.1c0.2,0.1,0.4,0.2,0.4,0.6v2.6C96.6,36.9,96.6,37.2,96,37.2z"
				/>
			<path class="st0" d="M116.7,45.6c0,0.4-0.2,0.9-0.8,0.9h-13.2c0,1.8,0.5,2.8,1.6,3.6c1,0.8,2.5,1.2,4.7,1.2
				c2.4,0,4.3-0.6,5.5-0.9c0.1,0,0.1,0,0.2,0c0.2,0,0.4,0.2,0.6,0.6l0.5,2c0,0,0,0.1,0,0.2c0,0.3-0.2,0.5-0.5,0.6
				c-1.3,0.6-4,1.3-7.1,1.3c-7.7,0-10.8-3-10.8-10.8c0-7.4,2.1-11,9.7-11c4,0,6.4,1,7.9,2.9c1.3,1.8,1.8,4.3,1.8,7.6V45.6z
				 M111.1,39.7c-0.5-2.2-1.7-2.9-4-2.9c-2.6,0-3.7,0.8-4.2,2.8c-0.3,1.1-0.3,2.2-0.3,3.6l8.8,0C111.4,41.8,111.4,40.7,111.1,39.7z"
				/>
			<path class="st0" d="M161.6,54.4c-1.4,0.3-3.3,0.6-5.5,0.6c-4.3,0-9.5-0.4-9.5-6.7c0-5.1,3.2-5.6,6.4-6.2l7-1.1v-1.3
				c0-1.1-0.1-1.9-1.1-2.3c-0.6-0.3-1.6-0.4-3-0.4c-2.7,0-5.6,0.8-6.8,1.1c-0.1,0-0.2,0-0.3,0c-0.2,0-0.4-0.1-0.4-0.4l-0.6-2.4v-0.2
				c0-0.4,0.3-0.5,0.5-0.6c0.9-0.4,4.6-1.3,8.6-1.3c2.8,0,4.7,0.4,6,1.1c2,1.1,2.4,3,2.4,5.1v10.9C165.2,53.2,164.3,53.7,161.6,54.4
				z M160,44.3l-4.9,0.8c-1.6,0.2-3.1,0.5-3.1,3c0,3.1,2.5,3.3,4.4,3.3c1.5,0,2.8-0.3,3.6-0.6V44.3z"/>
			<path class="st0" d="M186.3,54.4h-4.1c-0.4,0-0.6-0.2-0.6-0.6V39.9c0-2.3-0.9-3.1-3-3.1c-2.4,0-4.9,0.7-4.9,0.7v16.3
				c0,0.4-0.2,0.6-0.6,0.6h-4c-0.4,0-0.7-0.2-0.7-0.6v-17c0-1.5,0.7-2,3-2.6c2-0.6,5.3-1,7.9-1c4.9,0,7.7,1.3,7.7,6v14.6
				C186.9,54.2,186.7,54.4,186.3,54.4z"/>
			<path class="st0" d="M209.2,54c0,0.2-0.2,0.4-0.4,0.4h-5.3c-0.2,0-0.4,0-0.6-0.2l-6.1-8.3h-1.3v8c0,0.4-0.2,0.6-0.6,0.6h-4.1
				c-0.4,0-0.6-0.2-0.6-0.6V26.2c0-0.5,0.2-0.7,0.7-0.8l3.9-0.7h0.2c0.4,0,0.6,0.2,0.6,0.7v16.9h1.3l6.2-8.3
				c0.2-0.2,0.3-0.3,0.5-0.3l4.8,0.1c0.3,0,0.4,0.2,0.4,0.4c0,0.1,0,0.1-0.1,0.2l-7.5,9.4l7.9,10.1C209.2,53.9,209.2,54,209.2,54z"
				/>
			<path class="st0" d="M47.8,50.8"/>
			<path class="st0" d="M53,33.2c-2.6,0-5.7,0.4-8,1.3c-1.8,0.6-2.5,1.1-2.5,3.2v24.4c0,0.4,0.3,0.7,0.9,0.6
				c0.6-0.1,3.7-0.7,3.7-0.7c0.5-0.1,0.7-0.3,0.7-0.8v-6.9c1.4,0.3,3.2,0.6,5.1,0.6c7.3,0,8.7-4.6,8.7-10.9
				C61.6,37.8,60.6,33.2,53,33.2z M51.5,51.3c-2.1,0-3.7-0.5-3.7-0.5V37.5c0,0,2.3-0.6,4.1-0.6c3,0,4.3,0.7,4.3,7.1
				C56.2,49.9,55.1,51.3,51.5,51.3z"/>
			<path class="st0" d="M134,54.4h-13.1c-0.4,0-0.7-0.3-0.7-0.6V25.9c0-0.4,0.3-0.6,0.7-0.6h13.2c6.7,0,9.4,2.6,9.4,7.4
				c0,4.2-2.3,5.7-5.9,6.7c4,0.7,6.9,2.8,6.9,7.5C144.4,52.1,140.7,54.4,134,54.4z M133.5,29.3h-7.6v8.4l7.3-0.3
				c3-0.1,4.5-1.2,4.5-4.2C137.8,30.5,136.4,29.3,133.5,29.3z M133.3,41.6l-7.4-0.2v9h7.4c4,0,5.3-1.7,5.3-4.1
				C138.6,43,137.5,41.7,133.3,41.6z"/>
		</g>
		<g>
			<path class="st1" d="M242.8,11.3c-2.9,0-5.8,0.5-8.4,1.3c11.2-2.4,22.2,2.2,26.2,11.6c4.6,10.9-2,24.1-14.7,29.5
				c-11.4,4.8-23.9,1.7-29.7-6.8c3.4,11.5,14,19.9,26.6,19.9c15.3,0,27.8-12.4,27.8-27.8S258.2,11.3,242.8,11.3z"/>
			<path class="st2" d="M245.9,53.7c12.7-5.4,19.3-18.6,14.7-29.5c-4-9.4-15.1-14-26.2-11.6c-11.2,3.6-19.3,14.1-19.3,26.5
				c0,2.7,0.4,5.3,1.1,7.8C222,55.5,234.5,58.6,245.9,53.7z"/>
			<g>
				<path class="st3" d="M249.9,51.7V23.2c0-0.6-0.5-1-1-1h-6.5c-0.5,0-0.7,0.1-1.1,0.3l-8.3,4.3c-0.5,0.2-0.7,0.5-0.7,1v4.7
					c0,0.5,0.4,1,1,1h5.3v22.4c2.4-0.3,4.9-1,7.3-2C247.3,53.1,248.7,52.4,249.9,51.7z"/>
				<path class="st4" d="M239.6,60.3h9.3c0.6,0,1-0.5,1-1v-7.6c-1.3,0.8-2.6,1.5-4,2.1c-2.4,1-4.9,1.7-7.3,2v3.5
					C238.6,59.9,239.1,60.3,239.6,60.3z"/>
			</g>
		</g>
	</g>
	<rect x="0.1" class="st4" width="281.6" height="145.5"/>
	<rect x="14.3" y="84.5" class="st0" width="253.2" height="1"/>
	<g>
		<path class="st0" d="M69.5,104.1c0-0.7,0.4-1.1,1.1-1.1H77c2.3,0,3.5,0.2,4.5,0.6c2.3,1,3.8,3.2,3.8,6.3s-1.6,5.7-4.3,6.6v0.1
			c0,0,0.3,0.3,0.7,1.1l4.3,8c0.4,0.8,0.1,1.3-0.7,1.3h-1.4c-0.6,0-1.1-0.2-1.3-0.8l-4.7-8.8h-5.1v8.4c0,0.7-0.4,1.1-1.1,1.1h-1.1
			c-0.7,0-1.1-0.4-1.1-1.1V104.1z M77.6,114.5c2.6,0,4.3-1.8,4.3-4.5c0-1.7-0.7-3.1-2.2-3.7c-0.6-0.3-1.3-0.4-2.9-0.4h-4v8.6H77.6z"
			/>
		<path class="st0" d="M97,109.4c4.8,0,7.4,3.4,7.4,8.2c0,0.6-0.5,1.2-1.2,1.2H91.7c0.2,3.7,2.9,5.8,5.9,5.8c1.9,0,3.3-0.8,4.1-1.4
			c0.6-0.3,1.2-0.3,1.5,0.4l0.3,0.5c0.3,0.6,0.2,1.2-0.3,1.5c-1,0.7-3.1,1.8-5.8,1.8c-5.4,0-9.1-3.9-9.1-9
			C88.4,112.9,92.1,109.4,97,109.4z M101.1,116.5c-0.1-3-1.9-4.6-4.2-4.6c-2.5,0-4.6,1.7-5,4.6H101.1z"/>
		<path class="st0" d="M110.6,130.5c0.8,0.3,2,0.7,3.7,0.7c2.9,0,5.4-1.3,5.4-4.8v-1.5c0-0.5,0.1-1.1,0.1-1.1h-0.1
			c-1,1.8-2.6,2.9-5.1,2.9c-4.8,0-7.8-3.8-7.8-8.8c0-4.9,2.7-8.6,7.7-8.6c4.2,0,5.4,2.9,5.4,2.9h0.1c0,0-0.1-0.2-0.1-0.5v-1
			c0-0.6,0.4-1,1.1-1h0.8c0.7,0,1.1,0.4,1.1,1.1v15.4c0,5.7-4.4,7.9-8.5,7.9c-1.9,0-3.7-0.4-5-1c-0.7-0.3-0.9-0.8-0.6-1.5l0.2-0.6
			C109.5,130.4,109.9,130.2,110.6,130.5z M119.9,118c0-4.5-2.2-5.8-4.8-5.8c-3.1,0-4.8,2.2-4.8,5.6c0,3.7,1.9,6.1,5,6.1
			C117.7,123.9,119.9,122.5,119.9,118z"/>
		<path class="st0" d="M127.9,110.9c0-0.7,0.4-1.1,1.1-1.1h1c0.7,0,1.1,0.4,1.1,1.1v1.5c0,0.5-0.1,1-0.1,1h0.1c0.7-1.5,2.8-4,6.5-4
			c4,0,5.9,2.2,5.9,6.6v9.9c0,0.7-0.4,1.1-1.1,1.1h-1.1c-0.7,0-1.1-0.4-1.1-1.1v-9.1c0-2.4-0.5-4.3-3.2-4.3c-3.3,0-5.7,2.8-5.7,6.4
			v7.1c0,0.7-0.4,1.1-1.1,1.1H129c-0.7,0-1.1-0.4-1.1-1.1V110.9z"/>
		<path class="st0" d="M147.1,124l0.3-0.5c0.4-0.6,0.9-0.6,1.6-0.2c0.8,0.5,2.2,1.4,4.2,1.4c1.7,0,2.9-0.8,2.9-2.3
			c0-3.4-8.9-2.2-8.9-8.1c0-3.3,2.9-5,6.2-5c2.4,0,3.9,0.8,4.8,1.3c0.6,0.3,0.7,0.9,0.4,1.5l-0.3,0.5c-0.3,0.6-0.8,0.7-1.5,0.4
			c-0.7-0.4-1.9-1-3.5-1s-2.9,0.7-2.9,2.2c0,3.4,8.9,2.2,8.9,8.1c0,2.9-2.5,5.1-6.2,5.1c-2.9,0-4.8-1.2-5.8-1.9
			C146.7,125.2,146.7,124.6,147.1,124z"/>
		<path class="st0" d="M162.9,104.1c0-0.7,0.4-1.1,1.1-1.1h1.1c0.7,0,1.1,0.4,1.1,1.1v12h2.5l4.2-5.6c0.3-0.5,0.7-0.7,1.3-0.7h1.3
			c0.9,0,1.2,0.6,0.7,1.4l-4.8,6.2v0.1l5.5,8.2c0.5,0.8,0.2,1.4-0.7,1.4h-1.4c-0.6,0-1-0.2-1.3-0.8l-4.7-7.3h-2.5v6.9
			c0,0.7-0.4,1.1-1.1,1.1h-1.1c-0.7,0-1.1-0.4-1.1-1.1V104.1z"/>
		<path class="st0" d="M189.1,116.4h0.9v-0.4c0-2.8-1.6-3.8-3.7-3.8c-1.7,0-3.1,0.6-3.9,1.1c-0.6,0.3-1.2,0.2-1.5-0.4l-0.3-0.5
			c-0.3-0.6-0.2-1.2,0.4-1.5c1-0.6,3-1.5,5.6-1.5c4.3,0,6.8,2.4,6.8,6.7v9.8c0,0.7-0.4,1.1-1.1,1.1h-0.8c-0.7,0-1.1-0.4-1.1-1.1v-1
			c0-0.6,0.1-1.1,0.1-1.1h-0.1c0,0-1.6,3.6-5.6,3.6c-3,0-5.8-1.9-5.8-5.1C178.8,117,185.5,116.4,189.1,116.4z M185.3,124.8
			c2.9,0,4.7-2.9,4.7-5.5v-0.7h-0.9c-2.4,0-7,0.2-7,3.5C182.1,123.4,183.2,124.8,185.3,124.8z"/>
		<path class="st0" d="M197.8,110.9c0-0.7,0.4-1.1,1.1-1.1h0.8c0.7,0,1.1,0.4,1.1,1v1c0,0.5-0.1,0.9-0.1,0.9h0.1
			c0,0,1.5-3.3,5.8-3.3c4.6,0,7.5,3.7,7.5,9c0,5.5-3.3,9-7.8,9c-3.9,0-5.3-3.1-5.3-3.1H201c0,0,0.1,0.6,0.1,1.5v6.8
			c0,0.7-0.4,1.1-1.1,1.1h-1.1c-0.7,0-1.1-0.4-1.1-1.1V110.9z M205.9,124.5c2.7,0,5-2.2,5-6.1c0-3.7-2-6.2-4.9-6.2
			c-2.6,0-5,1.8-5,6.2C201,121.5,202.7,124.5,205.9,124.5z"/>
	</g>
</g>
</svg>
