<?xml version="1.0" encoding="UTF-8"?>
<svg width="692px" height="502px" viewBox="0 0 692 502" version="1.1" xmlns="http://www.w3.org/2000/svg" xmlns:xlink="http://www.w3.org/1999/xlink">
    <!-- Generator: Sketch 59.1 (86144) - https://sketch.com -->
    <title>Group 5</title>
    <desc>Created with Sketch.</desc>
    <defs>
        <path d="M65.0903513,99.6271006 C44.5823521,107.52914 21.6602225,112.63075 0.551930133,115.806969 L0.551930133,0.9176 L65.0903513,0.9176 L65.0903513,99.6271006 L65.0903513,99.6271006 Z" id="path-1"></path>
    </defs>
    <g id="Page-1" stroke="none" stroke-width="1" fill="none" fill-rule="evenodd">
        <g id="Group-5">
            <g id="Group-4">
                <polygon id="Fill-2" fill="#99D2ED" points="56.199 36.422 69.84 36.422 69.84 17.851 56.199 17.851"></polygon>
                <line x1="60.7463" y1="17.8513" x2="60.7463" y2="36.4223" id="Stroke-3" stroke="#008ED2" stroke-linecap="round" stroke-linejoin="round"></line>
                <line x1="65.2934" y1="17.8513" x2="65.2934" y2="36.4223" id="Stroke-4" stroke="#008ED2" stroke-linecap="round" stroke-linejoin="round"></line>
                <polyline id="Stroke-5" stroke="#99D2ED" stroke-linecap="round" stroke-linejoin="round" points="200.8644 30.0443 202.6654 78.2803 204.4664 30.0443"></polyline>
                <g id="Group-207">
                    <path d="M200.8644,30.0443 C199.9884,30.0443 199.1744,29.5953 198.7064,28.8553 L197.6564,27.1933 L207.4114,27.1933 L206.3614,28.8553 C205.8944,29.5953 205.0794,30.0443 204.2034,30.0443 L200.8644,30.0443 Z" id="Fill-6" fill="#008ED2"></path>
                    <path d="M203.0507,84.1332 L202.2797,84.1332 C201.7777,84.1332 201.3707,83.7262 201.3707,83.2242 L201.3707,76.9382 C201.3707,76.4362 201.7777,76.0292 202.2797,76.0292 L203.0507,76.0292 C203.5527,76.0292 203.9597,76.4362 203.9597,76.9382 L203.9597,83.2242 C203.9597,83.7262 203.5527,84.1332 203.0507,84.1332" id="Fill-8" fill="#008ED2"></path>
                    <line x1="202.6653" y1="83.2328" x2="202.6653" y2="88.6348" id="Stroke-10" stroke="#008ED2" stroke-linecap="round" stroke-linejoin="round"></line>
                    <path d="M212.523,101.4825 L192.807,101.4825 C192.025,101.4825 191.39,100.8475 191.39,100.0655 L191.39,89.4525 C191.39,88.6695 192.025,88.0355 192.807,88.0355 L212.523,88.0355 C213.306,88.0355 213.94,88.6695 213.94,89.4525 L213.94,100.0655 C213.94,100.8475 213.306,101.4825 212.523,101.4825" id="Fill-12" fill="#66BBE4"></path>
                    <path d="M227.3832,27.1931 L217.4522,17.8511 L100.3742,17.8511 L92.6642,17.8511 C91.1722,17.8511 89.9622,19.0611 89.9622,20.5521 L52.6902,20.5521 L52.6902,27.1931 L227.3832,27.1931 Z" id="Fill-14" fill="#66BBE4"></path>
                    <polygon id="Fill-16" fill="#66BBE4" points="89.959 198.96 101.411 198.96 101.411 40.628 89.959 40.628"></polygon>
                    <polyline id="Stroke-18" stroke="#008ED2" stroke-linecap="round" stroke-linejoin="round" points="101.4111 198.96 89.9591 186.786 101.4111 186.786 89.9591 174.612 101.4111 174.612 89.9591 162.438 101.4111 162.438 89.9591 150.264 101.4111 150.264 89.9591 138.09 101.4111 138.09 89.9591 125.916 101.4111 125.917 89.9591 113.742 101.4111 113.743 89.9591 101.568 101.4111 101.569 89.9591 89.395 101.4111 89.395 89.9591 77.221 101.4111 77.221 89.9591 65.047 101.4111 65.047 89.9591 52.873 101.4111 52.874 89.9591 40.699"></polyline>
                    <polyline id="Stroke-19" stroke="#008ED2" stroke-linecap="round" stroke-linejoin="round" points="217.4525 17.8513 207.5215 27.1933 197.5915 17.8513 187.6605 27.1933 177.7295 17.8513 167.7995 27.1933 157.8685 17.8513 147.9385 27.1933 138.0075 17.8513 128.0765 27.1933 118.1465 17.8513 108.2155 27.1933"></polyline>
                    <path d="M100.9068,40.6992 C104.9438,40.6992 108.2158,37.4272 108.2158,33.3902 L108.2158,22.5412 L95.3098,22.5412 L96.2098,39.8742" id="Fill-20" fill="#FFFFFF"></path>
                    <path d="M108.2157,24.3386 L108.2157,22.5406 L89.9587,22.5406 L89.9587,31.6206 L85.4047,31.6206 L85.4047,40.6996 L100.9067,40.6996 C102.7437,40.6996 104.4227,40.0216 105.7077,38.9016 L97.7107,38.9016 L97.7107,24.3416 L108.2157,24.3386 Z" id="Fill-21" fill="#99D2ED"></path>
                    <polygon id="Fill-22" fill="#66BBE4" points="97.7858 0.6308 100.3748 0.6308 100.3748 18.4138 92.3838 18.4138"></polygon>
                    <polyline id="Stroke-23" stroke="#008ED2" stroke-linecap="round" stroke-linejoin="round" points="217.4525 17.8513 100.3745 0.6313 97.7855 0.6313 71.6735 20.5523"></polyline>
                    <line x1="87.9939" y1="25.6173" x2="53.3279" y2="25.6173" id="Stroke-24" stroke="#008ED2" stroke-linecap="round" stroke-linejoin="round"></line>
                    <polygon id="Fill-25" fill="#008ED2" points="80.25 207.964 111.119 207.964 111.119 198.96 80.25 198.96"></polygon>
                    <line x1="0.5" y1="207.9641" x2="691" y2="207.9641" id="Stroke-26" stroke="#66BBE4" stroke-linecap="round" stroke-linejoin="round"></line>
                    <polygon id="Fill-27" fill="#002776" points="138.25 222.6308 116.542 223.8388 117.75 213.2978 138.25 213.2978"></polygon>
                    <line x1="97.6667" y1="266.4869" x2="233.3887" y2="266.4869" id="Stroke-28" stroke="#66BBE4" stroke-linecap="round" stroke-linejoin="round"></line>
                    <polygon id="Fill-29" fill="#002776" points="165.1384 212.6385 150.8334 237.4645 167.7504 237.4645"></polygon>
                    <polygon id="Fill-30" fill="#005AA4" points="232.751 188.262 239.5 188.262 239.5 186.131 232.751 186.131"></polygon>
                    <polygon id="Fill-31" fill="#66BBE4" points="178.681 192.727 235.167 192.727 235.167 183.798 178.681 183.798"></polygon>
                    <polygon id="Fill-32" fill="#002776" points="211.59 189.631 228.09 189.631 228.09 186.131 211.59 186.131"></polygon>
                    <polygon id="Fill-33" fill="#002776" points="185.757 189.631 202.257 189.631 202.257 186.131 185.757 186.131"></polygon>
                    <path d="M235.1653,145.0065 L187.1683,145.0065 C185.6023,145.0065 184.3333,146.2755 184.3333,147.8415 L184.3333,180.9625 C184.3333,182.5285 185.6023,183.7975 187.1683,183.7975 L235.1653,183.7975 C236.7313,183.7975 238.0003,182.5285 238.0003,180.9625 L238.0003,147.8415 C238.0003,146.2755 236.7313,145.0065 235.1653,145.0065" id="Fill-34" fill="#008ED2"></path>
                    <line x1="202.2222" y1="151.527" x2="202.2222" y2="177.277" id="Stroke-35" stroke="#005AA4" stroke-linecap="round" stroke-linejoin="round"></line>
                    <line x1="220.1111" y1="151.527" x2="220.1111" y2="177.277" id="Stroke-36" stroke="#005AA4" stroke-linecap="round" stroke-linejoin="round"></line>
                    <path d="M160.8333,170.1308 L124.1663,170.1308 C123.1543,170.1308 122.3333,169.3098 122.3333,168.2978 C122.3333,167.2848 123.1543,166.4638 124.1663,166.4638 L160.8333,166.4638 C161.8463,166.4638 162.6663,167.2848 162.6663,168.2978 C162.6663,169.3098 161.8463,170.1308 160.8333,170.1308" id="Fill-37" fill="#002776"></path>
                    <line x1="124.3333" y1="170.1308" x2="117.0003" y2="217.7138" id="Stroke-38" stroke="#002776" stroke-linecap="round" stroke-linejoin="round"></line>
                    <line x1="160.6667" y1="170.1308" x2="167.7497" y2="237.4638" id="Stroke-39" stroke="#002776" stroke-linecap="round" stroke-linejoin="round"></line>
                    <polygon id="Fill-40" fill="#002776" points="102 257.214 174.844 257.214 174.844 241.464 102 241.464"></polygon>
                    <path d="M98.25,244.7141 L108.911,244.7141 C115.174,244.7141 120.25,249.7901 120.25,256.0531 L120.25,257.1291 C120.25,258.6951 121.519,259.9641 123.085,259.9641 L153.915,259.9641 C155.481,259.9641 156.75,258.6951 156.75,257.1291 L156.75,256.0531 C156.75,249.7901 161.826,244.7141 168.089,244.7141 L168.75,244.7141 L168.75,237.4641 L141.085,237.4641 C139.519,237.4641 138.25,236.1951 138.25,234.6291 L138.25,217.7141 L109.589,217.7141 C103.326,217.7141 98.25,222.7901 98.25,229.0531 L98.25,244.7141 Z" id="Fill-41" fill="#008ED2"></path>
                    <path d="M114.4445,259.4622 C112.9035,264.4292 108.4095,267.4492 104.4075,266.2082 C100.4045,264.9662 98.4095,259.9332 99.9505,254.9662 C101.4905,249.9992 105.9845,246.9792 109.9875,248.2202 C113.9895,249.4622 115.9855,254.4952 114.4445,259.4622" id="Fill-42" fill="#005AA4"></path>
                    <path d="M110.0097,258.0865 C109.4117,260.0145 107.6677,261.1865 106.1147,260.7045 C104.5617,260.2225 103.7867,258.2695 104.3847,256.3415 C104.9827,254.4145 106.7267,253.2415 108.2797,253.7235 C109.8327,254.2055 110.6077,256.1585 110.0097,258.0865" id="Fill-43" fill="#008ED2"></path>
                    <polygon id="Fill-44" fill="#002776" points="172.666 257.214 178.68 257.214 178.68 140.131 172.666 140.131"></polygon>
                    <path d="M175.8306,259.4622 C174.2896,264.4292 169.7956,267.4492 165.7936,266.2082 C161.7906,264.9662 159.7956,259.9332 161.3366,254.9662 C162.8766,249.9992 167.3706,246.9792 171.3736,248.2202 C175.3756,249.4622 177.3716,254.4952 175.8306,259.4622" id="Fill-45" fill="#005AA4"></path>
                    <path d="M171.3958,258.0865 C170.7978,260.0145 169.0538,261.1865 167.5008,260.7045 C165.9478,260.2225 165.1728,258.2695 165.7708,256.3415 C166.3688,254.4145 168.1128,253.2415 169.6658,253.7235 C171.2188,254.2055 171.9938,256.1585 171.3958,258.0865" id="Fill-46" fill="#008ED2"></path>
                    <line x1="102" y1="239.4641" x2="102" y2="230.7141" id="Stroke-47" stroke="#005AA4" stroke-linecap="round" stroke-linejoin="round"></line>
                    <line x1="104.4167" y1="239.4641" x2="104.4167" y2="230.7141" id="Stroke-48" stroke="#005AA4" stroke-linecap="round" stroke-linejoin="round"></line>
                    <line x1="106.8333" y1="239.4641" x2="106.8333" y2="230.7141" id="Stroke-49" stroke="#005AA4" stroke-linecap="round" stroke-linejoin="round"></line>
                    <line x1="109.25" y1="239.4641" x2="109.25" y2="230.7141" id="Stroke-50" stroke="#005AA4" stroke-linecap="round" stroke-linejoin="round"></line>
                    <line x1="111.6667" y1="239.4641" x2="111.6667" y2="230.7141" id="Stroke-51" stroke="#005AA4" stroke-linecap="round" stroke-linejoin="round"></line>
                    <path d="M137.9764,191.7207 L137.9764,191.7207 C135.2644,191.2777 133.4254,188.7197 133.8694,186.0077 L134.5364,181.9277 C134.9804,179.2157 137.5384,177.3767 140.2494,177.8197 C142.9614,178.2637 144.8004,180.8217 144.3564,183.5337 L143.6894,187.6137 C143.2464,190.3257 140.6884,192.1647 137.9764,191.7207" id="Fill-52" fill="#002776"></path>
                    <path d="M139.1491,216.6719 L130.8331,216.1309 L132.1931,195.2329 C132.3091,193.4519 133.8471,192.1019 135.6281,192.2169 L137.4931,192.3389 C139.2751,192.4549 140.6251,193.9929 140.5091,195.7739 L139.1491,216.6719 Z" id="Fill-53" fill="#002776"></path>
                    <path d="M130.8333,216.1308 L143.8913,219.0748 L140.1663,237.4638 L151.1663,237.4638 L146.3333,232.7978 L149.9843,218.4438 C150.6343,215.8918 149.0623,213.3048 146.4993,212.7038 L132.6663,209.4638 L130.8333,216.1308 Z" id="Fill-54" fill="#002776"></path>
                    <path d="M138.5417,194.8391 C141.7917,198.7141 148.6667,203.4651 153.7917,204.3401 L153.1947,207.2141 C153.1947,207.2141 141.7607,206.3391 136.0887,200.4641" id="Fill-55" fill="#002776"></path>
                    <path d="M154.7306,207.642 L152.8816,207.15 L153.7796,203.775 C153.9326,203.199 154.5236,202.856 155.0996,203.009 L155.9056,203.224 C156.4816,203.377 156.8246,203.968 156.6716,204.544 L156.0506,206.877 C155.8976,207.453 155.3066,207.795 154.7306,207.642" id="Fill-56" fill="#002776"></path>
                    <path d="M153.4448,213.131 L153.4448,213.131 C153.9298,213.312 154.4698,213.066 154.6508,212.581 L158.9798,201.004 C159.1608,200.519 158.9148,199.979 158.4298,199.797 C157.9448,199.616 157.4048,199.862 157.2238,200.347 L152.8948,211.925 C152.7138,212.41 152.9598,212.95 153.4448,213.131" id="Fill-57" fill="#002776"></path>
                    <polyline id="Fill-58" fill="#002776" points="163.8602 216.1163 155.1632 208.1303 156.4272 204.7513 165.1242 212.7373"></polyline>
                    <path d="M591.4517,207.9641 L591.4517,122.7041 C591.4517,122.0191 592.0067,121.4641 592.6917,121.4641 L628.6137,121.4641 C629.2987,121.4641 629.8537,122.0191 629.8537,122.7041 L629.8537,207.9641 L591.4517,207.9641 Z" id="Fill-59" fill="#80C6E9"></path>
                    <path d="M606.6386,134.8536 L605.3616,134.8536 C604.1876,134.8536 603.2356,133.9016 603.2356,132.7276 L603.2356,128.6186 C603.2356,127.4446 604.1876,126.4926 605.3616,126.4926 L606.6386,126.4926 C607.8126,126.4926 608.7646,127.4446 608.7646,128.6186 L608.7646,132.7276 C608.7646,133.9016 607.8126,134.8536 606.6386,134.8536" id="Fill-60" fill="#4DB0DF"></path>
                    <path d="M615.944,134.8536 L614.667,134.8536 C613.493,134.8536 612.541,133.9016 612.541,132.7276 L612.541,128.6186 C612.541,127.4446 613.493,126.4926 614.667,126.4926 L615.944,126.4926 C617.118,126.4926 618.07,127.4446 618.07,128.6186 L618.07,132.7276 C618.07,133.9016 617.118,134.8536 615.944,134.8536" id="Fill-61" fill="#4DB0DF"></path>
                    <path d="M615.944,151.4733 L614.667,151.4733 C613.493,151.4733 612.541,150.5213 612.541,149.3473 L612.541,145.2383 C612.541,144.0643 613.493,143.1123 614.667,143.1123 L615.944,143.1123 C617.118,143.1123 618.07,144.0643 618.07,145.2383 L618.07,149.3473 C618.07,150.5213 617.118,151.4733 615.944,151.4733" id="Fill-62" fill="#FFFFFF"></path>
                    <path d="M625.2493,151.4733 L623.9723,151.4733 C622.7983,151.4733 621.8463,150.5213 621.8463,149.3473 L621.8463,145.2383 C621.8463,144.0643 622.7983,143.1123 623.9723,143.1123 L625.2493,143.1123 C626.4233,143.1123 627.3753,144.0643 627.3753,145.2383 L627.3753,149.3473 C627.3753,150.5213 626.4233,151.4733 625.2493,151.4733" id="Fill-63" fill="#4DB0DF"></path>
                    <path d="M615.944,168.093 L614.667,168.093 C613.493,168.093 612.541,167.141 612.541,165.967 L612.541,161.858 C612.541,160.684 613.493,159.732 614.667,159.732 L615.944,159.732 C617.118,159.732 618.07,160.684 618.07,161.858 L618.07,165.967 C618.07,167.141 617.118,168.093 615.944,168.093" id="Fill-64" fill="#4DB0DF"></path>
                    <path d="M597.3333,168.093 L596.0563,168.093 C594.8823,168.093 593.9303,167.141 593.9303,165.967 L593.9303,161.858 C593.9303,160.684 594.8823,159.732 596.0563,159.732 L597.3333,159.732 C598.5073,159.732 599.4593,160.684 599.4593,161.858 L599.4593,165.967 C599.4593,167.141 598.5073,168.093 597.3333,168.093" id="Fill-65" fill="#FFFFFF"></path>
                    <path d="M615.944,184.7126 L614.667,184.7126 C613.493,184.7126 612.541,183.7606 612.541,182.5866 L612.541,178.4776 C612.541,177.3036 613.493,176.3516 614.667,176.3516 L615.944,176.3516 C617.118,176.3516 618.07,177.3036 618.07,178.4776 L618.07,182.5866 C618.07,183.7606 617.118,184.7126 615.944,184.7126" id="Fill-66" fill="#4DB0DF"></path>
                    <path d="M258.4517,207.9641 L258.4517,101.5121 C258.4517,100.6571 259.1447,99.9641 259.9997,99.9641 L304.8507,99.9641 C305.7057,99.9641 306.3987,100.6571 306.3987,101.5121 L306.3987,207.9641 L258.4517,207.9641 Z" id="Fill-67" fill="#80C6E9"></path>
                    <path d="M301.1783,116.6817 L298.5263,116.6817 C297.3523,116.6817 296.4003,115.7297 296.4003,114.5557 L296.4003,108.3677 C296.4003,107.1937 297.3523,106.2417 298.5263,106.2417 L301.1783,106.2417 C302.3523,106.2417 303.3043,107.1937 303.3043,108.3677 L303.3043,114.5557 C303.3043,115.7297 302.3523,116.6817 301.1783,116.6817" id="Fill-68" fill="#4DB0DF"></path>
                    <path d="M289.5601,116.6817 L286.9081,116.6817 C285.7341,116.6817 284.7821,115.7297 284.7821,114.5557 L284.7821,108.3677 C284.7821,107.1937 285.7341,106.2417 286.9081,106.2417 L289.5601,106.2417 C290.7341,106.2417 291.6861,107.1937 291.6861,108.3677 L291.6861,114.5557 C291.6861,115.7297 290.7341,116.6817 289.5601,116.6817" id="Fill-69" fill="#4DB0DF"></path>
                    <path d="M289.5601,137.4323 L286.9081,137.4323 C285.7341,137.4323 284.7821,136.4803 284.7821,135.3063 L284.7821,129.1183 C284.7821,127.9443 285.7341,126.9923 286.9081,126.9923 L289.5601,126.9923 C290.7341,126.9923 291.6861,127.9443 291.6861,129.1183 L291.6861,135.3063 C291.6861,136.4803 290.7341,137.4323 289.5601,137.4323" id="Fill-70" fill="#4DB0DF"></path>
                    <path d="M277.9419,137.4323 L275.2899,137.4323 C274.1159,137.4323 273.1639,136.4803 273.1639,135.3063 L273.1639,129.1183 C273.1639,127.9443 274.1159,126.9923 275.2899,126.9923 L277.9419,126.9923 C279.1159,126.9923 280.0679,127.9443 280.0679,129.1183 L280.0679,135.3063 C280.0679,136.4803 279.1159,137.4323 277.9419,137.4323" id="Fill-71" fill="#FFFFFF"></path>
                    <path d="M277.9419,158.1828 L275.2899,158.1828 C274.1159,158.1828 273.1639,157.2308 273.1639,156.0568 L273.1639,149.8688 C273.1639,148.6948 274.1159,147.7428 275.2899,147.7428 L277.9419,147.7428 C279.1159,147.7428 280.0679,148.6948 280.0679,149.8688 L280.0679,156.0568 C280.0679,157.2308 279.1159,158.1828 277.9419,158.1828" id="Fill-72" fill="#4DB0DF"></path>
                    <path d="M266.3237,158.1828 L263.6717,158.1828 C262.4977,158.1828 261.5457,157.2308 261.5457,156.0568 L261.5457,149.8688 C261.5457,148.6948 262.4977,147.7428 263.6717,147.7428 L266.3237,147.7428 C267.4977,147.7428 268.4497,148.6948 268.4497,149.8688 L268.4497,156.0568 C268.4497,157.2308 267.4977,158.1828 266.3237,158.1828" id="Fill-73" fill="#FFFFFF"></path>
                    <path d="M277.9419,178.9334 L275.2899,178.9334 C274.1159,178.9334 273.1639,177.9814 273.1639,176.8074 L273.1639,170.6194 C273.1639,169.4454 274.1159,168.4934 275.2899,168.4934 L277.9419,168.4934 C279.1159,168.4934 280.0679,169.4454 280.0679,170.6194 L280.0679,176.8074 C280.0679,177.9814 279.1159,178.9334 277.9419,178.9334" id="Fill-74" fill="#4DB0DF"></path>
                    <path d="M507.4517,207.9641 L507.4517,122.7041 C507.4517,122.0191 508.0067,121.4641 508.6917,121.4641 L544.6137,121.4641 C545.2987,121.4641 545.8537,122.0191 545.8537,122.7041 L545.8537,207.9641 L507.4517,207.9641 Z" id="Fill-75" fill="#80C6E9"></path>
                    <path d="M522.6386,134.8536 L521.3616,134.8536 C520.1876,134.8536 519.2356,133.9016 519.2356,132.7276 L519.2356,128.6186 C519.2356,127.4446 520.1876,126.4926 521.3616,126.4926 L522.6386,126.4926 C523.8126,126.4926 524.7646,127.4446 524.7646,128.6186 L524.7646,132.7276 C524.7646,133.9016 523.8126,134.8536 522.6386,134.8536" id="Fill-76" fill="#4DB0DF"></path>
                    <path d="M522.6386,151.4733 L521.3616,151.4733 C520.1876,151.4733 519.2356,150.5213 519.2356,149.3473 L519.2356,145.2383 C519.2356,144.0643 520.1876,143.1123 521.3616,143.1123 L522.6386,143.1123 C523.8126,143.1123 524.7646,144.0643 524.7646,145.2383 L524.7646,149.3473 C524.7646,150.5213 523.8126,151.4733 522.6386,151.4733" id="Fill-77" fill="#4DB0DF"></path>
                    <path d="M513.3333,134.8536 L512.0563,134.8536 C510.8823,134.8536 509.9303,133.9016 509.9303,132.7276 L509.9303,128.6186 C509.9303,127.4446 510.8823,126.4926 512.0563,126.4926 L513.3333,126.4926 C514.5073,126.4926 515.4593,127.4446 515.4593,128.6186 L515.4593,132.7276 C515.4593,133.9016 514.5073,134.8536 513.3333,134.8536" id="Fill-78" fill="#4DB0DF"></path>
                    <path d="M531.944,151.4733 L530.667,151.4733 C529.493,151.4733 528.541,150.5213 528.541,149.3473 L528.541,145.2383 C528.541,144.0643 529.493,143.1123 530.667,143.1123 L531.944,143.1123 C533.118,143.1123 534.07,144.0643 534.07,145.2383 L534.07,149.3473 C534.07,150.5213 533.118,151.4733 531.944,151.4733" id="Fill-79" fill="#FFFFFF"></path>
                    <path d="M541.2493,151.4733 L539.9723,151.4733 C538.7983,151.4733 537.8463,150.5213 537.8463,149.3473 L537.8463,145.2383 C537.8463,144.0643 538.7983,143.1123 539.9723,143.1123 L541.2493,143.1123 C542.4233,143.1123 543.3753,144.0643 543.3753,145.2383 L543.3753,149.3473 C543.3753,150.5213 542.4233,151.4733 541.2493,151.4733" id="Fill-80" fill="#FFFFFF"></path>
                    <path d="M513.3333,168.093 L512.0563,168.093 C510.8823,168.093 509.9303,167.141 509.9303,165.967 L509.9303,161.858 C509.9303,160.684 510.8823,159.732 512.0563,159.732 L513.3333,159.732 C514.5073,159.732 515.4593,160.684 515.4593,161.858 L515.4593,165.967 C515.4593,167.141 514.5073,168.093 513.3333,168.093" id="Fill-81" fill="#FFFFFF"></path>
                    <path d="M531.944,184.7126 L530.667,184.7126 C529.493,184.7126 528.541,183.7606 528.541,182.5866 L528.541,178.4776 C528.541,177.3036 529.493,176.3516 530.667,176.3516 L531.944,176.3516 C533.118,176.3516 534.07,177.3036 534.07,178.4776 L534.07,182.5866 C534.07,183.7606 533.118,184.7126 531.944,184.7126" id="Fill-82" fill="#4DB0DF"></path>
                    <path d="M573.7696,207.9641 L573.7696,155.7041 C573.7696,155.0191 573.2146,154.4641 572.5296,154.4641 L541.6076,154.4641 C540.9226,154.4641 540.3676,155.0191 540.3676,155.7041 L540.3676,207.9641 L573.7696,207.9641 Z" id="Fill-83" fill="#80C6E9"></path>
                    <path d="M549.2773,168.093 L550.5543,168.093 C551.7283,168.093 552.6803,167.141 552.6803,165.967 L552.6803,161.858 C552.6803,160.684 551.7283,159.732 550.5543,159.732 L549.2773,159.732 C548.1033,159.732 547.1513,160.684 547.1513,161.858 L547.1513,165.967 C547.1513,167.141 548.1033,168.093 549.2773,168.093" id="Fill-84" fill="#4DB0DF"></path>
                    <path d="M567.8879,168.093 L569.1649,168.093 C570.3389,168.093 571.2909,167.141 571.2909,165.967 L571.2909,161.858 C571.2909,160.684 570.3389,159.732 569.1649,159.732 L567.8879,159.732 C566.7139,159.732 565.7619,160.684 565.7619,161.858 L565.7619,165.967 C565.7619,167.141 566.7139,168.093 567.8879,168.093" id="Fill-85" fill="#4DB0DF"></path>
                    <path d="M567.8879,184.7126 L569.1649,184.7126 C570.3389,184.7126 571.2909,183.7606 571.2909,182.5866 L571.2909,178.4776 C571.2909,177.3036 570.3389,176.3516 569.1649,176.3516 L567.8879,176.3516 C566.7139,176.3516 565.7619,177.3036 565.7619,178.4776 L565.7619,182.5866 C565.7619,183.7606 566.7139,184.7126 567.8879,184.7126" id="Fill-86" fill="#4DB0DF"></path>
                    <path d="M558.5826,184.7126 L559.8596,184.7126 C561.0336,184.7126 561.9856,183.7606 561.9856,182.5866 L561.9856,178.4776 C561.9856,177.3036 561.0336,176.3516 559.8596,176.3516 L558.5826,176.3516 C557.4086,176.3516 556.4566,177.3036 556.4566,178.4776 L556.4566,182.5866 C556.4566,183.7606 557.4086,184.7126 558.5826,184.7126" id="Fill-87" fill="#4DB0DF"></path>
                    <path d="M549.2773,184.7126 L550.5543,184.7126 C551.7283,184.7126 552.6803,183.7606 552.6803,182.5866 L552.6803,178.4776 C552.6803,177.3036 551.7283,176.3516 550.5543,176.3516 L549.2773,176.3516 C548.1033,176.3516 547.1513,177.3036 547.1513,178.4776 L547.1513,182.5866 C547.1513,183.7606 548.1033,184.7126 549.2773,184.7126" id="Fill-88" fill="#FFFFFF"></path>
                    <polygon id="Fill-89" fill="#008ED2" points="292.234 228.964 428.75 228.964 428.75 132.212 292.234 132.212"></polygon>
                    <path d="M305.4066,153.2818 C308.2136,148.1468 315.1906,145.9038 320.5916,148.1588 C325.9916,150.4138 329.2866,156.6748 328.4066,162.4608 C328.2366,163.5758 327.9286,164.6768 327.4226,165.6848 C325.3346,169.8428 320.1326,171.6978 315.5146,171.1278 C314.3386,170.9828 313.1676,170.7048 312.1026,170.1848 C308.0036,168.1858 306.3426,163.0098 306.8676,158.4798 C307.4046,153.8398 309.9196,149.3688 313.8726,146.8818 C317.8266,144.3958 323.1976,144.1288 327.1626,146.5968" id="Stroke-90" stroke="#FFFFFF" stroke-width="2" stroke-linecap="round"></path>
                    <path d="M320.3402,165.7362 C321.8522,176.5712 323.8872,187.3332 326.4352,197.9722 C326.3732,197.6362 326.3112,197.3002 326.2502,196.9642" id="Stroke-91" stroke="#FFFFFF" stroke-width="2" stroke-linecap="round"></path>
                    <path d="M322.9981,161.9671 C327.4391,165.6191 331.8801,169.2711 336.3201,172.9231" id="Stroke-92" stroke="#FFFFFF" stroke-width="2" stroke-linecap="round"></path>
                    <line x1="343.375" y1="179.3391" x2="377.25" y2="179.3391" id="Stroke-93" stroke="#FFFFFF" stroke-width="2" stroke-linecap="round"></line>
                    <line x1="341.75" y1="154.5891" x2="390.875" y2="154.5891" id="Stroke-94" stroke="#FFFFFF" stroke-width="2" stroke-linecap="round"></line>
                    <line x1="344.375" y1="161.9671" x2="372.25" y2="161.9671" id="Stroke-95" stroke="#FFFFFF" stroke-width="2" stroke-linecap="round"></line>
                    <line x1="334.5" y1="200.9641" x2="376.345" y2="200.9641" id="Stroke-96" stroke="#FFFFFF" stroke-width="2" stroke-linecap="round"></line>
                    <line x1="338.6667" y1="207.9641" x2="371.4997" y2="207.9641" id="Stroke-97" stroke="#FFFFFF" stroke-width="2" stroke-linecap="round"></line>
                    <path d="M640.1249,97.9641 L542.9089,97.9641 C540.3289,97.9641 539.0729,94.7721 540.9869,93.0421 C557.5049,78.1161 566.9939,103.6501 597.3049,85.4781 C622.0749,70.6291 640.7129,85.6131 642.8809,94.4411 C643.3209,96.2341 641.9699,97.9641 640.1249,97.9641" id="Fill-98" fill="#BFE3F4"></path>
                    <path d="M474.0442,46.1008 L281.4092,46.1008 C278.1792,46.1008 276.5882,42.1298 278.9532,39.9288 C304.6622,16.0008 309.7072,48.0728 348.2332,24.2648 C404.3402,-10.4082 408.7532,48.8508 437.7522,33.0908 C462.4442,19.6708 475.7102,32.5948 477.5492,41.7898 C477.9942,44.0168 476.3162,46.1008 474.0442,46.1008" id="Fill-99" fill="#BFE3F4"></path>
                    <line x1="402.7593" y1="322.8604" x2="450.3813" y2="322.8604" id="Stroke-100" stroke="#66BBE4" stroke-linecap="round" stroke-linejoin="round"></line>
                    <path d="M386.625,201.5266 L383.018,203.1326 C382.137,203.5256 381.788,204.5936 382.268,205.4306 L383.19,207.0376 L386.625,206.4016 L386.625,201.5266 Z" id="Fill-101" fill="#DBCCAE"></path>
                    <path d="M431.7865,316.9792 C431.7865,316.9792 432.9405,313.7722 432.9405,305.4352 C432.9405,297.0972 437.8795,306.3332 437.8795,306.3332 C437.8795,306.3332 436.4685,315.5042 440.5085,317.5562 C444.6495,319.6602 434.2875,320.0572 434.2875,320.0572" id="Fill-102" fill="#E7E0BF"></path>
                    <path d="M428.4452,316.9792 C428.4452,316.9792 427.2912,313.7722 427.2912,305.4352 C427.2912,297.0972 422.3522,306.3332 422.3522,306.3332 C422.3522,306.3332 423.7632,315.5042 419.7232,317.5562 C415.5822,319.6602 425.9442,320.0572 425.9442,320.0572" id="Fill-103" fill="#E7E0BF"></path>
                    <path d="M430.012,255.5504 C430.012,271.1464 432.107,269.3274 431.209,281.5134 C430.311,293.6984 431.979,297.6754 431.85,309.9814 L438.392,309.9814 C439.765,302.3284 441.214,289.8504 441.599,283.1804 C441.857,278.7034 443.024,276.0304 443.763,273.0704 C444.281,270.9944 444.694,268.9014 445,266.7834 C445.751,261.5924 446.851,252.9484 446.265,247.1364 C445.914,243.6534 444.745,240.4504 443.489,237.8854 L416.535,237.8854 C415.279,240.4504 414.11,243.6534 413.759,247.1364 C413.173,252.9484 414.273,261.5924 415.024,266.7834 C415.33,268.9014 415.743,270.9944 416.261,273.0704 C417,276.0304 418.167,278.7034 418.425,283.1804 C418.81,289.8504 420.259,302.3284 421.632,309.9814 L428.174,309.9814 C428.045,297.6754 429.713,293.6984 428.815,281.5134 C427.917,269.3274 430.012,271.1464 430.012,255.5504" id="Fill-104" fill="#002776"></path>
                    <polygon id="Fill-105" fill="#005AA4" points="428.8149 311.592 420.9909 312.033 420.3739 309.292 428.8149 308.898"></polygon>
                    <polygon id="Fill-106" fill="#005AA4" points="431.1055 311.592 439.0485 311.507 439.5895 308.962 431.1055 308.898"></polygon>
                    <path d="M421.9526,251.4323 C421.9526,251.4323 425.6936,252.2913 430.0116,255.5503 C430.0116,255.5503 431.3806,254.5123 434.3946,253.7433" id="Stroke-107" stroke="#005AA4" stroke-linecap="round" stroke-linejoin="round"></path>
                    <line x1="432.2478" y1="254.423" x2="432.2478" y2="237.237" id="Stroke-108" stroke="#005AA4" stroke-linecap="round" stroke-linejoin="round"></line>
                    <line x1="428.6439" y1="236.8094" x2="428.4029" y2="254.4234" id="Stroke-109" stroke="#005AA4" stroke-linecap="round" stroke-linejoin="round"></line>
                    <line x1="430.012" y1="263.1708" x2="430.012" y2="255.5508" id="Stroke-110" stroke="#005AA4" stroke-linecap="round" stroke-linejoin="round"></line>
                    <polygon id="Fill-111" fill="#005AA4" points="429.191 322.7267 416.078 322.7267 415.96 321.1747 429.354 321.1747"></polygon>
                    <path d="M429.3539,321.1742 C429.3539,321.1742 429.9229,318.0422 428.6849,316.3962 L426.9959,317.7122 C426.9959,317.7122 426.2079,315.7382 423.0569,315.5192 C419.9049,315.2992 419.1169,317.7122 419.1169,317.7122 C419.1169,317.7122 416.0729,317.9922 415.9599,321.1742 L429.3539,321.1742 Z" id="Fill-112" fill="#002776"></path>
                    <polygon id="Fill-113" fill="#005AA4" points="430.8331 322.7267 443.9461 322.7267 444.0641 321.1747 430.6701 321.1747"></polygon>
                    <path d="M430.6701,321.1742 C430.6701,321.1742 430.1011,318.0422 431.3391,316.3962 L433.0281,317.7122 C433.0281,317.7122 433.8161,315.7382 436.9671,315.5192 C440.1191,315.2992 440.9071,317.7122 440.9071,317.7122 C440.9071,317.7122 443.9511,317.9922 444.0641,321.1742 L430.6701,321.1742 Z" id="Fill-114" fill="#002776"></path>
                    <path d="M434.7492,193.9453 C439.7882,194.9403 443.5162,192.1183 443.5162,192.1183 C446.8912,193.2093 450.9682,190.5583 450.9682,190.5583 C448.0762,189.8853 445.6762,184.6163 445.6532,180.9013 L445.6062,173.3973 C445.5522,164.7933 439.1032,157.5603 430.9372,157.3753 C422.4652,157.1833 415.5702,164.3883 415.6262,173.2573 L415.6732,180.7603 C415.6962,184.4753 413.3622,189.7743 410.4792,190.4843 C410.4792,190.4843 414.5882,193.0823 417.9502,191.9503 C417.9502,191.9503 421.7132,194.7243 426.7392,193.6673 C426.7392,193.6673 430.8662,196.0223 434.7492,193.9453" id="Fill-115" fill="#002776"></path>
                    <path d="M430.396,192.4649 L430.178,192.466126 C424.155,192.5039 419.194,187.7449 418.982,181.7259 L418.374,166.3249 L441.939,167.3289 L441.456,181.5849 C441.319,187.6069 436.419,192.4269 430.396,192.4649" id="Fill-116" fill="#E7E0BF"></path>
                    <path d="M423.193,181.539516 L423.174,181.539516 C422.666,181.5425 422.251,181.1335 422.248,180.6245 L422.225984,177.1425 C422.223,176.6345 422.633,176.2195 423.141,176.216484 L423.16,176.216484 C423.668,176.2135 424.083,176.6225 424.086,177.1315 L424.108016,180.6135 C424.111,181.1215 423.701,181.5365 423.193,181.539516" id="Fill-117" fill="#008ED2"></path>
                    <path d="M433.2618,181.476416 L433.2428,181.476416 C432.7348,181.4794 432.3198,181.0704 432.3168,180.5614 L432.294784,177.0794 C432.2918,176.5714 432.7018,176.1564 433.2098,176.153384 L433.2288,176.153384 C433.7368,176.1504 434.1518,176.5594 434.1548,177.0684 L434.176816,180.5504 C434.1798,181.0584 433.7698,181.4734 433.2618,181.476416" id="Fill-118" fill="#008ED2"></path>
                    <polygon id="Fill-119" fill="#DBCCAE" points="431.1599 183.962 428.2269 182.12 425.3179 183.999"></polygon>
                    <path d="M431.3995,186.763 C430.3175,187.563 427.8055,188.545 425.1035,186.975" id="Stroke-120" stroke="#008ED2" stroke-linecap="round" stroke-linejoin="round"></path>
                    <path d="M432.0127,173.3709 C432.0127,173.3709 433.7457,172.9169 435.5837,174.0419" id="Stroke-121" stroke="#002776" stroke-linecap="round" stroke-linejoin="round"></path>
                    <path d="M424.2055,173.1959 C424.2055,173.1959 422.4265,172.9849 420.7605,174.3519" id="Stroke-122" stroke="#002776" stroke-linecap="round" stroke-linejoin="round"></path>
                    <path d="M419.0345,164.5108 L416.5405,170.8748 C416.5405,170.8748 418.3765,183.7228 418.3415,178.1828 C418.3065,172.6438 420.0465,169.8338 420.0465,169.8338 C424.5515,172.1888 430.8315,173.2988 435.1855,170.7258 C435.1855,170.7258 437.9415,171.9438 440.5455,171.0798 C440.5455,171.0798 442.2295,173.9098 442.0995,177.7458 C441.9695,181.5818 443.8565,175.7568 443.8565,175.7568 L442.4285,166.1738 L419.0345,164.5108 Z" id="Fill-123" fill="#002776"></path>
                    <path d="M438.4167,169.5475 C438.4167,169.5475 441.5897,185.9825 434.8367,193.0985 L444.8337,189.5475 L444.1917,172.7975 L442.7157,168.0985 L438.4167,169.5475 Z" id="Fill-124" fill="#002776"></path>
                    <path d="M427.2644,190.9395 C427.2644,190.9395 427.6564,193.5795 426.6934,196.6555 L419.0344,198.2675 L419.8244,199.7175 C428.0344,207.6065 438.1034,203.8225 441.1174,198.0505 L434.4654,196.6555 C433.5034,193.5795 433.8944,190.9395 433.8944,190.9395" id="Fill-125" fill="#E7E0BF"></path>
                    <path d="M428.6093,245.9086 C424.7543,245.5736 419.2473,244.3256 414.0903,241.5266 L414.1323,241.4396 C416.7363,236.0416 418.3783,227.9056 416.9393,222.0876 C415.3223,215.5476 413.4843,206.7466 413.5933,200.8716 C413.5933,200.8716 417.8123,197.5706 423.6013,196.7216 L430.4493,199.8386 L437.5833,196.7216 C443.0003,197.5706 446.4303,200.8716 446.4303,200.8716 C446.5433,206.9816 444.7293,216.2566 443.2153,222.8616 C441.9963,228.1786 443.4983,235.7406 445.6473,240.7546 L445.9423,241.4416 C444.3023,242.3656 439.0693,245.5576 432.2473,245.9626 L430.4493,239.8846 L428.6093,245.9086 Z" id="Fill-126" fill="#FFFFFF"></path>
                    <path d="M383.9313,206.1913 L381.6793,206.0553 C381.2373,206.0283 380.8563,206.3603 380.8213,206.8013 L380.8203,206.8153 C380.7923,207.1733 381.0033,207.5073 381.3383,207.6363 L386.4473,209.6003 C386.4473,209.6003 391.6203,212.5863 390.9653,209.1763 C390.3093,205.7663 386.9883,200.9893 386.9883,200.9893 C386.9883,200.9893 384.5953,196.9663 382.0833,196.9223 C381.0413,196.9043 381.2913,198.3393 381.8753,198.7143 C384.4163,199.9643 385.1903,203.7763 385.3123,205.1513 C385.4343,206.5263 383.9313,206.1913 383.9313,206.1913" id="Fill-127" fill="#E7E0BF"></path>
                    <path d="M406.3112,221.7048 L415.2582,213.0428 L416.3722,214.3798 L415.8002,202.3758 L413.5932,200.8718 C413.5932,200.8718 407.2722,206.7378 400.9972,214.1588 L391.5002,207.6518 L387.8122,212.2768 L398.7672,221.8898 C400.9462,223.8018 404.2282,223.7218 406.3112,221.7048" id="Fill-128" fill="#FFFFFF"></path>
                    <path d="M414.5956,240.1062 C420.0416,226.8812 416.3726,221.9642 414.9956,213.2972 L406.3116,221.7052 C404.2286,223.7212 400.9466,223.8022 398.7676,221.8892 L387.8126,212.2762 L391.4996,207.6512 L400.9976,214.1592 C407.2716,206.7372 413.5936,200.8722 413.5936,200.8722 C413.5936,200.8722 417.3746,198.0682 421.6936,197.0992" id="Stroke-129" stroke="#99D2ED" stroke-linecap="round" stroke-linejoin="round"></path>
                    <path d="M446.4301,200.8721 C446.4301,200.8721 453.8071,207.7171 460.5331,215.9751 C462.2721,218.1091 462.0121,221.2391 459.9501,223.0631 C456.6061,226.0211 451.4521,230.3461 446.8841,233.2021 C446.8841,233.2021 446.4511,229.9331 444.3331,227.8961 L452.3811,220.1711 L444.7651,213.0421 L443.6511,214.3801 L444.2231,202.3761 L446.4301,200.8721 Z" id="Fill-130" fill="#FFFFFF"></path>
                    <path d="M444.3334,227.896 L452.3814,220.171 L445.1444,213.397 C445.1444,213.397 443.3444,222.197 442.8384,225.455" id="Stroke-131" stroke="#99D2ED" stroke-linecap="round" stroke-linejoin="round"></path>
                    <path d="M445.5905,229.5251 L440.8565,225.1201 L437.1995,225.4171 L433.5635,227.0071 C433.3665,227.0931 433.2525,227.3021 433.2875,227.5151 L433.3455,227.8701 L433.2035,227.9271 C432.8915,228.0541 432.7345,228.4041 432.8455,228.7221 L432.8495,228.7321 C432.9435,229.0021 433.2075,229.1741 433.4935,229.1531 L438.7525,228.6031 C439.0915,228.5681 439.4065,228.7811 439.4995,229.1091 L439.5035,229.1211 C439.6035,229.4741 439.4145,229.8451 439.0695,229.9711 L435.3395,231.3311 C435.0545,231.4391 434.9105,231.7641 435.0165,232.0561 L435.0205,232.0651 C435.1105,232.2991 435.3455,232.4451 435.5955,232.4221 L440.4175,231.9341 C440.4175,231.9341 443.1865,235.1901 446.7575,232.5411 C446.7575,232.5411 446.5935,231.3981 445.5905,229.5251" id="Fill-132" fill="#E7E0BF"></path>
                    <polyline id="Stroke-133" stroke="#D2C09A" stroke-linecap="round" stroke-linejoin="round" points="433.8367 227.6152 437.1307 226.8382 439.6857 226.6552"></polyline>
                    <path d="M446.8845,233.2018 C446.8845,233.2018 446.4505,229.9328 444.3335,227.8958" id="Stroke-134" stroke="#99D2ED" stroke-linecap="round" stroke-linejoin="round"></path>
                    <path d="M446.8845,233.2018 C451.4525,230.3468 456.6055,226.0208 459.9495,223.0638 C462.0125,221.2398 462.2715,218.1098 460.5335,215.9748 C453.8075,207.7168 446.4305,200.8718 446.4305,200.8718 C446.4305,200.8718 444.1805,198.3198 439.4185,197.0988" id="Stroke-135" stroke="#99D2ED" stroke-linecap="round" stroke-linejoin="round"></path>
                    <polygon id="Fill-136" fill="#FFFFFF" points="424.2262 194.8058 423.1872 196.7218 427.6592 203.1518 430.4492 199.8388"></polygon>
                    <polygon id="Fill-137" fill="#FFFFFF" points="436.6719 194.8058 437.7109 196.7218 433.2389 203.1518 430.4489 199.8388"></polygon>
                    <polyline id="Stroke-138" stroke="#99D2ED" stroke-linecap="round" stroke-linejoin="round" points="423.1875 198.7215 427.6585 205.1515 430.4495 201.8385"></polyline>
                    <polyline id="Stroke-139" stroke="#99D2ED" stroke-linecap="round" stroke-linejoin="round" points="437.7106 198.7215 433.2396 205.1515 430.4486 201.8385 430.4486 236.8095"></polyline>
                    <path d="M133.0137,435.4641 C133.0137,435.4641 135.0137,432.8811 136.5967,426.1311 C136.6937,425.7171 144.3467,429.8911 144.3467,429.8911 C144.3467,429.8911 142.6807,437.1581 145.5967,441.8531 C148.5137,446.5471 134.8657,439.7971 134.3977,439.5471 C133.9307,439.2971 133.0137,435.4641 133.0137,435.4641" id="Fill-140" fill="#E7E0BF"></path>
                    <path d="M143.0513,325.8648 C132.7463,336.6528 134.4203,360.7498 139.3033,386.3728 C133.8793,397.7058 138.0903,416.7538 134.3983,429.0158 C134.3983,429.0158 139.4933,435.2938 146.6333,434.6438 C156.5173,400.0248 161.7303,393.0378 161.2833,381.3238 L170.1393,418.1058 L181.7793,376.5938 L181.4233,337.6038" id="Fill-141" fill="#002776"></path>
                    <path d="M133.4304,433.7141 L136.6804,437.8811 C136.6804,437.8811 139.7294,435.6091 142.9914,436.3311 C144.0054,436.5561 144.8654,437.2291 145.3704,438.1361 L148.0134,442.8811 C153.2114,442.8811 155.9304,445.3591 156.8904,449.9311 C157.2404,451.5951 156.2134,453.2641 154.5534,453.6341 C140.7214,456.7201 133.6764,452.1501 127.0134,443.2141 C127.9304,440.3811 131.5134,435.3811 133.4304,433.7141" id="Fill-142" fill="#005AA4"></path>
                    <path d="M280.4312,336.4462 C279.9192,357.6812 279.6682,409.8482 282.5702,445.2872 C282.6432,446.1862 281.9022,448.7062 281.9802,449.5822 C282.0982,450.9062 282.3662,451.4952 283.1632,452.6512 C286.5852,452.5742 288.6332,457.6862 295.1272,456.1892 C295.1272,456.1892 296.7432,453.9992 296.7282,451.5632 C296.7202,450.4402 295.0802,447.4592 295.0752,445.9162 C295.0072,426.7802 295.2052,377.6642 298.7902,356.8572 L306.7612,356.7892 C306.7612,356.7892 310.4622,411.0762 310.0882,448.5352 C310.0802,449.3212 309.1842,450.7612 309.0992,452.2172 C309.0082,453.7852 309.7292,455.3712 309.7122,456.1822 C309.7122,456.1822 317.8202,452.6512 322.1712,453.7402 C322.1712,453.7402 323.0342,452.4332 323.1132,450.0682 C323.1512,448.9632 322.3792,447.6272 322.4292,446.0862 C323.1182,425.1242 324.9242,366.1752 324.6202,333.4522" id="Fill-143" fill="#005AA4"></path>
                    <polyline id="Stroke-144" stroke="#002776" stroke-linecap="round" stroke-linejoin="round" points="290.6366 356.8655 297.4746 356.8655 286.6186 362.6965"></polyline>
                    <polyline id="Stroke-145" stroke="#002776" stroke-linecap="round" stroke-linejoin="round" points="314.7213 356.8655 308.2923 356.8655 316.4373 362.7085"></polyline>
                    <path d="M304.0056,341.4554 C304.0056,341.4554 303.4956,351.2784 304.9236,356.7894" id="Stroke-146" stroke="#002776" stroke-linecap="round" stroke-linejoin="round"></path>
                    <path d="M298.096,356.857 C296.667,351.346 297.178,341.455 297.178,341.455" id="Stroke-147" stroke="#002776" stroke-linecap="round" stroke-linejoin="round"></path>
                    <line x1="323.4979" y1="346.1499" x2="316.0479" y2="338.8019" id="Stroke-148" stroke="#005AA4" stroke-linecap="round" stroke-linejoin="round"></line>
                    <line x1="281.86" y1="347.9358" x2="288.289" y2="340.1288" id="Stroke-149" stroke="#005AA4" stroke-linecap="round" stroke-linejoin="round"></line>
                    <line x1="315.3336" y1="356.8655" x2="296.8936" y2="356.8655" id="Stroke-150" stroke="#002776" stroke-linecap="round" stroke-linejoin="round"></line>
                    <path d="M318.4115,237.1747 C320.1035,233.0137 324.1885,234.8237 324.5355,238.4277 C324.8815,242.0327 322.2055,249.7107 318.7145,246.7937" id="Fill-151" fill="#E7E0BF"></path>
                    <path d="M283.2959,240.8288 C281.1079,236.9048 277.2749,239.1998 277.3709,242.8198 C277.4679,246.4398 281.0609,253.7348 284.1689,250.4128" id="Fill-152" fill="#DBCCAE"></path>
                    <path d="M278.9225,229.9012 L280.7475,249.9392 C281.6655,260.0982 290.4975,267.6842 300.6785,267.0612 L301.0485,267.0382 C311.2295,266.4142 319.0695,257.8072 318.7405,247.6112 L318.0905,227.0022 C318.0905,227.0022 317.3065,213.5712 310.2375,209.1502 C303.1675,204.7292 296.1145,207.6432 296.1145,207.6432 L283.8525,212.2942 C283.8525,212.2942 277.2355,215.4082 278.9225,229.9012" id="Fill-153" fill="#E7E0BF"></path>
                    <path d="M289.5645,253.6195 L292.6235,250.1615 C292.6235,250.1615 299.0815,252.4725 298.7305,252.2685 L289.5645,253.6195 Z" id="Fill-154" fill="#DBCCAE"></path>
                    <path d="M300.935,245.7935 L300.905,245.7965 C300.09,245.8835 299.358,245.2935 299.271,244.4775 L298.563,237.8595 C298.476,237.0445 299.067,236.3125 299.882,236.2255 L299.912,236.2225 C300.728,236.1355 301.46,236.7255 301.547,237.5415 L302.254,244.1585 C302.341,244.9745 301.751,245.7065 300.935,245.7935" id="Fill-155" fill="#008ED2"></path>
                    <path d="M285.7923,247.7341 L285.7623,247.7371 C284.9473,247.8241 284.2153,247.2341 284.1283,246.4181 L283.4203,239.8001 C283.3333,238.9851 283.9243,238.2531 284.7393,238.1661 L284.7693,238.1631 C285.5853,238.0761 286.3173,238.6661 286.4043,239.4821 L287.1113,246.0991 C287.1983,246.9151 286.6083,247.6471 285.7923,247.7341" id="Fill-156" fill="#008ED2"></path>
                    <path d="M280.078,216.5148 C281.006,213.9618 282.965,210.0628 288.503,206.9418 C297.032,202.1338 308.161,203.3518 313.048,209.1748 C317.936,214.9978 318.978,226.1928 318.976003,236.1178 L317.52,242.0458 C317.52,242.0458 315.446,229.6808 310.986,225.6688 L312.281,218.3038 C312.694,215.9548 311.614,213.5938 309.567,212.3688 L305.252,209.7888 C304.071,209.0828 302.539,209.3868 301.742,210.5078 C297.555,216.4048 287.753,220.3318 281.61,215.3118 L280.078,216.5148 Z" id="Fill-157" fill="#002776"></path>
                    <path d="M292.7531,258.551 C292.7531,258.551 300.0291,260.043 304.2181,255.002" id="Stroke-158" stroke="#008ED2" stroke-linecap="round" stroke-linejoin="round"></path>
                    <path d="M321.6888,225.3289 C319.1768,213.4669 314.2278,206.7219 306.8958,204.0689 L306.8958,204.0689 C306.8958,204.0689 304.6048,200.0149 297.2098,200.5049 C291.5328,200.8819 286.8978,201.5129 284.0598,207.3249 C277.8108,212.7009 275.8178,222.0749 276.1978,230.8539 C276.1978,230.8539 271.9448,233.7469 281.0138,235.2629 C290.0828,236.7799 301.4008,234.3659 306.4128,229.0819 L306.4138,229.0799 C313.4228,228.0109 319.4048,226.6589 321.6888,225.3289" id="Fill-159" fill="#33A4DB"></path>
                    <path d="M303.7921,203.8295 C297.7561,203.1115 293.6581,212.8205 294.2441,226.6155" id="Stroke-160" stroke="#005AA4" stroke-linecap="round" stroke-linejoin="round"></path>
                    <path d="M283.8279,209.9121 C283.8279,209.9121 280.4659,216.5541 281.4779,227.3711" id="Stroke-161" stroke="#005AA4" stroke-linecap="round" stroke-linejoin="round"></path>
                    <path d="M302.1964,229.9683 C297.8464,230.7763 282.6584,233.3673 277.9854,231.0943" id="Stroke-162" stroke="#005AA4" stroke-linecap="round" stroke-linejoin="round"></path>
                    <path d="M295.108,261.9929 C295.108,261.9929 295.741,266.2579 294.186,271.2269 L283.903,275.4889 L285.18,276.1739 C298.442,288.9189 314.709,283.6339 319.579,274.3089 L310.924,271.2269 C309.369,266.2579 310.002,261.9929 310.002,261.9929" id="Fill-163" fill="#E7E0BF"></path>
                    <path d="M277.5999,278.8682 C276.1479,281.4472 285.4419,275.3402 288.9629,274.4472 C294.6319,281.0362 306.7889,283.7282 314.3499,273.7782 C319.1179,275.1812 325.6749,278.0392 325.6749,278.0392 C325.8579,287.9092 325.4139,302.8932 322.9679,313.5642 C320.9989,322.1532 321.8109,331.1402 325.2819,339.2392 L325.7579,340.3492 C325.7579,340.3492 309.2989,351.8842 281.5309,340.4872 L281.5989,340.3462 C285.8059,331.6252 282.8429,321.7132 280.5189,312.3142 C277.9059,301.7482 277.4239,288.3582 277.5999,278.8682" id="Fill-164" fill="#002776"></path>
                    <path d="M278.815,332.0155 L278.815,331.9575 C274.045,330.8855 273.562,322.3205 271.697,307.4645 C270.365,296.8535 271.147,288.6815 273.751,283.1965 C275.226,280.0915 277.002,277.6605 280.117,276.2065 L283.903,321.7895 L278.815,332.0155 Z" id="Fill-165" fill="#002776"></path>
                    <path d="M325.3945,332.2746 L325.3945,332.2166 C330.1645,331.1446 330.6475,322.5796 332.5125,307.7236 C333.8445,297.1126 333.0625,288.9406 330.4585,283.4556 C328.9835,280.3506 327.2075,277.9196 324.0925,276.4656 L320.3065,322.0486 L325.3945,332.2746 Z" id="Fill-166" fill="#002776"></path>
                    <path d="M278.1011,345.0787 C278.1011,345.0787 289.2881,356.4647 301.2851,348.3137 C313.2821,356.4647 326.5611,344.0787 326.5611,344.0787 C323.9421,317.9437 326.3141,276.6157 326.3141,276.6157 C322.0471,274.2667 314.4211,271.2757 314.4211,271.2757 C314.4211,271.2757 307.8801,289.3247 300.3321,303.4157 C293.8031,287.8057 289.2411,271.2757 289.2411,271.2757 C289.2411,271.2757 281.6151,274.2667 277.3481,276.6157 C277.3481,276.6157 280.0221,303.4437 278.1011,345.0787" id="Fill-167" fill="#008ED2"></path>
                    <path d="M300.1421,304.8583 C297.9901,321.7123 299.2051,332.6833 301.0991,346.9213" id="Stroke-168" stroke="#005AA4" stroke-linecap="round" stroke-linejoin="round"></path>
                    <line x1="295.4027" y1="317.9857" x2="283.1507" y2="317.3217" id="Stroke-169" stroke="#FFFFFF" stroke-width="4" stroke-linecap="round" stroke-linejoin="round"></line>
                    <line x1="296.1358" y1="333.5607" x2="281.2068" y2="332.7517" id="Stroke-170" stroke="#FFFFFF" stroke-width="4" stroke-linecap="round" stroke-linejoin="round"></line>
                    <line x1="290.3017" y1="317.7091" x2="285.0997" y2="276.8961" id="Stroke-171" stroke="#FFFFFF" stroke-width="4" stroke-linecap="round" stroke-linejoin="round"></line>
                    <line x1="305.6039" y1="317.9857" x2="320.1519" y2="317.3217" id="Stroke-172" stroke="#FFFFFF" stroke-width="4" stroke-linecap="round" stroke-linejoin="round"></line>
                    <line x1="304.8709" y1="333.5607" x2="322.0959" y2="332.7517" id="Stroke-173" stroke="#FFFFFF" stroke-width="4" stroke-linecap="round" stroke-linejoin="round"></line>
                    <line x1="310.5033" y1="317.3213" x2="318.7403" y2="276.8963" id="Stroke-174" stroke="#FFFFFF" stroke-width="4" stroke-linecap="round" stroke-linejoin="round"></line>
                    <polygon id="Fill-175" fill="#005AA4" points="375.8337 489.2574 170.1067 489.2574 143.2757 463.7924 143.2757 370.5244 329.8387 395.7224 375.8337 395.7224"></polygon>
                    <polygon id="Fill-176" fill="#005AA4" points="379.6667 398.3233 167.5517 398.3233 140.7207 372.8583 140.7207 366.4703 327.2837 372.8583 379.6667 391.9353"></polygon>
                    <polyline id="Stroke-177" stroke="#002776" stroke-linecap="round" stroke-linejoin="round" points="372.6667 398.3233 167.5517 398.3233 140.7207 372.8583"></polyline>
                    <polygon id="Fill-178" fill="#337BB6" points="379.6667 391.9351 167.5517 391.9351 140.7207 366.4701 327.2837 366.4701"></polygon>
                    <line x1="170.1066" y1="485.4245" x2="170.1066" y2="403.1145" id="Stroke-179" stroke="#002776" stroke-linecap="round" stroke-linejoin="round"></line>
                    <polygon id="Fill-180" fill="#002776" points="207.9304 376.8392 265.4194 366.1962 325.7894 378.6812 284.3784 391.7772 276.8954 402.8782 262.4264 391.7772"></polygon>
                    <line x1="281.6347" y1="392.2142" x2="265.9497" y2="392.2142" id="Stroke-181" stroke="#337BB6" stroke-linecap="round" stroke-linejoin="round"></line>
                    <path d="M198.5175,243.5399 C193.7225,252.7959 184.9375,278.5169 190.7535,286.2109 C190.7535,286.2109 219.1905,288.2959 229.7165,294.6999 C229.7165,294.6999 231.3485,277.0199 239.8115,258.8619" id="Fill-182" fill="#002776"></path>
                    <path d="M212.7154,288.333 C212.7154,288.333 213.1304,285.41 208.2134,283.055 C203.2954,280.7 193.3064,283.623 193.3064,283.623 L198.7474,299.134 L202.8284,303.113 L212.7244,295.56 L212.7154,288.333 Z" id="Fill-183" fill="#E7E0BF"></path>
                    <path d="M248.395,340.315 C248.395,340.315 259.229,354.441 264.027,360.287 C264.63,361.021 264.265,362.127 263.347,362.369 L263.347,362.369 C262.415,362.614 261.424,362.327 260.767,361.622 L256.703,357.263 L252.967,361.171 L248.523,360.556 C248.036,360.489 247.617,360.178 247.411,359.731 L246.051,356.784 C245.284,355.121 245.041,353.263 245.354,351.458 L246.509,344.803" id="Fill-184" fill="#E7E0BF"></path>
                    <path d="M250.1679,356.8214 C250.1679,356.8214 252.0249,355.7854 252.4669,358.3644 C252.4669,358.3644 251.9499,356.7284 254.1949,354.9494" id="Stroke-185" stroke="#D2C09A" stroke-linecap="round" stroke-linejoin="round"></path>
                    <path d="M255.5529,355.9511 C255.5529,355.9511 251.3819,352.0901 248.5849,354.9871" id="Stroke-186" stroke="#D2C09A" stroke-linecap="round" stroke-linejoin="round"></path>
                    <path d="M250.0824,358.9227 C250.2054,358.6737 250.1664,354.0287 250.1664,354.0287" id="Stroke-187" stroke="#D2C09A" stroke-linecap="round" stroke-linejoin="round"></path>
                    <polygon id="Fill-188" fill="#005AA4" points="252.6154 343.5735 212.1584 286.4345 211.7644 292.0695 210.2364 313.9135 241.6524 349.9645"></polygon>
                    <path d="M194.6821,285.1087 C198.3421,293.2057 205.3681,303.4737 212.1581,293.2057 L203.4201,316.1267 C203.4201,316.1267 196.5551,318.8667 196.0681,318.8667 C195.5811,318.8667 193.4881,300.5137 193.7221,299.7017 C193.9561,298.8897 191.2601,289.1447 191.4711,288.6577 C191.6831,288.1707 194.6821,285.1087 194.6821,285.1087" id="Fill-189" fill="#005AA4"></path>
                    <path d="M138.6804,327.9642 C147.9304,315.9642 155.7894,294.9312 172.6804,284.6482 C189.5714,274.3652 195.7404,280.1442 196.9034,286.8032 C198.0664,293.4622 201.8094,311.3782 201.8094,311.3782 C210.2544,304.8812 211.5194,292.0072 212.1584,286.4342 L216.8974,291.9872 C216.8974,291.9872 213.5014,314.5642 206.0034,321.1012 C198.5044,327.6372 184.0494,337.0022 181.7754,347.2622 C161.9614,351.3502 145.8264,339.3332 138.6804,327.9642" id="Fill-190" fill="#008ED2"></path>
                    <path d="M188.7287,354.2565 L188.6877,362.0475 L196.8437,364.3685 L200.5997,367.9255 L203.9537,373.9315 C204.0147,374.2935 204.2397,374.8895 203.6707,375.1975 L203.1117,375.4465 C203.5057,376.8425 202.0987,377.2435 201.1807,376.4885 C201.1807,376.4885 194.6827,370.9505 193.7097,370.0985 C192.7367,369.2455 191.4027,369.9335 191.6477,371.0395 L193.1897,377.6155 C193.3017,378.1235 192.9747,378.6315 192.4587,378.7515 L192.4427,378.7555 C192.0247,378.8455 191.5987,378.6475 191.3977,378.2705 L187.5967,370.9505 C187.5967,370.9505 180.3797,370.0445 180.8197,362.4915 L180.8917,353.4475" id="Fill-191" fill="#E7E0BF"></path>
                    <polyline id="Stroke-192" stroke="#D2C09A" stroke-linecap="round" stroke-linejoin="round" points="203.0155 374.5089 199.2585 369.6159 195.7935 367.0679"></polyline>
                    <path d="M190.5976,301.0966 L189.5826,361.6276 L177.8856,361.6296 L171.9286,309.0486 C165.5066,310.0566 160.3396,300.3046 170.0156,291.3266 C179.6916,282.3496 191.5086,278.6916 190.5976,301.0966" id="Fill-193" fill="#005AA4"></path>
                    <path d="M205.6182,286.1268 L205.9402,286.2648 C214.8122,290.0658 225.0992,286.1208 229.1552,277.3618 L234.1702,266.6528 C236.6402,261.3778 236.8232,255.3168 234.6752,249.9018 L234.6752,249.9018 L209.6992,240.1658 L203.4632,243.7468 L196.0462,263.1788 C192.5042,272.1578 196.7452,282.3258 205.6182,286.1268" id="Fill-194" fill="#E7E0BF"></path>
                    <path d="M222.2597,274.9519 L222.2867,274.9639 C223.0357,275.2849 223.9037,274.9379 224.2247,274.1879 L226.4217,269.0589 C226.7427,268.3099 226.3957,267.4429 225.6467,267.1219 L225.6187,267.1099 C224.8697,266.7889 224.0027,267.1359 223.6817,267.8849 L221.4847,273.0149 C221.1637,273.7639 221.5107,274.6309 222.2597,274.9519" id="Fill-195" fill="#008ED2"></path>
                    <path d="M208.0465,268.8818 L208.0735,268.8938 C208.8225,269.2148 209.6905,268.8678 210.0115,268.1178 L212.2085,262.9888 C212.5295,262.2398 212.1825,261.3728 211.4335,261.0518 L211.4055,261.0398 C210.6565,260.7188 209.7895,261.0658 209.4685,261.8148 L207.2715,266.9448 C206.9505,267.6938 207.2975,268.5608 208.0465,268.8818" id="Fill-196" fill="#008ED2"></path>
                    <polygon id="Fill-197" fill="#DBCCAE" points="210.1871 273.9361 214.9101 273.3871 217.7721 277.1851"></polygon>
                    <path d="M217.8383,282.4318 C211.3543,284.5668 207.0473,280.8978 206.4783,277.1928 L217.8383,282.4318 Z" id="Fill-198" fill="#008ED2"></path>
                    <path d="M214.9318,257.686 C214.9318,257.686 212.6548,255.938 209.2398,256.456" id="Stroke-199" stroke="#002776" stroke-linecap="round" stroke-linejoin="round"></path>
                    <path d="M204.4411,245.788 C201.4271,252.602 199.2441,280.313 202.0411,288.221 C202.0411,288.221 196.4131,288.583 194.0071,283.434 C191.6011,278.284 191.4591,277.37 191.4591,277.37 L193.3071,260.636 L200.9811,244.333 L204.4411,245.788 Z" id="Fill-200" fill="#002776"></path>
                    <path d="M225.9523,261.9979 C225.9523,261.9979 228.7103,262.7919 230.3213,265.8479" id="Stroke-201" stroke="#002776" stroke-linecap="round" stroke-linejoin="round"></path>
                    <path d="M234.4686,233.3432 L234.4646,233.3412 C234.5366,232.4022 234.5456,231.5822 234.4616,230.9522 C234.4616,230.9522 232.4876,228.5862 229.5416,227.3002 C226.5956,226.0132 223.5186,226.1732 223.5186,226.1732 C222.9996,226.5402 222.4036,227.1032 221.7636,227.7952 L221.7596,227.7932 C216.0196,225.9042 204.7856,226.6112 197.1406,244.1192 L202.9246,246.6452 C205.6676,251.1512 207.9006,252.5272 216.8226,256.4232 C225.7456,260.3202 232.7576,262.9812 237.9266,261.9312 L239.2256,262.4992 C246.8716,244.9912 239.7556,236.2712 234.4686,233.3432" id="Fill-202" fill="#33A4DB"></path>
                    <path d="M234.3181,234.7859 C233.6271,240.0179 231.3061,248.0449 228.7071,253.9959" id="Stroke-203" stroke="#005AA4" stroke-linecap="round" stroke-linejoin="round"></path>
                    <line x1="204.4411" y1="247.3077" x2="236.0371" y2="261.2067" id="Stroke-204" stroke="#005AA4" stroke-linecap="round" stroke-linejoin="round"></line>
                    <path d="M222.2498,228.8094 C222.2498,228.8094 219.8338,237.6604 215.0368,248.3524" id="Stroke-205" stroke="#005AA4" stroke-linecap="round" stroke-linejoin="round"></path>
                    <polyline id="Fill-206" fill="#002776" points="135.1875 187.0891 134.3125 194.8391 138.3125 194.3391 139.8125 189.7771"></polyline>
                </g>
            </g>
            <g id="Group-269" transform="translate(476.000000, 178.000000)">
                <path d="M65.5043,90.7539 C65.5043,90.7539 67.0613,98.7809 66.3823,105.9589 L48.7543,112.5459 L79.0983,146.0899 L106.5813,112.5459 L88.9523,105.9589 C88.2733,98.7809 89.8303,90.7539 89.8303,90.7539" id="Fill-208" fill="#E7E0BF"></path>
                <path d="M49.427,53.2439 C46.327,46.7839 40,50.0639 39.801,55.8359 C39.601,61.6079 44.61,73.5709 49.882,68.5859" id="Fill-210" fill="#E7E0BF"></path>
                <path d="M107.0359,53.2439 C110.1359,46.7839 116.4629,50.0639 116.6619,55.8359 C116.8609,61.6079 111.8529,73.5709 106.5809,68.5859" id="Fill-212" fill="#E7E0BF"></path>
                <path d="M78.4296,96.6993 L77.8396,96.6993 C61.5696,96.6993 48.2506,83.7603 47.7796,67.4983 L46.4696,28.4713 L60.9926,6.8313 L96.3586,5.1923 L109.6916,31.6793 L108.4896,67.4983 C108.0186,83.7603 94.6986,96.6993 78.4296,96.6993" id="Fill-214" fill="#E7E0BF"></path>
                <path d="M77.8608,96.6993 C61.5918,96.6993 48.2718,83.7603 47.8008,67.4983 L47.3958,55.4383 C47.3958,55.4383 47.4328,73.9223 63.6278,76.6983 C63.6278,76.6983 65.0008,69.9473 73.2078,69.9473 L83.0828,69.9473 C91.2898,69.9473 92.6628,76.6983 92.6628,76.6983 C108.8578,73.9223 108.8948,55.4383 108.8948,55.4383 L108.4898,67.4983 C108.0188,83.7603 94.6988,96.6993 78.4298,96.6993" id="Fill-216" fill="#E7E0BF"></path>
                <polygon id="Fill-218" fill="#DBCCAE" points="79.1859 65.4478 79.1669 65.4478 72.7539 69.9468 85.4439 69.9468"></polygon>
                <path d="M66.1349,62.8152113 L66.1829,62.8152113 C67.4909,62.8112 68.5479,61.7482 68.5449064,60.4392 L68.5139,50.4242 C68.5099,49.1162 67.4469,48.0582 66.1379,48.0621887 L66.0909,48.0621887 C64.7819,48.0662 63.7249,49.1292 63.7288887,50.4372 L63.7288887,60.4532 C63.7329,61.7612 64.8269,62.8192 66.1349,62.8152113" id="Fill-220" fill="#008ED2"></path>
                <path d="M92.0588,62.8152113 L92.1068,62.8152113 C93.4148,62.8112 94.4718,61.7482 94.4688064,60.4392 L94.4378,50.4242 C94.4338,49.1162 93.3708,48.0582 92.0618,48.0621887 L92.0148,48.0621887 C90.7058,48.0662 89.6488,49.1292 89.6527887,50.4372 L89.6527887,60.4532 C89.6568,61.7612 90.7508,62.8192 92.0588,62.8152113" id="Fill-222" fill="#008ED2"></path>
                <path d="M88.6237,80.1963 C88.6237,80.1963 77.7337,84.8593 69.5737,78.3243" id="Stroke-224" stroke="#008ED2" stroke-linecap="round" stroke-linejoin="round"></path>
                <path d="M70.8714,40.5957 C70.8714,40.5957 63.3074,39.0007 59.1204,42.9887 C59.1204,42.9887 65.4754,32.8197 70.8714,40.5957" id="Fill-226" fill="#002776"></path>
                <path d="M70.8714,40.5957 C70.8714,40.5957 63.3074,39.0007 59.1204,42.9887 C59.1204,42.9887 65.4754,32.8197 70.8714,40.5957 Z" id="Stroke-228" stroke="#002776" stroke-linecap="round" stroke-linejoin="round"></path>
                <path d="M87.2601,41.1385 C87.2601,41.1385 94.8241,39.5435 99.0111,43.5315 C99.0111,43.5315 92.6561,33.3625 87.2601,41.1385" id="Fill-230" fill="#002776"></path>
                <path d="M87.2601,41.1385 C87.2601,41.1385 94.8241,39.5435 99.0111,43.5315 C99.0111,43.5315 92.6561,33.3625 87.2601,41.1385 Z" id="Stroke-232" stroke="#002776" stroke-linecap="round" stroke-linejoin="round"></path>
                <path d="M108.3525,55.2763 C108.3525,55.2763 109.8505,19.1943 95.7205,15.4703 C95.7205,15.4703 81.3535,26.9603 60.5995,15.4703 C46.4695,19.1943 47.9675,55.2763 47.9675,55.2763 L45.7795,49.7003 C45.7795,31.7423 44.9055,21.4653 51.7485,11.2023 C56.1495,4.6033 66.2675,0.6143 75.9475,0.2643 L80.3725,0.2643 C90.0525,0.6143 100.1705,4.6033 104.5715,11.2023 C111.4145,21.4653 110.5405,31.7533 110.5405,49.7003 L108.3525,55.2763 Z" id="Fill-234" fill="#002776"></path>
                <g id="Group-238" transform="translate(45.000000, 208.000000)">
                    <mask id="mask-2" fill="white">
                        <use xlink:href="#path-1"></use>
                    </mask>
                    <g id="Clip-237"></g>
                    <path d="M64.6294,5.2556 C65.4184,37.9846 65.7804,109.7506 60.6704,160.6186 L40.5014,162.1956 C40.5014,162.1956 41.7154,72.6846 35.1934,34.8296 L29.3134,34.7316 C29.3134,34.7316 23.4724,107.3846 24.5984,161.6036 L4.1504,162.1956 C4.1504,162.1956 0.0594,59.2776 0.6014,0.9176" id="Fill-236" fill="#33A4DB" mask="url(#mask-2)"></path>
                </g>
                <path d="M113.5142,226.8373 L108.8952,187.3303 C111.6412,171.3113 116.5552,148.8073 116.2312,132.7403 C115.9962,121.1223 110.7682,112.8703 110.7682,112.8703 L97.2632,108.2983 L78.1542,134.2783 L56.3962,108.2983 L42.8902,112.8703 C42.8902,112.8703 37.6622,121.1223 37.4282,132.7403 C37.1032,148.8073 42.0172,171.3113 44.7632,187.3303 L40.1452,226.8373 C40.1452,226.8373 74.4972,238.2943 113.5142,226.8373" id="Fill-239" fill="#33A4DB"></path>
                <path d="M47.9674,228.8636 C59.3944,231.3376 82.0704,234.4946 107.4534,228.4476" id="Stroke-241" stroke="#005AA4" stroke-linecap="round" stroke-linejoin="round"></path>
                <polyline id="Stroke-243" stroke="#005AA4" stroke-linecap="round" stroke-linejoin="round" points="94.8423 242.8421 84.9353 242.8421 104.7493 250.8271"></polyline>
                <line x1="86.4137" y1="245.9474" x2="98.2437" y2="254.9674" id="Stroke-245" stroke="#005AA4" stroke-linecap="round" stroke-linejoin="round"></line>
                <polyline id="Stroke-247" stroke="#005AA4" stroke-linecap="round" stroke-linejoin="round" points="56.396 242.8421 69.261 242.8421 62.828 248.0171"></polyline>
                <line x1="59.0577" y1="242.8421" x2="85.7757" y2="242.8421" id="Stroke-249" stroke="#005AA4" stroke-linecap="round" stroke-linejoin="round"></line>
                <line x1="49.8819" y1="155.3021" x2="61.8229" y2="184.9401" id="Stroke-251" stroke="#005AA4" stroke-linecap="round" stroke-linejoin="round"></line>
                <line x1="102.4525" y1="159.7283" x2="94.8425" y2="184.9403" id="Stroke-253" stroke="#005AA4" stroke-linecap="round" stroke-linejoin="round"></line>
                <line x1="95.7872" y1="188.5663" x2="100.9012" y2="206.0893" id="Stroke-255" stroke="#005AA4" stroke-linecap="round" stroke-linejoin="round"></line>
                <path d="M31.8229,150.3415 L20.2479,159.5545 L38.6679,183.3065 L48.7069,176.2155 L57.8709,178.2185 L66.5389,183.4925 C67.0089,183.7785 67.2259,184.3475 67.0649,184.8745 L66.7959,185.7535 L67.1349,185.9475 C67.8819,186.3765 68.1609,187.3155 67.7699,188.0825 L67.7569,188.1075 C67.4249,188.7595 66.6969,189.1065 65.9819,188.9545 L52.8439,185.7605 C51.9979,185.5555 51.1269,185.9875 50.7779,186.7855 L50.7659,186.8145 C50.3899,187.6755 50.7429,188.6805 51.5739,189.1175 L60.5569,193.8395 C61.2439,194.2125 61.4979,195.0835 61.1269,195.7865 L61.1149,195.8095 C60.8059,196.3715 60.1619,196.6615 59.5359,196.5175 L47.4869,193.6275 C47.4869,193.6275 39.3549,200.9285 31.2149,192.9965 L4.3609,165.4165 C-0.7481,160.1695 -0.4291,151.7145 5.0609,146.8665 L17.1769,136.1685" id="Fill-257" fill="#E7E0BF"></path>
                <polyline id="Stroke-259" stroke="#D2C09A" stroke-linecap="round" stroke-linejoin="round" points="65.6379 184.9402 57.5589 181.8422 51.1469 180.5042"></polyline>
                <path d="M21.2028,159.7283 L4.0148,144.6463 C23.8828,126.0293 42.8908,112.8703 42.8908,112.8703 L47.9678,117.4373 L45.3058,148.0463 L42.9398,144.2763 L21.2028,159.7283" id="Fill-261" fill="#33A4DB"></path>
                <path d="M123.3817,151.3673 L133.7677,158.6773 L116.3677,184.7753 L105.7927,178.5123 L96.8187,181.2433 L88.6017,187.1953 C88.1557,187.5183 87.9857,188.1033 88.1877,188.6153 L88.5257,189.4703 L88.2047,189.6903 C87.4937,190.1783 87.2907,191.1363 87.7427,191.8703 L87.7577,191.8933 C88.1407,192.5163 88.8937,192.8043 89.5947,192.5953 L102.4337,188.3583 C103.2607,188.0853 104.1637,188.4463 104.5747,189.2143 L104.5907,189.2423 C105.0337,190.0703 104.7627,191.1003 103.9687,191.6023 L95.3937,197.0293 C94.7387,197.4563 94.5557,198.3443 94.9817,199.0163 L94.9957,199.0373 C95.3487,199.5733 96.0147,199.8103 96.6257,199.6163 L108.4047,195.7703 C108.4047,195.7703 117.0957,202.3953 124.5737,193.8353 L149.6387,163.5773 C154.1157,158.1723 153.4187,150.1723 148.0737,145.6223 L136.8437,136.0653" id="Fill-263" fill="#E7E0BF"></path>
                <polyline id="Stroke-265" stroke="#D2C09A" stroke-linecap="round" stroke-linejoin="round" points="89.6155 188.5663 97.4205 184.8303 103.7045 182.9823"></polyline>
                <path d="M132.4562,159.7283 L149.6442,144.6463 C129.7762,126.0293 110.7682,112.8703 110.7682,112.8703 L105.6912,117.4373 L108.3532,148.0463 L110.7192,144.2763 L132.4562,159.7283" id="Fill-267" fill="#33A4DB"></path>
            </g>
        </g>
    </g>
</svg>