<svg xmlns="http://www.w3.org/2000/svg" width="317.464" height="71" viewBox="0 0 317.464 71"><g transform="translate(-617 -43)"><g transform="translate(616.79 42.79)"><path d="M35.5,0A35.5,35.5,0,1,1,0,35.5,35.5,35.5,0,0,1,35.5,0Z" transform="translate(0.21 0.21)" fill="#1565c0"/><path d="M30.55,63.108c-8.237,0-12.25-3.092-12.25-10.135V33.35h8.455V53.57c0,2.115,1.139,3.851,4.013,3.851a7.288,7.288,0,0,0,3.521-.7V33.35h8.455V60.83c-2.706,1.356-6.719,2.277-12.194,2.277Z" transform="translate(-6.835 -12.522)" fill="#2699fb"/><path d="M81.362,45.543q0-4.61-1.935-7.037a6.559,6.559,0,0,0-5.438-2.426,7.4,7.4,0,0,0-3.042.647,8.336,8.336,0,0,0-2.607,1.842,9.747,9.747,0,0,0-1.935,2.949,13.631,13.631,0,0,0-1.014,4.025ZM60.47,47.814a18.078,18.078,0,0,1,1.139-6.607,15.423,15.423,0,0,1,3.011-4.946,13.218,13.218,0,0,1,4.268-3.1,12.048,12.048,0,0,1,4.977-1.076,12.559,12.559,0,0,1,5.071.983,9.835,9.835,0,0,1,3.745,2.825,12.989,12.989,0,0,1,2.3,4.424,19.626,19.626,0,0,1,.8,5.774,17.8,17.8,0,0,1-.18,2.762H65.447a11.883,11.883,0,0,0,2.98,7.677A9.151,9.151,0,0,0,75.4,59.349a11.794,11.794,0,0,0,3.963-.647,17.554,17.554,0,0,0,3.472-1.692l1.779,3.316a25.414,25.414,0,0,1-4.361,2.153,15.134,15.134,0,0,1-5.469.921,14.621,14.621,0,0,1-5.618-1.076,13.337,13.337,0,0,1-4.548-3.073,14.335,14.335,0,0,1-3.042-4.884,18.142,18.142,0,0,1-1.107-6.551Z" transform="translate(-22.769 -12.042)" fill="#f1f2f2"/></g><path d="M5.852-10.384q0,3.96,1.936,5.984a6.961,6.961,0,0,0,5.28,2.024,13.648,13.648,0,0,0,3.322-.352A9.921,9.921,0,0,0,18.92-3.74l1.012,2.552A11.441,11.441,0,0,1,16.918-.022,17.006,17.006,0,0,1,12.76.44a9.963,9.963,0,0,1-7.7-3.1Q2.2-5.764,2.2-11.924q0-5.9,2.618-9.064a8.543,8.543,0,0,1,6.93-3.168,8.106,8.106,0,0,1,6.688,2.882q2.332,2.882,2.332,8.734Zm5.764-11.264A4.992,4.992,0,0,0,7.3-19.382Q5.72-17.116,5.72-12.452l11.352-1.716q0-3.916-1.386-5.7A4.842,4.842,0,0,0,11.616-21.648ZM34.188.44a7.8,7.8,0,0,1-6.512-3.322q-2.508-3.322-2.508-9,0-5.764,2.508-9.02a7.932,7.932,0,0,1,6.6-3.256,9.468,9.468,0,0,1,3.256.462,6.323,6.323,0,0,1,1.98,1.122l-.924,2.244a7.12,7.12,0,0,0-1.5-.792,5.419,5.419,0,0,0-2.024-.352,4.858,4.858,0,0,0-4.554,2.508,14.115,14.115,0,0,0-1.43,6.952A13.879,13.879,0,0,0,30.6-5.06a4.759,4.759,0,0,0,4.334,2.64,5.889,5.889,0,0,0,1.98-.286,7.3,7.3,0,0,0,1.628-.858l.968,2.42A5.52,5.52,0,0,1,37.422,0,10.447,10.447,0,0,1,34.188.44Zm18.348,0a7.885,7.885,0,0,1-6.952-3.388,15.382,15.382,0,0,1-2.332-8.888,15.557,15.557,0,0,1,2.31-8.954,7.846,7.846,0,0,1,6.93-3.366q4.708,0,7,3.344t2.288,8.976a15.471,15.471,0,0,1-2.31,8.91A7.846,7.846,0,0,1,52.536.44Zm0-22.132A4.239,4.239,0,0,0,48.29-18.92a18.42,18.42,0,0,0-1.166,7.084A17.413,17.413,0,0,0,48.29-4.884a4.248,4.248,0,0,0,4.246,2.64A4.2,4.2,0,0,0,56.76-4.906a17.743,17.743,0,0,0,1.144-6.93,18.7,18.7,0,0,0-1.144-7.106A4.2,4.2,0,0,0,52.536-21.692ZM80.432,0V-17.028a4.981,4.981,0,0,0-1.1-3.3q-1.1-1.32-3.872-1.32a12.643,12.643,0,0,0-2.464.2,11.03,11.03,0,0,0-2.024.638V0H67.1V-22.484a15.709,15.709,0,0,1,3.784-1.254,24.945,24.945,0,0,1,4.884-.418q4.532,0,6.534,2.046a6.871,6.871,0,0,1,2,4.994V0Zm18.48.44A7.885,7.885,0,0,1,91.96-2.948a15.382,15.382,0,0,1-2.332-8.888,15.557,15.557,0,0,1,2.31-8.954,7.846,7.846,0,0,1,6.93-3.366q4.708,0,7,3.344t2.288,8.976a15.471,15.471,0,0,1-2.31,8.91A7.846,7.846,0,0,1,98.912.44Zm0-22.132a4.239,4.239,0,0,0-4.246,2.772A18.42,18.42,0,0,0,93.5-11.836a17.413,17.413,0,0,0,1.166,6.952,4.248,4.248,0,0,0,4.246,2.64,4.2,4.2,0,0,0,4.224-2.662,17.744,17.744,0,0,0,1.144-6.93,18.7,18.7,0,0,0-1.144-7.106A4.2,4.2,0,0,0,98.912-21.692ZM140.14,0V-17.072a4.917,4.917,0,0,0-1.056-3.278,4.372,4.372,0,0,0-3.52-1.254,6.429,6.429,0,0,0-4.884,2.112V0h-3.872V-17.248a4.106,4.106,0,0,0-1.32-3.212,5.612,5.612,0,0,0-3.872-1.188,13.611,13.611,0,0,0-2.332.154,8.963,8.963,0,0,0-1.936.638V0h-3.872V-22.484a17.164,17.164,0,0,1,3.63-1.254,21.471,21.471,0,0,1,4.6-.418,11.423,11.423,0,0,1,4.378.726,7.244,7.244,0,0,1,2.882,2.134,9.255,9.255,0,0,1,3.1-2.09,10.86,10.86,0,0,1,4.246-.77q3.916,0,5.808,2.068a7.052,7.052,0,0,1,1.892,4.928V0Zm16.412,9.46h-4.18L156.332,0l-7.92-23.716h4.136l4.884,17.028a11.878,11.878,0,0,1,.374,1.826,9.552,9.552,0,0,0,.2,1.21l.176-1.056a19.407,19.407,0,0,1,.528-1.98l5.148-17.028h3.608Z" transform="translate(767 95)" fill="#1565c0"/><path d="M23.892-1.32v-22.4h-8.36v18.3a5.466,5.466,0,0,1-1.98.4,2.571,2.571,0,0,1-2.86-2.772V-23.716H2.332V-8.14c0,6.116,3.7,8.668,11.088,8.668A28.087,28.087,0,0,0,23.892-1.32ZM50.336,0V-15.84c0-5.148-3.388-8.316-11.4-8.316A27.59,27.59,0,0,0,28.556-22.4V0h8.36V-18.744a5.923,5.923,0,0,1,2.024-.308c2.156,0,3.036,1.056,3.036,3.124V0Zm13.2-30.58a4.092,4.092,0,0,0-4.312-3.784,4.092,4.092,0,0,0-4.312,3.784A4.092,4.092,0,0,0,59.224-26.8,4.092,4.092,0,0,0,63.536-30.58ZM63.4,0V-23.716h-8.36V0Z" transform="translate(701 95)" fill="#2699fb"/></g></svg>