<svg id="Group_883" data-name="Group 883" xmlns="http://www.w3.org/2000/svg" width="312.6" height="53" viewBox="0 0 312.6 53">
  <g id="Group_881" data-name="Group 881">
    <path id="Path_198" data-name="Path 198" d="M12.9,42.8C4.3,42.8,0,39.6,0,32.3V12.5H8.6V32.7c0,2.9,1.5,4.3,4.4,4.3a8.947,8.947,0,0,0,3.4-.7V12.5H25v28A31.775,31.775,0,0,1,12.9,42.8Z" fill="#123f9a"/>
    <path id="Path_199" data-name="Path 199" d="M48.2,42.2V22.1c0-3.2-1.4-4.8-4.8-4.8a8.97,8.97,0,0,0-3.4.6V42.2H31.4v-28a31.388,31.388,0,0,1,12-2.1c9.3,0,13.4,3.8,13.4,10.2v20H48.2Z" fill="#123f9a"/>
    <path id="Path_200" data-name="Path 200" d="M67.8,8.1A4.374,4.374,0,0,1,63.2,4c0-2.3,2-4,4.6-4,2.5,0,4.6,1.8,4.6,4A4.442,4.442,0,0,1,67.8,8.1ZM63.5,42.2V12.5H72V42.1H63.5Z" fill="#123f9a"/>
  </g>
  <g id="Group_882" data-name="Group 882">
    <path id="Path_201" data-name="Path 201" d="M107.1,34.5C105.7,39.2,101.4,43,95,43c-7.3,0-13.7-5.3-13.7-14.4,0-8.5,6.3-14.1,13-14.1,8.2,0,13.1,5.4,13.1,13.9a6.389,6.389,0,0,1-.2,2H87.7a7.211,7.211,0,0,0,7.3,7,6.462,6.462,0,0,0,6.7-4.7ZM101,25.8c-.1-3.1-2.2-5.9-6.6-5.9a6.393,6.393,0,0,0-6.5,5.9Z" fill="#0070e0"/>
    <path id="Path_202" data-name="Path 202" d="M118.3,28.8c0,5.4,3.5,8.4,7.5,8.4a6.725,6.725,0,0,0,6.7-4.9l5.6,2A12.408,12.408,0,0,1,125.8,43c-7.9,0-13.9-6.1-13.9-14.2,0-8.2,6-14.2,13.7-14.2,7.2,0,11.2,4.5,12.3,8.8l-5.7,2.1a6.25,6.25,0,0,0-6.5-5C121.8,20.5,118.3,23.4,118.3,28.8Z" fill="#0070e0"/>
    <path id="Path_203" data-name="Path 203" d="M169.9,28.8C169.9,37,164,43,156,43s-13.9-6-13.9-14.2S148,14.6,156,14.6,169.9,20.6,169.9,28.8Zm-6.5,0c0-5.6-3.5-8.4-7.5-8.4-3.9,0-7.5,2.9-7.5,8.4,0,5.6,3.6,8.5,7.5,8.5C159.9,37.3,163.4,34.4,163.4,28.8Z" fill="#0070e0"/>
    <path id="Path_204" data-name="Path 204" d="M182.5,42.2h-6.4V15.4h6.2V19a8.79,8.79,0,0,1,7.9-4.3c6.5,0,9.7,4.7,9.7,10.6V42.2h-6.4V26.3c0-3.3-1.5-5.9-5.5-5.9-3.6,0-5.6,2.8-5.6,6.3V42.2Z" fill="#0070e0"/>
    <path id="Path_205" data-name="Path 205" d="M233.6,28.8c0,8.2-5.9,14.2-13.9,14.2s-13.9-6-13.9-14.2,5.9-14.2,13.9-14.2S233.6,20.6,233.6,28.8Zm-6.4,0c0-5.6-3.5-8.4-7.5-8.4-3.9,0-7.5,2.9-7.5,8.4,0,5.6,3.6,8.5,7.5,8.5C223.7,37.3,227.2,34.4,227.2,28.8Z" fill="#0070e0"/>
    <path id="Path_206" data-name="Path 206" d="M239.8,42.2V15.4h6.1v3.4c1.5-2.7,4.9-4.2,7.9-4.2,3.5,0,6.6,1.6,8,4.7a9.4,9.4,0,0,1,8.7-4.7c4.8,0,9.5,3.1,9.5,10.2V42.2h-6.2V25.8c0-3.1-1.6-5.5-5.2-5.5-3.4,0-5.6,2.6-5.6,5.9V42.1h-6.3V25.8c0-3.1-1.5-5.5-5.2-5.5-3.4,0-5.6,2.5-5.6,5.9V42.1h-6.1Z" fill="#0070e0"/>
    <path id="Path_207" data-name="Path 207" d="M288.7,53l6.4-14L283.7,15.4h7.2l7.7,16.9,7.2-16.9h6.8L295.6,53Z" fill="#0070e0"/>
  </g>
</svg>
