<svg width="172" height="112" viewBox="0 0 172 112" fill="none" xmlns="http://www.w3.org/2000/svg">
<g clip-path="url(#clip0)">
<path d="M171.998 52.5836C171.998 57.0396 170.321 61.3314 167.302 64.6012C164.283 67.871 160.145 69.8778 155.715 70.2203C155.565 70.2317 155.414 70.243 155.262 70.2498V53.4613C155.262 53.2935 155.225 53.1278 155.153 52.9763C155.081 52.8248 154.976 52.6915 154.846 52.5859C154.831 52.5704 154.815 52.5567 154.796 52.5451C154.78 52.5317 154.763 52.5196 154.744 52.5088C154.586 52.4063 154.404 52.3453 154.215 52.3314C154.027 52.3175 153.838 52.3512 153.666 52.4294L153.478 52.0167C153.683 51.923 153.906 51.8743 154.132 51.8738L141.25 40.7457C141.349 40.6323 141.454 40.5212 141.558 40.4101C143.986 37.843 147.126 36.0652 150.573 35.3064C154.019 34.5475 157.614 34.8426 160.891 36.1533C164.169 37.4641 166.979 39.7304 168.959 42.6593C170.939 45.5882 171.997 49.0452 171.998 52.5836Z" fill="#DAF0CD"/>
<path d="M4.47217 64.6451C4.40811 64.3169 4.41659 63.9786 4.49701 63.654C4.57743 63.3295 4.72784 63.0266 4.93765 62.7666C5.14745 62.5066 5.41154 62.296 5.71132 62.1494C6.01109 62.0029 6.33927 61.924 6.67272 61.9184L16.841 49.7804L19.3795 53.0351L9.01665 64.3316C8.98889 64.894 8.75639 65.4266 8.3632 65.8285C7.97 66.2305 7.44343 66.4738 6.88327 66.5125C6.32311 66.5511 5.76827 66.3824 5.32389 66.0382C4.87951 65.694 4.57646 65.1983 4.47218 64.6451H4.47217Z" fill="#FFB8B8"/>
<path d="M52.7585 49.7054C52.6873 49.8086 52.6244 49.9173 52.5702 50.0304L41.4675 51.6219L39.7816 49.4755L36.2188 51.6036L39.5678 56.8397L53.1087 52.837C53.466 53.1614 53.9134 53.369 54.3912 53.4322C54.8691 53.4954 55.3548 53.4112 55.7838 53.1909C56.2128 52.9705 56.5647 52.6244 56.7927 52.1986C57.0208 51.7728 57.1142 51.2875 57.0605 50.8071C57.0068 50.3268 56.8085 49.8743 56.4921 49.5097C56.1756 49.1451 55.756 48.8858 55.289 48.7662C54.822 48.6466 54.3297 48.6724 53.8777 48.8401C53.4257 49.0079 53.0353 49.3097 52.7585 49.7054Z" fill="#FFB8B8"/>
<path d="M33.793 90.2606L35.7578 92.2222L44.2384 85.5567L41.3387 82.6614L33.793 90.2606Z" fill="#FFB8B8"/>
<path d="M37.7305 97.8351L31.5557 91.6697L33.9312 89.2773L37.7202 93.0606C38.0335 93.3734 38.2823 93.7451 38.4524 94.1543C38.6225 94.5636 38.7105 95.0024 38.7114 95.4457C38.7124 95.8891 38.6262 96.3283 38.4579 96.7382C38.2896 97.1482 38.0424 97.5209 37.7305 97.8351L37.7305 97.8351Z" fill="#2F2E41"/>
<path d="M23.3481 109.077H26.1207L27.4396 98.3528H23.3477L23.3481 109.077Z" fill="#FFB8B8"/>
<path d="M31.4688 111.658L22.755 111.659L22.7548 108.283L28.1019 108.282C28.544 108.282 28.9818 108.37 29.3903 108.539C29.7988 108.709 30.1699 108.958 30.4826 109.271C30.7952 109.585 31.0432 109.957 31.2124 110.366C31.3816 110.776 31.4687 111.215 31.4688 111.658Z" fill="#2F2E41"/>
<path d="M22.7461 100.794L19.588 77.4387C19.0938 73.9091 19.2471 70.3186 20.0406 66.8444C20.6886 64.0523 21.5641 62.1182 22.6428 61.0962C22.8131 60.936 23.031 60.8362 23.2632 60.8121L33.6902 59.7229C33.8911 59.7024 34.0936 59.7395 34.2742 59.83C34.4548 59.9205 34.606 60.0606 34.7102 60.2341L35.053 60.8068C35.0946 60.8764 35.1281 60.9505 35.153 61.0276L37.3575 67.8809C37.3904 67.9845 37.4435 68.0804 37.5138 68.1632C37.584 68.246 37.6699 68.314 37.7665 68.3632C41.2375 70.1402 52.5123 76.1389 51.8671 78.727C51.2608 81.1588 45.5848 85.1017 43.8596 86.2522C43.6839 86.37 43.477 86.4321 43.2657 86.4305C43.0543 86.4289 42.8484 86.3636 42.6745 86.2431L39.8107 84.2784C39.6709 84.1824 39.556 84.0543 39.4757 83.9047C39.3954 83.7552 39.3519 83.5885 39.3489 83.4186C39.346 83.2487 39.3836 83.0806 39.4587 82.9283C39.5338 82.776 39.6441 82.644 39.7805 82.5432L41.7554 81.084C41.8762 80.9946 41.9705 80.874 42.0281 80.7349C42.0856 80.5958 42.1043 80.4437 42.082 80.2948C42.0598 80.1459 41.9974 80.0059 41.9018 79.8899C41.8061 79.7739 41.6806 79.6862 41.539 79.6363L30.9328 75.9045C30.8137 75.8626 30.6867 75.8486 30.5613 75.8636C30.436 75.8787 30.3158 75.9223 30.21 75.9913C30.1041 76.0602 30.0154 76.1526 29.9507 76.2612C29.8861 76.3699 29.8471 76.492 29.8368 76.6181L27.8812 100.586C27.8596 100.843 27.746 101.083 27.5613 101.263C27.3766 101.442 27.1333 101.549 26.8765 101.562L23.8507 101.714C23.8323 101.715 23.814 101.715 23.7958 101.715C23.539 101.716 23.2906 101.623 23.0974 101.454C22.9041 101.284 22.7792 101.049 22.7461 100.794Z" fill="#808080"/>
<path d="M27.5311 40.3861C30.5987 40.3861 33.0856 37.8924 33.0856 34.8162C33.0856 31.74 30.5987 29.2462 27.5311 29.2462C24.4634 29.2462 21.9766 31.74 21.9766 34.8162C21.9766 37.8924 24.4634 40.3861 27.5311 40.3861Z" fill="#FFB8B8"/>
<path d="M22.3347 60.1422L18.2461 45.1827L18.3161 45.1353C18.4039 45.076 27.2166 39.2405 37.5345 43.9431L37.7216 44.0507L35.2989 59.5777C35.246 59.9321 35.0715 60.2568 34.8055 60.496C34.5394 60.7351 34.1985 60.8736 33.8415 60.8877L23.8721 61.2723C23.852 61.2729 23.832 61.2734 23.812 61.2734C23.476 61.2742 23.149 61.1637 22.8819 60.9592C22.6148 60.7547 22.4225 60.4675 22.3347 60.1422Z" fill="#A3BAC8"/>
<path d="M18.088 54.9215L14.6828 50.9947C14.5188 50.8061 14.4264 50.5654 14.422 50.3151C14.4176 50.0649 14.5015 49.8211 14.6587 49.6268L18.2185 45.217L20.9512 45.9644L22.3999 51.0492L19.7583 54.8335C19.6662 54.9663 19.5449 55.0762 19.4038 55.1546C19.2627 55.233 19.1056 55.278 18.9445 55.286C18.9254 55.2869 18.9065 55.2874 18.8875 55.2874C18.7358 55.2877 18.5859 55.2551 18.4479 55.192C18.3099 55.1289 18.1872 55.0366 18.088 54.9215Z" fill="#A3BAC8"/>
<path d="M36.9203 54.1035C36.7592 54.0955 36.602 54.0505 36.4609 53.9721C36.3198 53.8937 36.1986 53.7838 36.1064 53.651L33.4648 49.8667L34.7354 44.5142L37.2515 43.826L37.721 44.0507L41.206 48.4443C41.3633 48.6386 41.4471 48.8824 41.4427 49.1326C41.4383 49.3829 41.346 49.6236 41.182 49.8122L37.7768 53.739C37.6776 53.8541 37.5548 53.9464 37.4169 54.0095C37.2789 54.0726 37.1289 54.1052 36.9773 54.1049C36.9584 54.1048 36.9393 54.1044 36.9203 54.1035Z" fill="#A3BAC8"/>
<path d="M155.265 52.35C155.267 52.4064 155.248 52.4616 155.211 52.5042C155.172 52.5499 155.116 52.5782 155.057 52.5829C154.997 52.5875 154.938 52.5682 154.892 52.5291L154.135 51.8737L141.253 40.7456L105.123 9.52933C104.917 9.35241 104.654 9.25536 104.383 9.25578C104.112 9.25619 103.85 9.35404 103.644 9.5316L54.9899 51.9191L54.5512 52.3001C54.5343 52.315 54.5152 52.3273 54.4946 52.3364C54.4584 52.3524 54.4186 52.3587 54.3792 52.3545C54.3228 52.3485 54.2705 52.3218 54.2323 52.2797C54.2126 52.2574 54.1976 52.2314 54.1879 52.2032C54.1783 52.175 54.1743 52.1453 54.1762 52.1156C54.1781 52.0859 54.1858 52.0568 54.1989 52.0301C54.212 52.0034 54.2303 51.9795 54.2526 51.9599L54.3136 51.9055L103.348 9.18916C103.636 8.941 104.003 8.80418 104.383 8.80335C104.762 8.80252 105.13 8.93773 105.419 9.18462L141.56 40.41L155.186 52.1844C155.21 52.2051 155.229 52.2305 155.243 52.2589C155.256 52.2874 155.264 52.3184 155.265 52.35Z" fill="#3F3D56"/>
<path d="M127.795 59.0468L127.2 57.405L125.151 51.7355L120.736 39.5279L115.802 25.8825L106.903 1.27005C106.728 0.790091 106.371 0.399126 105.909 0.182776C105.447 -0.0335749 104.919 -0.0576779 104.44 0.115744L52.9883 18.8228C52.5095 18.9979 52.1195 19.3561 51.9037 19.8191C51.688 20.282 51.664 20.8119 51.8372 21.2925L64.4542 56.1849L64.669 56.7813L77.9124 62.8001L81.6348 64.4918L82.2386 64.7662L97.9992 71.9302L98.6098 71.708L108.947 67.9502L124.54 62.2807L126.641 61.5165C127.12 61.3416 127.511 60.9835 127.727 60.5206C127.943 60.0577 127.967 59.5278 127.795 59.0468Z" fill="#DAEEFF"/>
<path d="M106.221 29.9827C105.964 29.2763 105.438 28.7008 104.759 28.3824C104.08 28.064 103.303 28.0286 102.598 28.2841L82.2395 35.6885L72.4087 39.2625C72.0594 39.3891 71.7384 39.5835 71.4641 39.8346C71.1897 40.0857 70.9674 40.3885 70.8099 40.7258C70.6523 41.0631 70.5626 41.4282 70.5458 41.8003C70.5291 42.1723 70.5856 42.5441 70.7122 42.8942C70.8388 43.2444 71.033 43.5661 71.2836 43.8409C71.5343 44.1158 71.8365 44.3384 72.173 44.4961C72.5095 44.6537 72.8737 44.7433 73.2448 44.7598C73.6158 44.7762 73.9865 44.7191 74.3355 44.5918L82.2395 41.7185L104.527 33.6157C105.231 33.3583 105.805 32.8313 106.123 32.1503C106.44 31.4692 106.475 30.6897 106.221 29.9827Z" fill="white"/>
<path d="M109.802 39.8976C109.546 39.1912 109.02 38.6157 108.341 38.2973C107.662 37.9789 106.885 37.9435 106.179 38.199L102.731 39.4531L82.2368 46.9051L75.9906 49.1751C75.2862 49.4319 74.7123 49.9585 74.3949 50.6394C74.0776 51.3202 74.0427 52.0996 74.2981 52.8061C74.5534 53.5127 75.0781 54.0887 75.7568 54.4076C76.4354 54.7265 77.2126 54.7622 77.9174 54.5068L82.2368 52.9352L108.109 43.5283C108.167 43.5079 108.224 43.483 108.28 43.458C108.937 43.169 109.46 42.6404 109.743 41.9792C110.025 41.3181 110.047 40.5739 109.802 39.8976Z" fill="white"/>
<path d="M113.429 49.9167C113.173 49.2105 112.648 48.635 111.969 48.3165C111.29 47.9981 110.513 47.9627 109.808 48.2181L100.136 51.7355L92.648 54.4591L82.2405 58.2418L79.6173 59.1965C79.011 59.418 78.4983 59.8404 78.1639 60.3938C77.8296 60.9472 77.6936 61.5985 77.7786 62.2399C77.8045 62.4308 77.85 62.6185 77.9143 62.8001L81.6367 64.4919L82.2405 64.2719H82.2451L101.131 57.405L111.735 53.5497C112.44 53.2929 113.014 52.766 113.332 52.0848C113.65 51.4035 113.684 50.6237 113.429 49.9167H113.429Z" fill="white"/>
<path d="M92.2275 20.2357C91.9708 19.5293 91.4453 18.9539 90.7662 18.6354C90.087 18.317 89.3097 18.2817 88.6046 18.5371L76.9125 22.787C76.2081 23.0437 75.6342 23.5703 75.3168 24.2512C74.9994 24.932 74.9646 25.7114 75.22 26.418C75.4753 27.1246 76 27.7006 76.6786 28.0195C77.3573 28.3383 78.1344 28.374 78.8393 28.1186L82.5392 26.7738L84.9883 25.8825L90.5337 23.8665C91.2379 23.6096 91.8118 23.083 92.1294 22.4023C92.4469 21.7217 92.4822 20.9424 92.2275 20.2357Z" fill="white"/>
<path d="M138.889 25.8824H84.1606C83.8378 25.8828 83.5202 25.9646 83.2373 26.1203C82.9543 26.2761 82.715 26.5008 82.5414 26.7737C82.3429 27.0827 82.2377 27.4426 82.2383 27.8101V64.7662L97.9988 71.9302L100.22 72.9393L103.727 74.5336C103.933 74.6267 104.155 74.6748 104.381 74.6748C104.606 74.6748 104.829 74.6267 105.034 74.5336L108.542 72.9393L119.519 67.9502L129.75 63.2989L140.811 58.2735V27.8101C140.811 27.2989 140.608 26.8088 140.248 26.4474C139.888 26.086 139.399 25.8828 138.889 25.8824Z" fill="#0070E0"/>
<path d="M127.581 51.7355H95.4677C94.7375 51.7359 94.0358 52.0197 93.5097 52.5275C92.9835 53.0352 92.6738 53.7274 92.6453 54.4591C92.6416 54.496 92.6401 54.5331 92.6408 54.5702C92.6419 55.3217 92.94 56.0421 93.47 56.5735C93.9999 57.1049 94.7183 57.4039 95.4677 57.405H127.581C128.331 57.405 129.05 57.1063 129.58 56.5747C130.11 56.0431 130.408 55.322 130.408 54.5702C130.408 53.8184 130.11 53.0974 129.58 52.5658C129.05 52.0341 128.331 51.7355 127.581 51.7355Z" fill="white"/>
<path d="M129.411 62.9564C128.901 62.5192 128.252 62.2794 127.581 62.2806H95.4675C94.7178 62.2806 93.9988 62.5793 93.4686 63.1109C92.9385 63.6425 92.6406 64.3636 92.6406 65.1154C92.6406 65.8672 92.9385 66.5882 93.4686 67.1199C93.9988 67.6515 94.7178 67.9501 95.4675 67.9501H119.519L129.75 63.2989C129.647 63.1753 129.533 63.0608 129.411 62.9564Z" fill="white"/>
<path d="M100.223 72.9395L103.73 74.5337C103.936 74.6268 104.158 74.6749 104.384 74.6749C104.609 74.6749 104.832 74.6268 105.037 74.5337L108.545 72.9395H100.223Z" fill="white"/>
<path d="M120.397 39.6503C120.198 39.1046 119.836 38.6334 119.362 38.3004C118.887 37.9674 118.321 37.7887 117.742 37.7885H105.303C104.76 37.7889 104.229 37.9462 103.773 38.2413C103.316 38.5365 102.954 38.9571 102.73 39.453C102.562 39.8202 102.476 40.2194 102.477 40.6232C102.478 41.3747 102.776 42.0951 103.306 42.6265C103.836 43.1579 104.554 43.4569 105.303 43.458H117.742C118.197 43.458 118.645 43.348 119.048 43.1373C119.451 42.9266 119.798 42.6215 120.059 42.2478C120.319 41.874 120.486 41.4428 120.545 40.9906C120.604 40.5384 120.553 40.0786 120.397 39.6503Z" fill="white"/>
<path d="M118.421 67.9502L107.444 72.9394L104.845 74.1209C104.699 74.1871 104.54 74.2213 104.379 74.2213C104.219 74.2213 104.06 74.1871 103.913 74.1209L101.315 72.9394H100.218L103.726 74.5337C103.931 74.6267 104.154 74.6748 104.379 74.6748C104.605 74.6748 104.827 74.6267 105.033 74.5337L108.54 72.9394L119.518 67.9502H118.421ZM118.421 67.9502L107.444 72.9394L104.845 74.1209C104.699 74.1871 104.54 74.2213 104.379 74.2213C104.219 74.2213 104.06 74.1871 103.913 74.1209L101.315 72.9394H100.218L103.726 74.5337C103.931 74.6267 104.154 74.6748 104.379 74.6748C104.605 74.6748 104.827 74.6267 105.033 74.5337L108.54 72.9394L119.518 67.9502H118.421ZM118.421 67.9502L107.444 72.9394L104.845 74.1209C104.699 74.1871 104.54 74.2213 104.379 74.2213C104.219 74.2213 104.06 74.1871 103.913 74.1209L101.315 72.9394H100.218L103.726 74.5337C103.931 74.6267 104.154 74.6748 104.379 74.6748C104.605 74.6748 104.827 74.6267 105.033 74.5337L108.54 72.9394L119.518 67.9502H118.421ZM155.263 52.35C155.18 52.2668 155.088 52.1923 154.99 52.1278C154.767 51.9834 154.513 51.8974 154.248 51.878C153.984 51.8586 153.72 51.9063 153.479 52.0167L129.41 62.9565L118.421 67.9502L107.444 72.9394L104.845 74.1209C104.699 74.1871 104.54 74.2213 104.379 74.2213C104.219 74.2213 104.06 74.1871 103.913 74.1209L101.315 72.9394L98.6079 71.708L82.2413 64.2719L82.2368 64.2696L77.7748 62.2399L64.4523 56.1849L55.2796 52.0167C55.1863 51.9734 55.0885 51.9407 54.9879 51.9192C54.7664 51.8637 54.5352 51.859 54.3116 51.9056C53.954 51.979 53.6325 52.1738 53.4014 52.4572C53.1703 52.7406 53.0437 53.0952 53.043 53.4613V110.413C53.0434 110.833 53.2104 111.237 53.5071 111.535C53.8039 111.832 54.2063 112 54.626 112H154.133C154.552 112 154.955 111.832 155.251 111.535C155.548 111.237 155.715 110.833 155.716 110.413V53.4613C155.716 53.0456 155.554 52.6464 155.263 52.35V52.35ZM155.263 110.413C155.263 110.713 155.144 111.002 154.932 111.214C154.72 111.427 154.432 111.546 154.132 111.546H54.626C54.3262 111.546 54.0386 111.427 53.8266 111.214C53.6146 111.002 53.4954 110.713 53.4953 110.413V53.4613C53.4954 53.2717 53.5428 53.0853 53.6333 52.9189C53.7237 52.7525 53.8543 52.6115 54.0132 52.5088C54.1249 52.437 54.248 52.3849 54.3772 52.3546C54.4153 52.3463 54.4538 52.3403 54.4926 52.3364C54.5368 52.33 54.5814 52.327 54.626 52.3274C54.7868 52.3276 54.9457 52.3624 55.0919 52.4294L64.6671 56.7813L77.9105 62.8001L81.633 64.4918L82.2368 64.7663L97.9973 71.9302L100.218 72.9394L103.726 74.5337C103.931 74.6267 104.154 74.6748 104.379 74.6748C104.605 74.6748 104.827 74.6267 105.033 74.5337L108.54 72.9394L119.518 67.9502L129.749 63.299L153.667 52.4294C153.839 52.3512 154.028 52.3175 154.216 52.3314C154.404 52.3452 154.586 52.4062 154.745 52.5088C154.764 52.5195 154.781 52.5317 154.797 52.5451C154.815 52.5567 154.832 52.5704 154.847 52.5859C154.977 52.6914 155.082 52.8248 155.154 52.9763C155.226 53.1278 155.263 53.2935 155.263 53.4613L155.263 110.413ZM118.421 67.9502L107.444 72.9394L104.845 74.1209C104.699 74.1871 104.54 74.2213 104.379 74.2213C104.219 74.2213 104.06 74.1871 103.913 74.1209L101.315 72.9394H100.218L103.726 74.5337C103.931 74.6267 104.154 74.6748 104.379 74.6748C104.605 74.6748 104.827 74.6267 105.033 74.5337L108.54 72.9394L119.518 67.9502H118.421ZM118.421 67.9502L107.444 72.9394L104.845 74.1209C104.699 74.1871 104.54 74.2213 104.379 74.2213C104.219 74.2213 104.06 74.1871 103.913 74.1209L101.315 72.9394H100.218L103.726 74.5337C103.931 74.6267 104.154 74.6748 104.379 74.6748C104.605 74.6748 104.827 74.6267 105.033 74.5337L108.54 72.9394L119.518 67.9502H118.421ZM81.633 64.4918L82.2368 64.7663V64.2719L81.633 64.4918ZM118.421 67.9502L107.444 72.9394L104.845 74.1209C104.699 74.1871 104.54 74.2213 104.379 74.2213C104.219 74.2213 104.06 74.1871 103.913 74.1209L101.315 72.9394H100.218L103.726 74.5337C103.931 74.6267 104.154 74.6748 104.379 74.6748C104.605 74.6748 104.827 74.6267 105.033 74.5337L108.54 72.9394L119.518 67.9502H118.421Z" fill="#3F3D56"/>
<path d="M39.6953 112H14.1402C14.0802 112 14.0227 111.976 13.9803 111.934C13.9379 111.891 13.9141 111.833 13.9141 111.773C13.9141 111.713 13.9379 111.655 13.9803 111.613C14.0227 111.57 14.0802 111.546 14.1402 111.546H39.6953C39.7553 111.546 39.8128 111.57 39.8552 111.613C39.8976 111.655 39.9214 111.713 39.9214 111.773C39.9214 111.833 39.8976 111.891 39.8552 111.934C39.8128 111.976 39.7553 112 39.6953 112Z" fill="#3F3D56"/>
<path d="M25.416 38.8896C24.9988 38.6773 24.6518 38.3483 24.4172 37.9424C24.1826 37.5364 24.0703 37.071 24.094 36.6025C24.1177 36.1339 24.2763 35.6823 24.5507 35.3022C24.825 34.9222 25.2033 34.63 25.6398 34.4611C27.3159 33.8125 29.195 35.1362 30.9519 34.7599C32.7031 34.3848 33.7161 32.2854 33.2981 30.5394C32.8801 28.7933 31.3588 27.4782 29.6812 26.8501C28.5856 26.4409 27.4123 26.284 26.248 26.391C25.0837 26.4981 23.9584 26.8662 22.9552 27.4683C21.9624 28.0881 21.1355 28.9416 20.5465 29.9547C19.9575 30.9678 19.6242 32.1098 19.5755 33.2815C19.5527 34.4543 19.8384 35.6124 20.4039 36.6391C20.9694 37.6659 21.7947 38.5252 22.7967 39.1304C23.2432 39.3885 23.763 39.5957 24.2652 39.4795C24.6775 39.3452 25.066 39.1461 25.416 38.8896Z" fill="#2B2B2B"/>
<path d="M23.6166 27.3326C22.1386 25.3668 20.1434 23.7518 17.8218 22.9511C15.5002 22.1504 12.8471 22.2147 10.6667 23.3462C8.48623 24.4777 6.86014 26.725 6.6904 29.181C6.40792 33.2686 9.891 36.7433 10.2485 40.825C10.3618 42.1188 10.1524 43.4205 9.63909 44.613C9.12583 45.8054 8.32483 46.851 7.30826 47.6558C6.29168 48.4605 5.09144 48.999 3.81566 49.2228C2.53988 49.4466 1.22863 49.3486 0 48.9377C0.875101 49.6601 1.88971 50.1931 2.98009 50.5034C4.07047 50.8137 5.21306 50.8946 6.3361 50.7409C7.45728 50.5721 8.52698 50.1553 9.4676 49.5206C10.4082 48.8859 11.1962 48.0492 11.7744 47.0713C12.5583 45.7055 12.8802 44.119 13.0052 42.5482C13.2016 40.0644 12.9357 37.5656 12.221 35.1793C11.8303 33.8774 11.3005 32.5375 11.5482 31.2008C11.6894 30.5055 12.0313 29.8671 12.5313 29.365C13.0313 28.8629 13.6673 28.5192 14.3605 28.3765C15.4807 28.166 16.626 28.5089 17.6957 28.9034C18.7653 29.298 19.8437 29.7546 20.9831 29.7807C22.1225 29.8068 23.3635 29.2838 23.8038 28.2297L23.6166 27.3326Z" fill="#2B2B2B"/>
</g>
<defs>
<clipPath id="clip0">
<rect width="172" height="112" fill="white"/>
</clipPath>
</defs>
</svg>
