<svg xmlns="http://www.w3.org/2000/svg" width="319" height="71" viewBox="0 0 319 71">
  <defs>
    <style>
      .cls-1, .cls-5 {
        fill: #1565c0;
      }

      .cls-2, .cls-4 {
        fill: #2699fb;
      }

      .cls-3 {
        fill: #f1f2f2;
      }

      .cls-4 {
        font-size: 44px;
        font-family: DaxPro-Extrabold, Dax Pro;
        font-weight: 800;
      }

      .cls-5 {
        font-family: Dax-Regular;
        font-weight: 400;
      }
    </style>
  </defs>
  <g id="Group_825" data-name="Group 825" transform="translate(-617 -43)">
    <g id="sirkelmork_copy" data-name="sirkelmork copy" transform="translate(616.79 42.79)">
      <path id="Path_13" data-name="Path 13" class="cls-1" d="M35.5,0A35.5,35.5,0,1,1,0,35.5,35.5,35.5,0,0,1,35.5,0Z" transform="translate(0.21 0.21)"/>
      <path id="Path_11" data-name="Path 11" class="cls-2" d="M30.55,63.108c-8.237,0-12.25-3.092-12.25-10.135V33.35h8.455V53.57c0,2.115,1.139,3.851,4.013,3.851a7.288,7.288,0,0,0,3.521-.7V33.35h8.455V60.83c-2.706,1.356-6.719,2.277-12.194,2.277Z" transform="translate(-6.835 -12.522)"/>
      <path id="Path_12" data-name="Path 12" class="cls-3" d="M81.362,45.543q0-4.61-1.935-7.037a6.559,6.559,0,0,0-5.438-2.426,7.4,7.4,0,0,0-3.042.647,8.336,8.336,0,0,0-2.607,1.842,9.747,9.747,0,0,0-1.935,2.949,13.631,13.631,0,0,0-1.014,4.025ZM60.47,47.814a18.078,18.078,0,0,1,1.139-6.607,15.423,15.423,0,0,1,3.011-4.946,13.218,13.218,0,0,1,4.268-3.1,12.048,12.048,0,0,1,4.977-1.076,12.559,12.559,0,0,1,5.071.983,9.835,9.835,0,0,1,3.745,2.825,12.989,12.989,0,0,1,2.3,4.424,19.626,19.626,0,0,1,.8,5.774,17.8,17.8,0,0,1-.18,2.762H65.447a11.883,11.883,0,0,0,2.98,7.677A9.151,9.151,0,0,0,75.4,59.349a11.794,11.794,0,0,0,3.963-.647,17.554,17.554,0,0,0,3.472-1.692l1.779,3.316a25.414,25.414,0,0,1-4.361,2.153,15.134,15.134,0,0,1-5.469.921,14.621,14.621,0,0,1-5.618-1.076,13.337,13.337,0,0,1-4.548-3.073,14.335,14.335,0,0,1-3.042-4.884,18.142,18.142,0,0,1-1.107-6.551Z" transform="translate(-22.769 -12.042)"/>
    </g>
    <text id="unieconomy" class="cls-4" transform="translate(701 95)"><tspan x="0" y="0">uni</tspan><tspan class="cls-5" y="0">economy</tspan></text>
  </g>
</svg>
