<svg xmlns="http://www.w3.org/2000/svg" width="136.968" height="23.865" viewBox="0 0 136.968 23.865">
  <path id="Path_1" data-name="Path 1" d="M14.808,24.352V12.064H9.624V22a3.9,3.9,0,0,1-1.368.216A1.552,1.552,0,0,1,6.48,20.56v-8.5H1.3V20.44c0,3.624,2.568,4.848,6.936,4.848A20.326,20.326,0,0,0,14.808,24.352ZM31.08,25V16.552c0-3.336-2.52-4.776-7.08-4.776a20.781,20.781,0,0,0-6.6.936V25h5.184V14.776a4.626,4.626,0,0,1,1.32-.168c1.368,0,1.992.648,1.992,1.92V25ZM39.1,8.344c0-1.152-1.248-2.088-2.784-2.088s-2.76.936-2.76,2.088,1.224,2.064,2.76,2.064S39.1,9.5,39.1,8.344ZM38.9,25V12.064h-5.16V25Zm8.27.234a5.54,5.54,0,0,1-4.2-1.693,6.285,6.285,0,0,1-1.617-4.529v-.4a7.609,7.609,0,0,1,.721-3.369,5.622,5.622,0,0,1,2.016-2.32,5.068,5.068,0,0,1,2.807-.838,4.749,4.749,0,0,1,3.844,1.629,7.053,7.053,0,0,1,1.371,4.664v.9H43.53a4.507,4.507,0,0,0,1.1,3.029,3.444,3.444,0,0,0,2.666,1.154A3.776,3.776,0,0,0,49.237,23a4.888,4.888,0,0,0,1.395-1.242l1.324,1.031A5.325,5.325,0,0,1,47.174,25.234ZM46.9,13.867a2.892,2.892,0,0,0-2.2.955A4.642,4.642,0,0,0,43.6,17.5h6.352v-.164a4.129,4.129,0,0,0-.891-2.561A2.723,2.723,0,0,0,46.9,13.867Zm12.809,9.6a3.123,3.123,0,0,0,2.027-.7A2.474,2.474,0,0,0,62.7,21h2.051A3.931,3.931,0,0,1,64,23.078a4.94,4.94,0,0,1-1.846,1.57,5.326,5.326,0,0,1-2.443.586,5.223,5.223,0,0,1-4.119-1.729,6.884,6.884,0,0,1-1.529-4.729v-.363a7.634,7.634,0,0,1,.68-3.293A5.177,5.177,0,0,1,56.7,12.883a5.543,5.543,0,0,1,3.006-.8,5.085,5.085,0,0,1,3.545,1.277,4.565,4.565,0,0,1,1.506,3.316H62.7a2.988,2.988,0,0,0-.932-2.021,2.9,2.9,0,0,0-2.068-.791,3.034,3.034,0,0,0-2.561,1.189,5.586,5.586,0,0,0-.908,3.439v.41a5.475,5.475,0,0,0,.9,3.375A3.049,3.049,0,0,0,59.713,23.465Zm6.9-4.922a7.489,7.489,0,0,1,.732-3.352,5.464,5.464,0,0,1,2.039-2.3,5.551,5.551,0,0,1,2.982-.809,5.347,5.347,0,0,1,4.189,1.793,6.9,6.9,0,0,1,1.6,4.77V18.8a7.555,7.555,0,0,1-.709,3.322,5.383,5.383,0,0,1-2.027,2.291,5.614,5.614,0,0,1-3.029.82,5.334,5.334,0,0,1-4.178-1.793,6.863,6.863,0,0,1-1.6-4.746Zm2.18.258a5.424,5.424,0,0,0,.979,3.387,3.316,3.316,0,0,0,5.244-.018,5.932,5.932,0,0,0,.973-3.627A5.415,5.415,0,0,0,75,15.162a3.148,3.148,0,0,0-2.631-1.295,3.113,3.113,0,0,0-2.59,1.277A5.888,5.888,0,0,0,68.8,18.8Zm14.133-6.48L83,13.914a4.621,4.621,0,0,1,3.8-1.828q4.02,0,4.055,4.535V25H88.682V16.609a2.919,2.919,0,0,0-.627-2.027,2.512,2.512,0,0,0-1.916-.656,3.129,3.129,0,0,0-1.852.563,3.82,3.82,0,0,0-1.242,1.477V25H80.877V12.32Zm10.617,6.223a7.489,7.489,0,0,1,.732-3.352,5.464,5.464,0,0,1,2.039-2.3,5.551,5.551,0,0,1,2.982-.809,5.347,5.347,0,0,1,4.189,1.793,6.9,6.9,0,0,1,1.6,4.77V18.8a7.555,7.555,0,0,1-.709,3.322,5.383,5.383,0,0,1-2.027,2.291,5.614,5.614,0,0,1-3.029.82,5.334,5.334,0,0,1-4.178-1.793,6.863,6.863,0,0,1-1.6-4.746Zm2.18.258a5.424,5.424,0,0,0,.979,3.387,3.316,3.316,0,0,0,5.244-.018,5.932,5.932,0,0,0,.973-3.627,5.415,5.415,0,0,0-.99-3.381A3.148,3.148,0,0,0,99.3,13.867a3.113,3.113,0,0,0-2.59,1.277A5.888,5.888,0,0,0,95.725,18.8Zm14.121-6.48.059,1.406a4.683,4.683,0,0,1,3.762-1.641,3.625,3.625,0,0,1,3.621,2.039,4.8,4.8,0,0,1,1.646-1.477,4.863,4.863,0,0,1,2.4-.562q4.172,0,4.242,4.418V25H123.4V16.633a2.911,2.911,0,0,0-.621-2.033,2.735,2.735,0,0,0-2.086-.674,2.875,2.875,0,0,0-2,.721,2.924,2.924,0,0,0-.926,1.939V25h-2.18V16.691q0-2.766-2.707-2.766a2.9,2.9,0,0,0-2.918,1.816V25H107.8V12.32Zm23.145,9.5,2.953-9.5h2.32l-5.1,14.637q-1.184,3.164-3.762,3.164l-.41-.035-.809-.152V28.176l.586.047a2.885,2.885,0,0,0,1.717-.445,3.223,3.223,0,0,0,1.014-1.629l.48-1.289L127.46,12.32h2.367Z" transform="translate(-1.296 -6.256)" fill="#fff"/>
</svg>
