<?xml version="1.0" encoding="utf-8"?>
<!-- Generator: Adobe Illustrator 24.0.3, SVG Export Plug-In . SVG Version: 6.00 Build 0)  -->
<svg version="1.1" id="Layer_1" xmlns="http://www.w3.org/2000/svg" xmlns:xlink="http://www.w3.org/1999/xlink" x="0px" y="0px"
	 viewBox="0 0 188 52" style="enable-background:new 0 0 188 52;" xml:space="preserve">
<style type="text/css">
	.st0{fill:#00C8EB;}
</style>
<g>
	<path class="st0" d="M98.1,21.6c-1-0.9-2.1-1.7-3.4-2.2c-1.3-0.5-2.8-0.8-4.3-0.8c-1.6,0-3,0.3-4.3,0.8c-1.3,0.5-2.5,1.3-3.4,2.2
		c-1,0.9-1.7,2-2.3,3.3c-0.5,1.3-0.8,2.7-0.8,4.2s0.3,2.9,0.8,4.2c0.5,1.3,1.3,2.4,2.3,3.3c1,0.9,2.1,1.7,3.4,2.2
		c1.3,0.5,2.8,0.8,4.3,0.8c1.6,0,3-0.3,4.3-0.8c1.3-0.5,2.5-1.3,3.4-2.2c1-0.9,1.7-2,2.3-3.3c0.5-1.3,0.8-2.7,0.8-4.2
		s-0.3-2.9-0.8-4.2C99.9,23.6,99.1,22.5,98.1,21.6 M96.4,31.8c-0.3,0.8-0.8,1.5-1.3,2.1c-0.6,0.6-1.3,1.1-2,1.4
		c-0.8,0.3-1.7,0.5-2.6,0.5c-0.9,0-1.8-0.2-2.6-0.5c-0.8-0.3-1.5-0.8-2-1.4c-0.6-0.6-1-1.3-1.3-2.1c-0.3-0.8-0.5-1.7-0.5-2.7
		c0-1,0.2-1.9,0.5-2.7c0.3-0.8,0.8-1.5,1.3-2.1c0.6-0.6,1.3-1.1,2-1.4c0.8-0.3,1.6-0.5,2.6-0.5c1,0,1.8,0.2,2.6,0.5
		c0.8,0.3,1.5,0.8,2,1.4c0.6,0.6,1,1.3,1.3,2.1c0.3,0.8,0.5,1.7,0.5,2.7C96.9,30,96.7,30.9,96.4,31.8"/>
	<path class="st0" d="M74.1,26.2c-0.9-0.6-2-1.1-3.1-1.5c-1.1-0.4-2.3-0.8-3.4-1.2c-0.6-0.2-1.2-0.4-1.8-0.7c-0.6-0.2-1-0.5-1.5-0.8
		c-0.4-0.3-0.7-0.6-1-1c-0.3-0.4-0.4-0.9-0.4-1.4c0-1,0.4-1.8,1.3-2.4c0.9-0.6,2-0.9,3.3-0.9c1.4,0,2.7,0.3,3.7,0.9
		c0.6,0.4,1.1,0.7,1.5,1.1c0.8,0.6,2,0.6,2.7-0.2c0.8-0.8,0.7-2.2-0.2-2.9c-0.7-0.5-1.4-1-2.4-1.5c-1.6-0.8-3.4-1.1-5.4-1.1
		c-1.4,0-2.6,0.2-3.7,0.5c-1.1,0.4-2.1,0.9-2.9,1.5c-0.8,0.6-1.4,1.4-1.9,2.3c-0.4,0.9-0.7,1.9-0.7,2.9c0,1.1,0.2,2.1,0.7,2.9
		c0.4,0.8,1,1.5,1.7,2.1c0.7,0.6,1.5,1,2.3,1.4c0.8,0.4,1.6,0.7,2.4,1c1,0.3,1.9,0.7,2.7,0.9c0.9,0.3,1.6,0.6,2.3,0.9
		c0.7,0.3,1.2,0.7,1.6,1.2c0.4,0.5,0.6,1.1,0.6,1.9c0,1-0.5,1.9-1.4,2.6c-0.9,0.7-2.2,1-3.9,1c-1.3,0-2.7-0.4-4.1-1.1
		c-0.8-0.4-1.7-1-2.4-1.7c-0.8-0.7-2-0.7-2.8,0.1l0,0c-0.8,0.8-0.7,2,0,2.8c0.8,0.8,2,1.7,3.4,2.4c1.9,0.9,3.9,1.3,6,1.3
		c1.4,0,2.6-0.2,3.8-0.5c1.2-0.3,2.2-0.8,3-1.5c0.9-0.6,1.5-1.4,2-2.4c0.5-0.9,0.7-2,0.7-3.2c0-1.4-0.3-2.6-0.9-3.6
		C75.8,27.6,75,26.8,74.1,26.2"/>
	<path class="st0" d="M119.7,22.5v10.2c0,1.1,0.2,2.2,0.5,3c0.3,0.9,0.8,1.6,1.4,2.1c0.6,0.6,1.3,1,2.1,1.3c0.8,0.3,1.7,0.4,2.6,0.4
		c0.9,0,1.7-0.1,2.4-0.4c1.8-0.7,2.2-1.2,1.9-2c-0.6-1.2-1.6-1.9-2.9-1.6c-0.2,0-0.7,0.2-0.8,0.2c-0.9,0-1.5-0.3-2.1-0.8
		c-0.5-0.5-0.8-1.4-0.8-2.6v-10v-3.4v-4.1c0-1.2-1-2.2-2.2-2.2c-1.2,0-2.2,1-2.2,2.2v4.1V22.5z"/>
	<path class="st0" d="M109.8,19.1L109.8,19.1v-0.6c0-1.4,0.4-2.3,1.1-3c0.7-0.6,1.5-0.9,2.5-0.9c0.3,0,0.7,0,1.1,0.1
		c0.6,0.1,1.2,0,1.6-0.4c1.3-1.1,0.8-2.6-0.9-3c-1-0.2-2.3-0.3-2.3-0.3c-0.9,0-1.9,0.1-2.7,0.4c-0.9,0.3-1.7,0.7-2.4,1.3
		c-0.7,0.6-1.3,1.4-1.7,2.3c-0.4,0.9-0.6,2-0.6,3.3v0.6v3.4v14.2c0,1.1,0.7,2.1,1.8,2.3c1.4,0.3,2.5-0.8,2.5-2.1V22.5V19.1z"/>
	<path class="st0" d="M103.8,19.1c-0.9,0-1.7,0.8-1.7,1.7c0,0.9,0.8,1.7,1.7,1.7h24.6c0.9,0,1.7-0.8,1.7-1.7c0-0.9-0.8-1.7-1.7-1.7
		H103.8z"/>
	<path class="st0" d="M158.9,19.1c-1.2,0-2.2,1-2.2,2.2v15.7c0,1.2,1,2.2,2.2,2.2c1.2,0,2.2-1,2.2-2.2V21.3
		C161.1,20,160.1,19.1,158.9,19.1"/>
	<path class="st0" d="M148.1,28.5c-0.1-0.2,0-0.4,0.2-0.5c1.6-0.5,2.8-1.4,3.7-2.5c1-1.2,1.4-2.7,1.4-4.6c0-2.5-0.8-4.4-2.4-5.8
		c-1.6-1.4-4-2.1-7.1-2.1h-8.8c-0.9,0-1.7,0.7-1.7,1.7v22.1c0,1.2,1,2.2,2.2,2.2c1.2,0,2.2-1,2.2-2.2v-7.7c0-0.3,0.2-0.5,0.5-0.5
		h4.7c0.2,0,0.4,0.1,0.5,0.3l4.7,8.8c0.4,0.7,1,1.2,1.8,1.4c1.6,0.4,2.9-1.5,2.1-3L148.1,28.5z M147.7,24.2c-0.8,0.8-2,1.2-3.4,1.2
		h-5.9c-0.3,0-0.5-0.2-0.5-0.5v-7.5c0-0.3,0.2-0.5,0.5-0.5h5.9c1.4,0,2.6,0.4,3.4,1.2c0.8,0.8,1.2,1.8,1.2,3.1
		S148.5,23.4,147.7,24.2"/>
	<path class="st0" d="M158.9,11.1c-1.4,0-2.6,1.2-2.6,2.6c0,1.4,1.2,2.6,2.6,2.6c1.4,0,2.6-1.2,2.6-2.6
		C161.5,12.3,160.3,11.1,158.9,11.1"/>
	<path class="st0" d="M184.6,36V22.6v-1.5v-0.2c0-1-0.8-1.9-1.9-1.9c-1,0-1.9,0.8-1.9,1.9v0.3l0,0c-0.8-0.8-1.8-1.5-2.9-2
		c-1.1-0.5-2.4-0.7-3.8-0.7c-1.4,0-2.7,0.2-3.9,0.7c-1.2,0.5-2.2,1.1-3.1,2c-0.9,0.8-1.5,1.8-2,3s-0.7,2.4-0.7,3.7
		c0,1.3,0.2,2.6,0.7,3.7c0.5,1.2,1.2,2.2,2,3c0.9,0.8,1.9,1.5,3.1,2c1.2,0.5,2.5,0.7,3.9,0.7c1.3,0,2.5-0.2,3.6-0.6
		c1.1-0.4,2-1,2.9-1.8v1.5c0,1-0.2,1.8-0.5,2.5c-0.3,0.7-0.8,1.3-1.3,1.7c-0.6,0.5-1.2,0.8-2,1c-0.8,0.2-1.6,0.3-2.4,0.3
		c-1.5,0-2.9-0.3-4-0.9c-0.7-0.3-1.3-0.8-1.8-1.2c-0.7-0.6-1.9-0.7-2.5,0c-0.7,0.7-0.7,1.9,0.1,2.6c0.7,0.6,1.6,1.3,2.8,1.8
		c1.6,0.8,3.4,1.1,5.5,1.1c1.4,0,2.7-0.2,4-0.6c1.3-0.4,2.3-1,3.3-1.7c0.9-0.8,1.7-1.8,2.2-3C184.4,39.1,184.6,37.7,184.6,36
		 M180.8,28c0,0.9-0.1,1.6-0.4,2.4c-0.3,0.7-0.7,1.4-1.2,1.9c-0.5,0.5-1.2,0.9-1.9,1.2c-0.7,0.3-1.6,0.4-2.4,0.4
		c-1.8,0-3.3-0.6-4.4-1.7c-1.1-1.1-1.6-2.5-1.6-4.3c0-0.9,0.1-1.6,0.4-2.4c0.3-0.7,0.7-1.4,1.2-1.9c0.5-0.5,1.1-0.9,1.9-1.2
		c0.7-0.3,1.5-0.4,2.4-0.4c0.9,0,1.7,0.1,2.4,0.4c0.7,0.3,1.4,0.7,1.9,1.2c0.5,0.5,0.9,1.2,1.2,1.9C180.6,26.4,180.8,27.2,180.8,28"
		/>
	<path class="st0" d="M15.8,19.2c0.2,0.8,1,1.3,1.8,1.3h15.6c3.1,0,5.7,2.6,5.6,5.7c-0.1,3.1-2.8,5.4-5.8,5.4H14.2
		c-1,0-1.9-0.8-1.9-1.9c0-1,0.8-1.9,1.9-1.9h19c1.2,0,2.2-1.2,1.8-2.5c-0.2-0.8-1-1.3-1.8-1.3H17.6c-3.1,0-5.7-2.6-5.6-5.7
		c0.1-3.1,2.8-5.4,5.8-5.4h18.8c1,0,1.9,0.8,1.9,1.9c0,1-0.8,1.8-1.8,1.8H17.6C16.3,16.8,15.4,18,15.8,19.2 M12.3,37.2
		c0-1,0.8-1.9,1.9-1.9h22.4c1,0,1.9,0.8,1.9,1.9c0,1-0.8,1.9-1.9,1.9H14.2C13.2,39.1,12.3,38.3,12.3,37.2 M48.1,43.8V8.3
		c0-2.8-2.2-5-5-5H7.7c-2.8,0-5,2.2-5,5v35.5c0,2.8,2.2,5,5,5h35.5C45.9,48.8,48.1,46.6,48.1,43.8"/>
</g>
</svg>
