<?xml version="1.0" standalone="no"?>
<!DOCTYPE svg PUBLIC "-//W3C//DTD SVG 20010904//EN"
 "http://www.w3.org/TR/2001/REC-SVG-20010904/DTD/svg10.dtd">
<svg version="1.0" xmlns="http://www.w3.org/2000/svg"
 width="960.000000pt" height="630.000000pt" viewBox="0 0 960.000000 630.000000"
 preserveAspectRatio="xMidYMid meet">

<g transform="translate(0.000000,630.000000) scale(0.100000,-0.100000)"
fill="#257f7f" stroke="none">
<path d="M4685 6011 c-213 -61 -345 -235 -345 -456 0 -114 21 -181 86 -271 64
-90 149 -148 277 -188 16 -5 17 -24 15 -253 l-3 -248 -35 -2 c-89 -7 -284 -37
-375 -58 -170 -40 -399 -127 -518 -197 -26 -15 -49 -28 -51 -28 -6 0 -109 -64
-161 -99 -150 -104 -365 -305 -476 -446 -239 -304 -388 -651 -446 -1036 -23
-158 -23 -454 0 -614 59 -398 220 -759 481 -1082 128 -157 363 -359 550 -471
374 -224 763 -324 1206 -309 756 27 1431 434 1809 1092 260 451 347 988 245
1503 -178 893 -908 1587 -1814 1722 -74 11 -156 20 -183 20 l-47 0 2 251 3
252 51 17 c118 38 231 139 287 257 31 65 32 74 32 189 l0 121 -42 85 c-103
207 -331 311 -548 249z m252 -190 c65 -33 100 -68 132 -133 92 -183 -21 -397
-223 -422 -60 -8 -145 11 -195 42 -79 49 -132 148 -133 245 -1 133 72 235 201
284 50 19 167 11 218 -16z m223 -1631 c564 -119 1023 -473 1272 -980 176 -358
229 -757 152 -1140 -128 -637 -580 -1152 -1189 -1355 -202 -68 -318 -87 -542
-93 -223 -5 -374 15 -573 75 -404 121 -791 420 -1009 778 -287 472 -346 1025
-166 1545 182 524 619 949 1145 1115 220 69 332 85 600 81 166 -3 225 -8 310
-26z"/>
<path d="M3875 2278 c-35 -12 -85 -48 -119 -85 -31 -33 -66 -124 -66 -171 0
-89 71 -201 153 -244 97 -49 234 -27 312 50 105 104 107 277 4 381 -70 71
-194 101 -284 69z"/>
<path d="M5545 2266 c-164 -78 -209 -289 -91 -423 183 -209 522 -39 466 232
-35 168 -222 264 -375 191z"/>
<path d="M7123 2933 c4 -15 15 -67 24 -114 16 -74 24 -90 57 -125 251 -258
216 -671 -75 -875 -32 -23 -59 -47 -59 -53 0 -6 -18 -51 -39 -101 -22 -49 -38
-91 -36 -93 9 -10 172 66 231 107 208 147 324 364 324 605 0 221 -88 410 -257
556 -35 30 -89 70 -120 88 l-56 33 6 -28z"/>
<path d="M2415 2903 c-319 -209 -432 -609 -269 -950 56 -118 165 -239 279
-311 48 -31 196 -94 203 -88 3 3 -9 34 -25 68 -17 35 -36 80 -42 101 -9 27
-30 52 -74 87 -72 56 -107 95 -153 166 -58 91 -75 147 -81 275 -5 102 -3 125
18 194 25 85 79 177 141 242 37 37 43 52 64 145 13 57 23 106 24 111 0 13 -15
6 -85 -40z"/>
</g>
</svg>
