<svg xmlns="http://www.w3.org/2000/svg" width="151.641" height="107" viewBox="0 0 151.641 107">
  <g id="pazl" transform="translate(-454.833 -546.796)">
    <path id="Path_4089" data-name="Path 4089" d="M499.6,600.663a9.625,9.625,0,0,0,13.779,8.315,8.544,8.544,0,0,1,3.711-.836h.7a2.546,2.546,0,0,1,2.547,2.547v19.568a2.794,2.794,0,0,1-2.794,2.794H497.98a2.548,2.548,0,0,0-2.547,2.547v.7a8.592,8.592,0,0,0,.833,3.711,9.548,9.548,0,0,1,.942,4.431,9.625,9.625,0,0,1-19.247-.272,9.56,9.56,0,0,1,.871-4,9.541,9.541,0,0,0,.91-3.979V635.6a2.55,2.55,0,0,0-2.547-2.547H457.623a2.79,2.79,0,0,1-2.79-2.794V610.688a2.546,2.546,0,0,1,2.547-2.547h.7a8.543,8.543,0,0,1,3.711.836,9.627,9.627,0,1,0,.159-17.437,9.56,9.56,0,0,1-3.983.91h-.586a2.546,2.546,0,0,1-2.547-2.547V570.336a2.79,2.79,0,0,1,2.79-2.794h19.571a2.548,2.548,0,0,0,2.547-2.547v-.589a9.54,9.54,0,0,0-.91-3.979,9.628,9.628,0,0,1,9.119-13.624,9.665,9.665,0,0,1,9.256,9.348,9.548,9.548,0,0,1-.942,4.431,8.591,8.591,0,0,0-.833,3.711v.7a2.546,2.546,0,0,0,2.547,2.547h19.568a2.793,2.793,0,0,1,2.794,2.794V589.9a2.546,2.546,0,0,1-2.547,2.547h-.589a9.544,9.544,0,0,1-3.979-.91,9.628,9.628,0,0,0-13.624,9.122Z" fill="#008484"/>
    <path id="Path_4090" data-name="Path 4090" d="M947.45,753.6a9.575,9.575,0,0,0-4,.871,9.557,9.557,0,0,1-3.98.909h-.588a2.547,2.547,0,0,1-2.547-2.547V733.264a2.794,2.794,0,0,0-2.794-2.794H913.97a2.547,2.547,0,0,0-2.547,2.547v.588a9.559,9.559,0,0,0,.909,3.98,9.626,9.626,0,1,1-17.435-.158,8.559,8.559,0,0,0,.835-3.71v-.7a2.547,2.547,0,0,0-2.547-2.547H873.616a2.794,2.794,0,0,0-2.794,2.794v19.568a2.547,2.547,0,0,1-2.547,2.547h-.588a9.556,9.556,0,0,1-3.98-.909,9.626,9.626,0,1,0,.157,17.435,8.557,8.557,0,0,1,3.711-.835h.7a2.547,2.547,0,0,1,2.547,2.547v19.568a2.794,2.794,0,0,0,2.794,2.794h19.568a2.547,2.547,0,0,0,2.547-2.547v-.7a8.558,8.558,0,0,0-.835-3.71,9.626,9.626,0,1,1,17.435-.158,9.559,9.559,0,0,0-.909,3.98v.588a2.547,2.547,0,0,0,2.547,2.547h19.568a2.794,2.794,0,0,0,2.794-2.794V773.618a2.548,2.548,0,0,1,2.547-2.547h.7a8.556,8.556,0,0,1,3.71.835A9.626,9.626,0,1,0,947.45,753.6Z" transform="translate(-350.603 -162.929)" fill="#a5e1d2"/>
  </g>
</svg>
