<svg width="100" height="100" viewBox="0 0 100 100" fill="none" xmlns="http://www.w3.org/2000/svg">
    <g clip-path="url(#clip0)">
        <path d="M96.5229 67.1728L76.2833 48.9582H23.7167L3.47708 67.1728L0.689575 64.0769L22.1167 44.7915H77.8833L99.3104 64.0769L96.5229 67.1728Z" fill="#008484"/>
        <path d="M93.75 99.9998H6.25C2.80312 99.9998 0 97.1967 0 93.7498V63.5415H33.3333V65.6248C33.3333 70.7946 37.5385 74.9998 42.7083 74.9998H57.2917C62.4615 74.9998 66.6667 70.7946 66.6667 65.6248V63.5415H100V93.7498C100 97.1967 97.1969 99.9998 93.75 99.9998ZM4.16667 67.7082V93.7498C4.16667 94.8988 5.10104 95.8332 6.25 95.8332H93.75C94.899 95.8332 95.8333 94.8988 95.8333 93.7498V67.7082H70.674C69.6687 74.1905 64.05 79.1665 57.2917 79.1665H42.7083C35.95 79.1665 30.3312 74.1905 29.326 67.7082H4.16667Z" fill="#008484"/>
        <path d="M37.1743 28.0498L29.8826 16.5913L26.3672 18.8284L33.6589 30.2869L37.1743 28.0498Z" fill="#008484"/>
        <path d="M74.675 18.825L71.1595 16.5884L63.8691 28.0469L67.3845 30.2835L74.675 18.825Z" fill="#008484"/>
        <path d="M52.0833 14.5835H47.9166V28.1252H52.0833V14.5835Z" fill="#008484"/>
    </g>
    <defs>
        <clipPath id="clip0">
            <rect width="100" height="100" fill="white"/>
        </clipPath>
    </defs>
</svg>
