<svg xmlns="http://www.w3.org/2000/svg" width="149.278" height="109.332" viewBox="0 0 149.278 109.332"><g transform="translate(3.889 2.807)"><g transform="translate(45 25.5)"><g transform="translate(0 48.499)"><path d="M345.167,436.158h-48.5a1.732,1.732,0,1,1,0-3.464h48.5a1.732,1.732,0,1,1,0,3.464Z" transform="translate(-294.937 -432.694)" fill="#d9d9d9"/></g><g transform="translate(0.001)"><path d="M345.167,401.781h-48.5a1.732,1.732,0,0,1-.885-3.22l22.375-13.308a5.186,5.186,0,0,1,5.569.032l22.325,13.276a1.732,1.732,0,0,1-.887,3.22Zm-42.2-3.465h35.9l-16.96-10.087a1.774,1.774,0,0,0-1.924-.031Z" transform="translate(-294.938 -384.457)" fill="#d9d9d9"/></g><g transform="translate(38.105 20.787)"><path d="M341.5,429.38h-6.929a1.733,1.733,0,0,1-1.732-1.732V406.864a1.732,1.732,0,0,1,3.465,0v19.051h3.464V406.864a1.732,1.732,0,0,1,3.465,0v20.784A1.733,1.733,0,0,1,341.5,429.38Z" transform="translate(-332.836 -405.132)" fill="#d9d9d9"/></g><g transform="translate(20.785 20.787)"><path d="M324.27,429.38h-6.928a1.732,1.732,0,0,1-1.731-1.732V406.864a1.732,1.732,0,1,1,3.464,0v19.051h3.464V406.864a1.732,1.732,0,0,1,3.465,0v20.784A1.733,1.733,0,0,1,324.27,429.38Z" transform="translate(-315.61 -405.132)" fill="#d9d9d9"/></g><g transform="translate(3.465 20.787)"><path d="M307.043,429.38h-6.928a1.732,1.732,0,0,1-1.732-1.732V406.864a1.732,1.732,0,1,1,3.464,0v19.051h3.465V406.864a1.732,1.732,0,1,1,3.464,0v20.784A1.733,1.733,0,0,1,307.043,429.38Z" transform="translate(-298.383 -405.132)" fill="#d9d9d9"/></g></g><path d="M111.51,22.856a51.883,51.883,0,0,0-91.893,33V70.023m14.15,21.433a51.883,51.883,0,0,0,89.617-35.6V46.421m0,0L142.25,65.287M123.383,46.421,104.517,65.287M.75,51.137,19.617,70,38.483,51.137" transform="translate(-0.75 -4.002)" fill="none" stroke="#d9d9d9" stroke-linecap="round" stroke-linejoin="round" stroke-width="5.5"/></g></svg>