<svg xmlns="http://www.w3.org/2000/svg" width="71.603" height="91.786" viewBox="0 0 71.603 91.786">
  <g id="Group_2961" data-name="Group 2961" transform="translate(-405.905 -102)">
    <path id="Path_4048" data-name="Path 4048" d="M479.059,155.771a13.692,13.692,0,0,1-1.364,5.895,18.061,18.061,0,0,1-1.541,2.932c2.91,4.157,8.119,10.974,8.119,10.974l6.235-10.808s-4.048-4.578-3.521-10A30.523,30.523,0,0,0,479.059,155.771Z" transform="translate(-46.302 -26.45)" fill="#d2f0e9" fill-rule="evenodd"/>
    <path id="Path_4049" data-name="Path 4049" d="M489.861,157.021a10.493,10.493,0,0,1-.029-2.253,30.524,30.524,0,0,0-7.929,1s0,.519-.074,1.287a24.671,24.671,0,0,0,3.266,1.831,1.232,1.232,0,0,0,.98.036A29.416,29.416,0,0,0,489.861,157.021Z" transform="translate(-49.146 -26.45)" fill="#a5e1d2" fill-rule="evenodd" opacity="0.64"/>
    <path id="Path_4050" data-name="Path 4050" d="M451.476,168.974a61.571,61.571,0,0,0-10.808,4.573c-4.157,2.494-12.471,34.5-12.471,34.5s-.831,4.157,3.742,9.145a20.8,20.8,0,0,0,2.91,2.079s.174-2.494,3.62-2.494c-1.542-5.82-2.789-7.9-2.789-7.9a6.706,6.706,0,0,1,1.247-5.4c2-2.91,7.067-11.224,7.067-11.224a96.951,96.951,0,0,1,0,29.1h28.683l11.267-23.279-4.615-21.616s-.416-4.157-5.4-5.82-8.314-2.494-8.314-2.494l1.663,2.91-7.067,11.223Z" transform="translate(-22.233 -33.154)" fill="#28b482" fill-rule="evenodd"/>
    <path id="Path_4051" data-name="Path 4051" d="M453.319,172.034l-.3.172c-1.114.634-2.632,1.529-4.248,2.571a55.717,55.717,0,0,0-4.829,3.448,17.96,17.96,0,0,0-3.553,3.614,30.248,30.248,0,0,0-2.576,5.87c-.919,2.6-1.868,5.656-2.77,8.683-.491,1.649-.965,3.275-1.413,4.813h0c-.378,1.3-.737,2.531-1.073,3.662a53.556,53.556,0,0,1-1.753,5.3,3.362,3.362,0,0,0,.207,2.757A12.558,12.558,0,0,0,433,215.9a26.953,26.953,0,0,0,2.315,2.349c.328.3.6.533.8.7.1.081.174.144.226.187l.059.048.015.012,0,0h0l.192.151-.147.2-.959,1.271c-.118-.073-.262-.165-.422-.268l.838-1.112-.127-.105c-.2-.166-.48-.408-.813-.708a27.544,27.544,0,0,1-2.359-2.394,13.032,13.032,0,0,1-2.072-3.1,3.846,3.846,0,0,1-.2-3.164,53.475,53.475,0,0,0,1.73-5.238c.331-1.116.691-2.352,1.07-3.653h0c.45-1.547.928-3.185,1.416-4.823.9-3.029,1.854-6.1,2.778-8.707a30.564,30.564,0,0,1,2.631-5.98,18.42,18.42,0,0,1,3.653-3.725,56.315,56.315,0,0,1,4.873-3.48c1.626-1.048,3.152-1.947,4.272-2.585l.276-.157Z" transform="translate(-23.211 -34.895)" fill="#14555a" fill-rule="evenodd" opacity="0.24"/>
    <path id="Path_4052" data-name="Path 4052" d="M483.633,163.14l-2.489-.831a9.327,9.327,0,0,0,.73,2.429c.532,1.063,1.759,3.39,1.759,3.39L478.3,179.2c-3.6-5.968-6.725-10.655-6.725-10.655a12.864,12.864,0,0,1,.64-3.939l.486-1.9a17.354,17.354,0,0,1-1.958,1.267c-.407.248-.715.4-.967.532-.855.435-1.074.546-2.358,2.793-1.663,2.91-3.326,6.235-3.326,6.235l4.78-4.157a110.933,110.933,0,0,0,9.768,10.392l-.322-.536,6.974-9.025,4.573,2.078s-1.663-4.573-3.326-6.651A7.443,7.443,0,0,0,483.633,163.14Z" transform="translate(-40.257 -30.23)" fill="#008484" fill-rule="evenodd"/>
    <path id="Path_4053" data-name="Path 4053" d="M435.725,265.227s-.831-4.988,5.819-6.235c.416,1.663.71,3.118.71,3.118l-1.957,4.365a21.589,21.589,0,0,1-2.91-.415A4.961,4.961,0,0,1,435.725,265.227Z" transform="translate(-26.019 -78.693)" fill="#008484" fill-rule="evenodd"/>
    <path id="Path_4054" data-name="Path 4054" d="M541.749,230.129l1.6.849a.709.709,0,0,0,.96-.293l3.848-3.924a.709.709,0,0,0-.294-.96L543.8,225a.71.71,0,0,0-.96.293l-1.386,3.88A.71.71,0,0,0,541.749,230.129Z" transform="translate(-78.992 -61.61)" fill="#a5e1d2" fill-rule="evenodd"/>
    <path id="Path_4055" data-name="Path 4055" d="M518.041,216.011l-1.6-.849a.71.71,0,0,1-.294-.96l1.1-5.384a.71.71,0,0,1,.96-.293l2.938,2.915a.71.71,0,0,1,.294.96L519,215.719A.71.71,0,0,1,518.041,216.011Z" transform="translate(-66.307 -53.354)" fill="#a5e1d2" fill-rule="evenodd"/>
    <path id="Path_4056" data-name="Path 4056" d="M518.04,216.011l-1.6-.849a.71.71,0,0,1-.294-.96l1.1-5.384a.71.71,0,0,1,.96-.293l2.938,2.915a.71.71,0,0,1,.294.96L519,215.719A.71.71,0,0,1,518.04,216.011Z" transform="translate(-66.307 -53.354)" fill="#007272" fill-rule="evenodd" opacity="0.16"/>
    <path id="Path_4057" data-name="Path 4057" d="M534.464,186.977l-.886,1.667,1.544.821.886-1.667c6.269,3.761,7.215,10.048,4.473,15.2-2.849,5.359-9.888,7.189-15.721,4.088s-8.252-9.96-5.4-15.32C522.1,186.613,527.834,183.878,534.464,186.977Z" transform="translate(-67.357 -41.94)" fill="#a5e1d2" fill-rule="evenodd"/>
    <path id="Path_4058" data-name="Path 4058" d="M563.985,196.182a.121.121,0,0,1,.074.1,7.089,7.089,0,0,1-4.1,6.6.12.12,0,0,1-.153-.045L556.48,197.5a.12.12,0,0,1,.028-.158C556.544,197.312,560.114,194.6,563.985,196.182Z" transform="translate(-86.556 -46.961)" fill="#a5e1d2" fill-rule="evenodd"/>
    <path id="Path_4059" data-name="Path 4059" d="M532.854,177.965a.121.121,0,0,1,.126,0c3.476,2.325,3.224,6.8,3.221,6.846a.12.12,0,0,1-.115.111l-6.29.231a.112.112,0,0,1-.06-.014.119.119,0,0,1-.062-.088A7.089,7.089,0,0,1,532.854,177.965Z" transform="translate(-73.082 -38.07)" fill="#a5e1d2" fill-rule="evenodd"/>
    <path id="Path_4060" data-name="Path 4060" d="M550.56,204.8a.781.781,0,1,0-1.056.322A.78.78,0,0,0,550.56,204.8Z" transform="translate(-82.86 -50.952)" fill="#14555a" fill-rule="evenodd"/>
    <path id="Path_4061" data-name="Path 4061" d="M539.923,199.141a.781.781,0,1,0-1.056.322A.781.781,0,0,0,539.923,199.141Z" transform="translate(-77.528 -48.117)" fill="#14555a" fill-rule="evenodd"/>
    <path id="Path_4062" data-name="Path 4062" d="M531.69,205.83c-.908,1.707.21,4.077,2.5,5.292s4.876.817,5.784-.89-.21-4.076-2.5-5.292S532.6,204.123,531.69,205.83Z" transform="translate(-73.981 -51.246)" fill="#d2f0e9" fill-rule="evenodd"/>
    <path id="Path_4063" data-name="Path 4063" d="M534.553,211.074a12.4,12.4,0,0,1-9.794-.884c-5.833-3.1-8.252-9.96-5.4-15.32a12.51,12.51,0,0,1,2.223-3.017C516.925,209.589,534.553,211.074,534.553,211.074Z" transform="translate(-67.357 -45.039)" fill="#008484" fill-rule="evenodd" opacity="0.16"/>
    <path id="Path_4064" data-name="Path 4064" d="M503.174,156.6l1.7.894-11.3,22.979-13.447-11.961L471.16,184.58l-5.763-4.64-4.154,8.938,1.551.721,3.233-6.955,5.639,4.54,8.917-15.981,13.535,12.039,12.271-24.954,1.5.79.472-6.623-2.594,2.071Z" transform="translate(-38.827 -25.29)" fill="#14555a" fill-rule="evenodd"/>
    <path id="Path_4065" data-name="Path 4065" d="M464.744,188.285a1.757,1.757,0,0,0-1.137,2.084l.33,1.323a.716.716,0,1,0,1.389-.347l-.33-1.323a.326.326,0,0,1,.1-.319Z" transform="translate(-39.986 -43.25)" fill="#008484" fill-rule="evenodd"/>
    <path id="Path_4066" data-name="Path 4066" d="M475.422,185.623a1.757,1.757,0,0,0-1.137,2.083l.33,1.323a.715.715,0,1,0,1.388-.346l-.33-1.323a.325.325,0,0,1,.1-.318Z" transform="translate(-45.338 -41.916)" fill="#008484" fill-rule="evenodd"/>
    <path id="Path_4067" data-name="Path 4067" d="M454.065,190.948a1.757,1.757,0,0,0-1.138,2.083l.33,1.323a.715.715,0,0,0,1.388-.346l-.33-1.323a.324.324,0,0,1,.1-.318Z" transform="translate(-34.633 -44.585)" fill="#008484" fill-rule="evenodd"/>
    <path id="Path_4068" data-name="Path 4068" d="M465.728,188l-19.535,4.871a2.149,2.149,0,0,0-1.564,2.6L448.3,210.2a2.15,2.15,0,0,0,2.6,1.564l19.535-4.871a2.15,2.15,0,0,0,1.564-2.6l-3.673-14.73A2.149,2.149,0,0,0,465.728,188Z" transform="translate(-30.467 -43.075)" fill="#d2f0e9" fill-rule="evenodd"/>
    <path id="Path_4069" data-name="Path 4069" d="M477.18,188l-9.767,2.435,4.711,18.9,9.768-2.435a2.149,2.149,0,0,0,1.564-2.6l-3.673-14.73A2.149,2.149,0,0,0,477.18,188Z" transform="translate(-41.92 -43.075)" fill="#b3dada" fill-rule="evenodd"/>
    <path id="Path_4070" data-name="Path 4070" d="M462.094,213.555l1.223-.3c.7-.176.854-.423.733-.908l-.113-.452c-.116-.463-.339-.513-1.032-.34a8.771,8.771,0,0,0-1.482.534l-.476-1.2a8.723,8.723,0,0,1,1.779-.654c1.84-.459,2.473-.031,2.748,1.07l.129.518a1.631,1.631,0,0,1-.373,1.649,1.34,1.34,0,0,1,1.208,1.138l.14.562c.269,1.08-.062,1.911-2.067,2.411a5.792,5.792,0,0,1-1.867.208l-.14-1.264a8.085,8.085,0,0,0,1.623-.252c.771-.192.942-.4.835-.828l-.126-.507c-.1-.407-.4-.521-.95-.384l-1.454.363Z" transform="translate(-38.679 -54.157)" fill="#28b482" fill-rule="evenodd"/>
    <path id="Path_4071" data-name="Path 4071" d="M478.812,213.833l-1.586.4-1.316-5.277-1.078.983-1.01-1.141,1.783-1.72,1.432-.357Z" transform="translate(-45.132 -52.489)" fill="#28b482" fill-rule="evenodd"/>
    <path id="Path_4072" data-name="Path 4072" d="M469.247,193.242l-.917-3.679a2.149,2.149,0,0,0-2.6-1.564l-19.535,4.871a2.149,2.149,0,0,0-1.564,2.6l.917,3.678Z" transform="translate(-30.467 -43.075)" fill="#14555a" fill-rule="evenodd"/>
    <path id="Path_4073" data-name="Path 4073" d="M477.18,188l-9.767,2.435,1.436,5.762,11.851-2.955-.917-3.679A2.149,2.149,0,0,0,477.18,188Z" transform="translate(-41.92 -43.075)" fill="#00343e" fill-rule="evenodd"/>
    <path id="Path_4074" data-name="Path 4074" d="M454.21,190.808a1.758,1.758,0,0,0-1.282,2.127l.114.456,1.388-.346-.114-.456a.327.327,0,0,1,.634-.158l.715,2.866a.716.716,0,1,0,1.388-.347l-.715-2.866A1.758,1.758,0,0,0,454.21,190.808Z" transform="translate(-34.633 -44.489)" fill="#008484" fill-rule="evenodd"/>
    <path id="Path_4075" data-name="Path 4075" d="M464.888,188.146a1.758,1.758,0,0,0-1.282,2.127l.114.456,1.389-.346-.114-.456a.327.327,0,0,1,.634-.159l.715,2.866a.716.716,0,0,0,1.389-.346l-.715-2.866A1.758,1.758,0,0,0,464.888,188.146Z" transform="translate(-39.986 -43.155)" fill="#008484" fill-rule="evenodd"/>
    <path id="Path_4076" data-name="Path 4076" d="M466.229,188.146l.346,1.389a.328.328,0,0,1,.395.233l.715,2.866a.716.716,0,0,0,1.389-.347l-.715-2.866A1.758,1.758,0,0,0,466.229,188.146Z" transform="translate(-41.326 -43.155)" fill="#008484" fill-rule="evenodd"/>
    <path id="Path_4077" data-name="Path 4077" d="M475.566,185.483a1.758,1.758,0,0,0-1.282,2.127l.114.456,1.389-.346-.114-.456a.327.327,0,0,1,.635-.158l.714,2.866a.716.716,0,0,0,1.389-.347l-.715-2.866A1.758,1.758,0,0,0,475.566,185.483Z" transform="translate(-45.338 -41.82)" fill="#008484" fill-rule="evenodd"/>
    <rect id="Rectangle_882" data-name="Rectangle 882" width="55.824" height="29.67" transform="translate(416.235 162.297)" fill="#b3dada"/>
    <rect id="Rectangle_883" data-name="Rectangle 883" width="11.639" height="29.67" transform="translate(416.235 162.297)" fill="#14555a" opacity="0.24"/>
    <path id="Path_4078" data-name="Path 4078" d="M551.424,243.981s3.742-.831,4.573-1.663v-1.663a8.627,8.627,0,0,1,2.494.831c.416.416.416,1.663-1.247,2.494a16.62,16.62,0,0,1-.415,4.572,5.117,5.117,0,0,1-2.494,1.247c-1.078,0-2.079-2.494-2.079-2.494a.878.878,0,0,1,.416-1.247,19.9,19.9,0,0,0,2.078-1.247s-2.91.416-3.326,0A.576.576,0,0,1,551.424,243.981Z" transform="translate(-83.938 -69.501)" fill="#d2f0e9" fill-rule="evenodd"/>
    <path id="Path_4079" data-name="Path 4079" d="M441.592,268.153l3.62,5.82a3.991,3.991,0,0,0,1.368,1.247,3.219,3.219,0,0,0,1.247.415,10.079,10.079,0,0,0,3.741,0c1.663-.415-2.078-2.494-2.078-2.494a4.92,4.92,0,0,1-1.247-1.663,8.628,8.628,0,0,1,0-2.494,11.383,11.383,0,0,1,2.91,1.663c.832.831,2.078,0,2.078,0a18.756,18.756,0,0,0-2.91-2.91c-.832-.416-5.11-2.078-5.11-2.078a5.5,5.5,0,0,0-2.373.415A5.6,5.6,0,0,0,441.592,268.153Z" transform="translate(-28.977 -82.034)" fill="#d2f0e9" fill-rule="evenodd"/>
    <path id="Path_4080" data-name="Path 4080" d="M491.069,110.955c-1.16,3.42-5.18,5.149-8.977,3.859s-5.937-5.107-4.775-8.528,5.181-5.149,8.979-3.86S492.23,107.534,491.069,110.955Z" transform="translate(-46.725 0)" fill="#14555a" fill-rule="evenodd"/>
    <path id="Path_4081" data-name="Path 4081" d="M491.069,110.955c-1.16,3.42-5.18,5.149-8.977,3.859s-5.937-5.107-4.775-8.528,5.181-5.149,8.979-3.86S492.23,107.534,491.069,110.955Z" transform="translate(-46.725 0)" fill="#00343e" fill-rule="evenodd" opacity="0.32"/>
    <path id="Path_4082" data-name="Path 4082" d="M490.158,118.891c0,6.737-5.207,12.232-11.631,12.2-8.2-.044-11.63-5.46-11.63-12.2s5.207-12.2,11.63-12.2S490.158,112.156,490.158,118.891Z" transform="translate(-41.661 -2.353)" fill="#14555a" fill-rule="evenodd"/>
    <path id="Path_4083" data-name="Path 4083" d="M490.158,118.891c0,6.737-5.207,12.232-11.631,12.2-8.2-.044-11.63-5.46-11.63-12.2s5.207-12.2,11.63-12.2S490.158,112.156,490.158,118.891Z" transform="translate(-41.661 -2.353)" fill="#00343e" fill-rule="evenodd" opacity="0.32"/>
    <path id="Path_4084" data-name="Path 4084" d="M488.86,123.331a1.089,1.089,0,0,0-.809.069c.285-2.717.445-5.455.031-6.1a10.88,10.88,0,0,0-8.685-5.013h0a10.879,10.879,0,0,0-8.685,5.013c-.41.642-.256,3.332.023,6.022a1,1,0,0,0-.578.009c-.8.269-1.08,1.579-.627,2.923a2.749,2.749,0,0,0,1.825,1.986c.11.762.186,1.24.186,1.24,1.646,4.364,5.99,6.51,7.4,7.106a1.133,1.133,0,0,0,.862.018c1.369-.57,5.784-2.716,7.446-7.123,0,0,.075-.476.185-1.235.754.053,1.625-.771,2.039-1.985C489.934,124.913,489.658,123.6,488.86,123.331Z" transform="translate(-42.872 -5.155)" fill="#d2f0e9" fill-rule="evenodd"/>
    <path id="Path_4085" data-name="Path 4085" d="M478.526,106.695c6.424,0,11.631,4.683,11.631,10.459a9.677,9.677,0,0,1-1.7,5.453c.12-1.008-.183-1.864-.81-2.078a.935.935,0,0,0-.34-.044c-.292,1.191-.6,2-.6,1.334,0-.714-.122-1.966-.238-3-2.657-.686-4.159-3.153-4.987-5.364q-.2.163-.4.321c-2.577,2.873-7.245,4.868-9.736,5.783a38.286,38.286,0,0,0,4.086-2.717,43.553,43.553,0,0,1-5.136,1.664c-.134,1.082-.295,2.552-.295,3.352,0,.678-.328-.161-.639-1.375a.954.954,0,0,0-.422.039c-.6.2-.908.991-.832,1.94a11.247,11.247,0,0,1-1.217-5.312C466.9,111.378,472.1,106.695,478.526,106.695Z" transform="translate(-41.661 -2.353)" fill="#14555a" fill-rule="evenodd"/>
    <path id="Path_4086" data-name="Path 4086" d="M506.517,124.81c.956,4.144-.829,8.669-3.315,12.749-2.145,3.52-1.02,5.8-.127,5.991s-3.7.574-.829-6.119,3.761-7.776,3.123-12.239a17.6,17.6,0,0,0-1.657-5.035C505.688,121.432,506.517,124.81,506.517,124.81Z" transform="translate(-58.901 -9.101)" fill="#14555a" fill-rule="evenodd"/>
    <path id="Path_4087" data-name="Path 4087" d="M506.517,124.81c.956,4.144-.829,8.669-3.315,12.749-2.145,3.52-1.02,5.8-.127,5.991s-3.7.574-.829-6.119,3.761-7.776,3.123-12.239a17.6,17.6,0,0,0-1.657-5.035C505.688,121.432,506.517,124.81,506.517,124.81Z" transform="translate(-58.901 -9.101)" fill="#00343e" fill-rule="evenodd" opacity="0.32"/>
  </g>
</svg>
