<svg width="673" height="425" viewBox="0 0 673 425" fill="none" xmlns="http://www.w3.org/2000/svg">
<path fill-rule="evenodd" clip-rule="evenodd" d="M241.779 377.9C241.779 377.9 234.138 377.9 206.121 385.541C178.105 393.182 142.447 399.549 124.619 365.165C106.79 330.782 134.807 311.68 148.815 305.312C162.823 298.945 237.958 260.741 467.184 290.03C497.747 295.124 533.404 296.608 542.319 335.344C551.233 374.08 476.098 370.259 476.098 370.259C476.098 370.259 450.628 372.806 441.714 398.276C432.8 423.745 372.946 439.027 302.905 402.096C268.521 380.447 241.779 377.9 241.779 377.9Z" fill="#E9F8F4"/>
<path fill-rule="evenodd" clip-rule="evenodd" d="M278.839 81.638C278.839 113.978 305.056 140.195 337.396 140.195C369.737 140.195 395.954 113.978 395.954 81.638C395.954 49.2977 369.737 23.0807 337.396 23.0807C305.056 23.0807 278.839 49.2977 278.839 81.638ZM390.571 81.638C390.571 111.006 366.764 134.813 337.396 134.813C308.028 134.813 284.221 111.006 284.221 81.638C284.221 52.2702 308.028 28.463 337.396 28.463C366.764 28.463 390.571 52.2702 390.571 81.638Z" fill="#A5E1D2"/>
<path fill-rule="evenodd" clip-rule="evenodd" d="M228.021 317.806L228 215.194C227.999 213.431 229.113 212 230.488 212C231.864 212 232.978 213.429 232.978 215.192L233 317.805C233 319.568 231.886 321 230.512 321C229.136 321 228.022 319.57 228.021 317.806Z" fill="#28B482"/>
<path fill-rule="evenodd" clip-rule="evenodd" d="M432.011 321C430.915 321 430.025 319.262 430.024 317.118L430 255.887C429.999 253.741 430.889 252 431.987 252H431.989C433.085 252 433.976 253.736 433.977 255.88L434 317.112C434.001 319.258 433.111 320.999 432.013 321H432.011Z" fill="#28B482"/>
<path fill-rule="evenodd" clip-rule="evenodd" d="M337.41 321.382C336.159 321.382 335.146 320.2 335.146 318.742L335.12 117.654C335.119 116.196 336.133 115.014 337.383 115.013C338.633 115.013 339.647 116.195 339.647 117.653L339.673 318.741C339.673 320.199 338.661 321.382 337.41 321.382Z" fill="#28B482"/>
<path fill-rule="evenodd" clip-rule="evenodd" d="M337.397 122.429C359.926 122.429 378.188 104.166 378.188 81.6384C378.188 59.1096 359.926 40.8469 337.397 40.8469C314.868 40.8469 296.605 59.1096 296.605 81.6384C296.605 104.166 314.868 122.429 337.397 122.429ZM337.397 114.842C355.734 114.842 370.601 99.9758 370.601 81.6383C370.601 63.3009 355.734 48.4357 337.397 48.4357C319.06 48.4357 304.194 63.3009 304.194 81.6383C304.194 99.9758 319.06 114.842 337.397 114.842Z" fill="#007272"/>
<path fill-rule="evenodd" clip-rule="evenodd" d="M315.437 96.8591V66.4167H321.292V80.3246L332.789 66.4167H340.281L327.837 80.583L341.013 96.8591H333.478L321.292 80.7552V96.8591H315.437ZM344.243 96.8591V73.3492H349.97V76.4924C351.089 74.8993 353.371 72.8755 356.299 72.8755C357.634 72.8755 358.581 73.0047 359.356 73.2631L358.538 77.9995C357.419 77.7842 356.859 77.7411 355.524 77.7411C353.156 77.7411 351.003 79.119 349.97 80.4108V96.8591H344.243Z" fill="#007272"/>
<path fill-rule="evenodd" clip-rule="evenodd" d="M386.056 157.002H360.938C349.048 157.002 339.409 166.641 339.409 178.532V194.679H364.527C376.417 194.679 386.056 185.04 386.056 173.149V157.002Z" fill="#28B482"/>
<path fill-rule="evenodd" clip-rule="evenodd" d="M386.056 218.198H360.938C349.048 218.198 339.409 227.836 339.409 239.727V255.874H364.527C376.417 255.874 386.056 246.235 386.056 234.344V218.198Z" fill="#28B482"/>
<path opacity="0.33" fill-rule="evenodd" clip-rule="evenodd" d="M366.274 157.002C354.405 157.028 344.792 166.657 344.792 178.532V194.679H364.574C364.558 194.679 364.542 194.679 364.527 194.679H339.409V178.532C339.409 166.641 349.048 157.002 360.939 157.002H366.274ZM366.274 218.198C354.405 218.223 344.792 227.852 344.792 239.727V255.874H364.571C364.557 255.874 364.542 255.874 364.527 255.874H339.409V239.727C339.409 227.837 349.048 218.198 360.938 218.198H366.274Z" fill="#14555A"/>
<path fill-rule="evenodd" clip-rule="evenodd" d="M289.485 165.807H314.603C326.493 165.807 336.132 175.445 336.132 187.336V203.483H311.015C299.124 203.483 289.485 193.844 289.485 181.953V165.807Z" fill="#28B482"/>
<path fill-rule="evenodd" clip-rule="evenodd" d="M289.485 227.002H314.603C326.493 227.002 336.132 236.641 336.132 248.531V264.678H311.015C299.124 264.678 289.485 255.039 289.485 243.149V227.002Z" fill="#28B482"/>
<path opacity="0.33" fill-rule="evenodd" clip-rule="evenodd" d="M289.485 165.807H314.603C314.62 165.807 314.637 165.807 314.654 165.807H296.662V181.953C296.662 193.827 306.274 203.456 318.141 203.483H311.015C299.124 203.483 289.485 193.844 289.485 181.953V165.807ZM314.603 227.002H289.486V243.149C289.486 255.039 299.125 264.678 311.015 264.678H318.139C306.273 264.65 296.662 255.022 296.662 243.149V227.002H314.653C314.636 227.002 314.62 227.002 314.603 227.002Z" fill="#14555A"/>
<path fill-rule="evenodd" clip-rule="evenodd" d="M472.207 249.399H451.607C441.855 249.399 433.95 257.304 433.95 267.056V280.299H454.55C464.302 280.299 472.207 272.394 472.207 262.642V249.399Z" fill="#28B482"/>
<path opacity="0.33" fill-rule="evenodd" clip-rule="evenodd" d="M456.946 249.399C447.214 249.422 439.332 257.319 439.332 267.056V280.299H454.593C454.579 280.299 454.564 280.299 454.55 280.299H433.95V267.056C433.95 257.304 441.855 249.399 451.607 249.399H456.946Z" fill="#14555A"/>
<path fill-rule="evenodd" clip-rule="evenodd" d="M270.619 202.748H250.019C240.267 202.748 232.361 210.653 232.361 220.405V233.648H252.962C262.713 233.648 270.619 225.742 270.619 215.991V202.748Z" fill="#28B482"/>
<path fill-rule="evenodd" clip-rule="evenodd" d="M270.619 249.57H250.019C240.267 249.57 232.361 257.476 232.361 267.227V280.47H252.962C262.713 280.47 270.619 272.565 270.619 262.813V249.57Z" fill="#28B482"/>
<path opacity="0.33" fill-rule="evenodd" clip-rule="evenodd" d="M250.257 202.748H255.639C245.887 202.748 237.982 210.653 237.982 220.405V233.648H232.6V220.405C232.6 210.653 240.505 202.748 250.257 202.748ZM250.257 249.57H270.857V249.57H255.639C245.887 249.57 237.982 257.476 237.982 267.227V280.47L232.6 280.47V267.227C232.6 257.475 240.505 249.57 250.257 249.57Z" fill="#14555A"/>
<path fill-rule="evenodd" clip-rule="evenodd" d="M393.853 260.335H414.453C424.205 260.335 432.11 268.24 432.11 277.992V291.235H411.51C401.758 291.235 393.853 283.329 393.853 273.578V260.335Z" fill="#28B482"/>
<path opacity="0.33" fill-rule="evenodd" clip-rule="evenodd" d="M414.486 260.335C414.475 260.335 414.464 260.335 414.453 260.335H393.853V273.578C393.853 283.33 401.758 291.235 411.51 291.235H416.859C407.123 291.217 399.235 283.319 399.235 273.578V260.335H414.486Z" fill="#14555A"/>
<path d="M212.704 211.552H192.103V224.795C192.103 234.546 200.009 242.452 209.761 242.452H230.361V229.209C230.361 219.457 222.455 211.552 212.704 211.552Z" fill="#28B482"/>
<path d="M212.704 259.853H192.103V273.096C192.103 282.848 200.009 290.753 209.761 290.753H230.361V277.51C230.361 267.758 222.455 259.853 212.704 259.853Z" fill="#28B482"/>
<path opacity="0.33" fill-rule="evenodd" clip-rule="evenodd" d="M197.486 211.552H192.104V224.795C192.104 234.546 200.009 242.452 209.761 242.452H215.143C205.392 242.452 197.486 234.546 197.486 224.795V211.552ZM212.704 259.853H192.104V273.096C192.104 282.848 200.009 290.753 209.761 290.753H215.11C205.373 290.735 197.486 282.837 197.486 273.096V259.853H212.735C212.724 259.853 212.714 259.853 212.704 259.853Z" fill="#14555A"/>
<path fill-rule="evenodd" clip-rule="evenodd" d="M614.806 163.13C614.877 162.144 614.666 161.16 614.138 160.293C614.265 155.265 612.535 149.7 607.462 143.491C605.557 141.16 601.938 137.654 600 136L601.5 135C601.5 135 609.682 141 621 141C625.755 141 629.092 140.475 635 137.5H636L640.854 145.394L614.806 163.13Z" fill="#A5E1D2"/>
<path opacity="0.16" fill-rule="evenodd" clip-rule="evenodd" d="M614.806 163.13C614.877 162.144 614.666 161.16 614.138 160.293C614.265 155.265 612.535 149.7 607.462 143.491C605.557 141.16 603.634 139.166 601.696 137.512L602.091 137.188C602.091 137.188 609.435 143.123 620.753 143.123C625.508 143.123 630.964 142.075 636.872 139.1L636.87 139.078L640.854 145.394L614.806 163.13Z" fill="#00343E"/>
<path fill-rule="evenodd" clip-rule="evenodd" d="M595.858 185.706L574.998 145.5C576.588 143.263 580.834 138.138 586.635 137.688C591.724 137.292 595.15 142.252 600.725 149.078C610.152 160.616 607.198 166.564 601.483 175.422C599.403 178.645 597.207 182.054 595.858 185.706ZM480.786 192.414C481.354 192.732 482.009 192.75 482.568 192.52C482.979 192.349 483.337 192.045 483.572 191.627L483.653 191.482C488.183 193.135 493.228 192.056 496.687 188.841L544.666 224.627L544.775 224.974L544.606 225.044C543.561 225.476 543.063 226.673 543.495 227.717C543.925 228.762 545.122 229.26 546.167 228.829L605.359 204.408C606.404 203.977 606.902 202.78 606.471 201.735C606.04 200.69 604.844 200.192 603.799 200.624L603.632 200.692L601.718 197.003C599.061 191.058 601.924 186.064 606.642 178.752C612.468 169.725 619.716 158.491 607.463 143.491C600.524 134.998 593.339 130.986 586.111 131.569C579.602 132.093 574.745 136.267 571.898 139.526L571.433 138.63C572.365 138.147 572.795 137.03 572.387 136.041C571.956 134.996 570.76 134.499 569.715 134.93L522.571 154.379C521.525 154.811 521.028 156.007 521.458 157.053C521.866 158.041 522.956 158.529 523.957 158.216L536.324 197.874L500.427 182.383C501.531 177.64 499.821 172.592 495.937 169.516L496.017 169.371C496.569 168.384 496.217 167.137 495.23 166.585C494.243 166.033 492.997 166.386 492.444 167.372L479.998 189.628C479.447 190.615 479.799 191.862 480.786 192.414Z" fill="#007272"/>
<path fill-rule="evenodd" clip-rule="evenodd" d="M583.631 138.105L590.134 133.94C592.881 132.182 596.363 132.718 597.913 135.14C599.171 137.102 598.77 139.7 597.111 141.55C599.495 140.8 602.04 141.522 603.302 143.493C604.56 145.456 604.159 148.054 602.501 149.904C604.885 149.154 607.429 149.876 608.692 151.847H608.692C609.949 153.81 609.548 156.407 607.89 158.257C610.273 157.508 612.818 158.229 614.081 160.201C615.631 162.622 614.662 166.01 611.916 167.769L605.412 171.933C602.666 173.692 599.183 173.154 597.633 170.734C596.376 168.771 596.775 166.173 598.435 164.322C596.05 165.073 593.506 164.351 592.244 162.381C590.987 160.418 591.386 157.82 593.046 155.969C590.661 156.719 588.117 155.998 586.855 154.027C585.598 152.064 585.997 149.466 587.657 147.615C585.272 148.365 582.728 147.644 581.466 145.673C579.915 143.252 580.885 139.864 583.631 138.105Z" fill="#A5E1D2"/>
<path opacity="0.16" fill-rule="evenodd" clip-rule="evenodd" d="M620.753 143.123C609.435 143.123 602.091 137.188 602.091 137.188L601.696 137.512C601.311 137.182 600.923 136.866 600.536 136.563L601.61 135.715C601.61 135.715 609.096 141.99 620.746 141.99C625.362 141.99 630.632 141.005 636.35 138.253L636.87 139.078L636.872 139.1C630.964 142.075 625.508 143.123 620.753 143.123Z" fill="#00343E"/>
<path opacity="0.16" fill-rule="evenodd" clip-rule="evenodd" d="M589.388 153.636C588.508 153.636 587.722 153.006 587.562 152.102L587.455 151.496C587.782 151.77 588.202 151.931 588.646 151.931C588.768 151.931 588.891 151.919 589.015 151.894C592.484 151.195 595.12 148.359 595.562 144.848L596.19 139.996L598.639 138.062C598.599 138.629 598.466 139.197 598.245 139.742C598.099 140.104 597.915 140.456 597.695 140.792L596.75 141.566L596.208 146.428C595.828 149.947 593.245 152.83 589.79 153.592C589.655 153.622 589.521 153.636 589.388 153.636Z" fill="#00343E"/>
<path fill-rule="evenodd" clip-rule="evenodd" d="M633.99 113.467L626.517 119.063C622.816 121.836 618.256 123.214 613.638 122.955L601.981 122.3C600.41 122.004 598.797 122.524 597.695 123.68L586.351 135.577C585.338 136.641 584.877 138.117 585.108 139.569L586.815 150.365C586.98 151.408 587.98 152.103 589.015 151.894C592.484 151.195 595.12 148.359 595.561 144.848L596.19 139.996L601.61 135.715C601.61 135.715 616.203 147.949 636.35 138.253L635.955 120.32L633.99 113.467Z" fill="#A5E1D2"/>
<path fill-rule="evenodd" clip-rule="evenodd" d="M645.174 145.16L642.032 147.261L623.799 118.354L627.141 116.098L645.174 145.16Z" fill="#D2F0E9"/>
<path fill-rule="evenodd" clip-rule="evenodd" d="M672.934 129.974L646.643 147.563L625.97 114.513L672.971 81.0596L672.934 129.974Z" fill="#007272"/>
<path fill-rule="evenodd" clip-rule="evenodd" d="M646.643 147.563L639.505 136.149L672.935 113.841V129.974L646.643 147.563ZM649.396 135.529C649.034 135.529 648.665 135.589 648.303 135.716C646.584 136.319 645.679 138.202 646.283 139.922C646.76 141.279 648.034 142.129 649.395 142.129C649.758 142.129 650.127 142.068 650.489 141.942C652.207 141.339 653.112 139.455 652.509 137.736C652.033 136.378 650.759 135.529 649.396 135.529ZM657.499 129.974C657.137 129.974 656.768 130.035 656.406 130.161C654.686 130.765 653.782 132.648 654.386 134.367C654.863 135.725 656.138 136.574 657.499 136.574C657.862 136.574 658.231 136.514 658.592 136.387C660.311 135.784 661.215 133.901 660.612 132.181C660.136 130.824 658.861 129.974 657.499 129.974Z" fill="#14555A"/>
<path fill-rule="evenodd" clip-rule="evenodd" d="M479.657 176.179C479.212 176.179 478.775 175.995 478.464 175.684C478.153 175.372 477.977 174.937 477.977 174.499C477.977 174.055 478.153 173.618 478.464 173.307C479.086 172.686 480.211 172.677 480.841 173.307C481.152 173.618 481.328 174.055 481.328 174.499C481.328 174.937 481.152 175.372 480.841 175.684C480.53 175.995 480.094 176.179 479.657 176.179Z" fill="#A5E1D2"/>
<path fill-rule="evenodd" clip-rule="evenodd" d="M466.151 171.997C466.084 171.072 466.781 170.266 467.705 170.199C468.629 170.123 469.435 170.821 469.502 171.745C469.569 172.669 468.881 173.475 467.948 173.551H467.822C466.957 173.551 466.218 172.879 466.151 171.997Z" fill="#A5E1D2"/>
<path fill-rule="evenodd" clip-rule="evenodd" d="M454.997 176.927C454.476 176.155 454.686 175.105 455.459 174.592C456.223 174.071 457.273 174.281 457.786 175.054C458.306 175.819 458.096 176.868 457.324 177.381H457.332C457.038 177.574 456.719 177.666 456.391 177.666C455.854 177.666 455.325 177.405 454.997 176.927ZM446.664 185.889C445.917 185.335 445.757 184.285 446.312 183.537C446.866 182.798 447.916 182.639 448.663 183.193C449.411 183.747 449.562 184.797 449.016 185.545C448.68 185.99 448.176 186.224 447.664 186.224C447.311 186.224 446.958 186.116 446.664 185.889ZM440.852 196.69C440.004 196.313 439.626 195.321 440.004 194.474C440.39 193.625 441.381 193.247 442.23 193.634C443.078 194.012 443.448 195.003 443.07 195.85C442.793 196.473 442.18 196.842 441.541 196.842C441.306 196.842 441.071 196.791 440.852 196.69ZM436.879 208.316C435.989 208.055 435.477 207.123 435.737 206.233C435.989 205.342 436.921 204.83 437.811 205.082C438.702 205.342 439.214 206.275 438.962 207.165C438.752 207.904 438.08 208.374 437.35 208.374C437.19 208.374 437.039 208.358 436.879 208.316ZM434.259 220.309C433.352 220.142 432.747 219.268 432.906 218.352H432.915C433.074 217.445 433.956 216.841 434.863 217.009C435.779 217.169 436.384 218.042 436.216 218.958C436.065 219.772 435.359 220.335 434.561 220.335C434.46 220.335 434.359 220.327 434.259 220.309ZM432.663 232.488C431.739 232.387 431.067 231.565 431.168 230.641C431.26 229.717 432.092 229.054 433.016 229.146C433.931 229.247 434.603 230.07 434.511 230.994C434.418 231.858 433.688 232.497 432.839 232.497L432.663 232.488Z" fill="#A5E1D2"/>
<path fill-rule="evenodd" clip-rule="evenodd" d="M431.931 244.786C431.495 244.786 431.067 244.609 430.748 244.298C430.437 243.979 430.261 243.55 430.261 243.106C430.261 242.661 430.437 242.232 430.748 241.921C431.369 241.291 432.503 241.291 433.125 241.921C433.436 242.232 433.62 242.669 433.62 243.106C433.62 243.543 433.436 243.979 433.125 244.29C432.806 244.609 432.377 244.786 431.931 244.786Z" fill="#A5E1D2"/>
<path fill-rule="evenodd" clip-rule="evenodd" d="M484.898 170.275C484.461 170.275 484.033 170.089 483.714 169.778C483.403 169.459 483.218 169.032 483.218 168.595C483.218 168.15 483.403 167.712 483.714 167.402C484.335 166.781 485.461 166.781 486.091 167.402C486.402 167.712 486.578 168.15 486.578 168.595C486.578 169.032 486.402 169.469 486.091 169.778C485.772 170.089 485.343 170.275 484.898 170.275Z" fill="#A5E1D2"/>
<path fill-rule="evenodd" clip-rule="evenodd" d="M473.66 165.293C472.761 165.076 472.207 164.16 472.434 163.261C472.652 162.363 473.559 161.808 474.466 162.035C475.365 162.253 475.919 163.169 475.693 164.068C475.508 164.832 474.819 165.345 474.063 165.345C473.928 165.345 473.794 165.328 473.66 165.293Z" fill="#A5E1D2"/>
<path fill-rule="evenodd" clip-rule="evenodd" d="M460.506 163.126C460.397 162.212 461.061 161.372 461.985 161.27C462.9 161.162 463.74 161.825 463.841 162.749C463.95 163.673 463.287 164.505 462.363 164.606L462.169 164.622C461.329 164.622 460.607 163.984 460.506 163.126ZM449.184 166.882C448.798 166.033 449.167 165.042 450.007 164.656C450.856 164.27 451.847 164.639 452.233 165.479C452.62 166.327 452.25 167.326 451.41 167.705C451.183 167.813 450.94 167.864 450.713 167.864C450.075 167.864 449.461 167.495 449.184 166.882ZM439.349 173.659C438.752 172.946 438.853 171.888 439.567 171.292C440.281 170.695 441.339 170.796 441.927 171.51C442.524 172.215 442.431 173.273 441.717 173.869C441.407 174.13 441.02 174.265 440.642 174.265C440.164 174.265 439.685 174.055 439.349 173.659ZM431.369 182.555C430.63 181.984 430.495 180.934 431.067 180.195C431.629 179.464 432.679 179.321 433.418 179.892C434.158 180.455 434.292 181.505 433.729 182.244C433.393 182.673 432.898 182.899 432.394 182.899C432.032 182.899 431.68 182.79 431.369 182.555ZM425.245 192.819C424.414 192.39 424.095 191.374 424.523 190.551C424.943 189.727 425.96 189.408 426.783 189.828C427.606 190.257 427.933 191.264 427.505 192.097C427.203 192.676 426.615 193.004 426.01 193.004C425.75 193.004 425.489 192.944 425.245 192.819ZM420.802 203.923C419.921 203.62 419.459 202.663 419.761 201.789C420.055 200.907 421.012 200.436 421.894 200.74C422.768 201.042 423.238 201.999 422.935 202.873C422.701 203.57 422.046 204.015 421.348 204.015C421.164 204.015 420.979 203.982 420.802 203.923ZM417.83 215.506C416.922 215.312 416.343 214.422 416.536 213.515C416.729 212.608 417.62 212.028 418.535 212.222C419.442 212.415 420.022 213.305 419.829 214.212C419.652 215.002 418.955 215.539 418.182 215.539C418.065 215.539 417.947 215.531 417.83 215.506ZM416.116 227.348C415.2 227.248 414.528 226.416 414.638 225.492C414.73 224.568 415.562 223.905 416.485 224.006C417.409 224.107 418.072 224.938 417.972 225.862C417.88 226.718 417.149 227.357 416.301 227.357L416.116 227.348Z" fill="#A5E1D2"/>
<path fill-rule="evenodd" clip-rule="evenodd" d="M415.52 239.343C415.075 239.343 414.646 239.166 414.326 238.856C414.016 238.544 413.84 238.108 413.84 237.663C413.84 237.226 414.016 236.789 414.326 236.478C414.956 235.848 416.082 235.848 416.704 236.478C417.022 236.789 417.2 237.226 417.2 237.663C417.2 238.108 417.022 238.537 416.704 238.856C416.392 239.166 415.956 239.343 415.52 239.343Z" fill="#A5E1D2"/>
<path fill-rule="evenodd" clip-rule="evenodd" d="M477.263 184.495C476.826 184.495 476.389 184.319 476.079 184.008C475.759 183.689 475.583 183.26 475.583 182.815C475.583 182.378 475.759 181.942 476.079 181.631C476.709 181.001 477.826 181.009 478.447 181.631C478.766 181.942 478.943 182.378 478.943 182.815C478.943 183.26 478.766 183.689 478.456 184.008C478.136 184.319 477.707 184.495 477.263 184.495Z" fill="#A5E1D2"/>
<path fill-rule="evenodd" clip-rule="evenodd" d="M464.177 183.806C463.74 182.983 464.058 181.967 464.874 181.53C465.697 181.093 466.713 181.413 467.15 182.227C467.578 183.05 467.268 184.067 466.453 184.495V184.504C466.201 184.63 465.932 184.697 465.663 184.697C465.067 184.697 464.478 184.368 464.177 183.806Z" fill="#A5E1D2"/>
<path fill-rule="evenodd" clip-rule="evenodd" d="M457.549 193.583C456.709 193.197 456.341 192.206 456.727 191.357C457.113 190.517 458.105 190.139 458.953 190.526C459.793 190.921 460.162 191.912 459.776 192.76H459.784C459.499 193.373 458.886 193.743 458.247 193.743C458.012 193.743 457.777 193.692 457.549 193.583ZM454.207 204.989C453.3 204.77 452.737 203.872 452.947 202.965V202.974C453.157 202.066 454.064 201.504 454.963 201.714C455.869 201.924 456.433 202.831 456.223 203.73C456.038 204.511 455.349 205.031 454.585 205.031C454.459 205.031 454.333 205.015 454.207 204.989ZM452.25 216.715C451.326 216.589 450.688 215.741 450.814 214.825C450.94 213.901 451.788 213.263 452.704 213.389C453.628 213.515 454.266 214.362 454.14 215.279C454.022 216.119 453.308 216.732 452.477 216.732C452.401 216.732 452.326 216.723 452.25 216.715ZM451.074 228.55C450.15 228.474 449.461 227.658 449.537 226.735C449.613 225.811 450.419 225.123 451.343 225.207C452.267 225.281 452.955 226.088 452.88 227.013C452.813 227.895 452.074 228.558 451.208 228.558L451.074 228.55Z" fill="#A5E1D2"/>
<path fill-rule="evenodd" clip-rule="evenodd" d="M450.469 240.443C450.033 240.443 449.596 240.267 449.285 239.947C448.974 239.637 448.79 239.208 448.79 238.763C448.79 238.318 448.974 237.89 449.285 237.571C449.907 236.949 451.032 236.949 451.662 237.571C451.973 237.89 452.149 238.318 452.149 238.763C452.149 239.2 451.973 239.637 451.662 239.947C451.343 240.267 450.915 240.443 450.469 240.443Z" fill="#A5E1D2"/>
<path fill-rule="evenodd" clip-rule="evenodd" d="M56.9917 92.0325L32.7017 71.9555L37.5 65H38C44.8253 69.2736 50.074 70 55.5 70C65.1399 70 72.4214 65.5 72.4214 65.5L74 66.5C71.9178 67.9665 68.2385 71.0156 66.1252 73.16C60.4993 78.8715 58.26 84.2513 57.919 89.2699C57.3143 90.0838 57.0127 91.0447 56.9917 92.0325Z" fill="#A5E1D2"/>
<path opacity="0.16" fill-rule="evenodd" clip-rule="evenodd" d="M56.9917 92.0325L32.7017 71.9555L37.5 65H38C44.8253 69.2736 50.074 70 55.5 70C65.1399 70 72.4214 65.5 72.4214 65.5L74 66.5C71.9178 67.9665 68.2385 71.0156 66.1252 73.16C60.4993 78.8715 58.26 84.2513 57.919 89.2699C57.3143 90.0838 57.0127 91.0447 56.9917 92.0325Z" fill="#00343E"/>
<path fill-rule="evenodd" clip-rule="evenodd" d="M69.1172 105.508C64.2489 96.1583 61.8593 89.9613 72.3157 79.3478C78.501 73.0693 82.3722 68.448 87.4026 69.3148C93.136 70.3017 96.8888 75.7983 98.2646 78.1728L73.7637 116.27C72.7592 112.507 70.8886 108.909 69.1172 105.508ZM188.758 130.927L178.431 107.612C177.973 106.579 176.765 106.111 175.731 106.569C174.697 107.026 174.23 108.236 174.688 109.27L174.755 109.421C170.603 112.124 168.432 116.991 169.09 121.817L131.911 133.909L147.905 95.5704C148.871 95.9744 150.003 95.5888 150.5 94.6439C151.026 93.6427 150.642 92.4055 149.642 91.8789L104.505 68.1389C103.505 67.6123 102.268 67.997 101.741 68.9973C101.243 69.9439 101.568 71.0955 102.451 71.6633L101.905 72.5116C99.3723 69.0032 94.924 64.397 88.4917 63.2707C81.3481 62.0192 74 65 66.1251 73.1601C52.5333 86.9577 58.7085 98.8159 63.67 108.344C67.6899 116.063 70.0762 121.302 66.8794 126.974L64.6317 130.47L64.473 130.386C63.4718 129.86 62.2345 130.245 61.7079 131.245C61.1821 132.245 61.5668 133.483 62.5671 134.009L119.238 163.818C120.238 164.343 121.476 163.959 122.002 162.958C122.528 161.958 122.144 160.72 121.143 160.193L120.981 160.108L121.122 159.772L172.215 128.593C175.361 132.116 180.284 133.658 184.948 132.433L185.015 132.585C185.209 133.023 185.539 133.359 185.933 133.567C186.467 133.847 187.121 133.891 187.716 133.627C188.75 133.169 189.216 131.961 188.758 130.927Z" fill="#007272"/>
<path fill-rule="evenodd" clip-rule="evenodd" d="M90.3547 70.0086L84.2652 65.2579C81.695 63.2521 78.1765 63.4638 76.4093 65.73C74.9747 67.5677 75.1326 70.1917 76.6125 72.1874C74.3086 71.2198 71.7073 71.7019 70.2677 73.5481C68.8347 75.3858 68.991 78.009 70.4718 80.0055C68.167 79.0379 65.5665 79.5192 64.1269 81.3653C62.6931 83.2031 62.8502 85.8271 64.3302 87.8236C62.0254 86.8552 59.4258 87.3373 57.9853 89.1835C56.2172 91.4496 56.8682 94.9127 59.4392 96.9193L65.5279 101.669C68.0989 103.675 71.6166 103.464 73.3847 101.197C74.8184 99.3593 74.6622 96.7362 73.1814 94.7396C75.4853 95.7072 78.0858 95.226 79.5263 93.3798C80.96 91.542 80.8021 88.918 79.3222 86.9215C81.6269 87.89 84.2274 87.4078 85.667 85.5617C87.1008 83.7247 86.9437 81.1008 85.4638 79.1042C87.7677 80.0727 90.3682 79.5897 91.8078 77.7444C93.5759 75.4774 92.9258 72.0143 90.3547 70.0086Z" fill="#A5E1D2"/>
<path opacity="0.16" fill-rule="evenodd" clip-rule="evenodd" d="M55.9254 71.6995C50.4994 71.6995 44.0773 70.3329 37.252 66.0593L37.2553 66.0367L37.8491 65.2639C44.5048 69.2662 50.738 70.5723 56.0396 70.5723C66.0013 70.5723 72.6745 65.9611 72.6745 65.9611L73.6657 66.9051C73.2516 67.1706 72.8375 67.4486 72.4217 67.7417L72.0597 67.3831C72.0597 67.3831 65.5653 71.6995 55.9254 71.6995Z" fill="#00343E"/>
<path opacity="0.16" fill-rule="evenodd" clip-rule="evenodd" d="M83.3527 84.946C83.1654 84.946 82.9748 84.9174 82.7866 84.8569C79.416 83.7785 77.1112 80.6673 77.0608 77.1287L76.9726 72.2378L76.1016 71.3768C75.9134 71.0224 75.7639 70.6562 75.6522 70.2832C75.4834 69.7188 75.4027 69.1418 75.4153 68.5731L77.6739 70.7259L77.8503 75.6151C77.9654 79.1521 80.3256 82.2212 83.7147 83.2392C83.8928 83.2921 84.0726 83.3182 84.2489 83.3182C84.6311 83.3182 84.999 83.1989 85.3047 82.9872L85.1426 83.5802C84.915 84.4076 84.1658 84.946 83.3527 84.946Z" fill="#00343E"/>
<path fill-rule="evenodd" clip-rule="evenodd" d="M42.499 40.8032L49.4201 47.07C52.8478 50.1735 57.2609 51.9685 61.8822 52.139L73.5497 52.569C75.1414 52.4195 76.6995 53.0873 77.6898 54.3405L87.8799 67.2393C88.7912 68.3926 89.1129 69.9053 88.7492 71.329L86.0471 81.9197C85.7859 82.9428 84.7251 83.5425 83.7146 83.2393C80.3255 82.2213 77.9653 79.1521 77.8502 75.6152L77.6738 70.7259L72.6745 65.961C72.6745 65.961 57.0097 76.7869 37.8491 65.2638L39.907 47.4446L42.499 40.8032Z" fill="#A5E1D2"/>
<path fill-rule="evenodd" clip-rule="evenodd" d="M28.4224 71.323L31.3554 73.7051L52.1934 46.6146L49.0755 44.0587L28.4224 71.323Z" fill="#D2F0E9"/>
<path fill-rule="evenodd" clip-rule="evenodd" d="M0.949219 53.3115L26.7361 73.5783L50.3861 42.5889L0.986176 0L0.949219 53.3115Z" fill="#007272"/>
<path fill-rule="evenodd" clip-rule="evenodd" d="M26.7361 73.5783L0.949219 53.3115L1.00297 35.3856L34.9036 62.8759L26.7361 73.5783ZM24.8083 61.3262C23.5585 61.3262 22.3641 62.0393 21.8081 63.2496C21.0471 64.9051 21.7737 66.8638 23.4292 67.6248C23.8752 67.8298 24.343 67.9264 24.8041 67.9264C26.0531 67.9264 27.2484 67.2133 27.8044 66.0038C28.5645 64.3474 27.8388 62.3887 26.1833 61.6285C25.7373 61.4236 25.2686 61.3262 24.8083 61.3262ZM17.2557 55.0443C16.0059 55.0443 14.8107 55.7574 14.2546 56.9669C13.4945 58.6224 14.2202 60.582 15.8765 61.3421C16.3225 61.5471 16.7904 61.6445 17.2515 61.6445C18.5005 61.6445 19.6957 60.9305 20.2518 59.721C21.0119 58.0647 20.2862 56.106 18.6307 55.3458C18.1838 55.1409 17.716 55.0443 17.2557 55.0443Z" fill="#14555A"/>
<path fill-rule="evenodd" clip-rule="evenodd" d="M190.509 117.569C190.064 117.569 189.636 117.393 189.317 117.082C189.006 116.763 188.83 116.334 188.83 115.889C188.83 115.452 189.006 115.016 189.317 114.705C189.947 114.075 191.072 114.075 191.694 114.705C192.005 115.016 192.189 115.452 192.189 115.889C192.189 116.334 192.005 116.763 191.694 117.082C191.383 117.393 190.946 117.569 190.509 117.569Z" fill="#A5E1D2"/>
<path fill-rule="evenodd" clip-rule="evenodd" d="M202.243 116.032C201.328 115.88 200.714 115.006 200.866 114.092C201.025 113.185 201.89 112.563 202.806 112.723C203.721 112.874 204.335 113.739 204.183 114.654C204.041 115.478 203.335 116.056 202.529 116.056C202.436 116.056 202.336 116.049 202.243 116.032Z" fill="#A5E1D2"/>
<path fill-rule="evenodd" clip-rule="evenodd" d="M212.465 120.836C211.751 120.249 211.642 119.19 212.23 118.476C212.809 117.754 213.868 117.645 214.59 118.233C215.304 118.82 215.413 119.879 214.834 120.593C214.498 121.004 214.01 121.214 213.523 121.214C213.154 121.214 212.776 121.088 212.465 120.836ZM219.991 129.731C219.512 128.942 219.764 127.909 220.553 127.429C221.351 126.942 222.384 127.203 222.863 127.992C223.342 128.782 223.09 129.815 222.292 130.294C222.023 130.462 221.721 130.538 221.427 130.538C220.856 130.538 220.301 130.252 219.991 129.731ZM224.946 140.55C224.644 139.675 225.114 138.719 225.988 138.415C226.87 138.114 227.827 138.584 228.13 139.458C228.424 140.34 227.962 141.297 227.08 141.6C226.903 141.658 226.718 141.684 226.534 141.684C225.837 141.684 225.19 141.247 224.946 140.55ZM227.987 152.2C227.819 151.284 228.416 150.402 229.323 150.234C230.238 150.058 231.12 150.654 231.288 151.57C231.465 152.477 230.868 153.359 229.953 153.527C229.852 153.552 229.743 153.56 229.642 153.56C228.853 153.56 228.147 152.998 227.987 152.2ZM229.625 164.194C229.549 163.269 230.23 162.455 231.154 162.371C232.078 162.296 232.892 162.976 232.976 163.899C233.06 164.824 232.372 165.639 231.448 165.723L231.305 165.731C230.44 165.731 229.709 165.067 229.625 164.194ZM230.213 176.331C230.205 175.407 230.944 174.651 231.868 174.634C232.8 174.626 233.556 175.365 233.573 176.297C233.581 177.221 232.842 177.986 231.91 177.994H231.885C230.969 177.994 230.222 177.255 230.213 176.331Z" fill="#A5E1D2"/>
<path fill-rule="evenodd" clip-rule="evenodd" d="M231.65 190.316C231.213 190.316 230.776 190.131 230.465 189.82C230.155 189.509 229.97 189.073 229.97 188.636C229.97 188.191 230.155 187.754 230.465 187.443C231.095 186.821 232.212 186.821 232.842 187.443C233.153 187.762 233.329 188.191 233.329 188.636C233.329 189.073 233.153 189.509 232.842 189.82C232.523 190.131 232.095 190.316 231.65 190.316Z" fill="#A5E1D2"/>
<path fill-rule="evenodd" clip-rule="evenodd" d="M185.831 111.202C185.386 111.202 184.949 111.026 184.638 110.715C184.327 110.404 184.151 109.968 184.151 109.522C184.151 109.077 184.327 108.649 184.638 108.338C185.26 107.717 186.385 107.708 187.015 108.338C187.326 108.649 187.511 109.086 187.511 109.522C187.511 109.968 187.326 110.404 187.015 110.715C186.704 111.026 186.268 111.202 185.831 111.202Z" fill="#A5E1D2"/>
<path fill-rule="evenodd" clip-rule="evenodd" d="M195.406 105.869C195.263 104.953 195.901 104.096 196.817 103.962C197.732 103.819 198.589 104.449 198.723 105.365C198.866 106.289 198.236 107.145 197.321 107.28C197.237 107.297 197.153 107.305 197.069 107.305C196.246 107.305 195.532 106.7 195.406 105.869Z" fill="#A5E1D2"/>
<path fill-rule="evenodd" clip-rule="evenodd" d="M208.627 107.616C207.711 107.431 207.132 106.541 207.317 105.634C207.51 104.726 208.4 104.138 209.307 104.332C210.214 104.516 210.794 105.407 210.609 106.314C210.441 107.112 209.744 107.658 208.963 107.658C208.854 107.658 208.736 107.641 208.627 107.616ZM219.244 111.69H219.252C218.446 111.236 218.16 110.211 218.622 109.405C219.084 108.599 220.109 108.313 220.915 108.775C221.722 109.237 221.999 110.262 221.537 111.068C221.234 111.614 220.663 111.916 220.084 111.916C219.798 111.916 219.513 111.841 219.244 111.69ZM228.331 118.703C227.676 118.047 227.676 116.981 228.331 116.326C228.995 115.67 230.053 115.67 230.708 116.326C231.363 116.99 231.363 118.047 230.708 118.703C230.381 119.03 229.952 119.199 229.524 119.199C229.096 119.199 228.659 119.03 228.331 118.703ZM235.522 127.766C235.026 126.976 235.253 125.943 236.042 125.448C236.823 124.952 237.865 125.179 238.361 125.968C238.856 126.75 238.621 127.782 237.84 128.287C237.554 128.463 237.243 128.546 236.941 128.546C236.387 128.546 235.841 128.269 235.522 127.766ZM240.805 138.138C240.452 137.274 240.872 136.291 241.729 135.947C242.585 135.602 243.568 136.014 243.921 136.871C244.265 137.736 243.845 138.71 242.989 139.063C242.787 139.147 242.569 139.188 242.359 139.188C241.695 139.188 241.065 138.786 240.805 138.138ZM244.349 149.285C244.13 148.378 244.685 147.471 245.592 147.252C246.491 147.034 247.398 147.588 247.616 148.495C247.835 149.394 247.28 150.301 246.381 150.52C246.247 150.553 246.113 150.57 245.987 150.57C245.222 150.57 244.534 150.049 244.349 149.285ZM246.399 160.85C246.29 159.927 246.945 159.095 247.869 158.986C248.793 158.877 249.624 159.541 249.734 160.456C249.843 161.379 249.179 162.212 248.264 162.32L248.062 162.338C247.222 162.338 246.5 161.708 246.399 160.85ZM247.163 172.609C247.146 171.678 247.885 170.922 248.809 170.905C249.741 170.888 250.506 171.627 250.523 172.56H250.514C250.531 173.483 249.792 174.248 248.868 174.265H248.843C247.927 174.265 247.171 173.526 247.163 172.609Z" fill="#A5E1D2"/>
<path fill-rule="evenodd" clip-rule="evenodd" d="M248.507 186.267C248.07 186.267 247.633 186.082 247.323 185.771C247.012 185.461 246.827 185.024 246.827 184.578C246.827 184.142 247.012 183.705 247.323 183.395C247.953 182.773 249.07 182.773 249.7 183.395C250.011 183.705 250.187 184.142 250.187 184.578C250.187 185.024 250.011 185.461 249.7 185.771C249.381 186.082 248.952 186.267 248.507 186.267Z" fill="#A5E1D2"/>
<path fill-rule="evenodd" clip-rule="evenodd" d="M192.113 126.078C191.677 126.078 191.24 125.901 190.921 125.59C190.61 125.271 190.434 124.842 190.434 124.398C190.434 123.953 190.61 123.524 190.921 123.213C191.559 122.584 192.676 122.592 193.298 123.213C193.617 123.524 193.793 123.961 193.793 124.398C193.793 124.842 193.617 125.271 193.298 125.59C192.987 125.901 192.55 126.078 192.113 126.078Z" fill="#A5E1D2"/>
<path fill-rule="evenodd" clip-rule="evenodd" d="M202.84 127.639C202.084 127.102 201.907 126.052 202.445 125.296C202.982 124.54 204.032 124.364 204.788 124.902C205.544 125.439 205.721 126.489 205.183 127.245C204.856 127.706 204.335 127.951 203.814 127.951C203.47 127.951 203.134 127.849 202.84 127.639Z" fill="#A5E1D2"/>
<path fill-rule="evenodd" clip-rule="evenodd" d="M208.912 136.804C208.593 135.93 209.047 134.964 209.92 134.645C210.785 134.334 211.751 134.779 212.07 135.652C212.381 136.526 211.936 137.492 211.063 137.803C210.878 137.879 210.685 137.904 210.491 137.904C209.803 137.904 209.156 137.484 208.912 136.804ZM211.625 148.294C211.491 147.37 212.121 146.522 213.045 146.387C213.96 146.253 214.809 146.883 214.943 147.798C215.077 148.722 214.447 149.571 213.532 149.705C213.448 149.721 213.364 149.721 213.28 149.721C212.465 149.721 211.743 149.125 211.625 148.294ZM212.734 160.238C212.692 159.313 213.406 158.524 214.33 158.473C215.254 158.432 216.043 159.146 216.094 160.078V160.07C216.136 161.002 215.422 161.792 214.498 161.833H214.414C213.523 161.833 212.784 161.137 212.734 160.238ZM214.615 174.004C213.691 173.988 212.944 173.232 212.952 172.308C212.96 171.375 213.716 170.636 214.649 170.636C215.573 170.645 216.32 171.409 216.312 172.332C216.303 173.257 215.556 174.004 214.632 174.004H214.615Z" fill="#A5E1D2"/>
<path fill-rule="evenodd" clip-rule="evenodd" d="M214.271 186.175C213.834 186.175 213.397 185.999 213.086 185.688C212.767 185.369 212.591 184.94 212.591 184.495C212.591 184.05 212.767 183.622 213.086 183.302C213.708 182.681 214.833 182.681 215.455 183.302C215.774 183.622 215.951 184.05 215.951 184.495C215.951 184.94 215.774 185.369 215.455 185.679C215.144 185.999 214.707 186.175 214.271 186.175Z" fill="#A5E1D2"/>
</svg>
