<svg width="972" height="671" viewBox="0 0 972 671" fill="none" xmlns="http://www.w3.org/2000/svg">
<path d="M337.629 292.987C338.749 299.163 340.092 305.277 341.659 311.327C341.829 312.03 342.019 312.722 342.209 313.424H363.999C365.854 313.427 367.634 314.201 368.946 315.577C370.258 316.953 370.996 318.819 370.999 320.765V385.904C371.659 387.194 372.329 388.473 372.998 389.753C376.458 396.359 380.059 402.892 383.739 409.341C443.745 514.155 527.438 601.866 627.428 664.729L621.507 650.72C623.678 650.563 625.857 650.405 628.027 650.248C675.277 646.861 722.687 643.107 768.827 631.971C817.097 620.321 864.316 600.114 902.146 566.611C939.986 533.097 967.726 485.239 971.576 433.459C972.86 415.663 971.143 397.769 966.506 380.598C957.636 347.546 938.256 317.808 910.296 300.212C866.376 272.581 809.086 278.212 762.787 301.198C716.497 324.173 678.817 362.206 642.027 399.578C679.172 332.785 730.889 276.178 792.937 234.401C813.497 220.602 835.316 208.312 852.796 190.433C870.266 172.565 883.156 147.514 880.066 122.127C876.556 93.3321 854.066 71.4791 831.537 54.6279C822.537 47.8959 813.247 41.5099 803.666 35.6376C776.637 19.0277 747.397 6.49682 716.517 1.85148C674.687 -4.45065 629.507 5.11266 597.437 33.9704C561.308 66.4877 546.488 118.929 547.898 169.094C525.638 135.161 491.308 109.187 452.538 108.086C412.288 106.953 374.028 133.62 353.869 170.174C333.718 206.718 330.099 251.515 337.629 292.987Z" fill="#E6E6E6"/>
<path d="M592.285 433.915C568.711 431.738 546.934 429.194 524.09 422.416C501.946 415.845 480.639 404.846 464.875 386.887C447.921 367.57 438.768 342.483 432.311 317.51C428.711 303.586 425.752 289.468 422.961 275.345C419.933 260.022 417.242 244.63 414.888 229.171C410.204 198.4 406.859 167.447 404.855 136.313C404.613 132.534 404.391 128.754 404.189 124.972C404.064 122.639 407.525 122.646 407.649 124.972C409.296 155.661 412.257 186.23 416.534 216.68C420.755 246.597 426.155 276.384 433.007 305.765C438.811 330.655 446.326 355.934 461.212 376.654C475.172 396.083 495.334 408.781 517.104 416.372C539.257 424.097 562.614 427.181 585.763 429.475C588.603 429.756 589.444 430.024 592.286 430.287C594.486 430.49 594.507 434.12 592.286 433.915L592.285 433.915Z" fill="white"/>
<path d="M964.509 383.275C934.765 385.005 905.324 390.445 876.808 399.48C848.28 408.497 820.866 421.01 795.132 436.76C770.267 451.991 747.184 470.216 726.353 491.064C706.135 511.309 688.116 533.838 672.626 558.24C657.064 582.703 644.168 608.918 634.179 636.395C632.961 639.758 631.788 643.139 630.66 646.536C629.93 648.727 626.587 647.784 627.323 645.571C636.669 617.514 648.989 590.646 664.052 565.471C679.112 540.295 696.786 516.946 716.752 495.853C737.037 474.432 759.613 455.54 784.032 439.55C835.303 406.06 893.418 385.801 953.605 380.434C957.236 380.115 960.87 379.853 964.509 379.647C966.734 379.519 966.727 383.148 964.509 383.275L964.509 383.275Z" fill="white"/>
<path d="M802.732 39.8908C783.714 46.2331 765.688 55.47 749.231 67.3059C732.414 79.4825 717.076 93.7653 703.559 109.838C689.314 126.745 676.649 145.047 665.739 164.492C654.167 185.023 644.114 206.455 635.669 228.599C626.973 251.334 619.659 274.623 613.771 298.327C607.786 322.312 603.11 346.635 599.768 371.179C596.443 395.462 594.431 419.923 593.741 444.444C593.046 467.892 593.707 491.363 595.72 514.727C597.562 536.524 600.925 558.151 605.783 579.432C610.098 598.653 616.178 617.391 623.938 635.383C625.736 639.466 627.643 643.493 629.66 647.463C630.707 649.523 627.721 651.358 626.673 649.294C618.097 632.11 611.248 614.036 606.239 595.365C600.618 574.581 596.544 553.37 594.053 531.925C591.292 508.658 589.947 485.23 590.027 461.784C590.077 437.152 591.475 412.544 594.215 388.08C596.956 363.311 601.026 338.723 606.405 314.434C611.771 290.105 618.578 266.151 626.786 242.71C634.697 220.018 644.169 197.958 655.127 176.705C665.565 156.424 677.728 137.173 691.469 119.188C704.518 102.063 719.416 86.5812 735.865 73.0529C751.726 60.0472 769.252 49.4458 787.93 41.5605C792.494 39.6555 797.121 37.9327 801.812 36.3922C803.941 35.6898 804.852 39.1914 802.732 39.8908H802.732Z" fill="white"/>
<path d="M597.498 671C460.808 671 349.999 666.305 349.999 660.514C349.999 654.723 460.808 650.028 597.498 650.028C734.188 650.028 844.997 654.723 844.997 660.514C844.997 666.305 734.188 671 597.498 671Z" fill="#E6E6E6"/>
<path d="M378.83 332.079C378.952 332.645 379.032 333.22 379.069 333.799L422.026 359.785L432.468 353.482L443.599 368.763L421.262 385.457L372.254 344.915C370.255 345.691 368.078 345.81 366.013 345.257C363.948 344.703 362.093 343.504 360.694 341.818C359.295 340.132 358.418 338.04 358.181 335.819C357.944 333.598 358.357 331.354 359.365 329.385C360.374 327.416 361.93 325.816 363.827 324.797C365.724 323.778 367.872 323.389 369.985 323.682C372.098 323.974 374.076 324.934 375.656 326.434C377.236 327.934 378.343 329.903 378.83 332.079V332.079Z" fill="#FFB8B8"/>
<path d="M476.662 348.022L442.838 373.301L427.71 353.412L460.59 325.747C462.004 324.557 463.636 323.682 465.384 323.176C467.132 322.67 468.961 322.544 470.757 322.805C472.554 323.066 474.28 323.709 475.832 324.694C477.383 325.679 478.726 326.986 479.779 328.535V328.535C481.83 331.553 482.653 335.301 482.069 338.955C481.484 342.61 479.539 345.871 476.662 348.022Z" fill="#007272"/>
<path d="M546.483 636.46L534.623 639.718L516.993 593.303L534.496 588.493L546.483 636.46Z" fill="#FFB8B8"/>
<path d="M514.637 657.551L551.909 647.309L548.136 632.209L525.264 638.493C521.445 639.542 518.179 642.14 516.186 645.714C514.193 649.288 513.636 653.546 514.637 657.551V657.551V657.551Z" fill="#2F2E41"/>
<path d="M441.06 645.315L428.991 643.054L431.563 593.164L449.375 596.501L441.06 645.315Z" fill="#FFB8B8"/>
<path d="M403.714 650.446L441.644 657.551L444.262 642.183L420.987 637.824C419.062 637.463 417.089 637.504 415.179 637.943C413.27 638.382 411.461 639.211 409.857 640.384C408.253 641.556 406.885 643.047 405.831 644.774C404.777 646.5 404.058 648.428 403.714 650.446V650.446V650.446Z" fill="#2F2E41"/>
<path d="M464.825 278.414C461.851 279.173 459.432 282.351 457.979 286.032C456.638 289.899 455.731 293.916 455.275 298.002C454.133 305.611 453.036 313.849 455.398 320.897C458.165 329.157 465.54 333.483 471.937 331.45C478.333 329.417 483.421 321.786 485.159 313.001C486.742 304.125 485.722 294.954 482.235 286.697C480.418 282.359 477.913 278.357 474.584 276.4C472.952 275.364 471.006 275.016 469.138 275.424C467.27 275.832 465.619 276.967 464.516 278.6" fill="#2F2E41"/>
<path d="M447.998 416.188L425.021 631.985L443.998 639.542L478.998 494.834L527.726 627.145L548.498 628.355C548.498 628.355 519.998 422.48 498.876 417.801L447.998 416.188Z" fill="#2F2E41"/>
<path d="M467.297 305.954C453.732 305.954 442.736 294.423 442.736 280.199C442.736 265.975 453.732 254.444 467.297 254.444C480.862 254.444 491.858 265.975 491.858 280.199C491.858 294.423 480.862 305.954 467.297 305.954Z" fill="#FFB8B8"/>
<path d="M456.756 316.759L483.298 313.129C483.298 313.129 500.607 334.91 499.453 372.423C498.299 409.935 502.338 421.431 502.338 421.431L446.998 422.48C454.998 410.945 421.537 344.697 456.756 316.759Z" fill="#007272"/>
<path d="M442.498 427.723C443.052 427.727 443.604 427.777 444.15 427.872L478.105 389.969L474.643 377.868L491.376 370.003L501.762 396.624L452.91 437.373C453.172 439.591 452.785 441.84 451.799 443.821C450.813 445.802 449.275 447.422 447.39 448.464C445.504 449.507 443.361 449.923 441.245 449.657C439.129 449.391 437.14 448.455 435.543 446.975C433.946 445.495 432.817 443.54 432.305 441.371C431.794 439.201 431.924 436.92 432.679 434.83C433.434 432.74 434.778 430.94 436.532 429.671C438.286 428.401 440.367 427.722 442.498 427.723V427.723Z" fill="#FFB8B8"/>
<path d="M479.688 331.506L495.415 371.818L473.489 382.709L455.331 342.814C454.55 341.098 454.111 339.232 454.041 337.332C453.972 335.431 454.273 333.536 454.926 331.762C455.58 329.988 456.572 328.372 457.842 327.014C459.111 325.656 460.632 324.584 462.311 323.864V323.864C463.93 323.17 465.664 322.816 467.414 322.824C469.164 322.832 470.895 323.202 472.508 323.911C474.122 324.621 475.587 325.657 476.818 326.96C478.05 328.263 479.025 329.808 479.688 331.506V331.506Z" fill="#007272"/>
<path d="M473.722 303.614C469.873 301.286 469.463 295.67 469.986 291.043C470.509 286.417 471.382 281.259 468.789 277.477C465.694 272.962 459.475 272.872 454.175 272.724C448.874 272.577 442.419 270.95 441.045 265.579C440.138 262.03 442.079 258.222 444.866 255.994C447.652 253.767 451.138 252.782 454.526 251.846C462.105 249.752 469.931 247.641 477.692 248.792C485.379 249.932 492.329 254.199 497.038 260.671C501.747 267.143 503.837 275.299 502.855 283.375C501.599 293.705 499.777 298.215 500.973 302.77C503.2 311.254 512.803 316.703 512.995 325.5C513.144 332.381 507.348 337.69 501.693 341.183C497.208 343.955 492.367 346.306 487.197 346.955C482.028 347.604 476.462 346.362 472.611 342.688C467.645 337.949 466.416 330.032 467.84 323.151C469.265 316.27 472.918 310.159 476.532 304.225" fill="#2F2E41"/>
<path d="M9.00014 311.327H363.999C366.384 311.331 368.671 312.327 370.359 314.096C372.046 315.865 372.995 318.263 372.999 320.765V559.847C372.995 562.349 372.046 564.748 370.359 566.517C368.671 568.286 366.384 569.281 363.999 569.285H9.00014C6.6143 569.281 4.32723 568.286 2.64018 566.517C0.953141 564.748 0.00376956 562.349 0.000180364 559.847V320.765C0.00376956 318.263 0.953141 315.865 2.64018 314.096C4.32723 312.327 6.6143 311.331 9.00014 311.327V311.327ZM2.00017 559.847C2.00223 561.794 2.74035 563.659 4.05265 565.035C5.36496 566.412 7.14427 567.186 9.00014 567.188H363.999C365.854 567.186 367.634 566.412 368.946 565.035C370.258 563.659 370.996 561.794 370.999 559.847V320.765C370.996 318.819 370.258 316.953 368.946 315.577C367.634 314.201 365.854 313.427 363.999 313.424H9.00014C7.14427 313.427 5.36495 314.201 4.05265 315.577C2.74035 316.953 2.00223 318.819 2.00017 320.765V559.847Z" fill="#3F3D56"/>
<path d="M27.4886 492.742H345.487C347.211 492.742 348.865 492.024 350.084 490.745C351.302 489.467 351.987 487.733 351.987 485.926C351.987 484.118 351.302 482.384 350.084 481.106C348.865 479.828 347.211 479.11 345.487 479.11H27.4886C25.7647 479.11 24.1114 479.828 22.8924 481.106C21.6734 482.384 20.9886 484.118 20.9886 485.926C20.9886 487.733 21.6734 489.467 22.8924 490.745C24.1114 492.024 25.7647 492.742 27.4886 492.742V492.742Z" fill="#CCCCCC"/>
<path d="M27.2753 459.711H345.274C346.998 459.711 348.651 458.992 349.87 457.714C351.089 456.436 351.774 454.702 351.774 452.895C351.774 451.087 351.089 449.353 349.87 448.075C348.651 446.797 346.998 446.079 345.274 446.079H27.2753C25.5514 446.079 23.8981 446.797 22.6791 448.075C21.4601 449.353 20.7753 451.087 20.7753 452.895C20.7753 454.702 21.4601 456.436 22.6791 457.714C23.8981 458.992 25.5514 459.711 27.2753 459.711V459.711Z" fill="#CCCCCC"/>
<path d="M298.275 414.61H345.274C346.998 414.61 348.652 413.892 349.871 412.614C351.09 411.336 351.774 409.602 351.774 407.794C351.774 405.987 351.09 404.253 349.871 402.975C348.652 401.696 346.998 400.978 345.274 400.978H298.275C296.551 400.978 294.897 401.696 293.679 402.975C292.46 404.253 291.775 405.987 291.775 407.794C291.775 409.602 292.46 411.336 293.679 412.614C294.897 413.892 296.551 414.61 298.275 414.61V414.61Z" fill="#CCCCCC"/>
<path d="M141.275 381.065H345.274C346.998 381.065 348.652 380.347 349.871 379.069C351.09 377.79 351.774 376.057 351.774 374.249C351.774 372.441 351.09 370.708 349.871 369.429C348.652 368.151 346.998 367.433 345.274 367.433H141.275C139.551 367.433 137.898 368.151 136.679 369.429C135.46 370.708 134.775 372.441 134.775 374.249C134.775 376.057 135.46 377.79 136.679 379.069C137.898 380.347 139.551 381.065 141.275 381.065V381.065Z" fill="#CCCCCC"/>
<path d="M192.275 526.297H345.487C347.211 526.297 348.865 525.579 350.084 524.301C351.302 523.023 351.987 521.289 351.987 519.481C351.987 517.674 351.302 515.94 350.084 514.662C348.865 513.383 347.211 512.665 345.487 512.665H192.275C190.551 512.665 188.897 513.383 187.678 514.662C186.459 515.94 185.775 517.674 185.775 519.481C185.775 521.289 186.459 523.023 187.678 524.301C188.897 525.579 190.551 526.297 192.275 526.297V526.297Z" fill="#CCCCCC"/>
</svg>
