<svg width="250" height="220" viewBox="0 0 250 220" fill="none" xmlns="http://www.w3.org/2000/svg">
<circle cx="128.801" cy="110.045" r="109.541" fill="#CCE8F6"/>
<path d="M150.501 92.8077C150.501 92.8077 140.625 94.2443 137.392 91.3711L139.009 110.227C139.009 110.227 149.783 104.121 150.501 92.8077Z" fill="#E2997D"/>
<path d="M143.857 74.669C143.857 74.669 139.188 92.9858 141.523 112.021L122.847 114.714L103.093 92.2675C110.635 91.5492 116.921 82.0316 114.407 63.7148C114.227 63.7148 125.72 79.338 143.857 74.669Z" fill="#E2997D"/>
<path d="M134.698 88.1367C134.698 88.1367 134.339 93.8832 129.311 94.6015" stroke="#A55A46" stroke-width="0.751" stroke-miterlimit="10" stroke-linecap="round" stroke-linejoin="round"/>
<path d="M73.6785 204.728L74.7199 203.339C73.8221 194.181 75.977 160.327 75.977 160.327C60.5624 187.537 47.0546 172.983 46.174 162.123C45.5548 154.486 46.6577 152.068 48.8314 147.303C50.4401 143.777 52.6353 138.964 55.153 129.799C64.1318 99.5445 74.0016 77.722 106.684 88.9494C118.896 112.653 146.55 107.266 145.293 91.4635C184.47 84.0072 188.039 104.658 196.12 165.714C198.244 181.761 185.008 185.741 179.958 180.892C174.48 175.633 173.385 170.04 172.377 164.893C172.063 163.291 171.758 161.733 171.332 160.241V183.945C170.254 199.03 168.459 204.776 168.459 204.776L168.638 204.956C170.196 206.805 170.751 209.182 170.36 211.429C157.545 216.688 143.512 219.587 128.801 219.587C108.704 219.587 89.8699 214.175 73.6785 204.728Z" fill="#FFC87F"/>
<path fill-rule="evenodd" clip-rule="evenodd" d="M109.26 217.848C106.34 217.322 103.46 216.68 100.625 215.928C104.951 216.147 109.344 216.496 113.838 216.854L113.838 216.854C115.328 216.972 116.828 217.092 118.341 217.207C127.53 217.911 137.207 218.487 147.701 217.961C143.329 218.722 138.867 219.223 134.333 219.448C128.762 219.306 123.416 218.948 118.238 218.552C116.722 218.436 115.221 218.317 113.733 218.199C112.229 218.079 110.738 217.961 109.26 217.848Z" fill="#E2997D"/>
<path d="M148.167 94.2429C147.089 112.919 117.819 116.51 105.069 92.2676" stroke="#E2997D" stroke-width="0.751" stroke-miterlimit="10" stroke-linecap="round" stroke-linejoin="round"/>
<path d="M154.093 20.2578C160.737 29.9549 160.917 50.6061 158.044 66.2293C155.35 81.8524 144.575 89.9333 129.491 87.5988C114.227 85.2643 111.533 72.3349 111.174 54.1977C110.815 36.0605 114.945 15.7684 129.311 16.8458C143.677 17.9233 154.093 20.2578 154.093 20.2578Z" fill="#E2997D"/>
<path d="M112.79 25.6439C111.713 22.9503 111.533 19.8975 112.79 17.2038C114.047 14.5102 116.741 12.5348 119.794 12.1757C123.565 11.637 127.157 12.3553 130.209 14.5102C133.621 10.7391 138.111 8.94331 143.139 7.14755C148.167 5.53137 153.734 5.35179 158.762 7.14755C159.839 7.5067 160.737 8.04545 161.276 8.76375C162.174 10.0208 161.994 11.637 161.276 12.894C160.558 14.151 159.48 15.2285 158.223 16.1264C162.892 16.6651 167.022 20.077 168.1 24.2073C168.459 25.2847 168.459 26.5418 167.92 27.6192C167.561 28.5171 166.663 29.2354 165.765 29.7742C161.276 32.4678 154.811 31.9291 151.04 28.5171C153.375 36.2389 139.009 38.9325 124.283 24.5665L125.361 28.158C126.618 32.1087 125.361 36.4185 122.308 39.2917C119.614 41.9853 115.843 44.8586 111.713 46.1156C111.893 46.2952 109.019 39.2917 112.79 25.6439Z" fill="#002776"/>
<path d="M117.819 38.7539C117.819 38.7539 119.435 50.7855 123.924 59.7643C135.237 57.789 149.065 62.6375 157.864 67.8452C157.684 81.8522 148.347 92.8063 129.671 89.2148C110.815 85.6233 109.738 71.6164 110.995 50.0672L111.893 40.7293L117.819 38.7539Z" fill="#002776"/>
<path d="M113.688 39.4722C113.688 39.4722 113.868 50.0672 114.407 55.4545C105.069 57.0707 100.22 34.0849 113.688 39.4722Z" fill="#E2997D"/>
<path d="M143.498 61.3802C146.371 63.7147 152.656 64.433 154.452 62.2781C154.452 62.2781 154.991 57.0704 150.322 47.7324" stroke="#A55A46" stroke-width="0.751" stroke-miterlimit="10" stroke-linecap="round" stroke-linejoin="round"/>
<path d="M138.29 52.2197C139.727 52.3993 140.984 51.3218 141.163 49.8852L141.882 43.9592C142.061 42.5226 140.984 41.2656 139.547 41.086C138.111 40.9064 136.854 41.9839 136.674 43.4205L136.135 49.3465C135.776 50.7831 136.854 52.0401 138.29 52.2197Z" fill="#005AA4"/>
<path d="M157.325 54.1982C158.762 54.3778 160.019 53.3004 160.198 51.8638L160.917 45.9377C161.096 44.5011 160.019 43.2441 158.582 43.0645C157.146 42.8849 155.889 43.9624 155.709 45.399L155.17 51.325C154.811 52.7616 155.889 54.0187 157.325 54.1982Z" fill="#005AA4"/>
<path d="M143.904 34.6314C141.624 37.2692 136.698 36.8866 133.713 34.6973" stroke="#002776" stroke-width="0.751" stroke-miterlimit="10" stroke-linecap="round" stroke-linejoin="round"/>
<path d="M153.943 36.458C154.945 37.9908 157.21 40.2969 160.644 39.6928" stroke="#002776" stroke-width="0.751" stroke-miterlimit="10" stroke-linecap="round" stroke-linejoin="round"/>
<path d="M134.723 71.025C134.723 71.025 139.834 79.6945 147.361 76.5623" stroke="#DA3D00" stroke-width="1.0023" stroke-miterlimit="10" stroke-linecap="round" stroke-linejoin="round"/>
<path d="M210.568 95.4372L206.201 90.7332L207.668 82.3875L212.92 73.5823L215.397 68.7211L219.364 68.4462L215.981 77.7856L222.159 76.8245C222.159 76.8245 230.24 75.0288 236.214 72.2994L245.482 68.7211L244.606 73.2331C244.606 73.2331 246.423 75.2789 243.708 79.5183C243.708 79.5183 239.328 84.9145 232.595 87.9134L210.568 95.4372Z" fill="#E2997D"/>
<path d="M242.102 75.3446C242.102 75.3446 236.766 80.235 221.82 83.4256" stroke="#A55A46" stroke-width="0.751" stroke-miterlimit="10" stroke-linecap="round" stroke-linejoin="round"/>
<path d="M237.698 74.0744C237.698 74.0744 229.067 78.2225 219.335 80.6834" stroke="#A55A46" stroke-width="0.751" stroke-miterlimit="10" stroke-linecap="round" stroke-linejoin="round"/>
<path d="M215.695 104.129L215.039 97.4733L203.304 92.9839C191.631 101.963 184.448 151.346 184.448 151.346L176.657 165.322C170.104 176.602 181.754 189.057 196.121 180.976C210.486 172.895 219.569 134.89 215.695 104.129Z" fill="#FFC87F"/>
<path d="M208.348 101.11L214.451 101.11L215.486 95.8973L217.791 90.7301L210.8 88.7949L208.348 84.9027L202.967 93.0151L202.853 96.0328L204.201 99.2688L208.348 101.11Z" fill="#E2997D"/>
<path d="M36.9722 93.9642L39.6559 85.3321L52.2191 85.758C60.7973 97.7281 62.2998 143.152 62.2998 143.152L69.2967 157.54C74.7117 169.253 55.9502 182.435 45.3371 168.792C34.1457 150.14 31.6589 129 36.9722 93.9642Z" fill="#FFC87F"/>
<path d="M48.3491 87.6009L52.8732 83.0475L51.6892 74.6569L46.7387 65.6789L44.428 60.7365L40.4725 60.3273L43.5368 69.776L39.6128 68.3523C39.6128 68.3523 31.5025 66.9242 23.5012 63.6075L14.3691 59.4424L12.9526 62.6543C12.9526 62.6543 9.75172 69.2141 13.972 71.1557C13.972 71.1557 19.9622 76.1098 26.5895 79.3352L48.3491 87.6009Z" fill="#E2997D"/>
<path d="M17.8967 66.6255C17.8967 66.6255 23.0637 71.6938 37.8927 75.389" stroke="#A55A46" stroke-width="0.751" stroke-miterlimit="10" stroke-linecap="round" stroke-linejoin="round"/>
<path d="M22.3406 65.5067C22.3406 65.5067 30.8271 69.9448 40.4696 72.734" stroke="#A55A46" stroke-width="0.751" stroke-miterlimit="10" stroke-linecap="round" stroke-linejoin="round"/>
<path d="M47.4241 91.567L40.3632 90.4532L39.6372 85.4944L37.2337 81.8867L44.381 79.7L51.5616 77.7228L52.8954 83.1101L52.8954 86.3904L52.7981 89.2097L47.4241 91.567Z" fill="#E2997D"/>
<path d="M55.2872 93.5831C55.2001 97.5281 44.3197 99.1632 39.1443 94.4688" stroke="#E2997D" stroke-width="0.751" stroke-miterlimit="10" stroke-linecap="round" stroke-linejoin="round"/>
<path d="M60.7918 112.692C63.2561 124.413 64.1539 127.106 64.1539 138.779" stroke="#E2997D" stroke-width="0.751" stroke-miterlimit="10" stroke-linecap="round" stroke-linejoin="round"/>
<path d="M189.986 126.339C188.062 131.594 186.266 136.981 186.266 145.062" stroke="#E2997D" stroke-width="0.751" stroke-miterlimit="10" stroke-linecap="round" stroke-linejoin="round"/>
<path d="M199.553 102.104C198.902 105.992 208.433 109.309 213.979 105.512" stroke="#E2997D" stroke-width="0.751" stroke-miterlimit="10" stroke-linecap="round" stroke-linejoin="round"/>
</svg>
