<svg id="Layer_1" data-name="Layer 1" xmlns="http://www.w3.org/2000/svg" viewBox="0 0 426.01 55.52"><defs><style>.cls-1{isolation:isolate;}.cls-2{fill:#2b66b1;}.cls-3{fill:#253370;}.cls-4{fill:#e41e26;}.cls-5{fill:#ae1f23;}.cls-6{fill:#fff;}.cls-7{fill:none;}</style></defs><title>regnskapslogo</title><g class="cls-1"><path class="cls-2" d="M268,24.9a1.17,1.17,0,0,1,1.32-1.32h7.6a22.53,22.53,0,0,1,3.24.18,8.17,8.17,0,0,1,2,.58,7.41,7.41,0,0,1,3.24,2.8,8.4,8.4,0,0,1,1.2,4.6,8.87,8.87,0,0,1-1.34,4.84,6.86,6.86,0,0,1-3.7,2.92v.08a1,1,0,0,0,.24.32,11,11,0,0,1,.6,1l5.08,9.4a1.1,1.1,0,0,1,.14,1.12,1.09,1.09,0,0,1-1,.44H285a1.57,1.57,0,0,1-1.56-.92l-5.52-10.32h-6V50.5a1.17,1.17,0,0,1-1.32,1.32h-1.28A1.17,1.17,0,0,1,268,50.5Zm9.6,12.24a4.86,4.86,0,0,0,3.68-1.42,5.31,5.31,0,0,0,1.36-3.82,5.35,5.35,0,0,0-.66-2.68,4,4,0,0,0-2-1.72,5.67,5.67,0,0,0-1.28-.36A13.62,13.62,0,0,0,276.6,27h-4.72V37.14Z" transform="translate(-12.18 -11.99)"/><path class="cls-2" d="M290.2,41.7a11.71,11.71,0,0,1,.78-4.36A10,10,0,0,1,293.1,34a9.33,9.33,0,0,1,3.2-2.14,10.65,10.65,0,0,1,4-.76,9.21,9.21,0,0,1,3.72.72,7.69,7.69,0,0,1,2.74,2,9.06,9.06,0,0,1,1.68,3,12.58,12.58,0,0,1,.58,3.88,1.34,1.34,0,0,1-.38,1,1.29,1.29,0,0,1-1,.4H294.16a7.6,7.6,0,0,0,.68,2.92,6.66,6.66,0,0,0,1.56,2.16,6.25,6.25,0,0,0,2.18,1.32,7.36,7.36,0,0,0,2.58.44,7.28,7.28,0,0,0,2.92-.54A9.62,9.62,0,0,0,306,47.34a1.18,1.18,0,0,1,1.8.44l.36.6a1.37,1.37,0,0,1,.22,1,1.26,1.26,0,0,1-.62.78,10.7,10.7,0,0,1-1.12.7,10.48,10.48,0,0,1-1.54.7,12.11,12.11,0,0,1-1.92.54,10.9,10.9,0,0,1-2.26.22,11.11,11.11,0,0,1-4.36-.82,10.14,10.14,0,0,1-3.38-2.24,9.76,9.76,0,0,1-2.2-3.36A11.06,11.06,0,0,1,290.2,41.7Zm15-2.16a5.66,5.66,0,0,0-1.5-4,4.81,4.81,0,0,0-3.42-1.36,5.68,5.68,0,0,0-3.86,1.42,6.58,6.58,0,0,0-2.06,4Z" transform="translate(-12.18 -11.99)"/><path class="cls-2" d="M314.72,56.66A1.19,1.19,0,0,1,316.4,56a18.46,18.46,0,0,0,1.8.58,10.72,10.72,0,0,0,5,0,5.36,5.36,0,0,0,2-1,5,5,0,0,0,1.38-1.76,6.15,6.15,0,0,0,.52-2.64V49a2,2,0,0,1,0-.42c0-.13.05-.26.08-.4h-.08a6.35,6.35,0,0,1-6,3.44,8.74,8.74,0,0,1-3.82-.8,8.33,8.33,0,0,1-2.88-2.18,9.39,9.39,0,0,1-1.8-3.28,13,13,0,0,1-.62-4.14,12.85,12.85,0,0,1,.6-4,9.61,9.61,0,0,1,1.74-3.2,8,8,0,0,1,2.82-2.12,9.42,9.42,0,0,1,3.88-.76,7.29,7.29,0,0,1,5,1.72,5,5,0,0,1,1.28,1.68h.08s0-.08,0-.16a1.69,1.69,0,0,1,0-.48V32.7c0-.74.44-1.12,1.32-1.12h1A1.17,1.17,0,0,1,331,32.9V51a9.45,9.45,0,0,1-.88,4.26,8.47,8.47,0,0,1-2.3,2.86,9,9,0,0,1-3.22,1.62,13.32,13.32,0,0,1-3.64.5,16.48,16.48,0,0,1-3.2-.3,12.1,12.1,0,0,1-2.68-.82,1.18,1.18,0,0,1-.68-1.76Zm7.16-8.44a6.08,6.08,0,0,0,2-.34,4.08,4.08,0,0,0,1.72-1.16,6.06,6.06,0,0,0,1.18-2.14,10.58,10.58,0,0,0,.44-3.28,10.42,10.42,0,0,0-.46-3.32,5.74,5.74,0,0,0-1.22-2.1,4.3,4.3,0,0,0-1.78-1.1,7.25,7.25,0,0,0-2.14-.32,5,5,0,0,0-4.18,1.78A7.44,7.44,0,0,0,316,41a8.21,8.21,0,0,0,1.54,5.24A5.14,5.14,0,0,0,321.88,48.22Z" transform="translate(-12.18 -11.99)"/><path class="cls-2" d="M336.68,32.9A1.17,1.17,0,0,1,338,31.58h1.12a1.17,1.17,0,0,1,1.32,1.32v1.8a4.26,4.26,0,0,1-.08.8,1.37,1.37,0,0,0,0,.36h.08a8.07,8.07,0,0,1,2.48-3,9.53,9.53,0,0,1,2.24-1.22,8.16,8.16,0,0,1,3-.5q3.6,0,5.26,1.94c1.1,1.3,1.66,3.24,1.66,5.82V50.5a1.17,1.17,0,0,1-1.32,1.32h-1.24a1.17,1.17,0,0,1-1.32-1.32V39.74a13.85,13.85,0,0,0-.14-2,4.79,4.79,0,0,0-.54-1.6,3,3,0,0,0-1.16-1.08,4.29,4.29,0,0,0-2-.4,6.41,6.41,0,0,0-2.72.58,6.73,6.73,0,0,0-2.14,1.58,7.13,7.13,0,0,0-1.4,2.38,8.41,8.41,0,0,0-.5,2.94V50.5a1.17,1.17,0,0,1-1.32,1.32H338a1.17,1.17,0,0,1-1.32-1.32Z" transform="translate(-12.18 -11.99)"/><path class="cls-2" d="M359.52,50.1a1,1,0,0,1-.57-.8,1.66,1.66,0,0,1,.29-1l.4-.56a1.27,1.27,0,0,1,.81-.56,2,2,0,0,1,1,.28,16.8,16.8,0,0,0,1.92,1,6.92,6.92,0,0,0,3,.6,4.09,4.09,0,0,0,2.48-.7,2.28,2.28,0,0,0,.95-2,1.94,1.94,0,0,0-.77-1.6,9.44,9.44,0,0,0-1.94-1.1c-.78-.33-1.61-.65-2.5-1a10.88,10.88,0,0,1-2.5-1.2,6.89,6.89,0,0,1-1.94-1.82,4.66,4.66,0,0,1-.78-2.8A5.35,5.35,0,0,1,360,34.4a5.13,5.13,0,0,1,1.58-1.82,7.45,7.45,0,0,1,2.34-1.1,10.38,10.38,0,0,1,2.82-.38,9.47,9.47,0,0,1,3.5.56,17.09,17.09,0,0,1,2.1,1,1.15,1.15,0,0,1,.66.74,1.44,1.44,0,0,1-.23,1l-.35.6a1.19,1.19,0,0,1-1.76.44A14.34,14.34,0,0,0,369,34.7a6.89,6.89,0,0,0-2.46-.4,4.38,4.38,0,0,0-2.42.64,2.13,2.13,0,0,0-1,1.92,2,2,0,0,0,.78,1.62,7.64,7.64,0,0,0,1.93,1.1c.78.32,1.61.64,2.5,1a14,14,0,0,1,2.5,1.18,6.58,6.58,0,0,1,1.95,1.8,4.79,4.79,0,0,1,.78,2.82,5.56,5.56,0,0,1-.52,2.38,5.47,5.47,0,0,1-1.48,1.9,6.83,6.83,0,0,1-2.31,1.24,9.26,9.26,0,0,1-3,.44,11.21,11.21,0,0,1-2.34-.22,10.16,10.16,0,0,1-1.9-.56,10.49,10.49,0,0,1-1.5-.72A7.2,7.2,0,0,1,359.52,50.1Z" transform="translate(-12.18 -11.99)"/><path class="cls-2" d="M377.91,24.9a1.17,1.17,0,0,1,1.33-1.32h1.23a1.15,1.15,0,0,1,1.29,1.32V39h2.92l4.92-6.56a1.7,1.7,0,0,1,1.55-.84h1.48a1.09,1.09,0,0,1,1.05.46,1.11,1.11,0,0,1-.24,1.14l-5.61,7.32v.08l6.49,9.64a1.07,1.07,0,0,1,.17,1.14,1.09,1.09,0,0,1-1.05.46h-1.61a1.65,1.65,0,0,1-1.55-.92l-5.52-8.56h-3V50.5a1.15,1.15,0,0,1-1.29,1.32h-1.23a1.17,1.17,0,0,1-1.33-1.32Z" transform="translate(-12.18 -11.99)"/><path class="cls-2" d="M396.6,46.3a5.6,5.6,0,0,1,.6-2.7,5.75,5.75,0,0,1,1.59-1.9,9.29,9.29,0,0,1,2.26-1.24,14.37,14.37,0,0,1,2.63-.72,25.15,25.15,0,0,1,2.65-.32c.87-.05,1.65-.08,2.35-.08h1v-.52a5.71,5.71,0,0,0-.34-2.1,3.54,3.54,0,0,0-.93-1.38A3.74,3.74,0,0,0,407,34.6a6.69,6.69,0,0,0-1.72-.22,7.8,7.8,0,0,0-2.7.44,14.41,14.41,0,0,0-1.86.84,1.23,1.23,0,0,1-1.8-.48l-.32-.56a1.18,1.18,0,0,1,.44-1.8,19.1,19.1,0,0,1,2.58-1.12,11.78,11.78,0,0,1,4-.6,8.14,8.14,0,0,1,5.89,2A7.9,7.9,0,0,1,413.6,39V50.5a1.17,1.17,0,0,1-1.32,1.32h-1A1.17,1.17,0,0,1,410,50.5V48.78a2.15,2.15,0,0,1,0-.4,3,3,0,0,0,.08-.32H410a7.68,7.68,0,0,1-1.52,2.12,8.34,8.34,0,0,1-2,1.46,6.43,6.43,0,0,1-3.05.66,8.25,8.25,0,0,1-2.56-.4,6.48,6.48,0,0,1-2.18-1.18,6,6,0,0,1-1.5-1.88A5.55,5.55,0,0,1,396.6,46.3Zm3.92-.32a3.23,3.23,0,0,0,.93,2.22,3.67,3.67,0,0,0,2.83,1,4.51,4.51,0,0,0,2.29-.58,5.34,5.34,0,0,0,1.72-1.52A7.1,7.1,0,0,0,409.37,45a6.92,6.92,0,0,0,.38-2.26V41.9h-1c-.72,0-1.54,0-2.48.1a12.45,12.45,0,0,0-2.68.5,5.72,5.72,0,0,0-2.16,1.22A3,3,0,0,0,400.52,46Z" transform="translate(-12.18 -11.99)"/><path class="cls-2" d="M419,32.9a1.17,1.17,0,0,1,1.33-1.32h.92c.87,0,1.31.38,1.31,1.12v1.2a2.68,2.68,0,0,1,0,.42c0,.12,0,.24,0,.34a1.87,1.87,0,0,0,0,.32h.08A6.19,6.19,0,0,1,424,33.06a9.28,9.28,0,0,1,2.1-1.34,7.52,7.52,0,0,1,3.22-.62,8.45,8.45,0,0,1,3.68.78,8.07,8.07,0,0,1,2.8,2.18,9.81,9.81,0,0,1,1.78,3.34,13.91,13.91,0,0,1,.63,4.3,13,13,0,0,1-.69,4.36,9.54,9.54,0,0,1-1.92,3.34,8.56,8.56,0,0,1-2.92,2.14,8.66,8.66,0,0,1-3.64.76,6.76,6.76,0,0,1-2.94-.56,8,8,0,0,1-1.94-1.24,5.75,5.75,0,0,1-1.4-1.8h-.08a4.64,4.64,0,0,0,0,.48c0,.16.05.35.07.56s0,.46,0,.72v8c0,.88-.42,1.32-1.28,1.32h-1.23A1.17,1.17,0,0,1,419,58.5Zm3.76,8.88a9.31,9.31,0,0,0,.38,2.64,7.33,7.33,0,0,0,1.11,2.28A5.59,5.59,0,0,0,426,48.32a4.73,4.73,0,0,0,2.46.62,5.47,5.47,0,0,0,2.27-.48,5.31,5.31,0,0,0,1.85-1.4,6.42,6.42,0,0,0,1.26-2.26,9.28,9.28,0,0,0,.47-3.06,10.31,10.31,0,0,0-.42-3,7,7,0,0,0-1.19-2.28A5.43,5.43,0,0,0,430.86,35a5.29,5.29,0,0,0-2.31-.52,5.77,5.77,0,0,0-2.19.42,5.27,5.27,0,0,0-1.87,1.3,6.27,6.27,0,0,0-1.29,2.26A9.81,9.81,0,0,0,422.71,41.78Z" transform="translate(-12.18 -11.99)"/></g><path class="cls-3" d="M22.47,43.19a33.75,33.75,0,0,1-9.42-1.35.83.83,0,0,1-.57-.78v-.19L13,38.4a.58.58,0,0,1,.64-.49.68.68,0,0,1,.26,0,38,38,0,0,0,8.19,1.23c3.07,0,5.8-.89,5.8-4.07s-2.8-3.56-6.43-4.08c-4-.6-9.25-1.69-9.25-8,0-6.55,4.87-8.27,10.63-8.27A33.62,33.62,0,0,1,31.64,16a.81.81,0,0,1,.68.79V17l-.53,2.43a.64.64,0,0,1-.6.52s-.07,0-.11,0a35,35,0,0,0-7.86-1.13c-2.77,0-5.68.53-5.68,3.67s3.14,3.56,6.47,4c4.38.68,9.35,1.31,9.35,8.27C33.36,41.28,28.05,43.19,22.47,43.19Z" transform="translate(-12.18 -11.99)"/><path class="cls-3" d="M70,42.74a24,24,0,0,1-5.2.52c-4,0-9-.41-9-6.36,0-4.83,3-5.35,6-5.84L68.48,30v-1.2c0-1.05-.11-1.79-1-2.21a7.57,7.57,0,0,0-2.85-.37,26.4,26.4,0,0,0-6.43,1.05c-.12,0-.19,0-.27,0a.38.38,0,0,1-.41-.34L57,24.63v-.15a.6.6,0,0,1,.45-.56,27.21,27.21,0,0,1,8.16-1.27,11.78,11.78,0,0,1,5.65,1c1.9,1,2.28,2.81,2.28,4.83V38.85C73.5,41.65,72.56,42.14,70,42.74Zm-1.54-9.5L63.84,34c-1.53.23-3,.45-3,2.88C60.89,39.78,63.25,40,65,40a10.77,10.77,0,0,0,3.44-.53Z" transform="translate(-12.18 -11.99)"/><path class="cls-3" d="M86.85,26.5a23.87,23.87,0,0,0-5.28.49V42.21a.53.53,0,0,1-.56.57H77.19c-.22,0-.63-.23-.63-.57V26.05c0-1.46.86-1.91,2.65-2.43a25.53,25.53,0,0,1,6.44-.94h.64a1.38,1.38,0,0,1,.78.11.61.61,0,0,1,.34.6v2.44C87.41,26.2,87.37,26.5,86.85,26.5Z" transform="translate(-12.18 -11.99)"/><path class="cls-3" d="M106.43,34.39a.78.78,0,0,1-.78.87H93.11a3.84,3.84,0,0,0,1.5,3.44A6.87,6.87,0,0,0,99,39.82a17.42,17.42,0,0,0,5.24-.9.34.34,0,0,1,.19,0c.22,0,.41.15.52.53l.49,1.91a1.27,1.27,0,0,1,0,.18c0,.3-.19.45-.45.56a18.93,18.93,0,0,1-6.77,1.2c-7.34,0-10.22-2.88-10.22-10.21,0-7,2-10.4,9.24-10.4,3.78,0,6.1,1,7.45,2.76s1.68,4.08,1.68,7.19Zm-5.27-5.57c-.49-2.06-1.61-2.73-3.82-2.73-2.51,0-3.55.75-4,2.62a16.09,16.09,0,0,0-.3,3.36l8.39,0A12.64,12.64,0,0,0,101.16,28.82Z" transform="translate(-12.18 -11.99)"/><path class="cls-3" d="M149,42.74a24,24,0,0,1-5.2.52c-4,0-9-.41-9-6.36,0-4.83,3-5.35,6-5.84L147.47,30v-1.2c0-1.05-.12-1.79-1.05-2.21a7.57,7.57,0,0,0-2.85-.37,26.4,26.4,0,0,0-6.43,1.05c-.11,0-.19,0-.26,0a.38.38,0,0,1-.42-.34l-.52-2.32v-.15a.6.6,0,0,1,.45-.56,27.21,27.21,0,0,1,8.16-1.27,11.78,11.78,0,0,1,5.65,1c1.91,1,2.28,2.81,2.28,4.83V38.85C152.48,41.65,151.54,42.14,149,42.74Zm-1.53-9.5-4.64.74c-1.54.23-3,.45-3,2.88,0,2.92,2.36,3.15,4.15,3.15a10.89,10.89,0,0,0,3.45-.53Z" transform="translate(-12.18 -11.99)"/><path class="cls-3" d="M172.49,42.78h-3.85a.57.57,0,0,1-.6-.57V29c0-2.17-.83-2.92-2.81-2.92a21.85,21.85,0,0,0-4.68.63V42.21a.53.53,0,0,1-.56.57h-3.81a.58.58,0,0,1-.64-.57V26.09c0-1.42.71-1.91,2.81-2.47a31.92,31.92,0,0,1,7.44-1c4.68,0,7.26,1.19,7.26,5.68V42.21A.53.53,0,0,1,172.49,42.78Z" transform="translate(-12.18 -11.99)"/><path class="cls-3" d="M194.19,42.44a.37.37,0,0,1-.38.34h-5a.61.61,0,0,1-.56-.23l-5.8-7.89h-1.27v7.55a.52.52,0,0,1-.56.57h-3.86a.57.57,0,0,1-.6-.57V16.06a.72.72,0,0,1,.64-.79l3.67-.63h.15a.55.55,0,0,1,.56.63v16h1.27l5.91-7.9a.52.52,0,0,1,.49-.26l4.56.11a.35.35,0,0,1,.38.34c0,.08,0,.11-.08.19l-7.07,8.9,7.48,9.58A.3.3,0,0,1,194.19,42.44Z" transform="translate(-12.18 -11.99)"/><path class="cls-3" d="M41.09,39.37" transform="translate(-12.18 -11.99)"/><path class="cls-3" d="M46.06,22.65a24.67,24.67,0,0,0-7.63,1.19c-1.68.53-2.36,1.09-2.36,3V48.38c0,.37.3.68.84.58l3.54-.65a.67.67,0,0,0,.64-.75V42.69a20.39,20.39,0,0,0,4.86.57c7,0,8.27-4.38,8.27-10.29S53.28,22.65,46.06,22.65ZM44.64,39.82a13.91,13.91,0,0,1-3.55-.45V26.76a18.14,18.14,0,0,1,3.93-.6c2.84,0,4.07.64,4.07,6.7C49.09,38.55,48.05,39.82,44.64,39.82Z" transform="translate(-12.18 -11.99)"/><path class="cls-3" d="M122.88,42.78H110.42a.63.63,0,0,1-.64-.6V15.72a.63.63,0,0,1,.64-.6h12.5c6.32,0,8.9,2.48,8.9,7,0,4-2.2,5.38-5.61,6.36,3.78.62,6.55,2.68,6.55,7.09C132.76,40.57,129.24,42.78,122.88,42.78ZM122.39,19h-7.22v8l7-.3c2.84-.12,4.3-1.13,4.3-4C126.43,20.1,125.16,19,122.39,19Zm-.19,11.63-7-.22v8.53h7c3.78,0,5-1.64,5-3.93C127.22,31.93,126.21,30.73,122.2,30.61Z" transform="translate(-12.18 -11.99)"/><path class="cls-3" d="M130.84,64.68h-1.9c-.18,0-.28-.08-.28-.23l-.17-2.81c-.09-1.39-1.16-1.73-2.66-1.78l-2.63-.07v4.64a.26.26,0,0,1-.29.25h-1.86a.25.25,0,0,1-.27-.25V52.53a.27.27,0,0,1,.28-.26h5.68c2.56,0,4.12.92,4.12,3.53,0,1.85-1.3,2.75-2.81,3.11,1.6.26,2.81.76,2.93,3.18l.1,2.32C131.08,64.59,131,64.68,130.84,64.68ZM126.36,54H123.2v4.25l2.7-.12c1.53-.07,2.5-.42,2.5-2C128.4,54.67,127.87,54,126.36,54Z" transform="translate(-12.18 -11.99)"/><path class="cls-3" d="M148.31,64.68h-5.59a.28.28,0,0,0-.29-.28V52.53a.27.27,0,0,0,.27-.26h5.63c2.84,0,4,1.11,4,3.13,0,1.78-1,2.42-2.52,2.85,1.7.28,2.94,1.21,2.94,3.19C152.75,63.69,151.17,64.68,148.31,64.68ZM148.09,54h-3.24v3.59l3.13-.13c1.27-.05,1.93-.51,1.93-1.78S149.34,54,148.09,54ZM148,59.22l-3.16-.1V63H148c1.7,0,2.25-.74,2.25-1.76C150.26,59.81,149.81,59.27,148,59.22Z" transform="translate(-12.18 -11.99)"/><path class="cls-3" d="M112.41,64.87a14.31,14.31,0,0,1-4.23-.61.34.34,0,0,1-.25-.43l.21-1.11c0-.2.21-.24.41-.2a17.55,17.55,0,0,0,3.68.55c1.37,0,2.6-.4,2.6-1.83s-1.26-1.6-2.89-1.83c-1.81-.27-4.15-.76-4.15-3.61s2.19-3.72,4.77-3.72a14.09,14.09,0,0,1,4,.58.36.36,0,0,1,.3.43l-.24,1.09c0,.22-.18.26-.36.22a15.39,15.39,0,0,0-3.48-.5c-1.25,0-2.56.23-2.56,1.64s1.42,1.6,2.91,1.82c2,.3,4.2.59,4.2,3.71C117.3,64,114.91,64.87,112.41,64.87Z" transform="translate(-12.18 -11.99)"/><path class="cls-3" d="M138.79,59.31h-4.51a.33.33,0,0,1-.35-.31V58a.33.33,0,0,1,.35-.3h4.51a.31.31,0,0,1,.33.3v1A.32.32,0,0,1,138.79,59.31Z" transform="translate(-12.18 -11.99)"/><path class="cls-3" d="M167,64.48c0,.14-.09.2-.22.2h-2a.3.3,0,0,1-.31-.23l-1.39-4.4h-4.45l-1.38,4.43a.3.3,0,0,1-.29.2h-2c-.12,0-.22-.06-.22-.18a.39.39,0,0,1,0-.12l4-11.89a.34.34,0,0,1,.3-.22h3.59a.34.34,0,0,1,.3.22l4,11.87A.32.32,0,0,1,167,64.48ZM161.2,54h-.72l-1.35,4.31h3.44Z" transform="translate(-12.18 -11.99)"/><path class="cls-3" d="M180.84,64.68H177a.37.37,0,0,1-.32-.27l-4.13-10.29H172l.15,10.31a.25.25,0,0,1-.28.25H170a.25.25,0,0,1-.27-.25V52.52a.29.29,0,0,1,.29-.25h4a.38.38,0,0,1,.34.23l4.21,10.72h.24l-.1-10.68c0-.22.15-.27.33-.27h1.72c.2,0,.33.07.33.27V64.43A.26.26,0,0,1,180.84,64.68Z" transform="translate(-12.18 -11.99)"/><path class="cls-3" d="M195.42,64.33a.19.19,0,0,1,0,.12.23.23,0,0,1-.18.23h-2.51a.42.42,0,0,1-.3-.13l-4.11-5.21h-.74v5.09a.26.26,0,0,1-.29.25h-1.86a.25.25,0,0,1-.27-.25V52.52a.25.25,0,0,1,.27-.25h1.86a.26.26,0,0,1,.29.25v5h.74l4-5.08a.35.35,0,0,1,.27-.13l2.3,0a.24.24,0,0,1,.2.24.17.17,0,0,1-.05.12l-4.67,5.67Z" transform="translate(-12.18 -11.99)"/><path class="cls-4" d="M228.64,12a27.81,27.81,0,0,0-8.41,1.3c11.17-2.42,22.24,2.18,26.23,11.61,4.61,10.89-2,24.09-14.74,29.49-11.44,4.84-23.93,1.74-29.71-6.81A27.76,27.76,0,1,0,228.64,12Z" transform="translate(-12.18 -11.99)"/><path class="cls-5" d="M231.72,54.39c12.75-5.4,19.35-18.6,14.74-29.49-4-9.43-15.06-14-26.23-11.61A27.75,27.75,0,0,0,202,47.58C207.79,56.13,220.28,59.23,231.72,54.39Z" transform="translate(-12.18 -11.99)"/><path class="cls-6" d="M235.76,52.3V23.79a1,1,0,0,0-1-1h-6.46a2.87,2.87,0,0,0-1.13.25l-8.33,4.29a1,1,0,0,0-.72,1V33a1,1,0,0,0,1,1h5.33V56.41a29.06,29.06,0,0,0,7.3-2A31.4,31.4,0,0,0,235.76,52.3Z" transform="translate(-12.18 -11.99)"/><path class="cls-7" d="M225.44,61h9.29a1,1,0,0,0,1-1V52.3a31.4,31.4,0,0,1-4,2.09,29.06,29.06,0,0,1-7.3,2v3.52A1,1,0,0,0,225.44,61Z" transform="translate(-12.18 -11.99)"/></svg>