<svg id="b6cb1284-5bea-4cfc-92a9-c74e39102089" data-name="SpareBank 1" xmlns="http://www.w3.org/2000/svg" width="99.35mm" height="27.59mm" viewBox="0 0 281.63 78.21"><rect width="281.63" height="78.21" fill="none"/><path d="M27.87,54.83a35.46,35.46,0,0,1-9.95-1.42.86.86,0,0,1-.59-.82v-.2l.52-2.61a.6.6,0,0,1,.67-.51.76.76,0,0,1,.27,0,40.11,40.11,0,0,0,8.64,1.3c3.24,0,6.12-.94,6.12-4.3s-3-3.75-6.79-4.3C22.5,41.38,17,40.24,17,33.53c0-6.91,5.13-8.72,11.2-8.72a35,35,0,0,1,9.31,1.34.83.83,0,0,1,.71.83v.2l-.55,2.56a.66.66,0,0,1-.63.55s-.08,0-.12,0a37.7,37.7,0,0,0-8.28-1.18c-2.92,0-6,.55-6,3.87S26,36.69,29.48,37.2c4.62.71,9.87,1.38,9.87,8.72C39.35,52.82,33.75,54.83,27.87,54.83Z" transform="translate(-0.01 -0.01)" fill="#002776"/><path d="M78,54.36a25.08,25.08,0,0,1-5.49.55c-4.26,0-9.51-.43-9.51-6.7,0-5.09,3.2-5.65,6.36-6.16l7-1.14V39.64c0-1.1-.12-1.89-1.1-2.32a7.83,7.83,0,0,0-3-.4A27.62,27.62,0,0,0,65.49,38c-.12,0-.2,0-.28,0a.39.39,0,0,1-.43-.36l-.55-2.45v-.15a.64.64,0,0,1,.47-.6,29,29,0,0,1,8.6-1.34,12.33,12.33,0,0,1,6,1.11c2,1.1,2.41,3,2.41,5.09V50.26C81.67,53.22,80.68,53.73,78,54.36Zm-1.62-10-4.89.79c-1.62.24-3.12.47-3.12,3,0,3.07,2.49,3.31,4.38,3.31a11.59,11.59,0,0,0,3.63-.55Z" transform="translate(-0.01 -0.01)" fill="#002776"/><path d="M95.74,37.24a25.53,25.53,0,0,0-5.56.51V53.81a.56.56,0,0,1-.59.59h-4c-.23,0-.67-.24-.67-.59V36.76c0-1.53.91-2,2.81-2.56a27,27,0,0,1,6.78-1h.67a1.45,1.45,0,0,1,.83.12.64.64,0,0,1,.36.63v2.57C96.34,36.92,96.3,37.24,95.74,37.24Z" transform="translate(-0.01 -0.01)" fill="#002776"/><path d="M116.4,45.56a.83.83,0,0,1-.83.91H102.35a4,4,0,0,0,1.58,3.63c1,.83,2.52,1.18,4.65,1.18a18.75,18.75,0,0,0,5.53-.94.34.34,0,0,1,.19,0c.24,0,.44.16.56.55l.51,2a1.73,1.73,0,0,1,0,.2c0,.32-.2.47-.47.59a20.27,20.27,0,0,1-7.15,1.26c-7.73,0-10.77-3-10.77-10.77,0-7.42,2-11,9.75-11,4,0,6.43,1,7.85,2.92s1.78,4.3,1.78,7.58Zm-5.57-5.88c-.51-2.17-1.69-2.88-4-2.88-2.65,0-3.75.79-4.18,2.77a16.44,16.44,0,0,0-.32,3.55l8.84,0A13.1,13.1,0,0,0,110.83,39.68Z" transform="translate(-0.01 -0.01)" fill="#002776"/><path d="M161.28,54.36a25,25,0,0,1-5.48.55c-4.27,0-9.51-.43-9.51-6.7,0-5.09,3.19-5.65,6.35-6.16l7-1.14V39.64c0-1.1-.12-1.89-1.1-2.32a7.8,7.8,0,0,0-3-.4A27.8,27.8,0,0,0,148.77,38c-.12,0-.2,0-.27,0a.4.4,0,0,1-.44-.36l-.55-2.45v-.15a.66.66,0,0,1,.47-.6,29,29,0,0,1,8.6-1.34,12.33,12.33,0,0,1,6,1.11c2,1.1,2.41,3,2.41,5.09V50.26C165,53.22,164,53.73,161.28,54.36Zm-1.62-10-4.89.79c-1.62.24-3.12.47-3.12,3,0,3.07,2.49,3.31,4.38,3.31a11.59,11.59,0,0,0,3.63-.55Z" transform="translate(-0.01 -0.01)" fill="#002776"/><path d="M186.05,54.4H182a.59.59,0,0,1-.63-.59V39.88c0-2.29-.86-3.08-3-3.08a22.81,22.81,0,0,0-4.93.67V53.81a.56.56,0,0,1-.59.59h-4a.6.6,0,0,1-.67-.59v-17c0-1.5.74-2,2.95-2.6a34.31,34.31,0,0,1,7.86-1c4.93,0,7.65,1.27,7.65,6V53.81A.56.56,0,0,1,186.05,54.4Z" transform="translate(-0.01 -0.01)" fill="#002776"/><path d="M208.93,54.05a.39.39,0,0,1-.4.35h-5.28a.66.66,0,0,1-.6-.24l-6.11-8.32H195.2v8a.54.54,0,0,1-.59.59h-4.07a.59.59,0,0,1-.63-.59V26.23a.76.76,0,0,1,.67-.83l3.87-.67h.16c.35,0,.59.24.59.67V42.29h1.34L202.77,34a.55.55,0,0,1,.52-.27l4.81.11a.36.36,0,0,1,.39.36.4.4,0,0,1-.07.2L201,43.75l7.89,10.1A.31.31,0,0,1,208.93,54.05Z" transform="translate(-0.01 -0.01)" fill="#002776"/><path d="M47.49,50.81" transform="translate(-0.01 -0.01)" fill="#002776"/><path d="M52.74,33.17a25.84,25.84,0,0,0-8.05,1.27c-1.78.55-2.49,1.14-2.49,3.19V62.05c0,.4.31.72.88.62L46.82,62a.7.7,0,0,0,.67-.79V54.31a22,22,0,0,0,5.13.6c7.34,0,8.72-4.61,8.72-10.85S60.35,33.17,52.74,33.17Zm-1.5,18.11a14.88,14.88,0,0,1-3.75-.47V37.51a19.33,19.33,0,0,1,4.14-.63c3,0,4.31.67,4.31,7.07C55.94,49.94,54.83,51.28,51.24,51.28Z" transform="translate(-0.01 -0.01)" fill="#002776"/><path d="M133.74,54.4H120.6a.66.66,0,0,1-.67-.63V25.87a.66.66,0,0,1,.67-.63h13.18c6.67,0,9.39,2.62,9.39,7.36,0,4.18-2.33,5.68-5.92,6.71,4,.65,6.9,2.82,6.9,7.48C144.15,52.07,140.44,54.4,133.74,54.4Zm-.52-25.09h-7.61v8.44l7.34-.32c3-.11,4.53-1.18,4.53-4.18C137.48,30.49,136.14,29.31,133.22,29.31ZM133,41.58l-7.41-.24v9H133c4,0,5.29-1.74,5.29-4.15C138.31,43,137.25,41.7,133,41.58Z" transform="translate(-0.01 -0.01)" fill="#002776"/><path d="M242.54,11.35a27.86,27.86,0,0,0-8.41,1.3c11.17-2.42,22.24,2.18,26.23,11.6,4.61,10.89-2,24.1-14.74,29.49-11.43,4.84-23.93,1.75-29.71-6.8a27.76,27.76,0,1,0,26.63-35.59Z" transform="translate(-0.01 -0.01)" fill="#e60000"/><path d="M245.62,53.74c12.75-5.39,19.35-18.6,14.74-29.49-4-9.42-15.06-14-26.23-11.6a27.75,27.75,0,0,0-18.22,34.29C221.69,55.49,234.19,58.58,245.62,53.74Z" transform="translate(-0.01 -0.01)" fill="#af0000"/><path d="M249.66,51.66V23.15a1,1,0,0,0-1-1h-6.45a2.93,2.93,0,0,0-1.14.26l-8.32,4.29a1,1,0,0,0-.72,1v4.67a1,1,0,0,0,1,1h5.33V55.77a29.74,29.74,0,0,0,11.34-4.11Z" transform="translate(-0.01 -0.01)" fill="#fff"/><path d="M239.35,60.32h9.28a1,1,0,0,0,1-1V51.66a29.74,29.74,0,0,1-11.34,4.11v3.52A1,1,0,0,0,239.35,60.32Z" transform="translate(-0.01 -0.01)" fill="none"/></svg>